<svg width="70" height="70" viewBox="0 0 70 70" fill="none" xmlns="http://www.w3.org/2000/svg">
<g clip-path="url(#clip0_4_569)">
<path fill-rule="evenodd" clip-rule="evenodd" d="M35.0249 56.9526C22.9141 56.9526 13.0156 47.1187 13.0156 34.9919C13.0156 22.9457 22.8657 13.1118 34.9764 13.1118C47.0225 13.1118 56.8565 22.9457 56.8565 34.9919C56.921 47.1187 47.0871 56.9526 35.0249 56.9526ZM35.0249 15.098C23.996 15.098 15.0664 24.0276 15.0664 34.9919C15.0664 46.0368 23.996 54.9503 35.0249 54.9503C46.0052 54.9503 54.9349 46.0368 54.9349 34.9919C54.9349 24.0276 46.0052 15.098 35.0249 15.098Z" fill="#CFA935"/>
<path fill-rule="evenodd" clip-rule="evenodd" d="M18.1345 36.0254C17.5693 36.0254 17.1172 35.5733 17.1172 34.992C17.1172 25.1581 25.1264 17.1973 35.0249 17.1973C35.5901 17.1973 36.0584 17.6494 36.0584 18.2307C36.0584 18.7959 35.5901 19.248 35.0249 19.248C26.2729 19.248 19.1679 26.353 19.1679 35.0566C19.1033 35.5733 18.7158 36.0254 18.1345 36.0254Z" fill="#CFA935"/>
<path fill-rule="evenodd" clip-rule="evenodd" d="M35.0251 15.0979C34.4599 15.0979 34.0078 14.6457 34.0078 14.129V7.07248C34.0078 6.50731 34.4599 6.05518 35.0251 6.05518C35.5903 6.05518 36.0586 6.50731 36.0586 7.07248V14.0806C35.994 14.6457 35.5418 15.0979 35.0251 15.0979Z" fill="#CFA935"/>
<path fill-rule="evenodd" clip-rule="evenodd" d="M35.0252 8.10604C32.813 8.10604 30.9883 6.28136 30.9883 4.06914C30.9883 1.84076 32.813 0.0322266 35.0252 0.0322266C37.2536 0.0322266 39.0621 1.84076 39.0621 4.06914C39.0137 6.28136 37.2536 8.10604 35.0252 8.10604ZM35.0252 2.01839C33.8949 2.01839 32.9744 2.92265 32.9744 4.06914C32.9744 5.19947 33.8949 6.11989 35.0252 6.11989C36.1717 6.11989 37.0759 5.19947 37.0759 4.06914C37.0113 2.92265 36.1071 2.01839 35.0252 2.01839Z" fill="#CFA935"/>
<path fill-rule="evenodd" clip-rule="evenodd" d="M49.7505 21.234C49.5244 21.234 49.2499 21.121 49.0723 20.9595C48.6686 20.5558 48.6686 19.9261 49.0723 19.5385L54.0135 14.5812C54.4172 14.1936 55.0469 14.1936 55.4345 14.5812C55.8382 14.9849 55.8382 15.6146 55.4345 16.0022L50.4933 20.9595C50.2672 21.121 50.0412 21.234 49.7505 21.234Z" fill="#CFA935"/>
<path fill-rule="evenodd" clip-rule="evenodd" d="M56.855 17.1486C55.8377 17.1486 54.8204 16.7449 54.013 15.9536C52.4306 14.355 52.4306 11.8037 54.013 10.2697C55.6116 8.73563 58.163 8.73563 59.7131 10.2697C61.2472 11.8521 61.2472 14.355 59.7131 15.9536C58.9703 16.7449 57.8885 17.1486 56.855 17.1486ZM56.855 11.1093C56.3544 11.1093 55.7893 11.287 55.3856 11.6907C54.5943 12.4819 54.5943 13.7898 55.3856 14.5811C56.1768 15.3885 57.4848 15.3885 58.2921 14.5811C59.0188 13.7898 59.0188 12.4819 58.2921 11.6907C57.9369 11.287 57.3717 11.1093 56.855 11.1093Z" fill="#CFA935"/>
<path fill-rule="evenodd" clip-rule="evenodd" d="M62.8945 36.0254H55.9026C55.3213 36.0254 54.8691 35.5732 54.8691 34.9919C54.8691 34.4267 55.3213 33.9746 55.9026 33.9746H62.8945C63.4597 33.9746 63.9118 34.4267 63.9118 34.9919C63.9118 35.5732 63.4597 36.0254 62.8945 36.0254Z" fill="#CFA935"/>
<path fill-rule="evenodd" clip-rule="evenodd" d="M65.9627 39.0289C63.7505 39.0289 61.9258 37.2204 61.9258 34.992C61.9258 32.7798 63.7505 30.9551 65.9627 30.9551C68.1749 30.9551 69.9996 32.7798 69.9996 34.992C69.9996 37.2204 68.1749 39.0289 65.9627 39.0289ZM65.9627 32.9574C64.8162 32.9574 63.9119 33.8617 63.9119 34.992C63.9119 36.1385 64.8162 37.0427 65.9627 37.0427C67.093 37.0427 68.0134 36.1385 68.0134 34.992C68.0134 33.9262 67.0446 32.9574 65.9627 32.9574Z" fill="#CFA935"/>
<path fill-rule="evenodd" clip-rule="evenodd" d="M54.7078 55.7578C54.4818 55.7578 54.1911 55.6448 54.0135 55.4672L49.0723 50.526C48.6686 50.1223 48.6686 49.4926 49.0723 49.105C49.476 48.7013 50.0896 48.7013 50.4933 49.105L55.4345 54.0462C55.8382 54.4499 55.8382 55.0796 55.4345 55.4672C55.2084 55.6932 54.9823 55.7578 54.7078 55.7578Z" fill="#CFA935"/>
<path fill-rule="evenodd" clip-rule="evenodd" d="M56.8553 60.9249C55.838 60.9249 54.8207 60.5374 54.0133 59.73C53.2221 58.9388 52.8184 57.9215 52.8184 56.8396C52.8184 55.7577 53.2866 54.7888 54.0133 54.046C55.5473 52.512 58.1148 52.512 59.7134 54.046C61.2474 55.5801 61.2474 58.1475 59.7134 59.6816C58.9706 60.5374 57.8887 60.9249 56.8553 60.9249ZM56.8553 54.9019C56.3547 54.9019 55.838 55.1279 55.4343 55.5316C55.0467 55.9192 54.8691 56.3874 54.8207 56.888C54.8207 57.4532 55.0467 57.9699 55.4343 58.3736C56.2417 59.1648 57.5496 59.1648 58.3409 58.3736C59.0836 57.5662 59.0836 56.2583 58.3409 55.5316C57.9372 55.0795 57.372 54.9019 56.8553 54.9019Z" fill="#CFA935"/>
<path fill-rule="evenodd" clip-rule="evenodd" d="M35.0251 63.9444C34.4599 63.9444 34.0078 63.4923 34.0078 62.9271V55.9836C34.0078 55.4185 34.4599 54.9502 35.0251 54.9502C35.5903 54.9502 36.0586 55.4185 36.0586 55.9836V62.9271C35.994 63.4923 35.5418 63.9444 35.0251 63.9444Z" fill="#CFA935"/>
<path fill-rule="evenodd" clip-rule="evenodd" d="M35.0252 69.9679C32.813 69.9679 30.9883 68.1432 30.9883 65.931C30.9883 63.7187 32.813 61.894 35.0252 61.894C37.2536 61.894 39.0621 63.7187 39.0621 65.931C39.0137 68.1432 37.2536 69.9679 35.0252 69.9679ZM35.0252 63.9448C33.8949 63.9448 32.9744 64.8491 32.9744 65.9955C32.9744 67.1259 33.8949 68.0301 35.0252 68.0301C36.1717 68.0301 37.0759 67.1259 37.0759 65.9955C37.0113 64.8491 36.1071 63.9448 35.0252 63.9448Z" fill="#CFA935"/>
<path fill-rule="evenodd" clip-rule="evenodd" d="M15.2428 55.7578C15.0168 55.7578 14.7261 55.6448 14.5485 55.4672C14.1609 55.0796 14.1609 54.4499 14.5485 54.0462L19.5058 49.105C19.9095 48.7013 20.5231 48.7013 20.9268 49.105C21.3305 49.4926 21.3305 50.1223 20.9268 50.526L15.9856 55.4672C15.7434 55.6932 15.4689 55.7578 15.2428 55.7578Z" fill="#CFA935"/>
<path fill-rule="evenodd" clip-rule="evenodd" d="M13.1287 60.9249C12.063 60.9249 11.0295 60.5373 10.2867 59.73C9.49549 58.9387 9.0918 57.9214 9.0918 56.8395C9.0918 55.7576 9.56008 54.7888 10.2867 54.046C11.0295 53.3032 12.1114 52.8511 13.1287 52.8511C14.2106 52.8511 15.1795 53.3032 15.9222 54.046C16.665 54.7242 17.0526 55.7576 17.1172 56.8395C17.1172 57.9214 16.7135 58.9387 15.9222 59.73C15.244 60.4728 14.2106 60.9249 13.1287 60.9249ZM11.6593 58.309C12.063 58.7127 12.5635 58.8741 13.1287 58.9387C13.6454 58.9387 14.1622 58.7127 14.5013 58.3736C14.9049 57.9699 15.131 57.4532 15.131 56.888C15.131 56.3874 14.9049 55.8707 14.5497 55.5316C14.1622 55.1279 13.71 54.9018 13.1287 54.9018C12.5635 54.9018 12.063 55.1279 11.6593 55.5316C11.2556 55.9191 11.0941 56.3874 11.0295 56.888C11.0941 57.4047 11.2556 57.9699 11.6593 58.309Z" fill="#CFA935"/>
<path fill-rule="evenodd" clip-rule="evenodd" d="M14.0487 36.0254H7.10519C6.54002 36.0254 6.08789 35.5732 6.08789 34.9919C6.08789 34.4267 6.54002 33.9746 7.10519 33.9746H14.0487C14.6138 33.9746 15.066 34.4267 15.066 34.9919C15.066 35.5732 14.6138 36.0254 14.0487 36.0254Z" fill="#CFA935"/>
<path fill-rule="evenodd" clip-rule="evenodd" d="M4.03691 39.0289C1.82468 39.0289 0 37.2204 0 34.992C0 32.7798 1.82468 30.9551 4.03691 30.9551C6.24914 30.9551 8.07382 32.7798 8.07382 34.992C8.07382 37.2204 6.24914 39.0289 4.03691 39.0289ZM4.03691 32.9574C2.90657 32.9574 1.98616 33.8617 1.98616 34.992C1.98616 36.1385 2.90657 37.0427 4.03691 37.0427C5.16724 37.0427 6.08766 36.1385 6.08766 34.992C6.08766 33.9262 5.16724 32.9574 4.03691 32.9574Z" fill="#CFA935"/>
<path fill-rule="evenodd" clip-rule="evenodd" d="M20.184 21.234C19.9579 21.234 19.6673 21.121 19.5058 20.9595L14.5485 16.0022C14.1609 15.6146 14.1609 14.9849 14.5485 14.5812C14.9522 14.1936 15.5819 14.1936 15.9856 14.5812L20.9268 19.5385C21.3305 19.9261 21.3305 20.5558 20.9268 20.9595C20.7007 21.121 20.4101 21.234 20.184 21.234Z" fill="#CFA935"/>
<path fill-rule="evenodd" clip-rule="evenodd" d="M13.1284 17.1486C12.0627 17.1486 11.0293 16.7449 10.2865 15.9536C8.70399 14.355 8.70399 11.8037 10.2865 10.2697C11.8851 8.73563 14.388 8.73563 15.922 10.2697C17.5206 11.8521 17.5206 14.4196 15.922 15.9536C15.2438 16.7449 14.2103 17.1486 13.1284 17.1486ZM11.659 11.6907C10.8678 12.4819 10.8678 13.7898 11.659 14.5811C12.0627 14.9848 12.5633 15.2108 13.1284 15.2108C13.6452 15.2108 14.1619 14.9848 14.501 14.6457C15.2922 13.8383 15.2922 12.5303 14.501 11.7391C13.7582 10.9479 12.4502 10.9479 11.659 11.6907Z" fill="#CFA935"/>
<path fill-rule="evenodd" clip-rule="evenodd" d="M37.0103 45.3423C36.6227 45.3423 36.2191 45.0678 36.0576 44.6641L29.7439 26.0136C29.5662 25.4969 29.8569 24.9317 30.3575 24.7702C30.8742 24.5926 31.4394 24.8833 31.617 25.3838L37.9307 44.0343C38.0922 44.5511 37.8177 45.1162 37.3009 45.2939C37.2525 45.3423 37.1395 45.3423 37.0103 45.3423Z" fill="#CFA935"/>
<path fill-rule="evenodd" clip-rule="evenodd" d="M24.3353 45.3423C24.2223 45.3423 24.1093 45.3423 23.9962 45.2939C23.4795 45.1162 23.205 44.5511 23.3665 44.0343L29.7448 25.3838C29.9063 24.8833 30.4876 24.5926 30.9882 24.7702C31.5049 24.9317 31.7955 25.4969 31.6179 26.0136L25.3042 44.6641C25.1266 45.0678 24.7875 45.3423 24.3353 45.3423Z" fill="#CFA935"/>
<path fill-rule="evenodd" clip-rule="evenodd" d="M34.3953 37.6074H27.0159C26.4346 37.6074 25.9824 37.1552 25.9824 36.5901C25.9824 36.0249 26.4346 35.5728 27.0159 35.5728H34.3953C34.9767 35.5728 35.4288 36.0249 35.4288 36.5901C35.4288 37.1552 34.9121 37.6074 34.3953 37.6074Z" fill="#CFA935"/>
<path fill-rule="evenodd" clip-rule="evenodd" d="M43.0993 45.3426C42.5342 45.3426 42.082 44.8905 42.082 44.3253V25.7878C42.082 25.2226 42.5342 24.7705 43.0993 24.7705C43.6645 24.7705 44.1328 25.2226 44.1328 25.7878V44.3737C44.1328 44.8905 43.6645 45.3426 43.0993 45.3426Z" fill="#CFA935"/>
<path fill-rule="evenodd" clip-rule="evenodd" d="M45.6013 26.7568H40.5471C39.982 26.7568 39.5137 26.3047 39.5137 25.7234C39.5137 25.1582 39.982 24.7061 40.5471 24.7061H45.6013C46.1665 24.7061 46.6348 25.1582 46.6348 25.7234C46.6348 26.3047 46.1665 26.7568 45.6013 26.7568Z" fill="#CFA935"/>
<path fill-rule="evenodd" clip-rule="evenodd" d="M45.6013 45.3427H40.5471C39.982 45.3427 39.5137 44.8906 39.5137 44.3254C39.5137 43.7602 39.982 43.3081 40.5471 43.3081H45.6013C46.1665 43.3081 46.6348 43.7602 46.6348 44.3254C46.6348 44.8906 46.1665 45.3427 45.6013 45.3427Z" fill="#CFA935"/>
</g>
<defs>
<clipPath id="clip0_4_569">
<rect width="70" height="70" fill="white"/>
</clipPath>
</defs>
</svg>
