<svg width="40" height="40" viewBox="0 0 40 40" fill="none" xmlns="http://www.w3.org/2000/svg">
<g clip-path="url(#clip0_1_4574)">
<path fill-rule="evenodd" clip-rule="evenodd" d="M20.0142 32.5446C13.0938 32.5446 7.4375 26.9252 7.4375 19.9956C7.4375 13.1121 13.0661 7.49268 19.9865 7.49268C26.87 7.49268 32.4894 13.1121 32.4894 19.9956C32.5263 26.9252 26.9069 32.5446 20.0142 32.5446ZM20.0142 8.62762C13.712 8.62762 8.60936 13.7303 8.60936 19.9956C8.60936 26.307 13.712 31.4004 20.0142 31.4004C26.2887 31.4004 31.3914 26.307 31.3914 19.9956C31.3914 13.7303 26.2887 8.62762 20.0142 8.62762Z" fill="#CFA935"/>
<path fill-rule="evenodd" clip-rule="evenodd" d="M10.3626 20.5861C10.0396 20.5861 9.78125 20.3277 9.78125 19.9955C9.78125 14.3762 14.358 9.82715 20.0142 9.82715C20.3372 9.82715 20.6048 10.0855 20.6048 10.4177C20.6048 10.7406 20.3372 10.999 20.0142 10.999C15.0131 10.999 10.9531 15.059 10.9531 20.0325C10.9162 20.3277 10.6947 20.5861 10.3626 20.5861Z" fill="#CFA935"/>
<path fill-rule="evenodd" clip-rule="evenodd" d="M20.013 8.62745C19.69 8.62745 19.4316 8.36909 19.4316 8.07382V4.04152C19.4316 3.71857 19.69 3.46021 20.013 3.46021C20.3359 3.46021 20.6035 3.71857 20.6035 4.04152V8.04613C20.5666 8.36909 20.3082 8.62745 20.013 8.62745Z" fill="#CFA935"/>
<path fill-rule="evenodd" clip-rule="evenodd" d="M20.0138 4.63216C18.7497 4.63216 17.707 3.58949 17.707 2.32536C17.707 1.052 18.7497 0.0185547 20.0138 0.0185547C21.2872 0.0185547 22.3206 1.052 22.3206 2.32536C22.293 3.58949 21.2872 4.63216 20.0138 4.63216ZM20.0138 1.1535C19.3679 1.1535 18.842 1.67023 18.842 2.32536C18.842 2.97127 19.3679 3.49722 20.0138 3.49722C20.669 3.49722 21.1857 2.97127 21.1857 2.32536C21.1488 1.67023 20.6321 1.1535 20.0138 1.1535Z" fill="#CFA935"/>
<path fill-rule="evenodd" clip-rule="evenodd" d="M28.4297 12.134C28.3005 12.134 28.1437 12.0694 28.0422 11.9771C27.8115 11.7464 27.8115 11.3866 28.0422 11.1651L30.8657 8.33235C31.0964 8.1109 31.4562 8.1109 31.6777 8.33235C31.9084 8.56303 31.9084 8.92289 31.6777 9.14435L28.8541 11.9771C28.725 12.0694 28.5958 12.134 28.4297 12.134Z" fill="#CFA935"/>
<path fill-rule="evenodd" clip-rule="evenodd" d="M32.4897 9.79942C31.9084 9.79942 31.3271 9.56874 30.8657 9.1166C29.9614 8.20311 29.9614 6.74521 30.8657 5.86862C31.7792 4.99204 33.2371 4.99204 34.1229 5.86862C34.9995 6.77289 34.9995 8.20311 34.1229 9.1166C33.6985 9.56874 33.0802 9.79942 32.4897 9.79942ZM32.4897 6.34844C32.2036 6.34844 31.8807 6.44994 31.65 6.68062C31.1979 7.13275 31.1979 7.88016 31.65 8.33229C32.1021 8.79365 32.8496 8.79365 33.3109 8.33229C33.7261 7.88016 33.7261 7.13275 33.3109 6.68062C33.1079 6.44994 32.785 6.34844 32.4897 6.34844Z" fill="#CFA935"/>
<path fill-rule="evenodd" clip-rule="evenodd" d="M35.9394 20.5859H31.9441C31.6119 20.5859 31.3535 20.3276 31.3535 19.9954C31.3535 19.6724 31.6119 19.4141 31.9441 19.4141H35.9394C36.2624 19.4141 36.5208 19.6724 36.5208 19.9954C36.5208 20.3276 36.2624 20.5859 35.9394 20.5859Z" fill="#CFA935"/>
<path fill-rule="evenodd" clip-rule="evenodd" d="M37.6935 22.3023C36.4294 22.3023 35.3867 21.2689 35.3867 19.9955C35.3867 18.7314 36.4294 17.6887 37.6935 17.6887C38.9577 17.6887 40.0003 18.7314 40.0003 19.9955C40.0003 21.2689 38.9577 22.3023 37.6935 22.3023ZM37.6935 18.8329C37.0384 18.8329 36.5217 19.3496 36.5217 19.9955C36.5217 20.6507 37.0384 21.1674 37.6935 21.1674C38.3394 21.1674 38.8654 20.6507 38.8654 19.9955C38.8654 19.3865 38.3117 18.8329 37.6935 18.8329Z" fill="#CFA935"/>
<path fill-rule="evenodd" clip-rule="evenodd" d="M31.2625 31.8616C31.1333 31.8616 30.9672 31.797 30.8657 31.6955L28.0422 28.872C27.8115 28.6413 27.8115 28.2814 28.0422 28.06C28.2728 27.8293 28.6235 27.8293 28.8541 28.06L31.6777 30.8835C31.9084 31.1142 31.9084 31.474 31.6777 31.6955C31.5485 31.8247 31.4193 31.8616 31.2625 31.8616Z" fill="#CFA935"/>
<path fill-rule="evenodd" clip-rule="evenodd" d="M32.4884 34.8143C31.9071 34.8143 31.3258 34.5929 30.8645 34.1315C30.4123 33.6794 30.1816 33.098 30.1816 32.4798C30.1816 31.8616 30.4492 31.308 30.8645 30.8835C31.741 30.0069 33.2082 30.0069 34.1217 30.8835C34.9983 31.7601 34.9983 33.2272 34.1217 34.1038C33.6972 34.5929 33.079 34.8143 32.4884 34.8143ZM32.4884 31.3726C32.2024 31.3726 31.9071 31.5017 31.6765 31.7324C31.455 31.9539 31.3535 32.2215 31.3258 32.5075C31.3258 32.8305 31.455 33.1257 31.6765 33.3564C32.1378 33.8085 32.8852 33.8085 33.3374 33.3564C33.7618 32.895 33.7618 32.1476 33.3374 31.7324C33.1067 31.4741 32.7837 31.3726 32.4884 31.3726Z" fill="#CFA935"/>
<path fill-rule="evenodd" clip-rule="evenodd" d="M20.013 36.54C19.69 36.54 19.4316 36.2816 19.4316 35.9586V31.9909C19.4316 31.668 19.69 31.4004 20.013 31.4004C20.3359 31.4004 20.6035 31.668 20.6035 31.9909V35.9586C20.5666 36.2816 20.3082 36.54 20.013 36.54Z" fill="#CFA935"/>
<path fill-rule="evenodd" clip-rule="evenodd" d="M20.0138 39.9815C18.7497 39.9815 17.707 38.9389 17.707 37.6747C17.707 36.4106 18.7497 35.3679 20.0138 35.3679C21.2872 35.3679 22.3206 36.4106 22.3206 37.6747C22.293 38.9389 21.2872 39.9815 20.0138 39.9815ZM20.0138 36.5398C19.3679 36.5398 18.842 37.0565 18.842 37.7116C18.842 38.3575 19.3679 38.8743 20.0138 38.8743C20.669 38.8743 21.1857 38.3575 21.1857 37.7116C21.1488 37.0565 20.6321 36.5398 20.0138 36.5398Z" fill="#CFA935"/>
<path fill-rule="evenodd" clip-rule="evenodd" d="M8.7113 31.8616C8.58212 31.8616 8.41603 31.797 8.31453 31.6955C8.09307 31.474 8.09307 31.1142 8.31453 30.8835L11.1473 28.06C11.378 27.8293 11.7286 27.8293 11.9593 28.06C12.19 28.2814 12.19 28.6413 11.9593 28.872L9.13575 31.6955C8.99734 31.8247 8.84048 31.8616 8.7113 31.8616Z" fill="#CFA935"/>
<path fill-rule="evenodd" clip-rule="evenodd" d="M7.50212 34.8143C6.89312 34.8143 6.30258 34.5928 5.87813 34.1315C5.42599 33.6793 5.19531 33.098 5.19531 32.4798C5.19531 31.8616 5.4629 31.308 5.87813 30.8835C6.30258 30.459 6.9208 30.2007 7.50212 30.2007C8.12034 30.2007 8.67397 30.459 9.09843 30.8835C9.52288 31.271 9.74433 31.8616 9.78124 32.4798C9.78124 33.098 9.55056 33.6793 9.09843 34.1315C8.71088 34.5559 8.12034 34.8143 7.50212 34.8143ZM6.66244 33.3195C6.89312 33.5502 7.17917 33.6424 7.50212 33.6793C7.79739 33.6793 8.09266 33.5502 8.28643 33.3564C8.51711 33.1257 8.64629 32.8304 8.64629 32.5075C8.64629 32.2214 8.51711 31.9262 8.31411 31.7324C8.09266 31.5017 7.8343 31.3725 7.50212 31.3725C7.17917 31.3725 6.89312 31.5017 6.66244 31.7324C6.43176 31.9539 6.33949 32.2214 6.30258 32.5075C6.33949 32.8028 6.43176 33.1257 6.66244 33.3195Z" fill="#CFA935"/>
<path fill-rule="evenodd" clip-rule="evenodd" d="M8.02753 20.5859H4.05983C3.73688 20.5859 3.47852 20.3276 3.47852 19.9954C3.47852 19.6724 3.73688 19.4141 4.05983 19.4141H8.02753C8.35049 19.4141 8.60885 19.6724 8.60885 19.9954C8.60885 20.3276 8.35049 20.5859 8.02753 20.5859Z" fill="#CFA935"/>
<path fill-rule="evenodd" clip-rule="evenodd" d="M2.30681 22.3023C1.04268 22.3023 0 21.2689 0 19.9955C0 18.7314 1.04268 17.6887 2.30681 17.6887C3.57093 17.6887 4.61361 18.7314 4.61361 19.9955C4.61361 21.2689 3.57093 22.3023 2.30681 22.3023ZM2.30681 18.8329C1.6609 18.8329 1.13495 19.3496 1.13495 19.9955C1.13495 20.6507 1.6609 21.1674 2.30681 21.1674C2.95271 21.1674 3.47866 20.6507 3.47866 19.9955C3.47866 19.3865 2.95271 18.8329 2.30681 18.8329Z" fill="#CFA935"/>
<path fill-rule="evenodd" clip-rule="evenodd" d="M11.5348 12.134C11.4056 12.134 11.2396 12.0694 11.1473 11.9771L8.31453 9.14435C8.09307 8.92289 8.09307 8.56303 8.31453 8.33235C8.54521 8.1109 8.90507 8.1109 9.13575 8.33235L11.9593 11.1651C12.19 11.3866 12.19 11.7464 11.9593 11.9771C11.8301 12.0694 11.664 12.134 11.5348 12.134Z" fill="#CFA935"/>
<path fill-rule="evenodd" clip-rule="evenodd" d="M7.50141 9.79942C6.89241 9.79942 6.30187 9.56874 5.87742 9.1166C4.97315 8.20311 4.97315 6.74521 5.87742 5.86862C6.79091 4.99204 8.22113 4.99204 9.09772 5.86862C10.0112 6.77289 10.0112 8.24002 9.09772 9.1166C8.71018 9.56874 8.11963 9.79942 7.50141 9.79942ZM6.66173 6.68062C6.2096 7.13275 6.2096 7.88016 6.66173 8.33229C6.89241 8.56297 7.17846 8.69215 7.50141 8.69215C7.79668 8.69215 8.09195 8.56297 8.28572 8.3692C8.73786 7.90784 8.73786 7.16043 8.28572 6.7083C7.86127 6.25616 7.11387 6.25616 6.66173 6.68062Z" fill="#CFA935"/>
<path fill-rule="evenodd" clip-rule="evenodd" d="M21.149 25.9102C20.9276 25.9102 20.6969 25.7533 20.6046 25.5227L16.9968 14.8652C16.8953 14.57 17.0614 14.247 17.3474 14.1547C17.6427 14.0532 17.9656 14.2193 18.0671 14.5054L21.675 25.1628C21.7672 25.4581 21.6104 25.781 21.3151 25.8825C21.2874 25.9102 21.2228 25.9102 21.149 25.9102Z" fill="#CFA935"/>
<path fill-rule="evenodd" clip-rule="evenodd" d="M13.9062 25.9102C13.8416 25.9102 13.777 25.9102 13.7124 25.8825C13.4171 25.781 13.2603 25.4581 13.3526 25.1628L16.9973 14.5054C17.0896 14.2193 17.4218 14.0532 17.7078 14.1547C18.0031 14.247 18.1692 14.57 18.0677 14.8652L14.4598 25.5227C14.3583 25.7533 14.1645 25.9102 13.9062 25.9102Z" fill="#CFA935"/>
<path fill-rule="evenodd" clip-rule="evenodd" d="M19.655 21.4903H15.4382C15.106 21.4903 14.8477 21.2319 14.8477 20.909C14.8477 20.586 15.106 20.3276 15.4382 20.3276H19.655C19.9872 20.3276 20.2456 20.586 20.2456 20.909C20.2456 21.2319 19.9503 21.4903 19.655 21.4903Z" fill="#CFA935"/>
<path fill-rule="evenodd" clip-rule="evenodd" d="M24.6262 25.91C24.3033 25.91 24.0449 25.6517 24.0449 25.3287V14.7359C24.0449 14.4129 24.3033 14.1545 24.6262 14.1545C24.9492 14.1545 25.2168 14.4129 25.2168 14.7359V25.3564C25.2168 25.6517 24.9492 25.91 24.6262 25.91Z" fill="#CFA935"/>
<path fill-rule="evenodd" clip-rule="evenodd" d="M26.0568 15.2895H23.1687C22.8457 15.2895 22.5781 15.0312 22.5781 14.699C22.5781 14.376 22.8457 14.1177 23.1687 14.1177H26.0568C26.3797 14.1177 26.6473 14.376 26.6473 14.699C26.6473 15.0312 26.3797 15.2895 26.0568 15.2895Z" fill="#CFA935"/>
<path fill-rule="evenodd" clip-rule="evenodd" d="M26.0568 25.9099H23.1687C22.8457 25.9099 22.5781 25.6516 22.5781 25.3286C22.5781 25.0057 22.8457 24.7473 23.1687 24.7473H26.0568C26.3797 24.7473 26.6473 25.0057 26.6473 25.3286C26.6473 25.6516 26.3797 25.9099 26.0568 25.9099Z" fill="#CFA935"/>
</g>
<defs>
<clipPath id="clip0_1_4574">
<rect width="40" height="40" fill="white"/>
</clipPath>
</defs>
</svg>
