<svg width="40" height="40" viewBox="0 0 40 40" fill="none" xmlns="http://www.w3.org/2000/svg">
<g clip-path="url(#clip0_1_4495)">
<path fill-rule="evenodd" clip-rule="evenodd" d="M17.5868 26.6758C16.8394 26.6758 16.2211 26.2145 15.9628 25.5962C15.566 25.6608 15.1785 25.5962 14.8186 25.4302C14.4311 25.2364 14.1081 24.8857 13.942 24.4244C13.8774 24.1937 13.8405 23.9723 13.8405 23.7416C13.4899 23.6493 13.1577 23.4186 12.9362 23.0957C12.641 22.6989 12.5395 22.2099 12.6041 21.7577C12.641 21.527 12.7332 21.3333 12.8347 21.1395C12.5395 20.8442 12.3457 20.4567 12.3457 20.0322C12.3457 19.6078 12.5395 19.2202 12.8347 18.925C12.4749 18.3436 12.4749 17.587 12.8993 17.0057C13.1577 16.6827 13.4899 16.4521 13.8405 16.3506C13.7759 15.6678 14.1358 14.9849 14.7909 14.662C15.1416 14.4959 15.566 14.4313 15.9259 14.4959C16.1842 13.85 16.8025 13.4255 17.5591 13.4255C18.0389 13.4255 18.5003 13.6193 18.8232 13.9792C19.1462 14.339 19.3492 14.7912 19.3123 15.2802V24.9503C19.3492 25.4025 19.1462 25.8546 18.8232 26.2145C18.5003 26.4728 18.0389 26.6758 17.5868 26.6758ZM16.3872 24.1937C16.4518 24.1937 16.5441 24.2306 16.6087 24.2675C16.8025 24.3598 16.9316 24.5536 16.9316 24.7842V24.9134C16.9316 25.2733 17.1992 25.5317 17.5499 25.5317C17.7159 25.5317 17.882 25.4671 18.0112 25.3379C18.1404 25.2087 18.205 25.0426 18.205 24.8857V15.1787C18.205 14.9849 18.1404 14.8281 18.0389 14.6989C17.9097 14.5605 17.7529 14.4959 17.5868 14.4959C17.2269 14.4959 16.9685 14.7635 16.9685 15.1141V15.2525C16.9685 15.474 16.8394 15.6678 16.6456 15.7693C16.4518 15.8708 16.2211 15.8338 16.0274 15.7047C15.8336 15.5386 15.5383 15.5109 15.3076 15.6401C15.0124 15.8062 14.8832 16.1568 15.0493 16.4521C15.2154 16.6182 15.2431 16.8765 15.1139 17.1072C14.9847 17.3287 14.754 17.4302 14.4956 17.3932C14.2373 17.3287 13.9697 17.4578 13.8128 17.6885C13.6191 17.9469 13.6837 18.3436 13.9697 18.5374C13.9697 18.5374 14.0066 18.5374 14.0066 18.5651C14.0712 18.602 14.1081 18.6297 14.1358 18.6666C14.265 18.7958 14.3296 19.0265 14.3019 19.2202C14.265 19.414 14.1081 19.5801 13.8774 19.6078C13.6191 19.6724 13.4899 19.8385 13.4899 20.0322C13.4899 20.226 13.6467 20.3921 13.9051 20.4567C14.1081 20.5213 14.265 20.6505 14.3019 20.8442C14.3665 21.038 14.3019 21.241 14.1358 21.3979C14.1081 21.4348 14.0712 21.4624 14.0066 21.4994L13.9697 21.527C13.8405 21.6285 13.7482 21.7577 13.7113 21.9238C13.6837 22.0807 13.7113 22.2468 13.8128 22.4129C13.9697 22.6066 14.2004 22.6989 14.4587 22.6343C14.6894 22.6066 14.8832 22.6712 15.0124 22.865C15.1416 23.0311 15.1785 23.2525 15.077 23.4463C15.0493 23.4832 15.0493 23.5478 15.0124 23.5755C14.9201 23.7416 14.9201 23.9077 14.9847 24.0645C15.0493 24.2306 15.1416 24.3321 15.28 24.3967C15.5383 24.5259 15.7967 24.489 15.9628 24.3321C16.1196 24.2306 16.2488 24.1937 16.3872 24.1937ZM14.0712 21.4624L14.0435 21.4994C14.0435 21.4994 14.0435 21.4624 14.0712 21.4624Z" fill="#CFA935"/>
<path fill-rule="evenodd" clip-rule="evenodd" d="M22.4408 26.6759C21.9518 26.6759 21.4904 26.4729 21.1674 26.1499C20.8445 25.7901 20.6507 25.3379 20.6784 24.8489V15.1788C20.6507 14.6989 20.8445 14.2376 21.1674 13.9146C21.4904 13.5548 21.9518 13.3887 22.4408 13.3887C23.1513 13.3887 23.8064 13.85 24.0648 14.4683C24.4247 14.4037 24.8491 14.4313 25.1721 14.6251C25.818 14.9573 26.1778 15.6401 26.1132 16.3229C26.4731 16.4521 26.833 16.6828 27.0544 17.0057C27.4789 17.5594 27.5158 18.3437 27.1559 18.925C27.4512 19.2203 27.645 19.5801 27.645 19.9954C27.645 20.4198 27.4789 20.8166 27.1559 21.1026C27.2851 21.3056 27.3497 21.5271 27.3866 21.7578C27.4512 22.2099 27.3497 22.6989 27.0544 23.0588C26.833 23.3818 26.5008 23.6124 26.1132 23.7139C26.1501 23.9354 26.1132 24.1661 26.021 24.3967C25.8549 24.8489 25.5596 25.1718 25.1351 25.4025C24.7845 25.5963 24.3877 25.6332 24.0279 25.5686C23.8064 26.2145 23.1882 26.6759 22.4408 26.6759ZM22.4408 14.4959C22.2101 14.4959 22.0809 14.5974 21.9794 14.6989C21.8503 14.8281 21.7857 14.985 21.8226 15.1511V24.8489C21.8226 25.0427 21.8872 25.2087 21.9794 25.3379C22.0809 25.4302 22.2101 25.5317 22.4408 25.5317C22.7638 25.5317 23.059 25.2364 23.059 24.9135V24.7843C23.059 24.5536 23.1882 24.3598 23.382 24.2676C23.5757 24.1661 23.8341 24.1937 24.0002 24.3598C24.194 24.5259 24.4247 24.5536 24.6461 24.4244H24.683C24.8122 24.3598 24.9137 24.2307 24.9783 24.1015C25.0429 23.9354 25.006 23.7785 24.9414 23.6124C24.9137 23.5755 24.9137 23.5478 24.9137 23.5109C24.8122 23.3172 24.8491 23.0957 24.9783 22.8927C25.1075 22.6989 25.3289 22.6343 25.5319 22.6989C25.7534 22.7635 26.021 22.6713 26.1778 22.4775C26.2793 22.3391 26.307 22.1822 26.307 22.0161C26.2793 21.85 26.2147 21.7209 26.0856 21.6286C26.0486 21.6286 26.0486 21.5917 26.021 21.5917C25.818 21.4994 25.6888 21.2687 25.6888 21.038C25.7257 20.8166 25.8826 20.6136 26.1132 20.549C26.4362 20.4567 26.5377 20.263 26.5377 20.1338C26.5377 19.9308 26.3716 19.7739 26.1132 19.7093C25.8826 19.6447 25.7257 19.4417 25.6888 19.2203C25.6611 18.9896 25.7903 18.7589 26.021 18.6297C26.021 18.6297 26.0486 18.6021 26.0856 18.6021C26.3439 18.3714 26.4085 18.0115 26.2147 17.7531C26.0486 17.5225 25.7903 17.4302 25.5596 17.4579C25.3012 17.5225 25.0706 17.3933 24.9414 17.1718C24.8491 16.9688 24.8491 16.7751 24.9783 16.5813C24.9783 16.5536 24.9783 16.5536 25.006 16.5167C25.1721 16.2214 25.0429 15.8339 24.7476 15.6678C24.5538 15.5755 24.2586 15.6032 24.0648 15.7324C23.8987 15.8616 23.6772 15.8985 23.4466 15.797C23.2528 15.7047 23.1236 15.5109 23.1236 15.2803V15.1511C23.0867 14.7912 22.7914 14.4959 22.4408 14.4959Z" fill="#CFA935"/>
<path fill-rule="evenodd" clip-rule="evenodd" d="M19.5435 33.6977C19.3405 33.6977 19.119 33.6331 18.9529 33.4762L6.55153 21.0748C6.39467 20.9087 6.33008 20.715 6.33008 20.4843C6.33008 20.2628 6.42235 20.0691 6.55153 19.903L19.8941 6.56041C20.2263 6.22823 20.7153 6.22823 21.0383 6.56041L33.4396 18.9618C33.7626 19.2848 33.7626 19.7738 33.4396 20.0967L20.0971 33.4393C19.9587 33.6054 19.7372 33.6977 19.5435 33.6977ZM7.59421 20.4843L19.5435 32.4335L32.397 19.5431L20.4846 7.63077L7.59421 20.4843Z" fill="#CFA935"/>
<path fill-rule="evenodd" clip-rule="evenodd" d="M8.99617 18.8234C8.86699 18.8234 8.7009 18.7588 8.60862 18.6665L3.8566 13.9422C3.62592 13.7207 3.62592 13.3609 3.8566 13.1302C4.07806 12.9087 4.43792 12.9087 4.6686 13.1302L9.38371 17.8545C9.61439 18.076 9.61439 18.4359 9.38371 18.6665C9.29144 18.7957 9.15303 18.8234 8.99617 18.8234Z" fill="#CFA935"/>
<path fill-rule="evenodd" clip-rule="evenodd" d="M2.9436 14.6619C2.28847 14.6619 1.67024 14.4035 1.1812 13.9145C0.729065 13.4623 0.470703 12.8072 0.470703 12.1521C0.470703 11.5061 0.729065 10.8879 1.1812 10.4266C1.64256 9.97443 2.26078 9.71606 2.90669 9.71606C3.56182 9.71606 4.18005 9.97443 4.66909 10.4635C5.12122 10.9156 5.37958 11.5061 5.37958 12.1521C5.37958 12.8072 5.12122 13.4623 4.66909 13.9145C4.20773 14.4035 3.5895 14.6619 2.9436 14.6619ZM2.9436 10.8879C2.58374 10.8879 2.26078 11.0171 2.0301 11.2755C1.77174 11.5061 1.64256 11.8291 1.64256 12.189C1.64256 12.5488 1.77174 12.8718 2.0301 13.1301C2.28847 13.3885 2.62065 13.5269 2.97128 13.5269C3.33114 13.5269 3.62641 13.3885 3.85709 13.1301C4.11545 12.8718 4.24464 12.5119 4.24464 12.189C4.24464 11.8291 4.11545 11.5338 3.85709 11.2755C3.62641 11.0171 3.30346 10.8879 2.9436 10.8879Z" fill="#CFA935"/>
<path fill-rule="evenodd" clip-rule="evenodd" d="M13.6466 14.2372C13.5174 14.2372 13.3513 14.1726 13.259 14.0803L8.50699 9.2914C8.27631 9.06072 8.27631 8.71009 8.50699 8.47941C8.73768 8.24873 9.08831 8.24873 9.31899 8.47941L14.0433 13.2314C14.2648 13.4621 14.2648 13.8127 14.0433 14.0434C13.9418 14.1726 13.7757 14.2372 13.6466 14.2372Z" fill="#CFA935"/>
<path fill-rule="evenodd" clip-rule="evenodd" d="M7.56594 10.0389C6.94771 10.0389 6.29258 9.8082 5.80354 9.32839C4.86236 8.37798 4.86236 6.81858 5.80354 5.8405C6.78162 4.86241 8.34102 4.86241 9.31911 5.8405C10.2603 6.81858 10.2603 8.37798 9.31911 9.32839C8.83007 9.78052 8.18416 10.0389 7.56594 10.0389ZM6.61553 6.62481C6.09881 7.14154 6.09881 7.99044 6.61553 8.47948C7.14149 8.99621 7.98116 8.99621 8.50711 8.47948C9.02384 7.95353 8.99616 7.14154 8.50711 6.5879C7.99039 6.09886 7.14149 6.09886 6.61553 6.62481Z" fill="#CFA935"/>
<path fill-rule="evenodd" clip-rule="evenodd" d="M18.2696 9.58691C18.1404 9.58691 17.9743 9.52232 17.8821 9.42082L13.13 4.70571C12.8994 4.47503 12.8994 4.11517 13.13 3.89371C13.3515 3.66303 13.7114 3.66303 13.942 3.89371L18.6941 8.60882C18.9247 8.8395 18.9247 9.19014 18.6941 9.42082C18.5649 9.52232 18.4357 9.58691 18.2696 9.58691Z" fill="#CFA935"/>
<path fill-rule="evenodd" clip-rule="evenodd" d="M12.1892 5.38848C11.5617 5.38848 10.9158 5.1578 10.4637 4.66876C9.97462 4.21663 9.70703 3.5984 9.70703 2.94327C9.70703 2.29736 9.97462 1.67914 10.4268 1.1901C11.4048 0.239694 12.9642 0.239694 13.9054 1.1901C14.8835 2.16818 14.8835 3.72758 13.9054 4.70567C13.4533 5.1578 12.8351 5.38848 12.1892 5.38848ZM11.2387 2.00209C10.9804 2.26046 10.8512 2.58341 10.8512 2.94327C10.8512 3.30313 11.0173 3.62608 11.2387 3.89367C11.7647 4.37349 12.6044 4.4104 13.0934 3.89367C13.6194 3.36772 13.6194 2.51882 13.0934 2.00209C12.6044 1.48537 11.7924 1.48537 11.2387 2.00209Z" fill="#CFA935"/>
<path fill-rule="evenodd" clip-rule="evenodd" d="M26.4727 36.3366C26.3435 36.3366 26.1775 36.272 26.0852 36.1705L21.3332 31.4277C21.1025 31.1971 21.1025 30.8372 21.3332 30.6065C21.5546 30.3851 21.9145 30.3851 22.1452 30.6065L26.8603 35.3309C27.091 35.5523 27.091 35.9122 26.8603 36.1429C26.768 36.272 26.6388 36.3366 26.4727 36.3366Z" fill="#CFA935"/>
<path fill-rule="evenodd" clip-rule="evenodd" d="M27.8102 39.5568C27.1551 39.5568 26.5369 39.2985 26.0478 38.8463C25.5957 38.385 25.3281 37.7667 25.3281 37.1208C25.3281 36.4657 25.5957 35.8475 26.0848 35.3584C26.5369 34.9063 27.1551 34.6479 27.8102 34.6479H27.8379C28.4931 34.6479 29.1113 34.9063 29.5634 35.3954C30.0156 35.8475 30.2831 36.4657 30.2831 37.1208C30.2831 37.7667 30.0156 38.385 29.5634 38.8463C29.1113 39.2985 28.4931 39.5568 27.8102 39.5568C27.8379 39.5568 27.8379 39.5568 27.8102 39.5568ZM27.8379 35.7552C27.4781 35.7552 27.1551 35.8844 26.8968 36.1428C26.6384 36.4011 26.5 36.7241 26.5 37.0839C26.5 37.4438 26.6384 37.7667 26.8968 37.9974C27.1551 38.2558 27.4781 38.385 27.8379 38.385C28.1978 38.385 28.4931 38.2558 28.7514 37.9974C29.0098 37.7667 29.139 37.4161 29.139 37.0839C29.139 36.7241 29.0098 36.4011 28.7514 36.1704C28.4931 35.9121 28.1609 35.7552 27.8379 35.7552Z" fill="#CFA935"/>
<path fill-rule="evenodd" clip-rule="evenodd" d="M31.1235 31.6861C30.9943 31.6861 30.8374 31.6215 30.7359 31.52L25.9562 26.768C25.7255 26.5373 25.7255 26.1866 25.9562 25.956C26.1777 25.7253 26.5375 25.7253 26.7682 25.956L31.5202 30.708C31.7417 30.9387 31.7417 31.2893 31.5202 31.52C31.4187 31.6215 31.2526 31.6861 31.1235 31.6861Z" fill="#CFA935"/>
<path fill-rule="evenodd" clip-rule="evenodd" d="M32.461 34.9063C31.8428 34.9063 31.1877 34.6756 30.7355 34.1865C29.7574 33.2085 29.7574 31.6491 30.7355 30.671C31.6767 29.7298 33.2453 29.7298 34.2142 30.671C34.7032 31.16 34.9708 31.7782 34.9708 32.4334C34.9708 33.0793 34.7032 33.6975 34.2511 34.1865C33.6975 34.6756 33.0792 34.9063 32.461 34.9063ZM32.461 31.1323C32.1381 31.1323 31.7782 31.2615 31.5475 31.5199C31.0308 32.0458 31.0308 32.8855 31.5475 33.4115C32.0735 33.9282 32.8855 33.9005 33.4022 33.4115C33.6605 33.1439 33.799 32.8209 33.799 32.4611C33.799 32.1104 33.6605 31.7782 33.4022 31.5199C33.1069 31.2615 32.784 31.1323 32.461 31.1323Z" fill="#CFA935"/>
<path fill-rule="evenodd" clip-rule="evenodd" d="M35.7462 27.0633C35.617 27.0633 35.4509 26.9987 35.3586 26.8972L30.6066 22.1452C30.3759 21.9237 30.3759 21.5638 30.6066 21.3332C30.8373 21.1025 31.1879 21.1025 31.4186 21.3332L36.1429 26.0852C36.3644 26.3159 36.3644 26.6757 36.1429 26.8972C36.0045 26.9987 35.8753 27.0633 35.7462 27.0633Z" fill="#CFA935"/>
<path fill-rule="evenodd" clip-rule="evenodd" d="M37.0835 30.2835C36.4653 30.2835 35.8102 30.0528 35.3211 29.5638C34.3799 28.5949 34.3799 27.0263 35.3211 26.0851C36.2992 25.107 37.8586 25.107 38.8367 26.0851C39.7871 27.0263 39.7871 28.5949 38.8367 29.5638C38.3476 30.0528 37.7017 30.2835 37.0835 30.2835ZM37.0835 26.5096C36.7606 26.5096 36.4007 26.6388 36.1423 26.8971C35.6164 27.4231 35.6533 28.2351 36.1423 28.7887C36.6591 29.3054 37.4711 29.3054 38.0247 28.7887C38.5506 28.2628 38.5506 27.4231 38.0247 26.934C37.7663 26.6388 37.4065 26.5096 37.0835 26.5096Z" fill="#CFA935"/>
<path fill-rule="evenodd" clip-rule="evenodd" d="M22.2109 9.12558C22.0818 9.12558 21.9157 9.06099 21.8234 8.96871C21.5927 8.73803 21.5927 8.37817 21.8234 8.15672L26.5385 3.4047C26.7692 3.17402 27.1198 3.17402 27.3505 3.4047C27.5812 3.62615 27.5812 3.98601 27.3505 4.2167L22.6354 8.96871C22.5062 9.06099 22.377 9.12558 22.2109 9.12558Z" fill="#CFA935"/>
<path fill-rule="evenodd" clip-rule="evenodd" d="M28.2913 4.92724C27.673 4.92724 27.0548 4.70578 26.575 4.21674C26.0859 3.7277 25.8184 3.10947 25.8184 2.45434C25.8184 1.80844 26.0859 1.19021 26.5381 0.701169C26.9902 0.239807 27.6453 -0.0185547 28.2913 -0.0185547C28.9464 -0.0185547 29.5646 0.239807 30.0537 0.701169C30.9948 1.67925 30.9948 3.20175 30.0537 4.17983C29.5646 4.70578 28.9095 4.92724 28.2913 4.92724ZM28.2913 1.12562C27.9406 1.12562 27.6084 1.2548 27.3501 1.51316C27.0917 1.77153 26.9625 2.13139 26.9625 2.45434C26.9625 2.8142 27.0917 3.13715 27.3501 3.40474C27.876 3.92147 28.7157 3.92147 29.2417 3.40474C29.7307 2.87879 29.7307 2.02989 29.2417 1.51316C28.9833 1.28248 28.6511 1.12562 28.2913 1.12562Z" fill="#CFA935"/>
<path fill-rule="evenodd" clip-rule="evenodd" d="M26.8613 13.7485C26.7322 13.7485 26.5753 13.6839 26.4738 13.5916C26.2431 13.3609 26.2431 13.0011 26.4738 12.7704L31.1889 8.01838C31.4196 7.79693 31.7794 7.79693 32.0101 8.01838C32.2316 8.24907 32.2316 8.60893 32.0101 8.83961L27.2581 13.5547C27.1566 13.6839 26.9905 13.7485 26.8613 13.7485Z" fill="#CFA935"/>
<path fill-rule="evenodd" clip-rule="evenodd" d="M32.9143 9.55004C32.2684 9.55004 31.6502 9.29168 31.1611 8.80263C30.6998 8.3505 30.4414 7.73228 30.4414 7.07714C30.4414 6.43124 30.6998 5.81301 31.1888 5.32397C31.6502 4.86261 32.2684 4.60425 32.9143 4.60425C33.5694 4.60425 34.1877 4.86261 34.6398 5.32397C35.1012 5.77611 35.3595 6.39433 35.3595 7.04946C35.3595 7.69537 35.1012 8.31359 34.6121 8.80263C34.2153 9.29168 33.5971 9.55004 32.9143 9.55004ZM32.9143 5.77611C32.5637 5.77611 32.2315 5.90529 32.01 6.16365C31.7424 6.43124 31.6133 6.75419 31.6133 7.11405C31.6133 7.47391 31.7424 7.79687 32.01 8.01832C32.2684 8.28591 32.5913 8.41509 32.9512 8.41509C33.3111 8.41509 33.634 8.28591 33.8647 8.01832C34.1231 7.75996 34.2522 7.437 34.2522 7.07714C34.2522 6.71728 34.1231 6.39433 33.8647 6.16365C33.5971 5.90529 33.2742 5.77611 32.9143 5.77611Z" fill="#CFA935"/>
<path fill-rule="evenodd" clip-rule="evenodd" d="M31.4844 18.3713C31.3552 18.3713 31.1891 18.3067 31.0968 18.2052C30.8662 17.9838 30.8662 17.6239 31.0968 17.3932L35.8119 12.6781C36.0426 12.4475 36.4025 12.4475 36.6239 12.6781C36.8546 12.9088 36.8546 13.2595 36.6239 13.4901L31.8719 18.2052C31.7427 18.3067 31.6136 18.3713 31.4844 18.3713Z" fill="#CFA935"/>
<path fill-rule="evenodd" clip-rule="evenodd" d="M37.5382 14.2098C36.92 14.2098 36.2741 13.9791 35.7851 13.49C34.8347 12.512 34.8347 10.9802 35.7851 10.0114C36.7632 9.06098 38.3226 9.06098 39.3006 10.0114C39.7528 10.4635 40.0111 11.1187 40.0111 11.7646C40.0111 12.4197 39.7528 13.0379 39.3006 13.527C38.8116 13.9422 38.1934 14.2098 37.5382 14.2098ZM37.5382 10.3989C37.1784 10.3989 36.8554 10.5281 36.5971 10.7865C36.108 11.3124 36.108 12.1521 36.5971 12.6781C37.1138 13.1948 37.9627 13.1948 38.4794 12.6781C38.747 12.4197 38.8762 12.0875 38.8762 11.7369C38.8762 11.377 38.747 11.0541 38.4794 10.7865C38.2211 10.5281 37.8981 10.3989 37.5382 10.3989Z" fill="#CFA935"/>
<path fill-rule="evenodd" clip-rule="evenodd" d="M3.78321 27.5525C3.65403 27.5525 3.49717 27.4879 3.39567 27.3864C3.16499 27.1557 3.16499 26.8051 3.39567 26.5744L8.12 21.8593C8.34146 21.6286 8.70132 21.6286 8.932 21.8593C9.15345 22.0807 9.15345 22.4406 8.932 22.6713L4.20766 27.3587C4.07848 27.4879 3.9493 27.5525 3.78321 27.5525Z" fill="#CFA935"/>
<path fill-rule="evenodd" clip-rule="evenodd" d="M2.45461 30.7728C1.83639 30.7728 1.18125 30.5421 0.69221 30.053C-0.248966 29.1119 -0.248966 27.5156 0.69221 26.5744C1.6703 25.5963 3.23892 25.5963 4.20778 26.5744C4.66914 27.0265 4.9275 27.6447 4.9275 28.2999C4.9275 28.9458 4.66914 29.564 4.1801 30.053C3.71874 30.5144 3.07283 30.7728 2.45461 30.7728ZM2.45461 26.9619C2.13166 26.9619 1.7718 27.0911 1.51343 27.3587C0.987481 27.8754 0.987481 28.7243 1.51343 29.2134C2.03016 29.7301 2.87906 29.7301 3.39579 29.2134C3.65415 28.9458 3.78333 28.6228 3.78333 28.263C3.78333 27.9123 3.65415 27.5802 3.39579 27.3587C3.13742 27.0911 2.77756 26.9619 2.45461 26.9619Z" fill="#CFA935"/>
<path fill-rule="evenodd" clip-rule="evenodd" d="M8.44337 32.1384C8.31419 32.1384 8.1481 32.0738 8.05582 31.9723C7.82514 31.7509 7.82514 31.391 8.05582 31.1603L12.7709 26.4452C13.0016 26.2145 13.3522 26.2145 13.5829 26.4452C13.8136 26.6759 13.8136 27.0265 13.5829 27.2572L8.83091 31.9723C8.73864 32.1107 8.57255 32.1384 8.44337 32.1384Z" fill="#CFA935"/>
<path fill-rule="evenodd" clip-rule="evenodd" d="M7.07836 35.3955C6.46014 35.3955 5.80501 35.1648 5.31596 34.6758C4.86383 34.2237 4.60547 33.5685 4.60547 32.9226C4.60547 32.2675 4.86383 31.6493 5.31596 31.1602C6.29405 30.2191 7.82577 30.2191 8.80385 31.1602C9.74503 32.1383 9.74503 33.67 8.80385 34.6758C8.3794 35.1648 7.72427 35.3955 7.07836 35.3955ZM6.16487 33.8638C6.68159 34.3805 7.5305 34.3805 8.05645 33.8638C8.57317 33.3471 8.57317 32.4982 8.05645 31.9722C7.5305 31.4924 6.68159 31.4924 6.16487 31.9722C5.90651 32.2398 5.77733 32.5628 5.77733 32.9226C5.77733 33.2825 5.90651 33.6054 6.16487 33.8638Z" fill="#CFA935"/>
<path fill-rule="evenodd" clip-rule="evenodd" d="M13.0668 36.789C12.9376 36.789 12.7715 36.7244 12.67 36.6321C12.4485 36.4014 12.4485 36.0416 12.67 35.8201L17.3943 31.0958C17.625 30.8743 17.9756 30.8743 18.2063 31.0958C18.437 31.3265 18.437 31.6863 18.2063 31.9078L13.4912 36.6321C13.3528 36.7244 13.1959 36.789 13.0668 36.789Z" fill="#CFA935"/>
<path fill-rule="evenodd" clip-rule="evenodd" d="M11.7286 40.0185C11.1104 40.0185 10.4645 39.7879 10.0031 39.2988C9.02501 38.3207 9.02501 36.7613 10.0031 35.7832C10.4645 35.3311 11.0827 35.0728 11.7286 35.0728C12.3837 35.0728 13.0019 35.3311 13.491 35.8202C14.4322 36.7613 14.4322 38.3576 13.491 39.2988C13.0019 39.7879 12.3468 40.0185 11.7286 40.0185ZM10.7874 38.5145C11.3041 39.0405 12.153 39.0405 12.6421 38.5145C13.1588 37.9978 13.1588 37.1489 12.6421 36.6322C12.3837 36.3738 12.0515 36.2446 11.7009 36.2446C11.341 36.2446 11.0181 36.3738 10.7874 36.6322C10.2615 37.1489 10.2615 37.9978 10.7874 38.5145Z" fill="#CFA935"/>
</g>
<defs>
<clipPath id="clip0_1_4495">
<rect width="40" height="40" fill="white"/>
</clipPath>
</defs>
</svg>
