<svg width="70" height="70" viewBox="0 0 70 70" fill="none" xmlns="http://www.w3.org/2000/svg">
<g clip-path="url(#clip0_4_563)">
<path fill-rule="evenodd" clip-rule="evenodd" d="M44.422 54.111H25.4001C24.8349 54.111 24.3828 53.6589 24.3828 53.0776V46.021C24.3828 42.2102 26.9987 39.239 31.3909 38.1571C31.73 38.1087 32.0691 38.1571 32.3436 38.4478C32.9249 39.013 33.8938 39.3521 34.9111 39.3521C35.9445 39.3521 36.9134 39.013 37.527 38.3832C37.7692 38.1571 38.1083 38.0441 38.4474 38.1571C42.8234 39.239 45.4555 42.2102 45.4555 46.021V53.1421C45.4555 53.6589 45.0033 54.111 44.422 54.111ZM26.369 52.1087H43.4532V46.021C43.4532 42.2586 40.2721 40.7731 38.4474 40.2079C37.4785 40.9507 36.219 41.3544 34.8626 41.3544C33.5547 41.3544 32.2952 40.9507 31.3263 40.2079C29.5016 40.7731 26.3205 42.2586 26.3205 46.021V52.1087H26.369Z" fill="#CFA935"/>
<path fill-rule="evenodd" clip-rule="evenodd" d="M34.9107 24.9967C34.7977 24.9967 34.6847 24.9967 34.5716 24.9483L26.7723 22.1063C26.3686 21.9771 26.1426 21.5896 26.1426 21.1859C26.1426 20.7822 26.3686 20.3947 26.7723 20.217L34.5716 17.0359C34.7977 16.9229 35.0884 16.9229 35.3144 17.0359L43.1137 20.217C43.5174 20.3947 43.7435 20.7338 43.7435 21.1859C43.7435 21.5896 43.4528 21.9771 43.1137 22.1063L35.3144 24.9483C35.1368 24.9483 35.0238 24.9967 34.9107 24.9967ZM29.8404 21.0729L34.9107 22.946L39.9811 21.0729L34.9107 19.0221L29.8404 21.0729Z" fill="#CFA935"/>
<path fill-rule="evenodd" clip-rule="evenodd" d="M29.0491 29.3886C28.8714 29.3886 28.71 29.3241 28.5323 29.2756C28.2578 29.098 28.0156 28.7589 28.0156 28.4198V22.1545C28.0156 21.5893 28.4839 21.1372 29.0491 21.1372C29.6142 21.1372 30.0664 21.5893 30.0664 22.1545V26.7727C33.2636 25.4648 36.5093 25.4002 39.8195 26.6597V22.1545C39.8195 21.5893 40.2717 21.1372 40.8368 21.1372C41.402 21.1372 41.8703 21.5893 41.8703 22.1545V28.1937C41.8703 28.5328 41.6927 28.8719 41.402 29.0495C41.1275 29.211 40.7238 29.2756 40.4332 29.098C36.7353 27.2895 33.199 27.3379 29.6142 29.2756C29.3397 29.3241 29.2106 29.3886 29.0491 29.3886Z" fill="#CFA935"/>
<path fill-rule="evenodd" clip-rule="evenodd" d="M36.3962 37.8827H33.3766C30.4216 37.8827 28.0156 35.4767 28.0156 32.5217V28.1941C28.0156 27.6289 28.4839 27.1606 29.0491 27.1606C29.6142 27.1606 30.0664 27.6289 30.0664 28.1941V32.5217C30.0664 34.3463 31.552 35.8804 33.4251 35.8804H36.4447C38.2694 35.8804 39.8195 34.3948 39.8195 32.5217V28.1941C39.8195 27.6289 40.2717 27.1606 40.8368 27.1606C41.402 27.1606 41.8703 27.6289 41.8703 28.1941V32.5217C41.7411 35.4767 39.3513 37.8827 36.3962 37.8827Z" fill="#CFA935"/>
<path fill-rule="evenodd" clip-rule="evenodd" d="M34.9763 35.4766C34.2819 35.4766 33.6037 35.3151 32.9255 34.9114C32.4734 34.6369 32.2958 34.0556 32.5218 33.555C32.8125 33.0867 33.3776 32.9252 33.8944 33.1513C34.5726 33.555 35.2508 33.555 35.9451 33.1997C36.4457 32.9737 37.027 33.1513 37.2531 33.668C37.4791 34.1686 37.3015 34.7499 36.8009 34.976C36.2196 35.3151 35.606 35.4766 34.9763 35.4766Z" fill="#CFA935"/>
<path fill-rule="evenodd" clip-rule="evenodd" d="M31.5527 32.0047C31.2136 32.0047 30.923 31.8432 30.6969 31.5525C30.4224 31.1004 30.5354 30.4706 30.9875 30.18C31.7303 29.7278 32.5862 29.6794 33.3774 30.0669C33.8941 30.293 34.0556 30.9228 33.8295 31.3749C33.6035 31.8916 33.0383 32.0692 32.5216 31.8432C32.2955 31.7301 32.1825 31.7786 32.0694 31.8432C31.8918 31.9562 31.7303 32.0047 31.5527 32.0047Z" fill="#CFA935"/>
<path fill-rule="evenodd" clip-rule="evenodd" d="M36.8003 32.0049C36.4451 32.0049 36.106 31.8435 35.9445 31.5044C35.6538 31.0361 35.8314 30.4225 36.2836 30.1318C37.0748 29.6797 37.8822 29.6797 38.738 30.0672C39.2386 30.2933 39.4162 30.9231 39.1901 31.3752C38.9641 31.8919 38.3343 32.0695 37.8822 31.8435C37.64 31.7304 37.5269 31.7304 37.3655 31.8435C37.1394 31.9565 36.9618 32.0049 36.8003 32.0049Z" fill="#CFA935"/>
<path fill-rule="evenodd" clip-rule="evenodd" d="M34.9754 70C34.8623 70 34.7493 70 34.6363 69.9354C8.20259 59.4072 8.60628 41.4025 9.05842 20.5075C9.10686 17.6494 9.17145 14.6943 9.17145 11.7393C9.17145 11.2226 9.62358 10.7705 10.1403 10.7705C14.9846 10.6574 22.9454 8.76817 33.8289 0.565167C34.4586 0.0645905 34.6363 0 34.9754 0C35.3145 0 35.4275 0.113033 36.2187 0.629758C47.1668 8.76817 55.0792 10.6574 59.8589 10.7705C60.3756 10.7705 60.8277 11.2226 60.8277 11.7393C60.8277 14.6943 60.8923 17.6494 60.9408 20.4429C61.3929 41.3541 61.7966 59.4072 35.3629 69.9354C35.2014 70 35.0884 70 34.9754 70ZM11.1576 12.7082C11.1576 15.3725 11.1092 18.0046 11.0446 20.5559C10.5924 41.4025 10.1888 57.9216 34.9754 67.9493C59.7458 57.9216 59.4067 41.4025 58.9546 20.5075C58.89 17.94 58.8416 15.3241 58.8416 12.7082C53.7066 12.3529 45.6813 10.1407 35.0238 2.22837C35.0238 2.22837 35.0238 2.22837 34.9754 2.16378C24.431 10.1407 16.341 12.3045 11.1576 12.7082Z" fill="#CFA935"/>
<path fill-rule="evenodd" clip-rule="evenodd" d="M34.9758 62.8789C34.8628 62.8789 34.7498 62.8789 34.6367 62.8143C13.5479 54.4498 13.9032 40.0946 14.2423 23.5271C14.2907 21.2987 14.3553 18.9735 14.3553 16.6321C14.3553 16.1153 14.8074 15.6632 15.3242 15.6632C19.0866 15.5502 25.4003 14.0646 33.9424 7.63782C34.4591 7.23413 34.6367 7.12109 34.9758 7.12109C35.3149 7.12109 35.4764 7.23413 36.1062 7.68626C44.7129 14.0646 50.9136 15.5502 54.676 15.6632C55.1927 15.6632 55.6448 16.1153 55.6448 16.6321C55.6448 18.9735 55.7094 21.2987 55.7578 23.5755C56.0969 40.1592 56.436 54.5144 35.3634 62.8789C35.2019 62.8789 35.0889 62.8789 34.9758 62.8789ZM16.3415 17.5363C16.3415 19.5871 16.293 21.5894 16.2284 23.5271C15.8893 39.9331 15.5987 52.9158 34.9758 60.8281C54.3853 52.9642 54.1108 39.9815 53.7071 23.5755C53.6587 21.5894 53.5941 19.5871 53.5941 17.5363C49.5572 17.1972 43.2919 15.4371 34.9758 9.28488C26.7728 15.4371 20.443 17.1972 16.3415 17.5363Z" fill="#CFA935"/>
</g>
<defs>
<clipPath id="clip0_4_563">
<rect width="70" height="70" fill="white"/>
</clipPath>
</defs>
</svg>
