<svg width="18" height="18" viewBox="0 0 18 18" fill="none" xmlns="http://www.w3.org/2000/svg">
<path d="M9.9535 4.29519C9.9535 4.4794 9.9535 5.07984 9.9535 5.93287H12.8864L12.5684 8.54733H9.9535C9.9535 12.5793 9.9535 17.9824 9.9535 17.9824H6.48267C6.48267 17.9824 6.48267 12.6508 6.48267 8.54733H4.67413V5.93287H6.48267C6.48267 4.89604 6.48267 4.15878 6.48267 3.9535C6.48267 2.97545 6.40898 2.51139 6.82456 1.75349C7.24036 0.99563 8.41317 -0.00611174 10.4416 0.0180054C12.4706 0.0430015 13.3259 0.238189 13.3259 0.238189L12.8864 3.02457C12.8864 3.02457 11.5908 2.68246 10.9548 2.80438C10.3197 2.92634 9.9535 3.31756 9.9535 4.29519Z" fill="white"/>
</svg>
