<svg width="70" height="70" viewBox="0 0 70 70" fill="none" xmlns="http://www.w3.org/2000/svg">
<g clip-path="url(#clip0_4_562)">
<path fill-rule="evenodd" clip-rule="evenodd" d="M39.8639 69.1206H0.972883C0.441934 69.1206 0.015625 68.6943 0.015625 68.1634V64.2529C0.015625 61.5594 2.2053 59.3853 4.8833 59.3853H35.9535C38.6315 59.3853 40.8212 61.5749 40.8212 64.2529V68.1634C40.8212 68.6827 40.3832 69.1206 39.8639 69.1206ZM1.93014 67.2061H38.9067V64.2529C38.9067 62.6252 37.5812 61.2998 35.9535 61.2998H4.8833C3.25558 61.2998 1.93014 62.6252 1.93014 64.2529V67.2061Z" fill="#CFA935"/>
<path fill-rule="evenodd" clip-rule="evenodd" d="M34.4113 61.2878C33.8765 61.2878 33.4541 60.8615 33.4541 60.3305V54.4785H7.38717V60.3422C7.38717 60.877 6.96086 61.2994 6.42991 61.2994C5.89509 61.2994 5.47266 60.877 5.47266 60.3422V53.5212C5.47266 52.9903 5.89509 52.564 6.42991 52.564H34.4113C34.9423 52.564 35.3647 52.9903 35.3647 53.5212V60.3422C35.3647 60.8615 34.9423 61.2878 34.4113 61.2878Z" fill="#CFA935"/>
<path fill-rule="evenodd" clip-rule="evenodd" d="M64.1394 58.6062C62.6357 58.6062 61.1475 58.0326 60.012 56.8971L46.0949 42.9839C43.8277 40.7012 43.8277 36.9846 46.0949 34.7135C48.3776 32.4308 52.0826 32.4308 54.3653 34.7135L68.2824 48.6305C70.5496 50.8977 70.5496 54.6144 68.2824 56.8971C67.1469 58.0326 65.6431 58.6062 64.1394 58.6062ZM47.4475 36.066C45.9166 37.5969 45.9166 40.1005 47.4475 41.6313L61.3646 55.5445C62.8954 57.0753 65.3951 57.0753 66.9298 55.5445C68.4607 54.0137 68.4607 51.5139 66.9298 49.9831L53.0128 36.066C51.4819 34.5352 48.9783 34.5352 47.4475 36.066Z" fill="#CFA935"/>
<path fill-rule="evenodd" clip-rule="evenodd" d="M31.6748 34.659C30.9385 34.659 30.1983 34.3723 29.6402 33.8103L21.5597 25.7337C21.0132 25.1872 20.7109 24.4625 20.7109 23.6951C20.7109 22.9317 21.0132 22.2069 21.5597 21.6605L33.0545 10.1618C33.601 9.61531 34.3257 9.31689 35.0931 9.31689C35.8565 9.31689 36.5813 9.61531 37.1277 10.1618L45.1927 18.2539C46.3166 19.3778 46.3166 21.2071 45.1927 22.3271L33.7134 33.8103C33.1514 34.3723 32.4151 34.659 31.6748 34.659ZM35.0931 11.243C34.8334 11.243 34.5854 11.3399 34.411 11.5298L22.9122 23.0247C22.734 23.203 22.6255 23.451 22.6255 23.7106C22.6255 23.9703 22.7223 24.2145 22.9122 24.3927L30.9927 32.4732C31.3609 32.8414 31.9771 32.8414 32.3608 32.4732L43.8557 20.9745C44.2238 20.6063 44.2238 19.9901 43.8557 19.6103L35.7635 11.5298C35.5853 11.3399 35.3372 11.243 35.0931 11.243Z" fill="#CFA935"/>
<path fill-rule="evenodd" clip-rule="evenodd" d="M26.7406 43.1194C25.6051 43.1194 24.5548 42.6815 23.7604 41.8909L13.4824 31.5974C12.6879 30.8184 12.25 29.7643 12.25 28.6288C12.25 27.4971 12.6879 26.443 13.4824 25.6523C15.1218 24.0091 17.7881 24.0091 19.4275 25.6523L29.7209 35.9419C31.3603 37.5968 31.3448 40.2631 29.7209 41.8909C28.9264 42.6815 27.8762 43.1194 26.7406 43.1194ZM16.4472 26.3344C15.8581 26.3344 15.2729 26.5515 14.835 27.0049C14.397 27.4428 14.1645 28.0164 14.1645 28.6288C14.1645 29.245 14.397 29.8185 14.835 30.2449L25.1284 40.5383C25.5509 40.9724 26.1244 41.2049 26.7406 41.2049C27.3569 41.2049 27.9304 40.9724 28.3684 40.5383C29.2559 39.6469 29.2559 38.1858 28.3684 37.2983L18.0749 27.0049C17.6215 26.567 17.0363 26.3344 16.4472 26.3344Z" fill="#CFA935"/>
<path fill-rule="evenodd" clip-rule="evenodd" d="M50.3079 19.5678C49.2266 19.5678 48.1454 19.157 47.3276 18.3508L37.0342 8.05741C35.3948 6.40256 35.3948 3.74006 37.0342 2.11234C37.8248 1.31785 38.8906 0.883789 40.0145 0.883789C41.1345 0.883789 42.1848 1.31785 42.9793 2.11234L53.2727 12.3903C54.9121 14.0335 54.9121 16.7115 53.2727 18.3508C52.4666 19.157 51.3853 19.5678 50.3079 19.5678ZM38.3868 3.45327C37.4993 4.34077 37.4993 5.80185 38.3868 6.69322L48.6802 16.9828C49.5832 17.8742 51.0327 17.8742 51.9201 16.9828C52.8231 16.0837 52.8231 14.6342 51.9201 13.7312L41.6267 3.45327C41.2043 3.01534 40.6268 2.7828 40.0145 2.7828C39.3983 2.7828 38.8247 3.01534 38.3868 3.45327Z" fill="#CFA935"/>
<path fill-rule="evenodd" clip-rule="evenodd" d="M45.3709 39.36C45.1267 39.36 44.8787 39.267 44.6888 39.0888L35.8836 30.2719C35.5154 29.9037 35.5154 29.2875 35.8836 28.9193C36.2556 28.5473 36.8679 28.5473 37.24 28.9193L46.0413 37.7207C46.4095 38.0889 46.4095 38.7051 46.0413 39.0733C45.8631 39.267 45.6189 39.36 45.3709 39.36ZM49.789 34.9458C49.541 34.9458 49.2968 34.8489 49.103 34.659L40.3133 25.8538C39.9451 25.4856 39.9451 24.8733 40.3133 24.5012C40.6815 24.1331 41.2977 24.1331 41.6659 24.5012L50.4711 33.3065C50.8393 33.6746 50.8393 34.2908 50.4711 34.659C50.2812 34.8489 50.0332 34.9458 49.789 34.9458Z" fill="#CFA935"/>
<path fill-rule="evenodd" clip-rule="evenodd" d="M27.9313 36.4766C27.6833 36.4766 27.4391 36.3798 27.2608 36.2015C26.8927 35.8333 26.8927 35.221 27.2608 34.8489L29.6404 32.4732C30.0086 32.1012 30.6248 32.1012 30.993 32.4732C31.3612 32.8414 31.3612 33.4576 30.993 33.8258L28.6134 36.1899C28.4235 36.3798 28.1755 36.4766 27.9313 36.4766ZM19.8508 28.3845C19.6066 28.3845 19.3586 28.2876 19.1687 28.0977C18.8005 27.7296 18.8005 27.1133 19.1687 26.7452L21.5483 24.3811C21.9165 24.009 22.5327 24.009 22.9009 24.3811C23.269 24.7493 23.269 25.3655 22.9009 25.7337L20.5213 28.0977C20.343 28.2876 20.0988 28.3845 19.8508 28.3845Z" fill="#CFA935"/>
<path fill-rule="evenodd" clip-rule="evenodd" d="M44.5251 19.8815C44.2771 19.8815 44.033 19.7847 43.8392 19.5948C43.471 19.2266 43.471 18.6104 43.8392 18.2422L46.2188 15.8626C46.5869 15.4944 47.2031 15.4944 47.5713 15.8626C47.9395 16.2308 47.9395 16.847 47.5713 17.2152L45.1917 19.6103C45.0173 19.7847 44.7693 19.8815 44.5251 19.8815ZM36.4446 11.8049C36.2005 11.8049 35.9525 11.708 35.7742 11.5298C35.406 11.1616 35.406 10.5454 35.7742 10.1772L38.1383 7.79762C38.5103 7.42944 39.1226 7.42944 39.4947 7.79762C39.8629 8.16579 39.8629 8.782 39.4947 9.15018L37.1267 11.5298C36.9368 11.708 36.6927 11.8049 36.4446 11.8049Z" fill="#CFA935"/>
<path fill-rule="evenodd" clip-rule="evenodd" d="M49.6911 15.7002C49.443 15.7002 49.1989 15.6033 49.0206 15.425L39.9441 6.36402C39.5759 5.99585 39.5759 5.37964 39.9441 5.01146C40.3123 4.63941 40.9285 4.63941 41.2967 5.01146L50.3616 14.0608C50.7297 14.429 50.7297 15.0452 50.3616 15.4134C50.1833 15.6033 49.9352 15.7002 49.6911 15.7002Z" fill="#CFA935"/>
<path fill-rule="evenodd" clip-rule="evenodd" d="M26.1248 39.267C25.8806 39.267 25.6326 39.1701 25.4427 38.9763L16.3933 29.9153C16.0251 29.5471 16.0251 28.9309 16.3933 28.5628C16.7615 28.1946 17.3777 28.1946 17.7459 28.5628L26.7953 37.6238C27.1634 37.9958 27.1634 38.6082 26.7953 38.9763C26.617 39.1701 26.3728 39.267 26.1248 39.267Z" fill="#CFA935"/>
<path fill-rule="evenodd" clip-rule="evenodd" d="M32.2474 30.6943C32.0032 30.6943 31.7552 30.5974 31.5769 30.4075C31.2087 30.0393 31.2087 29.4231 31.5769 29.055L40.4519 20.1838C40.8201 19.8157 41.4324 19.8157 41.8045 20.1838C42.1726 20.552 42.1726 21.1682 41.8045 21.5364L32.9334 30.4075C32.7396 30.5974 32.4954 30.6943 32.2474 30.6943Z" fill="#CFA935"/>
<path fill-rule="evenodd" clip-rule="evenodd" d="M25.6321 24.0791C25.388 24.0791 25.14 23.9822 24.9617 23.7923C24.5935 23.4241 24.5935 22.8079 24.9617 22.4397L33.8328 13.5686C34.2048 13.1965 34.8172 13.1965 35.1892 13.5686C35.5574 13.9368 35.5574 14.553 35.1892 14.9212L26.3181 23.7923C26.1243 23.9822 25.8802 24.0791 25.6321 24.0791Z" fill="#CFA935"/>
<path fill-rule="evenodd" clip-rule="evenodd" d="M63.3066 50.4056C63.0586 50.4056 62.8145 50.3087 62.6207 50.1343L52.8621 40.3719C52.4939 40.0037 52.4939 39.3875 52.8621 39.0193C53.2302 38.6511 53.8465 38.6511 54.2146 39.0193L63.9771 48.7779C64.3453 49.15 64.3453 49.7623 63.9771 50.1343C63.7988 50.3087 63.5508 50.4056 63.3066 50.4056Z" fill="#CFA935"/>
<path fill-rule="evenodd" clip-rule="evenodd" d="M10.4331 65.2099H0.972883C0.441934 65.2099 0.015625 64.7875 0.015625 64.2527C0.015625 63.7217 0.441934 63.2954 0.972883 63.2954H10.4331C10.9679 63.2954 11.3903 63.7217 11.3903 64.2527C11.3903 64.7875 10.9524 65.2099 10.4331 65.2099Z" fill="#CFA935"/>
<path fill-rule="evenodd" clip-rule="evenodd" d="M34.4115 57.8813H24.9358C24.4048 57.8813 23.9785 57.4589 23.9785 56.928C23.9785 56.3931 24.4048 55.9707 24.9358 55.9707H34.4115C34.9424 55.9707 35.3649 56.3931 35.3649 56.928C35.3649 57.4589 34.9424 57.8813 34.4115 57.8813Z" fill="#CFA935"/>
</g>
<defs>
<clipPath id="clip0_4_562">
<rect width="70" height="70" fill="white"/>
</clipPath>
</defs>
</svg>
