<svg width="58" height="9" viewBox="0 0 58 9" fill="none" xmlns="http://www.w3.org/2000/svg">
<path d="M23.0375 6.73913C22.6896 6.93789 22.2921 7.03726 21.7952 7.03726C21.2983 7.03726 21.0499 6.98758 20.7518 6.83851C20.4536 6.68944 20.1555 6.49068 19.907 6.24223C19.6586 5.99379 19.5095 5.69565 19.3605 5.34782C19.2114 5 19.1617 4.65217 19.1617 4.25466C19.1617 3.85714 19.2114 3.50931 19.3605 3.16149C19.5095 2.81366 19.6586 2.51553 19.907 2.26708C20.1555 2.01863 20.4039 1.81987 20.7518 1.6708C21.0499 1.52174 21.3977 1.47205 21.7952 1.47205C22.1928 1.47205 22.64 1.57143 22.9878 1.72049C23.3356 1.91925 23.6834 2.11801 23.9816 2.41615L24.876 1.37267C24.6772 1.17391 24.4785 1.02484 24.2797 0.875774C24.081 0.726705 23.8325 0.577637 23.5841 0.478259C23.3356 0.37888 23.0872 0.279501 22.789 0.229811C22.4909 0.180122 22.1431 0.130432 21.7952 0.130432C21.199 0.130432 20.6524 0.229811 20.1555 0.428569C19.6586 0.627327 19.2114 0.925463 18.8636 1.32298C18.5157 1.72049 18.2176 2.11801 18.0188 2.6149C17.8201 3.1118 17.7207 3.65838 17.7207 4.20497C17.7207 4.75155 17.8201 5.29813 18.0188 5.79503C18.2176 6.29192 18.5157 6.73913 18.8636 7.08696C19.2114 7.43478 19.6586 7.73292 20.1058 7.93167C20.6027 8.13043 21.1493 8.22981 21.6959 8.22981C22.2424 8.22981 22.3915 8.22981 22.6896 8.13043C22.9878 8.08074 23.2859 7.98136 23.5344 7.8323C23.7828 7.73292 24.0313 7.58385 24.23 7.38509C24.4288 7.23602 24.6772 7.03726 24.876 6.78882L23.9816 5.89441C23.6337 6.19254 23.2859 6.44099 22.9381 6.63975L23.0375 6.73913Z" fill="black"/>
<path d="M28.0554 4.80122H31.9808V3.50929H28.0554V1.52172H32.4777V0.27948H26.6641V8.13041H32.5274V6.88818H28.0554V4.80122Z" fill="black"/>
<path d="M39.7825 4.85091C40.0309 4.70185 40.2297 4.55278 40.3787 4.35402C40.5278 4.15526 40.6769 3.90682 40.7763 3.65837C40.8756 3.40992 40.9253 3.11178 40.9253 2.76396C40.9253 2.41613 40.8756 2.01862 40.7266 1.72048C40.5775 1.42234 40.3787 1.12421 40.1303 0.925449C39.8819 0.726692 39.5837 0.527934 39.1862 0.428555C38.8384 0.329176 38.3912 0.229797 37.944 0.229797H34.416V8.08073H35.8073V5.34781H37.5464L39.4843 8.08073H41.1241L38.9874 5.09936C39.2856 4.99998 39.534 4.9006 39.7328 4.80123L39.7825 4.85091ZM35.857 4.15526V1.52172H37.8943C38.3912 1.52172 38.8384 1.6211 39.0868 1.86955C39.385 2.06831 39.534 2.41613 39.534 2.86334C39.534 3.31054 39.385 3.60868 39.0868 3.85713C38.7887 4.10557 38.3912 4.20495 37.8943 4.20495H35.857V4.15526Z" fill="black"/>
<path d="M42.3164 1.52172H44.8009V8.13041H46.1922V1.52172H48.6767V0.27948H42.3164V1.52172Z" fill="black"/>
<path d="M52.7998 5.19873C52.601 5.04966 52.4023 4.95029 52.2035 4.85091C52.0047 4.75153 51.7563 4.70184 51.5575 4.60246C51.4085 4.55277 51.2097 4.50308 51.0606 4.45339C50.9116 4.4037 50.7625 4.35401 50.6134 4.25463C50.5141 4.20495 50.4147 4.10557 50.3153 4.05588C50.2159 3.9565 50.2159 3.90681 50.2159 3.75774C50.2159 3.55898 50.2656 3.40991 50.4147 3.31053C50.5637 3.21116 50.7625 3.16147 51.011 3.16147C51.2594 3.16147 51.5078 3.21116 51.806 3.31053C52.1041 3.40991 52.4023 3.55898 52.6507 3.70805L53.1973 2.76395C52.8992 2.56519 52.5513 2.36644 52.1538 2.26706C51.7563 2.16768 51.4085 2.0683 51.011 2.0683C50.6134 2.0683 50.4644 2.0683 50.1662 2.16768C49.9178 2.26706 49.6693 2.36644 49.4706 2.5155C49.2718 2.66457 49.1228 2.86333 49.0234 3.11178C48.924 3.36022 48.8743 3.60867 48.8743 3.85712C48.8743 4.15526 48.924 4.4037 49.0234 4.60246C49.1228 4.80122 49.2718 4.95029 49.4706 5.09936C49.6693 5.24842 49.8681 5.3478 50.0669 5.39749C50.2656 5.49687 50.5141 5.54656 50.7128 5.64594C50.8619 5.69563 51.0606 5.74532 51.2097 5.79501C51.3588 5.79501 51.5078 5.89439 51.6569 5.94407C51.7563 5.99376 51.8557 6.09314 51.9551 6.14283C52.0047 6.24221 52.0544 6.34159 52.0544 6.44097C52.0544 6.63973 51.9551 6.83848 51.806 6.93786C51.6569 7.03724 51.4085 7.13662 51.1103 7.13662C50.8122 7.13662 50.4644 7.08693 50.1662 6.93786C49.8184 6.83848 49.5203 6.63973 49.1724 6.39128L48.5762 7.33538C48.9737 7.63352 49.3712 7.83227 49.8184 7.98134C50.2656 8.13041 50.7128 8.22979 51.1103 8.22979C51.5078 8.22979 51.7066 8.22979 51.9551 8.13041C52.2035 8.03103 52.452 7.93165 52.6507 7.78258C52.8495 7.63352 52.9985 7.43476 53.0979 7.18631C53.1973 6.93786 53.247 6.68942 53.247 6.34159C53.247 6.04345 53.1973 5.8447 53.0979 5.64594C52.9985 5.44718 52.8495 5.29811 52.6507 5.14904L52.7998 5.19873Z" fill="black"/>
<path d="M6.39064 0.329163L5.19809 3.16146H3.11113L1.27263 1.32295C1.372 1.22357 1.372 1.0745 1.372 0.975126C1.372 0.6273 1.07387 0.329163 0.726041 0.329163C0.378215 0.329163 0.0800781 0.6273 0.0800781 0.975126C0.0800781 1.32295 0.378215 1.62109 0.726041 1.62109C1.07387 1.62109 0.87511 1.62109 0.974489 1.62109L2.91238 3.55898H4.99933L4.75089 4.20494H1.372C1.27262 3.95649 1.07387 3.75773 0.775731 3.75773C0.477594 3.75773 0.129768 4.05587 0.129768 4.4037C0.129768 4.75152 0.427905 5.04966 0.775731 5.04966C1.12356 5.04966 1.32231 4.8509 1.372 4.60245H4.65151L4.40306 5.24842H2.96207L1.02418 7.1863C0.974489 7.1863 0.87511 7.1863 0.775731 7.1863C0.427905 7.1863 0.129768 7.48444 0.129768 7.83227C0.129768 8.1801 0.427905 8.47823 0.775731 8.47823C1.12356 8.47823 1.42169 8.1801 1.42169 7.83227C1.42169 7.48444 1.42169 7.58382 1.32231 7.48444L3.16082 5.64593H4.30368L3.11113 8.47823H4.89995L5.59561 6.68941H8.9248L9.62045 8.47823H11.4093L8.03039 0.527921H6.44033L6.39064 0.329163ZM6.0925 4.99997L7.13598 2.46581L8.17946 4.99997H6.0925Z" fill="#C8A94C"/>
<path d="M14.6883 0.378906H12.9492V8.22984H14.6883V0.378906Z" fill="#C8A94C"/>
<path d="M53.3965 0.676995H54.0424V2.31675H54.4897V0.676995H55.1356V0.27948H53.3965V0.676995Z" fill="black"/>
<path d="M57.174 0.27948L56.6275 1.1242L56.0809 0.27948H55.584V2.31675H56.0312V0.975132L56.5778 1.86954H56.6275L57.174 0.975132V2.31675H57.6709V0.27948H57.174Z" fill="black"/>
</svg>
