<svg width="79" height="10" viewBox="0 0 79 10" fill="none" xmlns="http://www.w3.org/2000/svg">
<path d="M0.373047 7.46375V0.904753H1.05628V7.46375H0.373047ZM0.851308 4.79916V4.18425H2.76435C3.03764 4.18425 3.31094 4.18425 3.5159 4.0476C3.72087 3.91096 3.92584 3.77431 3.99416 3.56934C4.13081 3.36438 4.19913 3.1594 4.19913 2.81779C4.19913 2.47617 4.19913 2.27121 3.99416 2.06624C3.85752 1.86127 3.72087 1.72463 3.5159 1.58798C3.31094 1.45134 3.03764 1.45133 2.76435 1.45133H0.851308V0.836426H2.83267C3.24261 0.836426 3.58423 0.904745 3.92584 1.10971C4.26746 1.24636 4.47243 1.51965 4.67739 1.79294C4.88236 2.06624 4.95069 2.40785 4.95069 2.81779C4.95069 3.22773 4.88236 3.56934 4.67739 3.84263C4.47243 4.11592 4.26746 4.38922 3.92584 4.52586C3.58423 4.66251 3.24261 4.79916 2.83267 4.79916H0.851308Z" fill="black"/>
<path d="M6.04297 7.46375V2.95444H6.7262V7.46375H6.04297ZM6.7262 4.86747L6.45291 4.73083C6.45291 4.18424 6.58955 3.70598 6.86285 3.36437C7.13614 3.02275 7.54608 2.88611 8.02434 2.88611C8.5026 2.88611 8.43427 2.88611 8.63924 3.02275C8.84421 3.09108 8.98086 3.22773 9.18583 3.43269L8.70757 3.91095C8.63924 3.77431 8.5026 3.70599 8.36595 3.63767C8.22931 3.63767 8.09266 3.56934 7.88769 3.56934C7.54607 3.56934 7.27278 3.70598 7.06781 3.91095C6.86284 4.11592 6.7262 4.45754 6.7262 4.9358V4.86747Z" fill="black"/>
<path d="M11.7156 7.53207C11.3056 7.53207 10.8957 7.39543 10.5541 7.19046C10.2125 6.98549 9.93916 6.7122 9.73419 6.37058C9.52922 6.02897 9.39258 5.61903 9.39258 5.14077C9.39258 4.66251 9.52922 4.32089 9.73419 3.97928C9.93916 3.63766 10.2125 3.36436 10.5541 3.15939C10.8957 2.95443 11.3056 2.81778 11.7156 2.81778C12.1255 2.81778 12.5354 2.88611 12.877 3.09108C13.2187 3.29605 13.492 3.56934 13.6969 3.91095C13.9019 4.25257 14.0385 4.6625 14.0385 5.07244C14.0385 5.48238 13.9019 5.89232 13.6969 6.30226C13.492 6.64387 13.2187 6.91716 12.877 7.12213C12.5354 7.3271 12.1255 7.46374 11.7156 7.46374V7.53207ZM11.7156 6.84884C12.0572 6.84884 12.3305 6.78052 12.5354 6.64387C12.8087 6.50722 12.9454 6.30226 13.1503 6.02897C13.287 5.75568 13.3553 5.48238 13.3553 5.14077C13.3553 4.79915 13.287 4.52586 13.1503 4.25257C13.0137 3.97927 12.8087 3.77431 12.5354 3.63766C12.2621 3.50102 11.9888 3.43269 11.7156 3.43269C11.4423 3.43269 11.1007 3.50102 10.8957 3.63766C10.6224 3.77431 10.4174 3.97927 10.2808 4.25257C10.1441 4.52586 10.0758 4.79915 10.0758 5.14077C10.0758 5.48238 10.1441 5.75568 10.2808 6.02897C10.4174 6.30226 10.6224 6.50722 10.8957 6.64387C11.169 6.78052 11.4423 6.84884 11.7156 6.84884Z" fill="black"/>
<path d="M15.1309 7.46374V2.95443H15.8141V7.46374H15.1309ZM18.2054 7.46374V4.73083C18.2054 4.38921 18.0687 4.04759 17.8638 3.84262C17.6588 3.63766 17.3855 3.50101 17.0439 3.50101C16.7023 3.50101 16.634 3.50102 16.429 3.63766C16.224 3.77431 16.0874 3.84263 15.9507 4.0476C15.8141 4.25256 15.8141 4.45754 15.8141 4.66251L15.5408 4.52585C15.5408 4.18424 15.6091 3.91096 15.7458 3.63766C15.8824 3.36437 16.0874 3.1594 16.3607 3.02275C16.634 2.8861 16.9073 2.81778 17.2489 2.81778C17.5905 2.81778 17.8638 2.8861 18.1371 3.02275C18.4104 3.1594 18.6153 3.36437 18.752 3.63766C18.8886 3.91096 18.9569 4.18424 18.9569 4.52585V7.39543H18.2737L18.2054 7.46374ZM21.2799 7.46374V4.73083C21.2799 4.38921 21.1433 4.04759 20.9383 3.84262C20.7333 3.63766 20.4601 3.50101 20.1184 3.50101C19.7768 3.50101 19.7085 3.50102 19.5035 3.63766C19.2986 3.77431 19.1619 3.84263 19.0253 4.0476C18.8886 4.25256 18.8886 4.45754 18.8886 4.66251L18.4787 4.52585C18.4787 4.18424 18.6153 3.91096 18.752 3.63766C18.8886 3.36437 19.1619 3.1594 19.3669 3.02275C19.5719 2.8861 19.9135 2.81778 20.2551 2.81778C20.5967 2.81778 20.87 2.8861 21.1433 3.02275C21.4166 3.1594 21.6215 3.36437 21.7582 3.63766C21.8948 3.91096 21.9632 4.18424 21.9632 4.52585V7.39543H21.2799V7.46374Z" fill="black"/>
<path d="M23.2617 9.37679V2.95444H23.9449V4.11592L23.8083 5.20909L23.9449 6.30226V9.37679H23.2617ZM25.5847 7.60039C25.2431 7.60039 24.9015 7.53208 24.6282 7.39543C24.3549 7.25878 24.1499 7.05381 23.9449 6.84884C23.74 6.57555 23.6717 6.30226 23.6033 5.96064V4.52586C23.6033 4.18424 23.74 3.91096 23.9449 3.63767C24.1499 3.36437 24.3549 3.22773 24.6282 3.09108C24.9015 2.95443 25.2431 2.88611 25.5164 2.88611C25.7897 2.88611 26.3363 3.02275 26.6095 3.22772C26.9512 3.43269 27.2245 3.70598 27.4294 4.0476C27.6344 4.38921 27.7027 4.79915 27.7027 5.27741C27.7027 5.75567 27.6344 6.09729 27.4294 6.4389C27.2245 6.78052 26.9512 7.05381 26.6095 7.25877C26.2679 7.46374 25.9263 7.60039 25.5164 7.60039H25.5847ZM25.4481 6.98549C25.7897 6.98549 26.063 6.91716 26.2679 6.78052C26.4729 6.64387 26.6779 6.43891 26.8145 6.16561C26.9512 5.89232 27.0195 5.61903 27.0195 5.27741C27.0195 4.9358 26.9512 4.6625 26.8145 4.38921C26.6779 4.11592 26.4729 3.91096 26.2679 3.77431C25.9946 3.63766 25.7213 3.56934 25.4481 3.56934C25.1748 3.56934 24.8331 3.63766 24.6282 3.77431C24.3549 3.91096 24.2182 4.11592 24.0816 4.38921C23.9449 4.6625 23.8766 4.9358 23.8766 5.27741C23.8766 5.61903 23.8766 5.89232 24.0816 6.16561C24.2182 6.43891 24.4232 6.64387 24.6282 6.78052C24.8331 6.91716 25.1064 6.98549 25.4481 6.98549Z" fill="black"/>
<path d="M28.3848 3.56933V2.95443H31.3227V3.56933H28.3848ZM29.5463 7.46374V1.04138H30.2295V7.46374H29.5463Z" fill="black"/>
<path d="M34.4668 7.46375V0.904755H35.15V7.46375H34.4668ZM34.9451 1.51966V0.904755H38.7711V1.51966H34.9451ZM34.9451 4.38922V3.77432H38.4979V4.38922H34.9451ZM34.9451 7.46375V6.84885H38.8395V7.46375H34.9451Z" fill="black"/>
<path d="M39.9316 7.46375V2.95444H40.6149V7.46375H39.9316ZM43.2111 7.46375V4.79915C43.2111 4.38922 43.0745 4.11592 42.8695 3.84263C42.6646 3.56933 42.3229 3.50101 41.913 3.50101C41.5031 3.50101 41.4347 3.50102 41.2298 3.63767C41.0248 3.77431 40.8882 3.91096 40.7515 4.11592C40.6149 4.32089 40.5465 4.52586 40.5465 4.79915L40.2733 4.59418C40.2733 4.25257 40.3416 3.97927 40.4782 3.70598C40.6149 3.43269 40.8882 3.22773 41.1615 3.09108C41.4347 2.95443 41.7764 2.88611 42.118 2.88611C42.4596 2.88611 42.8012 2.95443 43.0062 3.1594C43.2795 3.29604 43.4844 3.56933 43.6211 3.84263C43.7577 4.11592 43.826 4.45753 43.826 4.73083V7.46375H43.1428H43.2111Z" fill="black"/>
<path d="M47.0379 7.39543C46.628 7.39543 46.218 7.3271 45.8764 7.12213C45.5348 6.91716 45.2615 6.64387 45.1249 6.30226C44.9882 5.96064 44.8516 5.55071 44.8516 5.14077C44.8516 4.73083 44.9199 4.3209 45.1249 3.97928C45.3298 3.63767 45.6031 3.36437 45.8764 3.1594C46.218 2.95443 46.5596 2.88611 46.9696 2.88611C47.3795 2.88611 47.6528 2.88611 47.9261 3.09108C48.1994 3.22773 48.4044 3.4327 48.6093 3.63767C48.8143 3.84263 48.8826 4.18424 48.8826 4.52586V5.824C48.8826 6.16561 48.746 6.43891 48.541 6.7122C48.336 6.98549 48.1311 7.12213 47.8578 7.25877C47.5845 7.39542 47.3112 7.46375 46.9696 7.46375L47.0379 7.39543ZM47.0379 9.44512C46.5596 9.44512 46.1497 9.37679 45.8081 9.17182C45.4665 8.96685 45.1932 8.76188 44.9199 8.48859L45.3298 8.07866C45.5348 8.35195 45.7398 8.48859 46.0131 8.62523C46.2863 8.76188 46.628 8.83021 46.9696 8.83021C47.5162 8.83021 47.9261 8.69357 48.1994 8.42027C48.4727 8.14698 48.6776 7.80536 48.6776 7.3271V6.23393L48.8143 5.20909L48.6776 4.18424V3.02275H49.3609V7.3271C49.3609 7.73704 49.2926 8.14698 49.0876 8.48859C48.8826 8.83021 48.6093 9.03518 48.2677 9.24015C47.9261 9.44512 47.5162 9.51344 47.0379 9.51344V9.44512ZM47.2429 6.78052C47.5162 6.78052 47.7895 6.78051 48.0627 6.57555C48.2677 6.4389 48.4727 6.23394 48.6093 6.02897C48.746 5.75568 48.8143 5.48238 48.8143 5.14077C48.8143 4.79915 48.8143 4.52586 48.6093 4.3209C48.4044 4.11593 48.2677 3.91096 48.0627 3.77431C47.8578 3.63766 47.5845 3.56934 47.2429 3.56934C46.9013 3.56934 46.628 3.63766 46.423 3.77431C46.1497 3.91096 46.0131 4.11593 45.8764 4.3209C45.7398 4.59419 45.6714 4.86748 45.6714 5.14077C45.6714 5.41406 45.7398 5.75567 45.8764 5.96064C46.0131 6.23393 46.218 6.37058 46.423 6.50723C46.6963 6.64387 46.9696 6.7122 47.2429 6.7122V6.78052Z" fill="black"/>
<path d="M51.0681 1.9979C50.9315 1.9979 50.8631 1.9979 50.7265 1.86126C50.5898 1.72461 50.5898 1.65629 50.5898 1.51964C50.5898 1.38299 50.5898 1.24635 50.7265 1.17803C50.8631 1.1097 50.9315 1.04138 51.0681 1.04138C51.2047 1.04138 51.3414 1.04138 51.4097 1.17803C51.478 1.24635 51.5464 1.38299 51.5464 1.51964C51.5464 1.65629 51.5464 1.79293 51.4097 1.86126C51.3414 1.92958 51.2047 1.9979 51.0681 1.9979ZM50.7265 7.46374V2.95443H51.4097V7.46374H50.7265Z" fill="black"/>
<path d="M52.709 7.46375V2.95444H53.3922V7.46375H52.709ZM55.9885 7.46375V4.79915C55.9885 4.38922 55.8518 4.11592 55.6469 3.84263C55.4419 3.56933 55.1003 3.50101 54.6904 3.50101C54.2804 3.50101 54.2121 3.50102 54.0071 3.63767C53.8022 3.77431 53.6655 3.91096 53.5289 4.11592C53.3922 4.32089 53.3239 4.52586 53.3239 4.79915L53.0506 4.59418C53.0506 4.25257 53.1189 3.97927 53.2556 3.70598C53.3922 3.43269 53.6655 3.22773 53.9388 3.09108C54.2121 2.95443 54.5537 2.88611 54.8953 2.88611C55.2369 2.88611 55.5785 2.95443 55.7835 3.1594C56.0568 3.29604 56.2618 3.56933 56.3984 3.84263C56.5351 4.11592 56.6034 4.45753 56.6034 4.73083V7.46375H55.9202H55.9885Z" fill="black"/>
<path d="M60.0183 7.53207C59.54 7.53207 59.1984 7.46375 58.7884 7.25878C58.4468 7.05381 58.1735 6.78052 57.9686 6.4389C57.7636 6.09729 57.627 5.68735 57.627 5.20909C57.627 4.73083 57.6953 4.38921 57.9002 4.0476C58.1052 3.70598 58.3785 3.43269 58.7201 3.22773C59.0617 3.02276 59.4717 2.95444 59.8816 2.95444C60.2915 2.95444 60.6332 3.02276 60.9748 3.22773C61.3164 3.43269 61.5214 3.63767 61.7263 3.97928C61.9313 4.3209 61.9996 4.66251 61.9996 5.14077C61.9996 5.61903 61.9996 5.27742 61.9996 5.34574C61.9996 5.34574 61.9996 5.48238 61.9996 5.5507H58.1052V5.00413H61.658L61.453 5.20909C61.453 4.86747 61.453 4.59418 61.3164 4.38921C61.1797 4.18424 61.0431 3.97927 60.8381 3.84263C60.6332 3.70598 60.3599 3.63767 60.0183 3.63767C59.6766 3.63767 59.4033 3.70598 59.1984 3.84263C58.9251 3.97927 58.7884 4.18425 58.6518 4.45754C58.5152 4.73083 58.4468 5.00413 58.4468 5.34574C58.4468 5.68736 58.5152 5.96064 58.6518 6.23393C58.7884 6.50722 58.9934 6.7122 59.2667 6.84885C59.54 6.98549 59.8133 7.05382 60.1549 7.05382C60.4965 7.05382 60.7015 7.05381 60.9065 6.91716C61.1114 6.78052 61.3164 6.64387 61.5214 6.4389L61.9313 6.84885C61.7263 7.12214 61.453 7.3271 61.1797 7.46375C60.8381 7.60039 60.5648 7.66872 60.1549 7.66872L60.0183 7.53207Z" fill="black"/>
<path d="M65.1433 7.53207C64.665 7.53207 64.3234 7.46375 63.9134 7.25878C63.5718 7.05381 63.2985 6.78052 63.0936 6.4389C62.8886 6.09729 62.752 5.68735 62.752 5.20909C62.752 4.73083 62.8203 4.38921 63.0252 4.0476C63.2302 3.70598 63.5035 3.43269 63.8451 3.22773C64.1867 3.02276 64.5967 2.95444 65.0066 2.95444C65.4165 2.95444 65.7582 3.02276 66.0998 3.22773C66.4414 3.43269 66.6464 3.63767 66.8513 3.97928C67.0563 4.3209 67.1246 4.66251 67.1246 5.14077C67.1246 5.61903 67.1246 5.27742 67.1246 5.34574C67.1246 5.34574 67.1246 5.48238 67.1246 5.5507H63.2302V5.00413H66.783L66.578 5.20909C66.578 4.86747 66.578 4.59418 66.4414 4.38921C66.3047 4.18424 66.1681 3.97927 65.9631 3.84263C65.7582 3.70598 65.4849 3.63767 65.1433 3.63767C64.8016 3.63767 64.5283 3.70598 64.3234 3.84263C64.0501 3.97927 63.9134 4.18425 63.7768 4.45754C63.6402 4.73083 63.5718 5.00413 63.5718 5.34574C63.5718 5.68736 63.6402 5.96064 63.7768 6.23393C63.9134 6.50722 64.1184 6.7122 64.3917 6.84885C64.665 6.98549 64.9383 7.05382 65.2799 7.05382C65.6215 7.05382 65.8265 7.05381 66.0315 6.91716C66.2364 6.78052 66.4414 6.64387 66.6464 6.4389L67.0563 6.84885C66.8513 7.12214 66.578 7.3271 66.3047 7.46375C65.9631 7.60039 65.6898 7.66872 65.2799 7.66872L65.1433 7.53207Z" fill="black"/>
<path d="M68.2188 7.46375V2.95444H68.902V7.46375H68.2188ZM68.902 4.86747L68.6287 4.73083C68.6287 4.18424 68.7653 3.70598 69.0386 3.36437C69.3119 3.02275 69.7219 2.88611 70.2001 2.88611C70.6784 2.88611 70.6101 2.88611 70.815 3.02275C71.02 3.09108 71.1566 3.22773 71.3616 3.43269L70.8833 3.91095C70.7467 3.77431 70.6784 3.70599 70.5417 3.63767C70.4051 3.63767 70.2684 3.56934 70.0635 3.56934C69.7219 3.56934 69.4486 3.70598 69.2436 3.91095C69.0386 4.11592 68.902 4.45754 68.902 4.9358V4.86747Z" fill="black"/>
<path d="M71.6348 1.17803V0.699768H74.3677V1.17803H71.6348ZM72.7279 4.04759V0.768085H73.2745V4.04759H72.7279Z" fill="black"/>
<path d="M74.8457 4.04759V0.699768H75.2556L76.6221 3.02275H76.3488L77.7153 0.699768H78.1252V4.04759H77.5786V1.65629H77.7153L76.6904 3.36436H76.2805L75.2556 1.65629H75.3923V3.97927H74.8457V4.04759Z" fill="black"/>
</svg>
