<svg width="58" height="9" viewBox="0 0 58 9" fill="none" xmlns="http://www.w3.org/2000/svg">
<path d="M23.037 6.73913C22.6892 6.93789 22.2916 7.03726 21.7947 7.03726C21.2979 7.03726 21.0494 6.98758 20.7513 6.83851C20.4531 6.68944 20.155 6.49068 19.9066 6.24223C19.6581 5.99379 19.509 5.69565 19.36 5.34782C19.2109 5 19.1612 4.65217 19.1612 4.25466C19.1612 3.85714 19.2109 3.50931 19.36 3.16149C19.509 2.81366 19.6581 2.51553 19.9066 2.26708C20.155 2.01863 20.4034 1.81987 20.7513 1.6708C21.0494 1.52174 21.3972 1.47205 21.7947 1.47205C22.1923 1.47205 22.6395 1.57143 22.9873 1.72049C23.3351 1.91925 23.6829 2.11801 23.9811 2.41615L24.8755 1.37267C24.6767 1.17391 24.478 1.02484 24.2792 0.875774C24.0805 0.726705 23.832 0.577637 23.5836 0.478259C23.3351 0.37888 23.0867 0.279501 22.7885 0.229811C22.4904 0.180122 22.1426 0.130432 21.7947 0.130432C21.1985 0.130432 20.6519 0.229811 20.155 0.428569C19.6581 0.627327 19.2109 0.925463 18.8631 1.32298C18.5152 1.72049 18.2171 2.11801 18.0184 2.6149C17.8196 3.1118 17.7202 3.65838 17.7202 4.20497C17.7202 4.75155 17.8196 5.29813 18.0184 5.79503C18.2171 6.29192 18.5152 6.73913 18.8631 7.08696C19.2109 7.43478 19.6581 7.73292 20.1053 7.93167C20.6022 8.13043 21.1488 8.22981 21.6954 8.22981C22.242 8.22981 22.391 8.22981 22.6892 8.13043C22.9873 8.08074 23.2854 7.98136 23.5339 7.8323C23.7823 7.73292 24.0308 7.58385 24.2295 7.38509C24.4283 7.23602 24.6767 7.03726 24.8755 6.78882L23.9811 5.89441C23.6333 6.19254 23.2854 6.44099 22.9376 6.63975L23.037 6.73913Z" fill="black"/>
<path d="M28.0559 4.80125H31.9813V3.50932H28.0559V1.52175H32.4782V0.27951H26.6646V8.13044H32.5279V6.88821H28.0559V4.80125Z" fill="black"/>
<path d="M39.7825 4.85091C40.0309 4.70185 40.2297 4.55278 40.3787 4.35402C40.5278 4.15526 40.6769 3.90682 40.7763 3.65837C40.8756 3.40992 40.9253 3.11178 40.9253 2.76396C40.9253 2.41613 40.8756 2.01862 40.7266 1.72048C40.5775 1.42234 40.3787 1.12421 40.1303 0.925449C39.8819 0.726692 39.5837 0.527934 39.1862 0.428555C38.8384 0.329176 38.3912 0.229797 37.944 0.229797H34.416V8.08073H35.8073V5.34781H37.5464L39.4843 8.08073H41.1241L38.9874 5.09936C39.2856 4.99998 39.534 4.9006 39.7328 4.80123L39.7825 4.85091ZM35.857 4.20495V1.57141H37.8943C38.3912 1.57141 38.8384 1.67079 39.0868 1.91924C39.385 2.118 39.534 2.46582 39.534 2.91303C39.534 3.36023 39.385 3.65837 39.0868 3.90682C38.7887 4.15526 38.3912 4.25464 37.8943 4.25464H35.857V4.20495Z" fill="black"/>
<path d="M42.3164 1.52175H44.8009V8.13044H46.1922V1.52175H48.6767V0.27951H42.3164V1.52175Z" fill="black"/>
<path d="M52.8012 5.19876C52.6025 5.0497 52.4037 4.95032 52.205 4.85094C52.0062 4.75156 51.7578 4.70187 51.559 4.60249C51.4099 4.5528 51.2112 4.50311 51.0621 4.45342C50.913 4.40373 50.764 4.35404 50.6149 4.25467C50.5155 4.20498 50.4161 4.1056 50.3168 4.05591C50.2174 3.95653 50.2174 3.90684 50.2174 3.75777C50.2174 3.55901 50.2671 3.40994 50.4161 3.31056C50.5652 3.21119 50.764 3.1615 51.0124 3.1615C51.2609 3.1615 51.5093 3.21119 51.8075 3.31056C52.1056 3.40994 52.4037 3.55901 52.6522 3.70808L53.1988 2.76398C52.9006 2.56522 52.5528 2.36647 52.1553 2.26709C51.7578 2.16771 51.4099 2.06833 51.0124 2.06833C50.6149 2.06833 50.4658 2.06833 50.1677 2.16771C49.9193 2.26709 49.6708 2.36647 49.472 2.51553C49.2733 2.6646 49.1242 2.86336 49.0248 3.11181C48.9255 3.36025 48.8758 3.6087 48.8758 3.85715C48.8758 4.15529 48.9255 4.40373 49.0248 4.60249C49.1242 4.80125 49.2733 4.95032 49.472 5.09939C49.6708 5.24845 49.8696 5.34783 50.0683 5.39752C50.2671 5.4969 50.5155 5.54659 50.7143 5.64597C50.8633 5.69566 51.0621 5.74535 51.2112 5.79504C51.3602 5.79504 51.5093 5.89442 51.6584 5.9441C51.7578 5.99379 51.8571 6.09317 51.9565 6.14286C52.0062 6.24224 52.0559 6.34162 52.0559 6.441C52.0559 6.63976 51.9565 6.83851 51.8075 6.93789C51.6584 7.03727 51.4099 7.13665 51.1118 7.13665C50.8137 7.13665 50.4658 7.08696 50.1677 6.93789C49.8199 6.83851 49.5217 6.63976 49.1739 6.39131L48.5776 7.33541C48.9752 7.63355 49.3727 7.8323 49.8199 7.98137C50.2671 8.13044 50.7143 8.22982 51.1118 8.22982C51.5093 8.22982 51.7081 8.22982 51.9565 8.13044C52.205 8.03106 52.4534 7.93168 52.6522 7.78261C52.8509 7.63355 53 7.43479 53.0994 7.18634C53.1988 6.93789 53.2484 6.68945 53.2484 6.34162C53.2484 6.04349 53.1988 5.84473 53.0994 5.64597C53 5.44721 52.8509 5.29814 52.6522 5.14907L52.8012 5.19876Z" fill="black"/>
<path d="M6.39113 0.329193L5.19858 3.16149H3.11162L1.27311 1.32298C1.37249 1.2236 1.37249 1.07454 1.37249 0.975156C1.37249 0.62733 1.07436 0.329193 0.72653 0.329193C0.378704 0.329193 0.0805664 0.62733 0.0805664 0.975156C0.0805664 1.32298 0.378704 1.62112 0.72653 1.62112C1.07436 1.62112 0.875598 1.62112 0.974977 1.62112L2.91286 3.55901H4.99982L4.75137 4.20497H1.37249C1.27311 3.95652 1.07436 3.75777 0.776219 3.75777C0.478083 3.75777 0.130256 4.0559 0.130256 4.40373C0.130256 4.75155 0.428393 5.04969 0.776219 5.04969C1.12405 5.04969 1.3228 4.85093 1.37249 4.60249H4.65199L4.40355 5.24845H2.96255L1.02467 7.18634C0.974977 7.18634 0.875598 7.18634 0.776219 7.18634C0.428393 7.18634 0.130256 7.48447 0.130256 7.8323C0.130256 8.18013 0.428393 8.47826 0.776219 8.47826C1.12405 8.47826 1.42218 8.18013 1.42218 7.8323C1.42218 7.48447 1.42218 7.58385 1.3228 7.48447L3.16131 5.64596H4.30417L3.11162 8.47826H4.90044L5.5961 6.68944H8.92529L9.62094 8.47826H11.4098L8.03088 0.527952H6.44081L6.39113 0.329193ZM6.14268 4.95031L7.18616 2.41615L8.22963 4.95031H6.14268Z" fill="#C8A94C"/>
<path d="M14.6893 0.378876H12.9502V8.22981H14.6893V0.378876Z" fill="#C8A94C"/>
<path d="M53.3975 0.677026H54.0434V2.31678H54.4906V0.677026H55.1366V0.27951H53.3975V0.677026Z" fill="black"/>
<path d="M57.1736 0.27951L56.627 1.12423L56.0804 0.27951H55.5835V2.31678H56.0307V0.975162L56.5773 1.86957H56.627L57.1736 0.975162V2.31678H57.6705V0.27951H57.1736Z" fill="black"/>
</svg>
