<svg width="60" height="17" viewBox="0 0 60 17" fill="none" xmlns="http://www.w3.org/2000/svg">
<path d="M0.291992 15.8526V3.54678H1.61348V15.8526H0.291992ZM1.15146 15.8526V14.69H5.05135C5.85121 14.69 6.48711 14.4615 6.9541 14.0094C7.4211 13.5573 7.65956 12.991 7.65956 12.3104C7.65956 11.8682 7.55524 11.4708 7.34658 11.1131C7.13792 10.7554 6.84481 10.4722 6.47221 10.2635C6.0996 10.0549 5.65745 9.95056 5.15568 9.95056H1.15146V8.80791H4.96193C5.61771 8.80791 6.13935 8.62907 6.52685 8.27137C6.91436 7.91367 7.10811 7.40693 7.10811 6.75115C7.10811 6.11028 6.89946 5.60851 6.48214 5.25081C6.06483 4.89312 5.50841 4.71427 4.81786 4.71427H1.15146V3.55175H4.85263C5.61771 3.55175 6.26355 3.69085 6.8001 3.9641C7.33664 4.23734 7.74402 4.60994 8.01726 5.07196C8.2905 5.53399 8.42961 6.0606 8.42961 6.64683C8.42961 7.33738 8.25076 7.93354 7.89306 8.42538C7.53536 8.92218 7.00875 9.29975 6.3182 9.56305L6.4424 9.1358C7.24225 9.38421 7.86325 9.79655 8.31037 10.3679C8.75749 10.9392 8.98106 11.6198 8.98106 12.4048C8.98106 13.0605 8.82208 13.6468 8.5091 14.1634C8.19114 14.6801 7.73408 15.0925 7.13295 15.3955C6.53182 15.6986 5.80649 15.8526 4.96193 15.8526H1.15146Z" fill="black"/>
<path d="M11.793 5.63833C11.5545 5.63833 11.3508 5.54891 11.1869 5.37006C11.0229 5.19121 10.9385 4.98255 10.9385 4.74409C10.9385 4.49569 11.0229 4.28703 11.1869 4.11812C11.3508 3.94921 11.5545 3.86972 11.793 3.86972C12.0563 3.86972 12.2649 3.95418 12.4289 4.11812C12.5928 4.28207 12.6723 4.49569 12.6723 4.74409C12.6723 4.98255 12.5928 5.19121 12.4289 5.37006C12.2649 5.54891 12.0563 5.63833 11.793 5.63833ZM11.167 15.8526V7.44669H12.4388V15.8526H11.167Z" fill="black"/>
<path d="M14.1523 8.58932V7.44668H19.642V8.58932H14.1523ZM16.2638 15.8526V3.90448H17.5356V15.8526H16.2638Z" fill="black"/>
<path d="M25.1715 16.0314C24.3468 16.0314 23.6066 15.8377 22.9458 15.4501C22.2851 15.0626 21.7634 14.536 21.3809 13.8654C20.9984 13.1996 20.8096 12.4544 20.8096 11.6297C20.8096 10.8051 20.9984 10.0648 21.3809 9.40407C21.7634 8.74333 22.2851 8.22168 22.9458 7.83915C23.6066 7.45661 24.3518 7.26782 25.1715 7.26782C25.8173 7.26782 26.4135 7.38706 26.96 7.62552C27.5065 7.86399 27.9735 8.19684 28.356 8.62906L27.5164 9.48853C27.2283 9.16561 26.8855 8.92217 26.488 8.74829C26.0906 8.57441 25.6484 8.48995 25.1715 8.48995C24.5853 8.48995 24.0636 8.62906 23.5966 8.9023C23.1296 9.17554 22.767 9.54814 22.5037 10.0201C22.2404 10.4921 22.1112 11.0336 22.1112 11.6397C22.1112 12.2458 22.2404 12.7923 22.5037 13.2742C22.767 13.7561 23.1296 14.1336 23.5966 14.4118C24.0636 14.6851 24.5853 14.8242 25.1715 14.8242C25.6484 14.8242 26.0906 14.7397 26.493 14.5658C26.9004 14.392 27.2481 14.1436 27.5462 13.8256L28.3858 14.6652C27.9933 15.1074 27.5164 15.4452 26.9649 15.6836C26.4135 15.9221 25.8124 16.0314 25.1715 16.0314Z" fill="black"/>
<path d="M33.9508 16.0314C33.1261 16.0314 32.3908 15.8327 31.7351 15.4402C31.0793 15.0477 30.5576 14.5162 30.1701 13.8504C29.7826 13.1847 29.5889 12.4395 29.5889 11.6148C29.5889 10.8051 29.7826 10.0698 30.1701 9.41401C30.5576 8.75823 31.0793 8.23658 31.7351 7.84908C32.3908 7.46157 33.1311 7.26782 33.9508 7.26782C34.7606 7.26782 35.4958 7.45661 36.1616 7.83915C36.8273 8.22168 37.3489 8.74333 37.7364 9.40407C38.1239 10.0648 38.3177 10.8001 38.3177 11.6148C38.3177 12.4495 38.1239 13.1996 37.7364 13.8604C37.3489 14.5211 36.8223 15.0477 36.1616 15.4452C35.5008 15.8327 34.7606 16.0314 33.9508 16.0314ZM33.9508 14.8142C34.537 14.8142 35.0587 14.6751 35.5257 14.4019C35.9926 14.1287 36.3553 13.7461 36.6186 13.2593C36.8819 12.7724 37.0111 12.2209 37.0111 11.6148C37.0111 11.0187 36.877 10.4871 36.6087 10.0151C36.3404 9.54317 35.9777 9.17057 35.5157 8.89733C35.0587 8.62409 34.537 8.48499 33.9508 8.48499C33.3646 8.48499 32.8429 8.62409 32.3759 8.89733C31.9089 9.17057 31.5463 9.54317 31.283 10.0151C31.0197 10.4871 30.8905 11.0187 30.8905 11.6148C30.8905 12.2358 31.0197 12.7873 31.283 13.2692C31.5463 13.7511 31.9089 14.1287 32.3759 14.4069C32.8429 14.6801 33.3695 14.8142 33.9508 14.8142Z" fill="black"/>
<path d="M40.9258 5.63833C40.6873 5.63833 40.4836 5.54891 40.3197 5.37006C40.1557 5.19121 40.0713 4.98255 40.0713 4.74409C40.0713 4.49569 40.1557 4.28703 40.3197 4.11812C40.4836 3.94921 40.6873 3.86972 40.9258 3.86972C41.1891 3.86972 41.3978 3.95418 41.5617 4.11812C41.7256 4.28207 41.8051 4.49569 41.8051 4.74409C41.8051 4.98255 41.7256 5.19121 41.5617 5.37006C41.3978 5.54891 41.1891 5.63833 40.9258 5.63833ZM40.2998 15.8526V7.44669H41.5716V15.8526H40.2998Z" fill="black"/>
<path d="M44.0898 15.8526V7.44667H45.3617V15.8526H44.0898ZM50.2253 15.8526V10.9143C50.2253 10.189 50.0068 9.59286 49.5646 9.1358C49.1224 8.67874 48.5462 8.44524 47.8308 8.44524C47.3538 8.44524 46.9316 8.54957 46.5589 8.75823C46.1913 8.96688 45.8982 9.25503 45.6846 9.62763C45.471 9.99526 45.3617 10.4225 45.3617 10.8994L44.7903 10.5765C44.7903 9.94559 44.9394 9.37923 45.2375 8.87746C45.5355 8.37569 45.9429 7.98322 46.4546 7.69507C46.9663 7.40693 47.5476 7.26782 48.1885 7.26782C48.8293 7.26782 49.4056 7.42183 49.9074 7.73482C50.4092 8.04283 50.7967 8.46015 51.0798 8.98676C51.3581 9.51337 51.5021 10.0847 51.5021 10.7057V15.8575H50.2253V15.8526Z" fill="black"/>
<path d="M54.9454 7.80936H56.1278V4.62983H59.2626V3.53189H56.1278V0.35733H54.9454V3.53189H51.8105V4.62983H54.9454V7.80936Z" fill="black"/>
</svg>
