<svg width="66" height="11" viewBox="0 0 66 11" fill="none" xmlns="http://www.w3.org/2000/svg">
<path d="M0.783203 10.1304V0.701874H1.80805V10.1304H0.783203ZM1.46643 1.6584V0.770196H6.93227V1.6584H1.46643ZM1.46643 5.75778V4.86957H6.59066V5.75778H1.46643ZM1.46643 10.1304V9.24224H7.0006V10.1304H1.46643Z" fill="black"/>
<path d="M11.305 10.2671C10.6901 10.2671 10.1435 10.1305 9.66521 9.85716C9.18695 9.58387 8.84534 9.17393 8.57205 8.62735C8.29875 8.14909 8.16211 7.53418 8.16211 6.91927C8.16211 6.30437 8.29875 5.68946 8.57205 5.2112C8.84534 4.73294 9.25528 4.323 9.73354 3.98138C10.2118 3.70809 10.7584 3.57145 11.305 3.57145C11.8515 3.57145 12.1932 3.63977 12.6031 3.84474C13.013 4.04971 13.3547 4.323 13.5596 4.66461C13.8329 5.00623 13.9696 5.41617 14.0379 5.89443V7.87579C14.0379 8.35405 13.8329 8.76399 13.5596 9.10561C13.2863 9.44722 13.013 9.72051 12.6031 9.92548C12.1932 10.1304 11.7832 10.1988 11.305 10.1988V10.2671ZM11.4416 9.3789C11.9199 9.3789 12.2615 9.24226 12.6031 9.03729C12.9447 8.83232 13.218 8.55903 13.423 8.14909C13.6279 7.80747 13.6963 7.39753 13.6963 6.91927C13.6963 6.44101 13.6279 6.03108 13.423 5.62114C13.218 5.27952 12.9447 4.9379 12.6031 4.80126C12.2615 4.59629 11.8516 4.45964 11.4416 4.45964C11.0317 4.45964 10.6217 4.59629 10.2801 4.80126C9.93851 5.00622 9.66521 5.27952 9.46024 5.68946C9.25528 6.09939 9.18695 6.44101 9.18695 6.91927C9.18695 7.39753 9.25528 7.80747 9.46024 8.2174C9.66521 8.55902 9.93851 8.90064 10.2801 9.10561C10.6217 9.31057 11.0317 9.44722 11.5099 9.44722L11.4416 9.3789ZM14.5845 10.1304H13.6279V8.42238L13.8329 6.85094L13.6279 5.27952V0.428589H14.5845V10.1304Z" fill="black"/>
<path d="M19.0943 10.2671C18.5477 10.2671 18.1378 10.1305 17.7278 9.92548C17.3179 9.72051 16.9763 9.3789 16.7713 8.90064C16.5663 8.42238 16.4297 8.01244 16.4297 7.39753V3.63977H17.3862V7.32922C17.3862 7.73916 17.4545 8.08077 17.5912 8.35406C17.7278 8.62735 17.9328 8.90065 18.2061 9.03729C18.4794 9.17394 18.7527 9.31058 19.0943 9.31058C19.6409 9.31058 20.0508 9.10561 20.3924 8.76399C20.734 8.42238 20.8707 7.94412 20.8707 7.32922V3.63977H21.8272V7.39753C21.8272 7.94412 21.6906 8.42238 21.4856 8.90064C21.2806 9.31058 20.939 9.65219 20.5291 9.92548C20.1191 10.1305 19.6409 10.2671 19.0943 10.2671Z" fill="black"/>
<path d="M26.5412 10.2671C25.9263 10.2671 25.3114 10.1304 24.8331 9.78882C24.3548 9.51553 23.9449 9.10559 23.6033 8.55901C23.33 8.08075 23.1934 7.46584 23.1934 6.85093C23.1934 6.23603 23.33 5.62112 23.6033 5.14286C23.8766 4.6646 24.2865 4.25467 24.8331 3.91305C25.3114 3.63976 25.9263 3.50311 26.5412 3.50311C27.1561 3.50311 27.4977 3.57143 27.9076 3.7764C28.3176 3.98137 28.6592 4.18634 29.0008 4.52796L28.3859 5.21119C28.1809 4.9379 27.9076 4.80125 27.6344 4.6646C27.3611 4.52796 27.0194 4.45963 26.6095 4.45963C26.1996 4.45963 25.7896 4.59628 25.3797 4.80125C25.0381 5.00621 24.7648 5.27951 24.5598 5.62113C24.3548 5.96274 24.2865 6.37267 24.2865 6.85093C24.2865 7.3292 24.3548 7.73914 24.5598 8.08075C24.7648 8.42237 25.0381 8.76398 25.3797 8.96895C25.7213 9.17392 26.1312 9.31057 26.6095 9.31057C27.0878 9.31057 27.2927 9.31056 27.6344 9.1056C27.976 8.90063 28.1809 8.76398 28.4542 8.55901L29.0691 9.17392C28.7958 9.51554 28.3859 9.78882 27.976 9.92547C27.566 10.1304 27.0878 10.1988 26.6095 10.1988L26.5412 10.2671Z" fill="black"/>
<path d="M33.0999 10.2671C32.4849 10.2671 31.9384 10.1304 31.4601 9.78882C30.9818 9.51553 30.5719 9.10559 30.2986 8.55901C30.0253 8.01243 29.8887 7.46584 29.8887 6.85093C29.8887 6.23603 30.0253 5.62112 30.2986 5.14286C30.5719 4.6646 30.9818 4.25467 31.4601 3.91305C31.9384 3.63976 32.4849 3.50311 33.0999 3.50311C33.7148 3.50311 34.0564 3.57143 34.398 3.7764C34.8079 3.98137 35.0812 4.25467 35.3545 4.59628C35.6278 4.9379 35.7645 5.34783 35.7645 5.82609V7.80746C35.7645 8.28572 35.5595 8.69566 35.2862 9.03728C35.0129 9.37889 34.7396 9.65218 34.3297 9.85715C33.9197 10.0621 33.5098 10.1304 33.0315 10.1304L33.0999 10.2671ZM33.2365 9.37889C33.9197 9.37889 34.4663 9.17392 34.8763 8.69566C35.2862 8.2174 35.4912 7.67081 35.4912 6.91926C35.4912 6.16771 35.4228 6.03107 35.2179 5.62113C35.0129 5.21119 34.8079 4.93789 34.4663 4.80125C34.1247 4.59628 33.7148 4.45963 33.3048 4.45963C32.8949 4.45963 32.4849 4.59628 32.075 4.80125C31.7334 5.00621 31.4601 5.27951 31.2551 5.68945C31.0502 6.09938 30.9135 6.441 30.9135 6.91926C30.9135 7.39752 31.0502 7.80746 31.2551 8.14908C31.4601 8.49069 31.7334 8.83231 32.075 9.03728C32.4166 9.24225 32.8266 9.37889 33.3048 9.37889H33.2365ZM35.4228 10.1304V8.42237L35.6278 6.85093L35.4228 5.27951V3.70808H36.3794V10.1304H35.4228Z" fill="black"/>
<path d="M37.6094 4.59628V3.70808H41.7771V4.59628H37.6094ZM39.2491 10.1304V0.975159H40.2057V10.1304H39.2491Z" fill="black"/>
<path d="M46.0138 10.2671C45.3989 10.2671 44.8523 10.1304 44.3057 9.78882C43.7591 9.44721 43.4175 9.10559 43.0759 8.55901C42.8026 8.08075 42.5977 7.46584 42.5977 6.85093C42.5977 6.23603 42.7343 5.68944 43.0759 5.14286C43.3492 4.6646 43.7591 4.25467 44.3057 3.91305C44.784 3.63976 45.3989 3.50311 46.0138 3.50311C46.6287 3.50311 47.1753 3.63976 47.7219 3.91305C48.2001 4.18635 48.6101 4.59628 48.9517 5.14286C49.225 5.62112 49.3616 6.23603 49.3616 6.85093C49.3616 7.46584 49.225 8.08075 48.9517 8.55901C48.6784 9.03727 48.2685 9.44721 47.7219 9.78882C47.2436 10.0621 46.6287 10.2671 46.0138 10.2671ZM46.0138 9.31057C46.4921 9.31057 46.8337 9.17392 47.2436 8.96895C47.5852 8.76398 47.8585 8.49069 48.0635 8.08075C48.2685 7.73914 48.3368 7.26087 48.3368 6.85093C48.3368 6.441 48.2685 5.96274 48.0635 5.62113C47.8585 5.27951 47.5852 5.00621 47.2436 4.80125C46.902 4.59628 46.4921 4.45963 46.0138 4.45963C45.5355 4.45963 45.1939 4.59628 44.784 4.80125C44.4424 5.00621 44.1691 5.27951 43.9641 5.62113C43.7591 5.96274 43.6908 6.37267 43.6908 6.85093C43.6908 7.3292 43.7591 7.73914 43.9641 8.14908C44.1691 8.49069 44.4424 8.83231 44.784 9.03728C45.1256 9.24225 45.5355 9.37889 46.0138 9.37889V9.31057Z" fill="black"/>
<path d="M50.8633 10.1305V3.7081H51.8198V10.1305H50.8633ZM51.8198 6.37269L51.4099 6.23605C51.4099 5.41617 51.6148 4.80126 52.0248 4.323C52.4347 3.84474 52.9813 3.63977 53.6645 3.63977C54.3478 3.63977 54.2794 3.63977 54.5527 3.77641C54.826 3.91306 55.031 4.04971 55.3043 4.323L54.6894 5.00623C54.5527 4.86958 54.3478 4.73294 54.2111 4.66462C54.0061 4.59629 53.8012 4.52797 53.5962 4.52797C53.1179 4.52797 52.708 4.66462 52.3664 5.00623C52.0248 5.34785 51.8881 5.82611 51.8881 6.44102L51.8198 6.37269Z" fill="black"/>
<path d="M55.7148 1.11181V0.36026H59.8142V1.11181H55.7148ZM57.3546 5.34783V0.496904H58.1745V5.34783H57.3546Z" fill="black"/>
<path d="M60.5664 5.34783V0.36026H61.113L63.231 3.7764H62.8894L65.0074 0.36026H65.554V5.34783H64.7341V1.79504H64.9391L63.3676 4.39132H62.8211L61.2496 1.86337H61.4546V5.41616H60.6347L60.5664 5.34783Z" fill="black"/>
</svg>
