<svg width="49" height="10" viewBox="0 0 49 10" fill="none" xmlns="http://www.w3.org/2000/svg">
<path d="M0.478516 7.91305V1.05591H1.22386V7.91305H0.478516ZM0.92572 1.75156V1.1056H4.90088V1.75156H0.92572ZM0.92572 4.73293V4.08696H4.65243V4.73293H0.92572ZM0.92572 7.91305V7.26708H4.95056V7.91305H0.92572Z" fill="black"/>
<path d="M7.78204 7.91299L5.5957 3.24219H6.39073L8.22924 7.31672H7.78204L9.62055 3.24219H10.3659L8.17955 7.91299H7.78204Z" fill="black"/>
<path d="M13.3985 8.01238C12.9513 8.01238 12.5041 7.91301 12.1563 7.71425C11.8085 7.51549 11.5103 7.21735 11.2619 6.81984C11.0631 6.47201 10.9141 6.02481 10.9141 5.5776C10.9141 5.1304 11.0134 4.68319 11.2122 4.33537C11.411 3.98754 11.7091 3.6894 12.0569 3.44095C12.4047 3.2422 12.852 3.14282 13.2992 3.14282C13.7464 3.14282 14.0942 3.2422 14.442 3.44095C14.7898 3.63971 15.0383 3.88816 15.237 4.23599C15.4358 4.58381 15.5352 4.98133 15.5352 5.42853C15.5352 5.87574 15.5352 5.52792 15.5352 5.62729C15.5352 5.67698 15.5352 5.77636 15.5352 5.87574H11.5103V5.27946H15.1874L14.9389 5.47822C14.9389 5.1304 14.8892 4.83226 14.7898 4.58381C14.6905 4.33537 14.4917 4.13661 14.2433 3.98754C13.9948 3.83847 13.7464 3.78878 13.3985 3.78878C13.0507 3.78878 12.7526 3.83847 12.5041 4.03723C12.2557 4.18629 12.0569 4.38506 11.9079 4.63351C11.7588 4.88195 11.7091 5.18009 11.7091 5.5776C11.7091 5.97512 11.7588 6.27325 11.9079 6.5217C12.0569 6.77015 12.2557 7.01859 12.5538 7.16766C12.8023 7.31673 13.1501 7.41611 13.4979 7.41611C13.8457 7.41611 14.0445 7.36642 14.2929 7.26704C14.5414 7.16766 14.7401 7.0186 14.8892 6.81984L15.3364 7.26704C15.1377 7.51549 14.8395 7.71425 14.5414 7.86332C14.1936 8.01239 13.8457 8.06207 13.4979 8.06207L13.3985 8.01238Z" fill="black"/>
<path d="M16.5781 7.913V3.2422H17.2738V7.913H16.5781ZM17.2738 5.18008L16.9756 5.08071C16.9756 4.48443 17.1247 4.03723 17.4228 3.6894C17.721 3.34157 18.1185 3.1925 18.6154 3.1925C19.1123 3.1925 19.0626 3.1925 19.2614 3.29188C19.4601 3.39126 19.6092 3.49064 19.8079 3.6894L19.3607 4.18629C19.2614 4.08691 19.1123 3.98754 19.0129 3.93785C18.8638 3.88816 18.7148 3.83847 18.5657 3.83847C18.2179 3.83847 17.9197 3.93785 17.6713 4.18629C17.4228 4.43474 17.3235 4.78257 17.3235 5.22978L17.2738 5.18008Z" fill="black"/>
<path d="M21.9943 7.913L19.957 3.1925H20.7521L22.3918 7.11798H22.0937L23.8328 3.1925H24.6278L22.4415 7.913H22.044H21.9943ZM20.7024 9.85089L21.9943 7.21735L22.3918 7.913L21.4974 9.85089H20.7024Z" fill="black"/>
<path d="M27.3106 8.01239C26.8634 8.01239 26.4659 7.91301 26.0684 7.66457C25.7206 7.46581 25.4224 7.16767 25.174 6.77016C24.9752 6.42233 24.8262 5.97512 24.8262 5.52792C24.8262 5.08071 24.9256 4.6832 25.174 4.28568C25.3728 3.93786 25.6709 3.63973 26.0684 3.39128C26.4162 3.19252 26.8634 3.09314 27.3106 3.09314C27.7578 3.09314 28.1554 3.19252 28.5529 3.39128C28.9504 3.59004 29.1988 3.88817 29.4473 4.28568C29.6957 4.6832 29.7951 5.08071 29.7951 5.52792C29.7951 5.97512 29.6957 6.42233 29.4473 6.77016C29.2485 7.11798 28.9504 7.41612 28.5529 7.66457C28.1554 7.91301 27.7578 8.01239 27.3106 8.01239ZM27.3106 7.31674C27.6585 7.31674 27.9069 7.21736 28.2051 7.06829C28.4535 6.91923 28.6523 6.72047 28.8013 6.42233C28.9504 6.17388 29.0001 5.82606 29.0001 5.52792C29.0001 5.22978 28.9504 4.88196 28.8013 4.63352C28.6523 4.38507 28.4535 4.1863 28.2051 4.03724C27.9566 3.88817 27.6585 3.78879 27.3106 3.78879C26.9628 3.78879 26.7144 3.88817 26.4162 4.03724C26.1678 4.1863 25.969 4.38507 25.82 4.63352C25.6709 4.88196 25.6212 5.18009 25.6212 5.52792C25.6212 5.87575 25.6709 6.17389 25.82 6.47202C25.969 6.72047 26.1678 6.96892 26.4162 7.11799C26.6647 7.26706 26.9628 7.36643 27.3106 7.36643V7.31674Z" fill="black"/>
<path d="M30.8379 7.913V3.2422H31.5335V7.913H30.8379ZM34.2665 7.913V5.18008C34.2665 4.78257 34.1671 4.43474 33.9186 4.1863C33.6702 3.93785 33.3721 3.78878 32.9745 3.78878C32.577 3.78878 32.4776 3.83847 32.2789 3.98754C32.0801 4.08692 31.9311 4.28568 31.782 4.48444C31.6329 4.68319 31.5832 4.93164 31.5832 5.18008L31.2851 4.98133C31.2851 4.6335 31.3845 4.33536 31.5335 4.03723C31.6826 3.73909 31.9311 3.54034 32.2292 3.39127C32.5273 3.2422 32.8255 3.14282 33.1733 3.14282C33.5211 3.14282 33.8689 3.2422 34.1174 3.39127C34.4155 3.54034 34.6143 3.78878 34.7634 4.08692C34.9124 4.38506 35.0118 4.68319 35.0118 5.03101V7.913H34.3162H34.2665Z" fill="black"/>
<path d="M38.3907 8.01238C37.9435 8.01238 37.4963 7.91301 37.1485 7.71425C36.8007 7.51549 36.5025 7.21735 36.2541 6.81984C36.0553 6.47201 35.9062 6.02481 35.9062 5.5776C35.9062 5.1304 36.0056 4.68319 36.2044 4.33537C36.4031 3.98754 36.7013 3.6894 37.0491 3.44095C37.3969 3.2422 37.8441 3.14282 38.2913 3.14282C38.7385 3.14282 39.0864 3.2422 39.4342 3.44095C39.782 3.63971 40.0305 3.88816 40.2292 4.23599C40.428 4.58381 40.5274 4.98133 40.5274 5.42853C40.5274 5.87574 40.5274 5.52792 40.5274 5.62729C40.5274 5.67698 40.5274 5.77636 40.5274 5.87574H36.5025V5.27946H40.1795L39.9311 5.47822C39.9311 5.1304 39.8814 4.83226 39.782 4.58381C39.6826 4.33537 39.4839 4.13661 39.2354 3.98754C38.987 3.83847 38.7385 3.78878 38.3907 3.78878C38.0429 3.78878 37.7448 3.83847 37.4963 4.03723C37.2479 4.18629 37.0491 4.38506 36.9 4.63351C36.751 4.88195 36.7013 5.18009 36.7013 5.5776C36.7013 5.97512 36.751 6.27325 36.9 6.5217C37.0491 6.77015 37.2479 7.01859 37.546 7.16766C37.7944 7.31673 38.1423 7.41611 38.4901 7.41611C38.8379 7.41611 39.0367 7.36642 39.2851 7.26704C39.5336 7.16766 39.7323 7.0186 39.8814 6.81984L40.3286 7.26704C40.1299 7.51549 39.8317 7.71425 39.5336 7.86332C39.1858 8.01239 38.8379 8.06207 38.4901 8.06207L38.3907 8.01238Z" fill="black"/>
<path d="M41.0254 1.35402V0.807434H44.0068V1.35402H41.0254ZM42.2179 4.43476V0.906811H42.8142V4.43476H42.2179Z" fill="black"/>
<path d="M44.5039 4.43476V0.807434H44.9014L46.4418 3.2919H46.1933L47.7337 0.807434H48.1312V4.43476H47.535V1.85091H47.684L46.5412 3.73911H46.1437L45.0008 1.9006H45.1499V4.48445H44.5536L44.5039 4.43476Z" fill="black"/>
</svg>
