<svg width="67" height="13" viewBox="0 0 67 13" fill="none" xmlns="http://www.w3.org/2000/svg">
<path d="M0.783203 10.1304V0.701874H1.80805V10.1304H0.783203ZM1.39811 1.6584V0.770196H6.86395V1.6584H1.39811ZM1.39811 5.75778V4.86957H6.52233V5.75778H1.39811ZM1.39811 10.1304V9.24224H6.93227V10.1304H1.39811Z" fill="black"/>
<path d="M10.8265 10.1305L7.82031 3.7081H8.91348L11.4414 9.31058H10.8265L13.3545 3.7081H14.3793L11.3731 10.1305H10.8265Z" fill="black"/>
<path d="M18.547 10.2671C17.9321 10.2671 17.3172 10.1304 16.8389 9.85715C16.3607 9.58386 15.9507 9.17392 15.6091 8.62734C15.3358 8.14908 15.1309 7.53417 15.1309 6.91926C15.1309 6.30436 15.2675 5.68945 15.5408 5.21119C15.8141 4.73293 16.224 4.32299 16.7023 3.98137C17.1806 3.70808 17.7955 3.57144 18.4104 3.57144C19.0253 3.57144 19.5035 3.70808 19.9818 3.98137C20.4601 4.25467 20.8017 4.59628 21.075 5.07455C21.3483 5.55281 21.4849 6.09939 21.4849 6.71429C21.4849 7.3292 21.4849 6.85094 21.4849 6.98759C21.4849 7.05591 21.4849 7.19256 21.4849 7.32921H15.9507V6.50932H21.0066L20.665 6.78262C20.665 6.30436 20.5967 5.89442 20.4601 5.5528C20.3234 5.21119 20.0501 4.9379 19.7085 4.73293C19.3669 4.52796 19.0253 4.45963 18.547 4.45963C18.0687 4.45963 17.6588 4.52796 17.3172 4.80125C16.9756 5.00622 16.7023 5.27952 16.4973 5.62113C16.2924 5.96275 16.224 6.37268 16.224 6.91926C16.224 7.46585 16.2924 7.87578 16.4973 8.2174C16.7023 8.55901 16.9756 8.90063 17.3855 9.1056C17.7271 9.31057 18.2054 9.44721 18.6837 9.44721C19.1619 9.44721 19.4352 9.37889 19.7768 9.24224C20.1184 9.10559 20.3917 8.90063 20.5967 8.62734L21.2116 9.24224C20.9383 9.58386 20.5284 9.85716 20.1184 10.0621C19.6402 10.2671 19.1619 10.3354 18.6837 10.3354L18.547 10.2671Z" fill="black"/>
<path d="M22.9199 10.1305V3.7081H23.8764V10.1305H22.9199ZM23.8764 6.37269L23.4665 6.23605C23.4665 5.41617 23.6715 4.80126 24.0814 4.323C24.4914 3.84474 25.0379 3.63977 25.7212 3.63977C26.4044 3.63977 26.3361 3.63977 26.6094 3.77641C26.8827 3.91306 27.0876 4.04971 27.3609 4.323L26.746 5.00623C26.6094 4.86958 26.4044 4.73294 26.2677 4.66462C26.0628 4.59629 25.8578 4.52797 25.6528 4.52797C25.1746 4.52797 24.7646 4.66462 24.423 5.00623C24.0814 5.34785 23.9448 5.82611 23.9448 6.44102L23.8764 6.37269Z" fill="black"/>
<path d="M30.3677 10.1305L27.5664 3.63977H28.6596L30.9142 9.03729H30.5043L32.8956 3.63977H33.9888L30.9826 10.1305H30.436H30.3677ZM28.5913 12.7951L30.3677 9.17394L30.9142 10.1305L29.6844 12.7951H28.5913Z" fill="black"/>
<path d="M37.6779 10.2671C37.063 10.2671 36.5164 10.1304 35.9698 9.78882C35.4915 9.51553 35.0816 9.10559 34.74 8.55901C34.4667 8.08075 34.2617 7.46584 34.2617 6.85093C34.2617 6.23603 34.3984 5.68944 34.74 5.14286C35.0133 4.6646 35.4232 4.25467 35.9698 3.91305C36.4481 3.63976 37.063 3.50311 37.6779 3.50311C38.2928 3.50311 38.8394 3.63976 39.3859 3.91305C39.9325 4.18635 40.2741 4.59628 40.6158 5.14286C40.9574 5.68944 41.094 6.23603 41.094 6.85093C41.094 7.46584 40.9574 8.08075 40.6158 8.55901C40.3425 9.03727 39.9325 9.44721 39.3859 9.78882C38.8394 10.1304 38.2928 10.2671 37.6779 10.2671ZM37.6779 9.31057C38.1561 9.31057 38.4977 9.17392 38.9077 8.96895C39.2493 8.76398 39.5226 8.49069 39.7276 8.08075C39.9325 7.73914 40.0009 7.26087 40.0009 6.85093C40.0009 6.441 39.9325 5.96274 39.7276 5.62113C39.5226 5.27951 39.2493 5.00621 38.9077 4.80125C38.5661 4.59628 38.1561 4.45963 37.6779 4.45963C37.1996 4.45963 36.858 4.59628 36.4481 4.80125C36.1064 5.00621 35.8331 5.27951 35.6282 5.62113C35.4232 5.96274 35.3549 6.37267 35.3549 6.85093C35.3549 7.3292 35.4232 7.73914 35.6282 8.14908C35.8331 8.49069 36.1064 8.83231 36.4481 9.03728C36.7897 9.24225 37.1996 9.37889 37.6779 9.37889V9.31057Z" fill="black"/>
<path d="M42.5293 10.1304V3.70809H43.4858V10.1304H42.5293ZM47.2436 10.1304V6.37268C47.2436 5.82609 47.1069 5.34783 46.7653 5.00622C46.4237 4.6646 46.0138 4.45963 45.4672 4.45963C44.9206 4.45963 44.784 4.52796 44.5107 4.73293C44.2374 4.86958 44.0324 5.14287 43.8274 5.41616C43.6225 5.68945 43.5541 6.03106 43.5541 6.37268L43.1442 6.09939C43.1442 5.62113 43.2809 5.21118 43.4858 4.80125C43.6908 4.39131 44.0324 4.11803 44.4423 3.91306C44.8523 3.70809 45.2622 3.57144 45.7405 3.57144C46.2187 3.57144 46.697 3.70809 47.0386 3.91306C47.4486 4.11803 47.7218 4.45964 47.9268 4.86957C48.1318 5.27951 48.2684 5.68945 48.2684 6.16771V10.1304H47.3119H47.2436Z" fill="black"/>
<path d="M52.9142 10.2671C52.2993 10.2671 51.6844 10.1304 51.2061 9.85715C50.7279 9.58386 50.3179 9.17392 49.9763 8.62734C49.703 8.14908 49.498 7.53417 49.498 6.91926C49.498 6.30436 49.6347 5.68945 49.908 5.21119C50.1813 4.73293 50.5912 4.32299 51.0695 3.98137C51.5477 3.70808 52.1626 3.57144 52.7775 3.57144C53.3925 3.57144 53.8707 3.70808 54.349 3.98137C54.8272 4.25467 55.1689 4.59628 55.4421 5.07455C55.7154 5.55281 55.8521 6.09939 55.8521 6.71429C55.8521 7.3292 55.8521 6.85094 55.8521 6.98759C55.8521 7.05591 55.8521 7.19256 55.8521 7.32921H50.3179V6.50932H55.3738L55.0322 6.78262C55.0322 6.30436 54.9639 5.89442 54.8272 5.5528C54.6906 5.21119 54.4173 4.9379 54.0757 4.73293C53.7341 4.52796 53.3925 4.45963 52.9142 4.45963C52.4359 4.45963 52.026 4.52796 51.6844 4.80125C51.3428 5.00622 51.0695 5.27952 50.8645 5.62113C50.6595 5.96275 50.5912 6.37268 50.5912 6.91926C50.5912 7.46585 50.6595 7.87578 50.8645 8.2174C51.0695 8.55901 51.3428 8.90063 51.7527 9.1056C52.0943 9.31057 52.5726 9.44721 53.0508 9.44721C53.5291 9.44721 53.8024 9.37889 54.144 9.24224C54.4856 9.10559 54.7589 8.90063 54.9639 8.62734L55.5788 9.24224C55.3055 9.58386 54.8956 9.85716 54.4856 10.0621C54.0074 10.2671 53.5291 10.3354 53.0508 10.3354L52.9142 10.2671Z" fill="black"/>
<path d="M56.5352 1.11181V0.36026H60.6345V1.11181H56.5352ZM58.1749 5.34783V0.496904H58.9948V5.34783H58.1749Z" fill="black"/>
<path d="M61.3164 5.34783V0.36026H61.863L63.981 3.7764H63.6394L65.7574 0.36026H66.304V5.34783H65.4841V1.79504H65.6891L64.1177 4.39132H63.5711L61.9996 1.86337H62.2046V5.41616H61.3847L61.3164 5.34783Z" fill="black"/>
</svg>
