<svg width="73" height="12" viewBox="0 0 73 12" fill="none" xmlns="http://www.w3.org/2000/svg">
<path d="M29.5468 9.17389C29.1121 9.42234 28.6152 9.54657 27.994 9.54657C27.3729 9.54657 27.0624 9.48445 26.6897 9.29812C26.317 9.11178 25.9444 8.86334 25.6338 8.55278C25.3232 8.24222 25.1369 7.86955 24.9506 7.43477C24.7642 6.99998 24.7021 6.5652 24.7021 6.06831C24.7021 5.57141 24.7642 5.13663 24.9506 4.70184C25.1369 4.26706 25.3232 3.89439 25.6338 3.58383C25.9444 3.27327 26.2549 3.02483 26.6897 2.83849C27.0624 2.65216 27.4972 2.59004 27.994 2.59004C28.4909 2.59004 29.0499 2.71427 29.4847 2.9006C29.9195 3.14905 30.3543 3.3975 30.727 3.77017L31.845 2.46582C31.5965 2.21737 31.3481 2.03104 31.0996 1.8447C30.8512 1.65837 30.5406 1.47203 30.2301 1.34781C29.9195 1.22358 29.609 1.09936 29.2363 1.03725C28.8636 0.975137 28.4288 0.913025 27.994 0.913025C27.2487 0.913025 26.5655 1.03725 25.9444 1.2857C25.3232 1.53414 24.7642 1.90681 24.3295 2.40371C23.8947 2.9006 23.522 3.3975 23.2736 4.01862C23.0251 4.63973 22.9009 5.32296 22.9009 6.00619C22.9009 6.68942 23.0251 7.37265 23.2736 7.99377C23.522 8.61489 23.8947 9.1739 24.3295 9.60868C24.7642 10.0435 25.3232 10.4161 25.8822 10.6646C26.5034 10.913 27.1866 11.0372 27.8698 11.0372C28.5531 11.0372 28.7394 11.0372 29.1121 10.913C29.4847 10.8509 29.8574 10.7267 30.168 10.5404C30.4785 10.4161 30.7891 10.2298 31.0375 9.98135C31.286 9.79501 31.5965 9.54657 31.845 9.23601L30.727 8.11799C30.2922 8.49066 29.8574 8.80122 29.4226 9.04967L29.5468 9.17389Z" fill="black"/>
<path d="M35.8202 6.75154H40.727V5.13663H35.8202V2.65216H41.3481V1.09937H34.0811V10.913H41.4102V9.36023H35.8202V6.75154Z" fill="black"/>
<path d="M50.4786 6.81363C50.7891 6.62729 51.0376 6.44096 51.2239 6.19251C51.4103 5.94406 51.5966 5.6335 51.7208 5.32295C51.845 5.01239 51.9072 4.63972 51.9072 4.20493C51.9072 3.77015 51.845 3.27326 51.6587 2.90059C51.4724 2.52791 51.2239 2.15524 50.9134 1.9068C50.6028 1.65835 50.2301 1.4099 49.7332 1.28568C49.2985 1.16145 48.7395 1.03723 48.1804 1.03723H43.7705V10.8509H45.5096V7.43475H47.6835L50.1059 10.8509H52.1556L49.4848 7.12419C49.8575 6.99997 50.168 6.87574 50.4165 6.75152L50.4786 6.81363ZM45.5718 6.00618V2.71425H48.1183C48.7395 2.71425 49.2985 2.83847 49.609 3.14903C49.9817 3.39748 50.168 3.83226 50.168 4.39127C50.168 4.95027 49.9817 5.32295 49.609 5.6335C49.2363 5.94406 48.7395 6.06829 48.1183 6.06829H45.5718V6.00618Z" fill="black"/>
<path d="M53.646 2.65216H56.7516V10.913H58.4907V2.65216H61.5963V1.09937H53.646V2.65216Z" fill="black"/>
<path d="M66.7517 7.24843C66.5032 7.0621 66.2548 6.93787 66.0063 6.81365C65.7579 6.68943 65.4473 6.62731 65.1989 6.50309C65.0125 6.44098 64.7641 6.37887 64.5778 6.31676C64.3914 6.25464 64.2051 6.19253 64.0188 6.06831C63.8945 6.0062 63.7703 5.88197 63.6461 5.81986C63.5219 5.69564 63.5219 5.63353 63.5219 5.44719C63.5219 5.19874 63.584 5.01241 63.7703 4.88818C63.9566 4.76396 64.2051 4.70185 64.5156 4.70185C64.8262 4.70185 65.1368 4.76396 65.5094 4.88818C65.8821 5.01241 66.2548 5.19874 66.5653 5.38508L67.2486 4.20495C66.8759 3.95651 66.4411 3.70806 65.9442 3.58384C65.4473 3.45961 65.0125 3.33539 64.5156 3.33539C64.0188 3.33539 63.8324 3.33539 63.4597 3.45961C63.1492 3.58384 62.8386 3.70806 62.5902 3.8944C62.3417 4.08073 62.1554 4.32918 62.0312 4.63974C61.907 4.9503 61.8448 5.26085 61.8448 5.57141C61.8448 5.94408 61.907 6.25464 62.0312 6.50309C62.1554 6.75154 62.3417 6.93787 62.5902 7.12421C62.8386 7.31054 63.0871 7.43477 63.3355 7.49688C63.584 7.6211 63.8945 7.68321 64.143 7.80744C64.3293 7.86955 64.5778 7.93166 64.7641 7.99377C64.9504 7.99377 65.1368 8.118 65.3231 8.18011C65.4473 8.24222 65.5715 8.36644 65.6958 8.42856C65.7579 8.55278 65.82 8.677 65.82 8.80123C65.82 9.04967 65.6958 9.29812 65.5094 9.42234C65.3231 9.54657 65.0125 9.67079 64.6399 9.67079C64.2672 9.67079 63.8324 9.60868 63.4597 9.42234C63.025 9.29812 62.6523 9.04967 62.2175 8.73912L61.4722 9.91924C61.9691 10.2919 62.466 10.5404 63.025 10.7267C63.584 10.913 64.143 11.0373 64.6399 11.0373C65.1368 11.0373 65.3852 11.0373 65.6958 10.913C66.0063 10.7888 66.3169 10.6646 66.5653 10.4782C66.8138 10.2919 67.0001 10.0435 67.1243 9.7329C67.2486 9.42234 67.3107 9.11179 67.3107 8.677C67.3107 8.30433 67.2486 8.05589 67.1243 7.80744C67.0001 7.55899 66.8138 7.37266 66.5653 7.18632L66.7517 7.24843Z" fill="black"/>
<path d="M8.73927 1.1615L7.24859 4.70187H4.63989L2.34176 2.40374C2.46598 2.27951 2.46598 2.09318 2.46598 1.96895C2.46598 1.53417 2.09331 1.1615 1.65853 1.1615C1.22375 1.1615 0.851074 1.53417 0.851074 1.96895C0.851074 2.40374 1.22375 2.77641 1.65853 2.77641C2.09331 2.77641 1.84486 2.77641 1.96909 2.77641L4.39145 5.19877H7.00014L6.68958 6.00622H2.46598C2.34176 5.69566 2.09331 5.44721 1.72064 5.44721C1.34797 5.44721 0.913186 5.81988 0.913186 6.25467C0.913186 6.68945 1.28586 7.06212 1.72064 7.06212C2.15542 7.06212 2.40387 6.81367 2.46598 6.50311H6.56536L6.2548 7.31057H4.45356L2.0312 9.73293C1.96909 9.73293 1.84486 9.73293 1.72064 9.73293C1.28586 9.73293 0.913186 10.1056 0.913186 10.5404C0.913186 10.9752 1.28586 11.3478 1.72064 11.3478C2.15542 11.3478 2.52809 10.9752 2.52809 10.5404C2.52809 10.1056 2.52809 10.2298 2.40387 10.1056L4.70201 7.80746H6.13058L4.63989 11.3478H6.87592L7.74549 9.11181H11.907L12.7765 11.3478H15.0126L10.789 1.40995H8.80138L8.73927 1.1615ZM8.42871 6.9379L9.73306 3.7702L11.0374 6.9379H8.42871Z" fill="#C8A94C"/>
<path d="M19.1119 1.22357H16.938V11.0372H19.1119V1.22357Z" fill="#C8A94C"/>
<path d="M67.4971 1.59626H68.3045V3.64595H68.8635V1.59626H69.671V1.09937H67.4971V1.59626Z" fill="black"/>
<path d="M72.2176 1.09937L71.5343 2.15527L70.8511 1.09937H70.23V3.64595H70.789V1.96893L71.4722 3.08694H71.5343L72.2176 1.96893V3.64595H72.8387V1.09937H72.2176Z" fill="black"/>
</svg>
