<svg width="60" height="17" viewBox="0 0 60 17" fill="none" xmlns="http://www.w3.org/2000/svg">
<path d="M0.279297 15.8385V3.51553H1.62091V15.8385H0.279297ZM1.17371 15.8385V14.6957H5.04948C5.84451 14.6957 6.49048 14.4472 6.93768 14C7.38489 13.5528 7.63333 12.9565 7.63333 12.3106C7.63333 11.6646 7.53396 11.4658 7.3352 11.118C7.13644 10.7702 6.8383 10.4721 6.44079 10.2733C6.04327 10.0745 5.64576 9.97516 5.14886 9.97516H1.12402V8.83231H4.9501C5.59607 8.83231 6.14265 8.63355 6.49048 8.28572C6.88799 7.93789 7.08675 7.441 7.08675 6.74535C7.08675 6.0497 6.88799 5.60249 6.44079 5.25466C6.04327 4.90684 5.447 4.70808 4.80104 4.70808H1.12402V3.56522H4.85073C5.59607 3.56522 6.24203 3.71429 6.78861 3.96274C7.3352 4.26088 7.73271 4.6087 7.98116 5.05591C8.22961 5.50311 8.37868 6.0497 8.37868 6.64597C8.37868 7.24224 8.17992 7.93789 7.83209 8.43479C7.48427 8.93168 6.93768 9.3292 6.24203 9.57765L6.3911 9.13044C7.18613 9.37889 7.83209 9.7764 8.2793 10.3727C8.7265 10.969 8.92526 11.6149 8.92526 12.4099C8.92526 13.205 8.77619 13.6522 8.42836 14.1491C8.08054 14.646 7.63333 15.0932 7.03706 15.3913C6.44079 15.6894 5.69545 15.8385 4.85073 15.8385H1.02464H1.17371Z" fill="black"/>
<path d="M11.8076 5.65219C11.5592 5.65219 11.3604 5.55281 11.2113 5.40374C11.0623 5.20499 10.9629 5.00623 10.9629 4.75778C10.9629 4.50933 11.0623 4.31058 11.2113 4.11182C11.3604 3.96275 11.5592 3.86337 11.8076 3.86337C12.0561 3.86337 12.3045 3.96275 12.4536 4.11182C12.6026 4.26089 12.702 4.50933 12.702 4.75778C12.702 5.00623 12.6026 5.20499 12.4536 5.40374C12.3045 5.6025 12.0561 5.65219 11.8076 5.65219ZM11.1616 15.8385V7.44101H12.4536V15.8385H11.1616Z" fill="black"/>
<path d="M14.1426 8.58386V7.441H19.6581V8.58386H14.1426ZM16.2792 15.8385V3.91306H17.5712V15.8385H16.2792Z" fill="black"/>
<path d="M25.1733 16.0373C24.3286 16.0373 23.633 15.8385 22.9373 15.441C22.2914 15.0435 21.7448 14.5466 21.3472 13.851C20.9497 13.205 20.751 12.4596 20.751 11.6149C20.751 10.7702 20.9497 10.0249 21.3472 9.3789C21.7448 8.73294 22.2417 8.18635 22.9373 7.78884C23.5833 7.39132 24.3286 7.19257 25.1733 7.19257C26.0181 7.19257 26.4156 7.29194 26.9622 7.54039C27.5087 7.78884 27.9559 8.13666 28.3535 8.53418L27.5087 9.3789C27.2106 9.08077 26.8628 8.83232 26.4653 8.63356C26.0677 8.48449 25.6205 8.38511 25.1733 8.38511C24.7261 8.38511 24.0802 8.53418 23.5833 8.78263C23.1361 9.08076 22.7386 9.42859 22.4901 9.8758C22.2417 10.323 22.0926 10.8696 22.0926 11.5155C22.0926 12.1615 22.2417 12.6584 22.4901 13.1553C22.7386 13.6522 23.1361 14 23.5833 14.2982C24.0305 14.5963 24.5771 14.6957 25.1733 14.6957C25.7696 14.6957 26.0677 14.5963 26.515 14.4472C26.9125 14.2982 27.2603 14.0497 27.5584 13.7019L28.4032 14.5466C28.0056 14.9938 27.5584 15.3416 26.9622 15.5901C26.4156 15.8385 25.8193 15.9379 25.1733 15.9379V16.0373Z" fill="black"/>
<path d="M33.9684 16.0373C33.1237 16.0373 32.428 15.8385 31.7324 15.441C31.0367 15.0435 30.5398 14.4969 30.192 13.8509C29.7945 13.205 29.5957 12.4596 29.5957 11.6149C29.5957 10.7702 29.7945 10.0745 30.192 9.42858C30.5895 8.78262 31.0864 8.23604 31.7324 7.83852C32.3783 7.44101 33.1237 7.24225 33.9684 7.24225C34.8131 7.24225 35.5087 7.44101 36.1547 7.83852C36.8007 8.23604 37.3473 8.73293 37.7448 9.42858C38.1423 10.0745 38.341 10.8199 38.341 11.6149C38.341 12.41 38.1423 13.205 37.7448 13.8509C37.3473 14.4969 36.8504 15.0435 36.1547 15.441C35.4591 15.8385 34.7634 16.0373 33.9684 16.0373ZM33.9684 14.8447C34.5646 14.8447 35.0615 14.6957 35.5584 14.4472C36.0056 14.1491 36.4032 13.8013 36.6516 13.3044C36.9001 12.8075 37.0491 12.2609 37.0491 11.6646C37.0491 11.0683 36.9001 10.5218 36.6516 10.0745C36.4032 9.62734 36.0056 9.22983 35.5584 8.98138C35.1112 8.68324 34.5646 8.58387 33.9684 8.58387C33.3721 8.58387 32.8752 8.73293 32.3783 8.98138C31.9311 9.27952 31.5336 9.62734 31.2851 10.0745C31.0367 10.5218 30.8876 11.0683 30.8876 11.6646C30.8876 12.2609 31.0367 12.8572 31.2851 13.3044C31.5336 13.8013 31.9311 14.1491 32.3783 14.4472C32.8255 14.7454 33.3721 14.8447 33.9684 14.8447Z" fill="black"/>
<path d="M40.9248 5.65219C40.6763 5.65219 40.4776 5.55281 40.3285 5.40374C40.1795 5.20499 40.0801 5.00623 40.0801 4.75778C40.0801 4.50933 40.1795 4.31058 40.3285 4.11182C40.4776 3.96275 40.6763 3.86337 40.9248 3.86337C41.1732 3.86337 41.4217 3.96275 41.5708 4.11182C41.7198 4.26089 41.8192 4.50933 41.8192 4.75778C41.8192 5.00623 41.7198 5.20499 41.5708 5.40374C41.4217 5.6025 41.1732 5.65219 40.9248 5.65219ZM40.3285 15.8385V7.44101H41.6205V15.8385H40.3285Z" fill="black"/>
<path d="M44.1055 15.8385V7.44101H45.3974V15.8385H44.1055ZM50.2173 15.8385V10.9193C50.2173 10.1739 50.0185 9.57765 49.5713 9.13045C49.1241 8.68324 48.5278 8.4348 47.8322 8.4348C47.1365 8.4348 46.9378 8.53417 46.5403 8.73293C46.1924 8.93169 45.8943 9.22983 45.6458 9.57765C45.4471 9.92548 45.3477 10.3727 45.3477 10.8696L44.7514 10.5714C44.7514 9.92548 44.9005 9.3789 45.1986 8.882C45.4968 8.38511 45.8943 7.98759 46.3912 7.68945C46.8881 7.39132 47.4843 7.24225 48.1303 7.24225C48.7763 7.24225 49.3229 7.39132 49.8694 7.68945C50.416 7.98759 50.7639 8.4348 51.062 8.93169C51.3601 9.47827 51.4595 10.0249 51.4595 10.6708V15.8385H50.1676H50.2173Z" fill="black"/>
<path d="M54.938 7.83852H56.1306V4.65839H59.261V3.56522H56.1306V0.385101H54.938V3.56522H51.8076V4.65839H54.938V7.83852Z" fill="black"/>
</svg>
