<svg width="81" height="8" viewBox="0 0 81 8" fill="none" xmlns="http://www.w3.org/2000/svg">
<path d="M3.37911 7.19877C2.90085 7.19877 2.49091 7.13044 2.08098 6.92547C1.67104 6.7205 1.32942 6.51554 1.05613 6.17392C0.782839 5.83231 0.509547 5.49069 0.372901 5.08075C0.236255 4.67081 0.0996094 4.26088 0.0996094 3.78262C0.0996094 3.30436 0.167932 2.89441 0.372901 2.48447C0.509547 2.07454 0.782839 1.73293 1.05613 1.39131C1.32942 1.11802 1.67104 0.844728 2.08098 0.708082C2.49091 0.503113 2.90085 0.434784 3.37911 0.434784C3.85737 0.434784 4.33563 0.503113 4.74557 0.708082C5.15551 0.913051 5.49712 1.11801 5.77042 1.45963L5.29216 1.9379C5.08719 1.66461 4.81389 1.45963 4.47228 1.32298C4.13066 1.18634 3.78905 1.11801 3.37911 1.11801C2.96917 1.11801 2.69588 1.11802 2.35427 1.32298C2.01265 1.45963 1.80768 1.6646 1.53439 1.86957C1.32942 2.14286 1.12445 2.41616 0.987808 2.75777C0.851162 3.09939 0.782839 3.441 0.782839 3.85093C0.782839 4.26087 0.782839 4.60249 0.987808 4.9441C1.19278 5.28572 1.2611 5.55901 1.53439 5.83231C1.73936 6.1056 2.01265 6.24225 2.35427 6.37889C2.69588 6.51554 3.0375 6.58385 3.37911 6.58385C3.72073 6.58385 4.19899 6.51554 4.47228 6.37889C4.74557 6.24225 5.08719 6.03727 5.29216 5.76398L5.77042 6.24224C5.49712 6.58385 5.15551 6.78883 4.74557 6.99379C4.33563 7.19876 3.85737 7.26708 3.37911 7.26708V7.19877Z" fill="black"/>
<path d="M8.63964 7.19876C8.29803 7.19876 7.95641 7.13043 7.68312 6.92546C7.40983 6.78882 7.13654 6.51553 6.99989 6.24223C6.86325 5.96894 6.79492 5.62733 6.79492 5.21739V2.62112H7.47815V5.21739C7.47815 5.49068 7.47815 5.76397 7.6148 5.90062C7.75144 6.03726 7.88809 6.24224 8.02474 6.37889C8.16138 6.51553 8.43467 6.58385 8.63964 6.58385C9.04958 6.58385 9.32287 6.4472 9.52784 6.24223C9.73281 5.96894 9.86946 5.69565 9.86946 5.21739V2.62112H10.5527V5.21739C10.5527 5.62733 10.4844 5.96894 10.2794 6.24223C10.0744 6.51553 9.86946 6.78882 9.59616 6.92546C9.32287 7.06211 8.98126 7.19876 8.63964 7.19876Z" fill="black"/>
<path d="M13.1494 7.19876C12.8762 7.19876 12.6712 7.19875 12.4662 7.13043C12.2612 7.13043 12.0563 6.99379 11.8513 6.85714C11.6463 6.7205 11.5097 6.58385 11.373 6.4472L11.783 6.03727C11.988 6.24224 12.1929 6.44721 12.3979 6.51553C12.6029 6.65217 12.8762 6.65217 13.1494 6.65217C13.4227 6.65217 13.696 6.65217 13.8327 6.4472C13.9693 6.24223 14.106 6.17391 14.106 5.96894C14.106 5.76397 14.106 5.62733 13.901 5.49068C13.7644 5.35404 13.6277 5.28571 13.4227 5.21739C13.2178 5.21739 13.0128 5.08075 12.8078 5.01243C12.6029 5.01243 12.3979 4.87578 12.1929 4.80745C11.988 4.73913 11.8513 4.60248 11.7147 4.39751C11.578 4.26087 11.5097 3.98757 11.5097 3.71428C11.5097 3.44099 11.5097 3.23602 11.7147 3.03105C11.8513 2.82608 11.988 2.68944 12.2612 2.62112C12.4662 2.48447 12.7395 2.48447 13.0811 2.48447C13.4227 2.48447 13.696 2.48447 13.9693 2.68944C14.2426 2.82608 14.4476 2.96273 14.6526 3.23602L14.2426 3.64597C14.106 3.441 13.9693 3.37267 13.7644 3.23602C13.5594 3.1677 13.3544 3.09938 13.0811 3.09938C12.8078 3.09938 12.6029 3.09938 12.3979 3.23602C12.2612 3.37267 12.1929 3.50932 12.1929 3.64597C12.1929 3.78261 12.1929 3.98757 12.3979 4.0559C12.5345 4.12422 12.6712 4.26087 12.8762 4.26087C13.0811 4.26087 13.2861 4.39752 13.4911 4.46584C13.696 4.46584 13.901 4.60248 14.106 4.73913C14.3109 4.80745 14.4476 4.9441 14.5842 5.14907C14.7209 5.35404 14.7892 5.55901 14.7892 5.8323C14.7892 6.10559 14.6526 6.58385 14.3793 6.78882C14.106 6.99379 13.696 7.13043 13.2178 7.13043L13.1494 7.19876Z" fill="black"/>
<path d="M15.4043 3.23602V2.62111H18.3422V3.23602H15.4043ZM16.5658 7.13042V0.708069H17.249V7.13042H16.5658Z" fill="black"/>
<path d="M21.28 7.19876C20.8701 7.19876 20.4601 7.06211 20.1185 6.85714C19.7769 6.65217 19.5036 6.37888 19.2986 6.03727C19.0937 5.69565 18.957 5.28571 18.957 4.80745C18.957 4.32919 19.0937 3.98758 19.2986 3.64597C19.5036 3.30435 19.7769 3.03105 20.1185 2.82608C20.4601 2.62111 20.8701 2.48447 21.28 2.48447C21.6899 2.48447 22.0999 2.5528 22.4415 2.75776C22.7831 2.96273 23.0564 3.23602 23.2614 3.57764C23.4663 3.91925 23.603 4.32919 23.603 4.73913C23.603 5.14906 23.4663 5.559 23.2614 5.96894C23.0564 6.31056 22.7831 6.58385 22.4415 6.78882C22.0999 6.99379 21.6899 7.13043 21.28 7.13043V7.19876ZM21.28 6.51553C21.6216 6.51553 21.8949 6.4472 22.0999 6.31056C22.3049 6.17391 22.5098 5.96895 22.7148 5.69565C22.8514 5.42236 22.9198 5.14907 22.9198 4.80745C22.9198 4.46584 22.8514 4.19255 22.7148 3.91925C22.5781 3.64596 22.3732 3.441 22.0999 3.30435C21.8266 3.1677 21.5533 3.09938 21.28 3.09938C21.0067 3.09938 20.6651 3.1677 20.4601 3.30435C20.1868 3.441 20.0502 3.64596 19.8452 3.91925C19.7086 4.19255 19.6403 4.46584 19.6403 4.80745C19.6403 5.14907 19.7086 5.42236 19.8452 5.69565C19.9819 5.96895 20.1868 6.17391 20.4601 6.31056C20.7334 6.4472 21.0067 6.51553 21.28 6.51553Z" fill="black"/>
<path d="M24.6953 7.13043V2.62112H25.3785V7.13043H24.6953ZM27.7698 7.13043V4.39751C27.7698 4.0559 27.6332 3.71428 27.4282 3.50931C27.2233 3.30434 26.95 3.1677 26.6084 3.1677C26.2667 3.1677 26.1984 3.1677 25.9935 3.30435C25.7885 3.441 25.6518 3.50931 25.5152 3.71428C25.3785 3.91925 25.3785 4.12423 25.3785 4.3292L25.1053 4.19254C25.1053 3.85093 25.1736 3.57764 25.3102 3.30435C25.4469 3.03106 25.6518 2.82608 25.9251 2.68944C26.1984 2.55279 26.4717 2.48447 26.8133 2.48447C27.1549 2.48447 27.4282 2.55279 27.7015 2.68944C27.9748 2.82608 28.1798 3.03106 28.3164 3.30435C28.4531 3.57764 28.5214 3.85093 28.5214 4.19254V7.06211H27.8382L27.7698 7.13043ZM30.8444 7.13043V4.39751C30.8444 4.0559 30.7077 3.71428 30.5028 3.50931C30.2978 3.30434 30.0245 3.1677 29.6829 3.1677C29.3413 3.1677 29.273 3.1677 29.068 3.30435C28.863 3.441 28.7264 3.50931 28.5897 3.71428C28.4531 3.91925 28.4531 4.12423 28.4531 4.3292L28.0431 4.19254C28.0431 3.85093 28.1798 3.57764 28.3164 3.30435C28.4531 3.03106 28.7264 2.82608 28.9313 2.68944C29.2046 2.55279 29.4779 2.48447 29.8195 2.48447C30.1612 2.48447 30.4344 2.55279 30.7077 2.68944C30.981 2.82608 31.186 3.03106 31.3226 3.30435C31.4593 3.57764 31.5276 3.85093 31.5276 4.19254V7.06211H30.8444V7.13043Z" fill="black"/>
<path d="M34.8757 7.19876C34.3974 7.19876 34.0558 7.13043 33.6459 6.92546C33.2359 6.72049 33.031 6.4472 32.826 6.10559C32.621 5.76398 32.4844 5.35404 32.4844 4.87577C32.4844 4.39751 32.5527 4.0559 32.7577 3.71429C32.9626 3.37267 33.2359 3.09938 33.5775 2.89441C33.9192 2.68944 34.3291 2.62112 34.739 2.62112C35.149 2.62112 35.4906 2.68944 35.8322 2.89441C36.1738 3.09938 36.3788 3.30435 36.5838 3.64597C36.7887 3.98758 36.857 4.3292 36.857 4.80746C36.857 5.28572 36.857 4.94411 36.857 5.01243C36.857 5.01243 36.857 5.14907 36.857 5.21739H32.9626V4.67081H36.5154L36.2421 4.87577C36.2421 4.53416 36.2421 4.26087 36.1055 4.0559C35.9688 3.85093 35.8322 3.64596 35.6272 3.50931C35.4223 3.37267 35.149 3.30435 34.8074 3.30435C34.4657 3.30435 34.1924 3.37267 33.9875 3.50931C33.7825 3.64596 33.5775 3.85094 33.4409 4.12423C33.3043 4.39752 33.2359 4.67081 33.2359 5.01243C33.2359 5.35404 33.3043 5.62733 33.4409 5.90062C33.5775 6.17391 33.7825 6.37889 34.0558 6.51553C34.3291 6.65218 34.6024 6.7205 34.944 6.7205C35.2856 6.7205 35.4906 6.72049 35.6956 6.58385C35.9005 6.4472 36.1055 6.31056 36.3105 6.10559L36.7204 6.51553C36.5154 6.78882 36.2421 6.99379 35.9688 7.13043C35.6272 7.26708 35.3539 7.33541 34.944 7.33541L34.8757 7.19876Z" fill="black"/>
<path d="M37.9512 7.13043V2.62112H38.6344V7.13043H37.9512ZM38.6344 4.53416L38.3611 4.39751C38.3611 3.85093 38.4978 3.37267 38.771 3.03105C39.0443 2.68944 39.4543 2.5528 39.9325 2.5528C40.4108 2.5528 40.3425 2.55279 40.5474 2.68944C40.7524 2.75776 40.8891 2.89441 41.094 3.09938L40.6158 3.57764C40.5474 3.44099 40.4108 3.37268 40.2742 3.30435C40.1375 3.30435 40.0009 3.23603 39.7959 3.23603C39.4543 3.23603 39.181 3.37267 38.976 3.57764C38.771 3.78261 38.6344 4.12422 38.6344 4.60248V4.53416Z" fill="black"/>
<path d="M45.9441 7.19877C45.3975 7.19877 44.9876 7.13044 44.646 6.92547C44.3044 6.7205 43.9627 6.44721 43.6895 6.10559L44.1677 5.62733C44.3727 5.96895 44.646 6.17392 44.9193 6.31056C45.1926 6.44721 45.6025 6.51554 45.9441 6.51554C46.2857 6.51554 46.6957 6.44721 46.969 6.24224C47.2422 6.03727 47.3789 5.76398 47.3789 5.42236C47.3789 5.08075 47.3789 4.94411 47.1739 4.80746C47.0373 4.67081 46.9006 4.53416 46.6957 4.39752C46.4907 4.26087 46.2857 4.19255 46.0808 4.12423C45.8758 4.05591 45.6025 3.98758 45.3975 3.85093C45.1926 3.78261 44.9193 3.64596 44.7826 3.50932C44.5777 3.37267 44.441 3.16771 44.3044 2.96274C44.1677 2.75777 44.0994 2.48447 44.0994 2.14286C44.0994 1.80124 44.1677 1.45964 44.3727 1.25467C44.5777 0.981376 44.7826 0.776401 45.0559 0.639755C45.3292 0.503109 45.6708 0.434784 46.0808 0.434784C46.4907 0.434784 46.9006 0.503113 47.2422 0.708082C47.5839 0.844728 47.8572 1.11802 48.0621 1.39131L47.5839 1.86957C47.3789 1.59628 47.1739 1.45963 46.9006 1.32298C46.6273 1.18634 46.354 1.11801 46.0808 1.11801C45.8075 1.11801 45.3975 1.18634 45.1926 1.39131C44.9876 1.59628 44.8509 1.80124 44.8509 2.14286C44.8509 2.48447 44.8509 2.5528 45.0559 2.75777C45.2609 2.96274 45.3292 3.03106 45.5342 3.1677C45.7391 3.30435 45.9441 3.37268 46.1491 3.441C46.354 3.50932 46.6273 3.57764 46.8323 3.71429C47.0373 3.78261 47.3106 3.91926 47.4472 4.0559C47.6522 4.19255 47.7888 4.39752 47.9255 4.60249C48.0621 4.80746 48.1304 5.14908 48.1304 5.49069C48.1304 6.03727 47.9255 6.51553 47.5839 6.78882C47.1739 7.13044 46.6957 7.26708 46.0124 7.26708L45.9441 7.19877Z" fill="black"/>
<path d="M51.2741 7.19876C50.7959 7.19876 50.4542 7.13043 50.0443 6.92546C49.6344 6.72049 49.4294 6.4472 49.2244 6.10559C49.0195 5.76398 48.8828 5.35404 48.8828 4.87577C48.8828 4.39751 48.9511 4.0559 49.1561 3.71429C49.3611 3.37267 49.6344 3.09938 49.976 2.89441C50.3176 2.68944 50.7275 2.62112 51.1375 2.62112C51.5474 2.62112 51.889 2.68944 52.2306 2.89441C52.5723 3.09938 52.7772 3.30435 52.9822 3.64597C53.1872 3.98758 53.2555 4.3292 53.2555 4.80746C53.2555 5.28572 53.2555 4.94411 53.2555 5.01243C53.2555 5.01243 53.2555 5.14907 53.2555 5.21739H49.3611V4.67081H52.9139L52.6406 4.87577C52.6406 4.53416 52.6406 4.26087 52.5039 4.0559C52.3673 3.85093 52.2306 3.64596 52.0257 3.50931C51.8207 3.37267 51.5474 3.30435 51.2058 3.30435C50.8642 3.30435 50.5909 3.37267 50.3859 3.50931C50.1809 3.64596 49.976 3.85094 49.8393 4.12423C49.7027 4.39752 49.6344 4.67081 49.6344 5.01243C49.6344 5.35404 49.7027 5.62733 49.8393 5.90062C49.976 6.17391 50.181 6.37889 50.4542 6.51553C50.7275 6.65218 51.0008 6.7205 51.3424 6.7205C51.6841 6.7205 51.889 6.72049 52.094 6.58385C52.299 6.4472 52.5039 6.31056 52.7089 6.10559L53.1188 6.51553C52.9139 6.78882 52.6406 6.99379 52.3673 7.13043C52.0257 7.26708 51.7524 7.33541 51.3424 7.33541L51.2741 7.19876Z" fill="black"/>
<path d="M54.3477 7.13043V2.62112H55.0309V7.13043H54.3477ZM55.0309 4.53416L54.7576 4.39751C54.7576 3.85093 54.8942 3.37267 55.1675 3.03105C55.4408 2.68944 55.8508 2.5528 56.329 2.5528C56.8073 2.5528 56.739 2.55279 56.9439 2.68944C57.1489 2.75776 57.2855 2.89441 57.4905 3.09938L57.0123 3.57764C56.9439 3.44099 56.8073 3.37268 56.6706 3.30435C56.534 3.30435 56.3973 3.23603 56.1924 3.23603C55.8508 3.23603 55.5775 3.37267 55.3725 3.57764C55.1675 3.78261 55.0309 4.12422 55.0309 4.60248V4.53416Z" fill="black"/>
<path d="M59.6082 7.13043L57.4902 2.62112H58.2418L60.0182 6.58385H59.6082L61.3846 2.62112H62.1362L60.0182 7.13043H59.6082Z" fill="black"/>
<path d="M63.2986 1.66459C63.1619 1.66459 63.0936 1.66459 62.957 1.52794C62.8203 1.3913 62.8203 1.32297 62.8203 1.18633C62.8203 1.04968 62.8203 0.913036 62.957 0.844713C63.0936 0.77639 63.1619 0.708069 63.2986 0.708069C63.4352 0.708069 63.5719 0.708067 63.6402 0.844713C63.7085 0.981359 63.7768 1.04968 63.7768 1.18633C63.7768 1.32297 63.7768 1.45962 63.6402 1.52794C63.5035 1.59627 63.4352 1.66459 63.2986 1.66459ZM62.957 7.13042V2.62111H63.6402V7.13042H62.957Z" fill="black"/>
<path d="M66.9871 7.19876C66.5771 7.19876 66.1672 7.06211 65.8256 6.85715C65.484 6.65218 65.2107 6.37889 65.0057 6.03727C64.8007 5.69566 64.7324 5.28572 64.7324 4.80746C64.7324 4.32919 64.8007 3.98758 65.0057 3.64597C65.2107 3.30435 65.484 3.03105 65.8256 2.82608C66.1672 2.62111 66.5771 2.5528 66.9871 2.5528C67.397 2.5528 67.6703 2.5528 67.9436 2.75777C68.2169 2.89441 68.4902 3.03106 68.6952 3.30435L68.2169 3.78261C68.0803 3.57764 67.8753 3.50932 67.6703 3.37267C67.4653 3.30435 67.1921 3.23603 66.9871 3.23603C66.7821 3.23603 66.3722 3.30435 66.1672 3.441C65.8939 3.57764 65.7573 3.78261 65.5523 4.0559C65.4157 4.32919 65.3473 4.60248 65.3473 4.9441C65.3473 5.28571 65.4157 5.55901 65.5523 5.8323C65.6889 6.10559 65.8939 6.31056 66.1672 6.4472C66.4405 6.58385 66.7138 6.65217 66.9871 6.65217C67.2604 6.65217 67.4653 6.65218 67.6703 6.51553C67.8753 6.44721 68.0803 6.31056 68.2169 6.10559L68.6952 6.58385C68.4902 6.78882 68.2169 6.99379 67.9436 7.13043C67.6703 7.26708 67.3287 7.3354 66.9871 7.3354V7.19876Z" fill="black"/>
<path d="M71.7702 7.19876C71.2919 7.19876 70.9503 7.13043 70.5404 6.92546C70.1305 6.72049 69.9255 6.4472 69.7205 6.10559C69.5156 5.76398 69.3789 5.35404 69.3789 4.87577C69.3789 4.39751 69.4472 4.0559 69.6522 3.71429C69.8572 3.37267 70.1305 3.09938 70.4721 2.89441C70.8137 2.68944 71.2236 2.62112 71.6336 2.62112C72.0435 2.62112 72.3851 2.68944 72.7267 2.89441C73.0683 3.09938 73.2733 3.30435 73.4783 3.64597C73.6833 3.98758 73.7516 4.3292 73.7516 4.80746C73.7516 5.28572 73.7516 4.94411 73.7516 5.01243C73.7516 5.01243 73.7516 5.14907 73.7516 5.21739H69.8572V4.67081H73.41L73.1367 4.87577C73.1367 4.53416 73.1367 4.26087 73 4.0559C72.8634 3.85093 72.7267 3.64596 72.5218 3.50931C72.3168 3.37267 72.0435 3.30435 71.7019 3.30435C71.3603 3.30435 71.087 3.37267 70.882 3.50931C70.677 3.64596 70.4721 3.85094 70.3354 4.12423C70.1988 4.39752 70.1305 4.67081 70.1305 5.01243C70.1305 5.35404 70.1988 5.62733 70.3354 5.90062C70.4721 6.17391 70.677 6.37889 70.9503 6.51553C71.2236 6.65218 71.4969 6.7205 71.8385 6.7205C72.1801 6.7205 72.3851 6.72049 72.5901 6.58385C72.7951 6.4472 73 6.31056 73.205 6.10559L73.6149 6.51553C73.41 6.78882 73.1367 6.99379 72.8634 7.13043C72.5218 7.26708 72.2485 7.33541 71.8385 7.33541L71.7702 7.19876Z" fill="black"/>
<path d="M74.2305 0.844714V0.366455H76.9634V0.844714H74.2305ZM75.3236 3.71428V0.434772H75.8702V3.71428H75.3236Z" fill="black"/>
<path d="M77.4414 3.71428V0.366455H77.8513L79.2178 2.68943H78.9445L80.311 0.366455H80.7209V3.71428H80.1743V1.32297H80.311L79.2861 3.03105H78.8762L77.8513 1.32297H77.988V3.64596H77.4414V3.71428Z" fill="black"/>
</svg>
