<svg width="48" height="9" viewBox="0 0 48 9" fill="none" xmlns="http://www.w3.org/2000/svg">
<path d="M0.478516 7.91305V1.05591H1.22386V7.91305H0.478516ZM0.97541 4.882V4.23603H2.96299C3.41019 4.23603 3.75802 4.13666 4.00647 3.88821C4.25491 3.63976 4.35429 3.34162 4.35429 2.9938C4.35429 2.64597 4.25491 2.29814 4.00647 2.09939C3.75802 1.85094 3.41019 1.75156 2.96299 1.75156H0.97541V1.1056H2.96299C3.41019 1.1056 3.80771 1.20498 4.10584 1.35404C4.40398 1.50311 4.65243 1.75156 4.85119 2.00001C5.04994 2.24846 5.09963 2.59628 5.09963 2.9938C5.09963 3.39131 5.00025 3.68945 4.85119 3.98759C4.70212 4.28572 4.45367 4.48448 4.10584 4.63355C3.80771 4.78262 3.41019 4.882 2.96299 4.882H0.97541ZM4.65243 7.91305L2.06858 4.73293L2.76423 4.48448L5.54684 7.86336H4.60274L4.65243 7.91305Z" fill="black"/>
<path d="M8.42881 8.01238C7.9816 8.01238 7.5344 7.91301 7.18657 7.71425C6.83875 7.51549 6.54061 7.21735 6.29216 6.81984C6.0934 6.47201 5.94434 6.02481 5.94434 5.5776C5.94434 5.1304 6.04372 4.68319 6.24247 4.33537C6.44123 3.98754 6.73937 3.6894 7.08719 3.44095C7.43502 3.2422 7.88223 3.14282 8.32943 3.14282C8.77664 3.14282 9.12446 3.2422 9.47229 3.44095C9.82011 3.63971 10.0686 3.88816 10.2673 4.23599C10.4661 4.58381 10.5655 4.98133 10.5655 5.42853C10.5655 5.87574 10.5655 5.52792 10.5655 5.62729C10.5655 5.72667 10.5655 5.77636 10.5655 5.87574H6.54061V5.27946H10.2176L9.96918 5.47822C9.96918 5.1304 9.91949 4.83226 9.77042 4.58381C9.67104 4.33537 9.47229 4.13661 9.22384 3.98754C8.97539 3.83847 8.72695 3.78878 8.37912 3.78878C8.03129 3.78878 7.73316 3.83847 7.48471 4.03723C7.23626 4.18629 7.0375 4.38506 6.88844 4.63351C6.73937 4.88195 6.68968 5.18009 6.68968 5.5776C6.68968 5.97512 6.78906 6.27325 6.93812 6.5217C7.08719 6.77015 7.28595 7.01859 7.58409 7.16766C7.83254 7.31673 8.18036 7.41611 8.52819 7.41611C8.87601 7.41611 9.07477 7.36642 9.32322 7.26704C9.57167 7.16766 9.77042 7.0186 9.91949 6.81984L10.3667 7.26704C10.1679 7.51549 9.8698 7.71425 9.57167 7.86332C9.22384 8.01239 8.87601 8.06207 8.52819 8.06207L8.42881 8.01238Z" fill="black"/>
<path d="M13.0498 8.01238C12.8014 8.01238 12.5529 8.01238 12.3045 7.913C12.056 7.86331 11.8573 7.76394 11.6585 7.61487C11.4598 7.4658 11.3107 7.31673 11.1616 7.16766L11.6088 6.72046C11.8076 6.96891 12.0063 7.11798 12.2548 7.21735C12.5032 7.31673 12.7517 7.36643 13.0498 7.36643C13.348 7.36643 13.5964 7.31673 13.7455 7.16766C13.9442 7.06828 13.9939 6.86953 13.9939 6.67077C13.9939 6.47201 13.9442 6.32295 13.7952 6.22357C13.6461 6.12419 13.497 6.02481 13.2983 5.97512C13.0995 5.92543 12.9008 5.82605 12.6523 5.77636C12.4535 5.72667 12.2051 5.62729 12.056 5.52791C11.8573 5.42853 11.7082 5.27947 11.5591 5.1304C11.4101 4.98133 11.3604 4.73288 11.3604 4.43474C11.3604 4.13661 11.4101 3.93785 11.5591 3.73909C11.7082 3.54034 11.8573 3.39126 12.1057 3.29188C12.3542 3.19251 12.6523 3.14282 12.9504 3.14282C13.2486 3.14282 13.5964 3.19251 13.8945 3.34158C14.1927 3.49065 14.3914 3.63972 14.5902 3.88816L14.143 4.33537C13.9939 4.13661 13.8449 4.03723 13.6461 3.93785C13.4473 3.83847 13.1989 3.78878 12.9504 3.78878C12.702 3.78878 12.4039 3.83847 12.2548 3.98754C12.1057 4.13661 12.0063 4.23599 12.0063 4.43474C12.0063 4.6335 12.056 4.73288 12.2051 4.83226C12.3542 4.93164 12.5032 5.03102 12.702 5.08071C12.9008 5.1304 13.0995 5.22977 13.2983 5.27946C13.497 5.32915 13.7455 5.42853 13.9442 5.52791C14.143 5.62729 14.2921 5.77636 14.4411 5.92543C14.5405 6.12418 14.6399 6.32295 14.6399 6.62108C14.6399 6.91922 14.4908 7.36643 14.1927 7.61487C13.8945 7.86332 13.497 8.01238 12.9504 8.01238H13.0498Z" fill="black"/>
<path d="M17.9693 8.01238C17.5221 8.01238 17.0749 7.91301 16.7271 7.71425C16.3793 7.51549 16.0811 7.21735 15.8327 6.81984C15.6339 6.47201 15.4849 6.02481 15.4849 5.5776C15.4849 5.1304 15.5842 4.68319 15.783 4.33537C15.9818 3.98754 16.2799 3.6894 16.6277 3.44095C16.9755 3.2422 17.4228 3.14282 17.87 3.14282C18.3172 3.14282 18.665 3.2422 19.0128 3.44095C19.3606 3.63971 19.6091 3.88816 19.8078 4.23599C20.0066 4.58381 20.106 4.98133 20.106 5.42853C20.106 5.87574 20.106 5.52792 20.106 5.62729C20.106 5.67698 20.106 5.77636 20.106 5.87574H16.0811V5.27946H19.7582L19.5097 5.47822C19.5097 5.1304 19.46 4.83226 19.3606 4.58381C19.2613 4.33537 19.0625 4.13661 18.8141 3.98754C18.5656 3.83847 18.3172 3.78878 17.9693 3.78878C17.6215 3.78878 17.3234 3.83847 17.0749 4.03723C16.8265 4.18629 16.6277 4.38506 16.4787 4.63351C16.3296 4.88195 16.2799 5.18009 16.2799 5.5776C16.2799 5.97512 16.3296 6.27325 16.4787 6.5217C16.6277 6.77015 16.8265 7.01859 17.1246 7.16766C17.3731 7.31673 17.7209 7.41611 18.0687 7.41611C18.4165 7.41611 18.6153 7.36642 18.8637 7.26704C19.1122 7.16766 19.311 7.0186 19.46 6.81984L19.9072 7.26704C19.7085 7.51549 19.4103 7.71425 19.1122 7.86332C18.7644 8.01239 18.4165 8.06207 18.0687 8.06207L17.9693 8.01238Z" fill="black"/>
<path d="M23.1865 8.01239C22.7393 8.01239 22.3418 7.91301 21.9939 7.66457C21.6461 7.46581 21.348 7.16767 21.1492 6.77016C20.9505 6.42233 20.8511 5.97512 20.8511 5.52792C20.8511 5.08071 20.9505 4.63351 21.1492 4.28568C21.348 3.93786 21.6461 3.63973 21.9939 3.39128C22.3418 3.19252 22.7393 3.09314 23.1865 3.09314C23.6337 3.09314 23.8821 3.14283 24.1306 3.29189C24.379 3.44096 24.6275 3.63973 24.8262 3.88817C25.025 4.13662 25.1244 4.43475 25.1244 4.78258V6.22358C25.1244 6.5714 24.9753 6.86954 24.7765 7.11799C24.5778 7.36643 24.379 7.56519 24.0809 7.71426C23.7828 7.86333 23.4846 7.91301 23.1368 7.91301L23.1865 8.01239ZM23.2859 7.36643C23.7828 7.36643 24.1803 7.21737 24.4784 6.86954C24.7765 6.52171 24.9256 6.1242 24.9256 5.57761C24.9256 5.03103 24.8759 4.93165 24.7269 4.63352C24.5778 4.38507 24.4287 4.13661 24.1803 4.03724C23.9318 3.88817 23.6337 3.78879 23.3355 3.78879C23.0374 3.78879 22.7393 3.88817 22.4411 4.03724C22.1927 4.1863 21.9939 4.38506 21.8449 4.6832C21.6958 4.93165 21.5964 5.22979 21.5964 5.57761C21.5964 5.92544 21.6958 6.22358 21.8449 6.47202C21.9939 6.72047 22.1927 6.96892 22.4411 7.11799C22.6896 7.26706 22.9877 7.36643 23.3355 7.36643H23.2859ZM24.8759 7.91301V6.67078L25.025 5.52792L24.8759 4.38507V3.24221H25.5716V7.91301H24.8759Z" fill="black"/>
<path d="M26.9629 7.913V3.2422H27.6585V7.913H26.9629ZM27.6585 5.18008L27.3604 5.08071C27.3604 4.48443 27.5095 4.03723 27.8076 3.6894C28.1057 3.34157 28.5033 3.1925 29.0002 3.1925C29.4971 3.1925 29.4474 3.1925 29.6461 3.29188C29.8449 3.39126 29.9939 3.49064 30.1927 3.6894L29.7455 4.18629C29.6461 4.08691 29.4971 3.98754 29.3977 3.93785C29.2486 3.88816 29.0995 3.83847 28.9505 3.83847C28.6026 3.83847 28.3045 3.93785 28.0561 4.18629C27.8076 4.43474 27.7082 4.78257 27.7082 5.22978L27.6585 5.18008Z" fill="black"/>
<path d="M32.8762 8.01239C32.429 8.01239 31.9818 7.91301 31.634 7.66457C31.2861 7.46581 30.988 7.16767 30.7395 6.77016C30.5408 6.42233 30.4414 5.97512 30.4414 5.52792C30.4414 5.08071 30.5408 4.63351 30.7395 4.28568C30.9383 3.93786 31.2364 3.63973 31.634 3.39128C32.0315 3.14283 32.429 3.09314 32.8762 3.09314C33.3234 3.09314 33.5718 3.14283 33.87 3.29189C34.1681 3.44096 34.4166 3.59003 34.665 3.83848L34.2178 4.33538C34.0687 4.13662 33.87 4.03724 33.6712 3.93786C33.4725 3.83848 33.224 3.78879 32.9259 3.78879C32.6277 3.78879 32.3296 3.88817 32.0315 4.03724C31.783 4.1863 31.5843 4.38507 31.4352 4.63352C31.2861 4.88196 31.2364 5.18009 31.2364 5.52792C31.2364 5.87575 31.2861 6.17388 31.4352 6.42233C31.5843 6.67078 31.783 6.91923 32.0315 7.06829C32.2799 7.21736 32.5781 7.31674 32.9259 7.31674C33.2737 7.31674 33.4228 7.31674 33.6712 7.16767C33.9197 7.0186 34.0687 6.91922 34.2675 6.77016L34.7147 7.21736C34.5159 7.46581 34.2178 7.66457 33.9197 7.76394C33.6215 7.86332 33.2737 7.96271 32.9259 7.96271L32.8762 8.01239Z" fill="black"/>
<path d="M35.6587 7.91302V0.857117H36.3543V7.91302H35.6587ZM39.0873 7.91302V5.1801C39.0873 4.78258 38.9879 4.43476 38.7394 4.18631C38.491 3.93786 38.1929 3.78879 37.7953 3.78879C37.3978 3.78879 37.2984 3.83848 37.0997 3.98755C36.9009 4.08693 36.7519 4.28569 36.6028 4.48445C36.4537 4.68321 36.404 4.93165 36.404 5.1801L36.1059 4.98134C36.1059 4.63352 36.2053 4.33537 36.3543 4.03724C36.5034 3.7391 36.7519 3.54035 37.05 3.39128C37.3481 3.24221 37.6463 3.14283 37.9941 3.14283C38.3419 3.14283 38.6897 3.24221 38.9382 3.39128C39.2363 3.54035 39.4351 3.78879 39.5842 4.08693C39.7332 4.38507 39.8326 4.6832 39.8326 5.08072V7.96271H39.137L39.0873 7.91302Z" fill="black"/>
<path d="M40.4785 1.35402V0.807434H43.4599V1.35402H40.4785ZM41.6711 4.43476V0.906811H42.2673V4.43476H41.6711Z" fill="black"/>
<path d="M43.9565 4.43476V0.807434H44.3541L45.8944 3.2919H45.646L47.1864 0.807434H47.5839V4.43476H46.9876V1.85091H47.1367L45.9938 3.73911H45.5963L44.4534 1.9006H44.6025V4.48445H44.0062L43.9565 4.43476Z" fill="black"/>
</svg>
