<svg width="49" height="8" viewBox="0 0 49 8" fill="none" xmlns="http://www.w3.org/2000/svg">
<path d="M0.301758 7.89505V1.05905H1.03702V7.89505H0.301758ZM0.788623 1.72477V1.05905H4.7531V1.72477H0.788623ZM0.788623 4.71551V4.06967H4.49477V4.71551H0.788623ZM0.788623 7.89505V7.22933H4.81272V7.89505H0.788623Z" fill="black"/>
<path d="M5.49805 7.89504L7.46538 5.33154L7.86282 5.84822L6.33267 7.89504H5.49805ZM9.17438 7.89504L7.60449 5.77866L7.46538 5.64949L5.58747 3.2251H6.45191L7.90257 5.13282L8.04167 5.25205L10.0289 7.89504H9.17438ZM8.09135 5.63955L7.69391 5.13282L9.11477 3.2251H9.94939L8.09135 5.63955Z" fill="black"/>
<path d="M12.9405 7.99439C12.4785 7.99439 12.0612 7.89006 11.6886 7.67644C11.316 7.46281 11.0229 7.17467 10.8093 6.80207C10.5956 6.42947 10.4863 6.01215 10.4863 5.55013C10.4863 5.09307 10.5907 4.68072 10.7993 4.31309C11.008 3.94546 11.2961 3.65731 11.6588 3.44369C12.0214 3.23006 12.4288 3.12573 12.8809 3.12573C13.3131 3.12573 13.6907 3.22013 14.0186 3.41388C14.3465 3.60763 14.6048 3.87094 14.7936 4.21373C14.9824 4.55652 15.0768 4.94899 15.0768 5.39115C15.0768 5.4458 15.0718 5.50542 15.0668 5.57497C15.0619 5.64452 15.047 5.72401 15.0271 5.8184H10.9831V5.22224H14.6396L14.3912 5.44083C14.3962 5.10301 14.3415 4.80989 14.2173 4.56149C14.0931 4.31309 13.9192 4.11934 13.6907 3.98023C13.4622 3.84113 13.1889 3.77158 12.871 3.77158C12.5332 3.77158 12.24 3.8461 11.9867 3.99514C11.7333 4.14418 11.5395 4.34787 11.3955 4.61117C11.2514 4.87448 11.1819 5.17752 11.1819 5.53025C11.1819 5.88795 11.2564 6.20094 11.4054 6.47418C11.5545 6.74742 11.7631 6.95608 12.0314 7.11009C12.2997 7.26409 12.6077 7.33862 12.9604 7.33862C13.2386 7.33862 13.4969 7.28893 13.7354 7.1846C13.9739 7.08027 14.1776 6.92627 14.3415 6.72258L14.7986 7.17964C14.58 7.44791 14.3067 7.64663 13.9838 7.78574C13.6609 7.92484 13.3131 7.99439 12.9405 7.99439Z" fill="black"/>
<path d="M18.2564 7.99439C17.7994 7.99439 17.387 7.8851 17.0194 7.67147C16.6518 7.45785 16.3636 7.16473 16.15 6.79213C15.9364 6.41953 15.832 6.00719 15.832 5.55013C15.832 5.09307 15.9364 4.68072 16.15 4.31309C16.3636 3.94546 16.6518 3.65731 17.0194 3.44369C17.387 3.23006 17.7994 3.12573 18.2564 3.12573C18.6141 3.12573 18.947 3.19032 19.25 3.32446C19.5531 3.45859 19.8114 3.64241 20.025 3.88087L19.558 4.35781C19.3991 4.17896 19.2103 4.03985 18.9867 3.94546C18.7632 3.85107 18.5197 3.80138 18.2564 3.80138C17.9335 3.80138 17.6404 3.87591 17.3821 4.02992C17.1237 4.18392 16.92 4.38761 16.776 4.65092C16.6319 4.91422 16.5574 5.2123 16.5574 5.55013C16.5574 5.88795 16.6319 6.191 16.776 6.45928C16.92 6.72755 17.1237 6.93621 17.3821 7.09022C17.6404 7.24423 17.9335 7.31874 18.2564 7.31874C18.5197 7.31874 18.7681 7.26906 18.9917 7.17467C19.2153 7.08028 19.414 6.94117 19.5779 6.76233L20.0449 7.22932C19.8263 7.47275 19.563 7.66154 19.255 7.79567C18.947 7.92981 18.6141 7.99439 18.2564 7.99439Z" fill="black"/>
<path d="M22.8667 7.9944C22.4892 7.9944 22.1514 7.90497 21.8483 7.73109C21.5453 7.55721 21.3118 7.31378 21.1478 7.00576C20.9839 6.69774 20.8994 6.34005 20.8994 5.93764V3.2251H21.6049V5.90783C21.6049 6.19101 21.6546 6.43941 21.7589 6.65303C21.8632 6.86666 22.0073 7.0306 22.201 7.14984C22.3948 7.26907 22.6134 7.32869 22.8667 7.32869C23.2592 7.32869 23.5672 7.19952 23.7908 6.94118C24.0144 6.68284 24.1286 6.34005 24.1286 5.90783V3.2251H24.8341V5.93764C24.8341 6.34005 24.7496 6.70272 24.5857 7.01073C24.4217 7.32372 24.1882 7.56218 23.8951 7.73606C23.602 7.90994 23.2592 7.9944 22.8667 7.9944Z" fill="black"/>
<path d="M25.6787 3.86103V3.22511H28.7291V3.86103H25.6787ZM26.8512 7.89506V1.25778H27.5566V7.89506H26.8512Z" fill="black"/>
<path d="M30.0306 2.22155C29.8965 2.22155 29.7872 2.17187 29.6928 2.07251C29.5984 1.97315 29.5537 1.85889 29.5537 1.72475C29.5537 1.58565 29.5984 1.47138 29.6928 1.37699C29.7872 1.2826 29.8965 1.23788 30.0306 1.23788C30.1747 1.23788 30.2939 1.2826 30.3834 1.37699C30.4728 1.47138 30.5175 1.58565 30.5175 1.72475C30.5175 1.85889 30.4728 1.97315 30.3834 2.07251C30.2939 2.17187 30.1747 2.22155 30.0306 2.22155ZM29.6829 7.89503V3.22509H30.3883V7.89503H29.6829Z" fill="black"/>
<path d="M33.4288 7.89504L31.2627 3.2251H32.0476L33.8659 7.30881H33.4188L35.257 3.2251H36.0121L33.8361 7.89504H33.4288Z" fill="black"/>
<path d="M39.0323 7.99439C38.5703 7.99439 38.153 7.89006 37.7804 7.67644C37.4078 7.46281 37.1147 7.17467 36.901 6.80207C36.6874 6.42947 36.5781 6.01215 36.5781 5.55013C36.5781 5.09307 36.6825 4.68072 36.8911 4.31309C37.0998 3.94546 37.3879 3.65731 37.7506 3.44369C38.1132 3.23006 38.5206 3.12573 38.9727 3.12573C39.4049 3.12573 39.7825 3.22013 40.1104 3.41388C40.4383 3.60763 40.6966 3.87094 40.8854 4.21373C41.0742 4.55652 41.1686 4.94899 41.1686 5.39115C41.1686 5.4458 41.1636 5.50542 41.1586 5.57497C41.1537 5.64452 41.1388 5.72401 41.1189 5.8184H37.0749V5.22224H40.7314L40.483 5.44083C40.488 5.10301 40.4333 4.80989 40.3091 4.56149C40.1849 4.31309 40.011 4.11934 39.7825 3.98023C39.554 3.84113 39.2807 3.77158 38.9628 3.77158C38.625 3.77158 38.3318 3.8461 38.0785 3.99514C37.8251 4.14418 37.6313 4.34787 37.4873 4.61117C37.3432 4.87448 37.2736 5.17752 37.2736 5.53025C37.2736 5.88795 37.3482 6.20094 37.4972 6.47418C37.6463 6.74742 37.8549 6.95608 38.1232 7.11009C38.3915 7.26409 38.6995 7.33862 39.0522 7.33862C39.3304 7.33862 39.5887 7.28893 39.8272 7.1846C40.0657 7.08027 40.2694 6.92627 40.4333 6.72258L40.8904 7.17964C40.6718 7.44791 40.3985 7.64663 40.0756 7.78574C39.7527 7.92484 39.4049 7.99439 39.0323 7.99439Z" fill="black"/>
<path d="M41.6504 1.31739V0.770905H44.6262V1.31739H41.6504ZM42.8377 4.4224V0.875232H43.4389V4.4224H42.8377Z" fill="black"/>
<path d="M45.1484 4.4224V0.770905H45.5658L47.081 3.26982H46.8127L48.328 0.770905H48.7453V4.4224H48.1442V1.82413L48.2783 1.8589L47.1506 3.707H46.7332L45.6055 1.8589L45.7396 1.82413V4.4224H45.1484Z" fill="black"/>
</svg>
