<svg width="80" height="12" viewBox="0 0 80 12" fill="none" xmlns="http://www.w3.org/2000/svg">
<path d="M31.8692 9.45964C31.3909 9.73293 30.8443 9.86958 30.1611 9.86958C29.4778 9.86958 29.1362 9.80125 28.7263 9.59628C28.3164 9.39131 27.9064 9.11802 27.5648 8.77641C27.2232 8.43479 27.0182 8.02485 26.8133 7.54659C26.6083 7.06833 26.54 6.59007 26.54 6.04349C26.54 5.4969 26.6083 5.01864 26.8133 4.54038C27.0182 4.06212 27.2232 3.65218 27.5648 3.31057C27.9064 2.96895 28.248 2.69566 28.7263 2.49069C29.1362 2.28572 29.6145 2.2174 30.1611 2.2174C30.7077 2.2174 31.3226 2.35405 31.8008 2.55902C32.2791 2.83231 32.7574 3.1056 33.1673 3.51554L34.3971 2.08076C34.1238 1.80746 33.8505 1.60249 33.5772 1.39753C33.3039 1.19256 32.9623 0.987588 32.6207 0.850942C32.2791 0.714296 31.9375 0.57765 31.5275 0.509327C31.1176 0.441004 30.6393 0.372681 30.1611 0.372681C29.3412 0.372681 28.5896 0.509327 27.9064 0.782619C27.2232 1.05591 26.6083 1.46585 26.13 2.01243C25.6518 2.55902 25.2418 3.1056 24.9685 3.78883C24.6952 4.47206 24.5586 5.22361 24.5586 5.97517C24.5586 6.72672 24.6952 7.47827 24.9685 8.1615C25.2418 8.84473 25.6518 9.45964 26.13 9.9379C26.6083 10.4162 27.2232 10.8261 27.8381 11.0994C28.5213 11.3727 29.2729 11.5093 30.0244 11.5093C30.776 11.5093 30.981 11.5093 31.3909 11.3727C31.8008 11.3044 32.2108 11.1677 32.5524 10.9627C32.894 10.8261 33.2356 10.6211 33.5089 10.3478C33.7822 10.1429 34.1238 9.86958 34.3971 9.52796L33.1673 8.29815C32.689 8.70808 32.2108 9.0497 31.7325 9.32299L31.8692 9.45964Z" fill="black"/>
<path d="M38.7705 6.79503H44.168V5.01863H38.7705V2.28571H44.8512V0.577637H36.8574V11.3727H44.9879V9.66459H38.7705V6.79503Z" fill="black"/>
<path d="M54.8945 6.86338C55.2361 6.65841 55.5094 6.45344 55.7144 6.18015C55.9194 5.90685 56.1243 5.56524 56.261 5.22362C56.3976 4.88201 56.4659 4.47207 56.4659 3.99381C56.4659 3.51555 56.3976 2.96897 56.1926 2.55903C55.9877 2.14909 55.7144 1.73915 55.3728 1.46586C55.0312 1.19257 54.6212 0.919276 54.0746 0.78263C53.5964 0.645984 52.9815 0.509338 52.3666 0.509338H47.5156V11.3044H49.4287V7.5466H51.82L54.4846 11.3044H56.7392L53.8013 7.20499C54.2113 7.06834 54.5529 6.9317 54.8262 6.79505L54.8945 6.86338ZM49.497 5.97518V2.35406H52.2982C52.9815 2.35406 53.5964 2.4907 53.938 2.83232C54.3479 3.10561 54.5529 3.58387 54.5529 4.19878C54.5529 4.81369 54.3479 5.22362 53.938 5.56524C53.528 5.90685 52.9815 6.0435 52.2982 6.0435H49.497V5.97518Z" fill="black"/>
<path d="M58.3789 2.28571H61.7951V11.3727H63.7081V2.28571H67.1242V0.577637H58.3789V2.28571Z" fill="black"/>
<path d="M72.7957 7.34164C72.5224 7.13667 72.2492 7.00003 71.9759 6.86338C71.7026 6.72673 71.361 6.65841 71.0877 6.52177C70.8827 6.45344 70.6094 6.38512 70.4044 6.3168C70.1995 6.24847 69.9945 6.18015 69.7895 6.0435C69.6529 5.97518 69.5162 5.83853 69.3796 5.77021C69.2429 5.63357 69.2429 5.56524 69.2429 5.36027C69.2429 5.08698 69.3113 4.88201 69.5162 4.74537C69.7212 4.60872 69.9945 4.5404 70.3361 4.5404C70.6777 4.5404 71.0193 4.60872 71.4293 4.74537C71.8392 4.88201 72.2491 5.08698 72.5908 5.29195L73.3423 3.99381C72.9324 3.72052 72.4541 3.44723 71.9075 3.31058C71.3609 3.17394 70.8827 3.03729 70.3361 3.03729C69.7895 3.03729 69.5846 3.03729 69.1746 3.17394C68.833 3.31058 68.4914 3.44723 68.2181 3.6522C67.9448 3.85717 67.7398 4.13046 67.6032 4.47208C67.4665 4.81369 67.3982 5.15531 67.3982 5.49692C67.3982 5.90686 67.4665 6.24847 67.6032 6.52177C67.7398 6.79506 67.9448 7.00003 68.2181 7.20499C68.4914 7.40996 68.7647 7.54661 69.038 7.61493C69.3113 7.75158 69.6529 7.8199 69.9262 7.95655C70.1311 8.02487 70.4044 8.09319 70.6094 8.16152C70.8144 8.16152 71.0193 8.29816 71.2243 8.36649C71.3609 8.43481 71.4976 8.57145 71.6342 8.63978C71.7026 8.77642 71.7709 8.91307 71.7709 9.04972C71.7709 9.32301 71.6342 9.5963 71.4293 9.73295C71.2243 9.86959 70.8827 10.0062 70.4728 10.0062C70.0628 10.0062 69.5846 9.93791 69.1746 9.73295C68.6964 9.5963 68.2864 9.32301 67.8082 8.98139L66.9883 10.2795C67.5349 10.6895 68.0814 10.9628 68.6964 11.1677C69.3113 11.3727 69.9262 11.5093 70.4728 11.5093C71.0193 11.5093 71.2926 11.5093 71.6342 11.3727C71.9759 11.2361 72.3175 11.0994 72.5908 10.8944C72.8641 10.6895 73.069 10.4162 73.2057 10.0746C73.3423 9.73295 73.4106 9.39133 73.4106 8.91307C73.4106 8.50313 73.3423 8.22984 73.2057 7.95655C73.069 7.68325 72.8641 7.47829 72.5908 7.27332L72.7957 7.34164Z" fill="black"/>
<path d="M8.98171 0.645966L7.34196 4.54038H4.47239L1.94444 2.01243C2.08108 1.87578 2.08109 1.67081 2.08109 1.53417C2.08109 1.0559 1.67115 0.645966 1.19289 0.645966C0.714626 0.645966 0.304688 1.0559 0.304688 1.53417C0.304688 2.01243 0.714626 2.42236 1.19289 2.42236C1.67115 2.42236 1.39786 2.42236 1.5345 2.42236L4.1991 5.08696H7.06866L6.72705 5.97516H2.08109C1.94444 5.63354 1.67115 5.36025 1.26121 5.36025C0.851271 5.36025 0.373011 5.77019 0.373011 6.24845C0.373011 6.72671 0.782948 7.13665 1.26121 7.13665C1.73947 7.13665 2.01276 6.86336 2.08109 6.52174H6.5904L6.24879 7.40994H4.26742L1.60282 10.0745C1.5345 10.0745 1.39785 10.0745 1.26121 10.0745C0.782948 10.0745 0.373011 10.4845 0.373011 10.9627C0.373011 11.441 0.782948 11.8509 1.26121 11.8509C1.73947 11.8509 2.14941 11.441 2.14941 10.9627C2.14941 10.4845 2.14941 10.6211 2.01276 10.4845L4.54071 7.95652H6.11214L4.47239 11.8509H6.93202L7.88854 9.39131H12.4662L13.4227 11.8509H15.8823L11.2364 0.919257H9.05003L8.98171 0.645966ZM8.64009 7L10.0749 3.51553L11.5097 7H8.64009Z" fill="#C8A94C"/>
<path d="M20.3913 0.714294H18V11.5093H20.3913V0.714294Z" fill="#C8A94C"/>
<path d="M73.6836 1.12422H74.5035V3.37888H75.1867V1.12422H76.0066V0.577637H73.6836V1.12422Z" fill="black"/>
<path d="M78.8074 0.577637L78.0559 1.73913L77.3043 0.577637H76.6211V3.37888H77.236V1.53416L78.0559 2.76397L78.8757 1.53416V3.37888H79.4907V0.577637H78.8074Z" fill="black"/>
</svg>
