<svg width="171" height="27" viewBox="0 0 171 27" fill="none" xmlns="http://www.w3.org/2000/svg">
<path d="M0.318359 25.5696V1.48386H2.93637V25.5696H0.318359ZM2.0637 3.92734V1.65839H16.0264V3.92734H2.0637ZM2.0637 14.3994V12.1304H15.1538V14.3994H2.0637ZM2.0637 25.5696V23.3006H16.201V25.5696H2.0637Z" fill="black"/>
<path d="M18.4707 25.5695L25.4521 16.4938L26.8483 18.2391L21.4378 25.395H18.4707V25.5695ZM31.3862 25.5695L25.8011 18.0646L25.2775 17.541L18.6452 8.9888H21.6123L26.6738 15.6211L27.1974 15.9702L34.1788 25.2205H31.2117L31.3862 25.5695ZM27.5465 17.7155L26.1502 15.9702L31.2117 9.33786H34.1788L27.721 17.8901L27.5465 17.7155Z" fill="black"/>
<path d="M44.6505 25.9186C43.0797 25.9186 41.5089 25.5696 40.2872 24.8714C39.0654 24.1733 38.0182 23.1261 37.1456 21.7298C36.4474 20.5081 35.9238 18.9373 35.9238 17.3665C35.9238 15.7957 36.2729 14.2248 36.971 13.0031C37.6692 11.7814 38.7164 10.7342 39.9381 9.86149C41.1599 8.98882 42.7307 8.8143 44.3015 8.8143C45.8723 8.8143 47.094 9.16335 48.3157 9.86149C49.5375 10.5596 50.4102 11.4323 51.1083 12.654C51.8064 13.8758 52.1555 15.272 52.1555 16.8429C52.1555 18.4137 52.1555 17.1919 52.1555 17.541C52.1555 17.7155 52.1555 18.0646 52.1555 18.4137H38.0182V16.3192H50.9338L50.0611 17.0174C50.0611 15.7957 49.8866 14.7485 49.363 13.8758C49.0139 13.0031 48.3157 12.305 47.4431 11.7814C46.5704 11.2578 45.6977 11.0832 44.476 11.0832C43.2543 11.0832 42.2071 11.2578 41.3344 11.9559C40.4617 12.4795 39.7636 13.1777 39.24 14.0503C38.7164 14.923 38.5418 15.9702 38.5418 17.3665C38.5418 18.7627 38.7164 19.8099 39.4145 20.6826C39.9381 21.5553 40.6362 22.4279 41.6835 22.9516C42.7307 23.4752 43.7779 23.8242 44.9996 23.8242C46.2213 23.8242 46.9195 23.6497 47.7921 23.3006C48.6648 22.9515 49.363 22.428 49.8866 21.7298L51.4574 23.3006C50.7592 24.1733 49.712 24.8714 48.6648 25.395C47.4431 25.9186 46.2213 26.0932 44.9996 26.0932L44.6505 25.9186Z" fill="black"/>
<path d="M63.3256 25.9186C61.7548 25.9186 60.184 25.5695 58.9623 24.6969C57.7405 23.9987 56.6933 22.9515 55.8206 21.5553C55.1225 20.3335 54.7734 18.7627 54.7734 17.1919C54.7734 15.6211 55.1225 14.0503 55.8206 12.8285C56.5188 11.6068 57.566 10.5596 58.9623 9.68696C60.184 8.98882 61.7548 8.63974 63.3256 8.63974C64.8964 8.63974 65.7691 8.81426 66.8163 9.33787C67.8635 9.86147 68.7362 10.3851 69.6088 11.2578L68.038 13.0031C67.5144 12.305 66.8163 11.9559 66.1182 11.6068C65.42 11.2577 64.5473 11.0832 63.5001 11.0832C62.4529 11.0832 61.4057 11.4323 60.3585 11.9559C59.4859 12.4795 58.7877 13.1776 58.2641 14.0503C57.7405 14.923 57.566 15.9702 57.566 17.1919C57.566 18.4136 57.7405 19.4609 58.2641 20.3335C58.7877 21.2062 59.4859 22.0789 60.3585 22.6025C61.2312 23.1261 62.2784 23.4751 63.5001 23.4751C64.7219 23.4751 65.2455 23.4751 66.1182 22.9515C66.9908 22.4279 67.5144 22.0789 68.2126 21.5553L69.7834 23.1261C69.0852 23.9987 68.038 24.6969 66.9908 25.0459C65.9436 25.5695 64.7219 25.7441 63.5001 25.7441L63.3256 25.9186Z" fill="black"/>
<path d="M79.5568 25.9186C78.1606 25.9186 77.1134 25.5695 76.0662 25.0459C75.0189 24.5223 74.1463 23.6497 73.6227 22.4279C73.0991 21.2062 72.75 20.159 72.75 18.5882V8.9888H75.1935V18.4137C75.1935 19.4609 75.368 20.3335 75.7171 21.0317C76.0662 21.7298 76.5897 22.4279 77.2879 22.777C77.986 23.1261 78.6842 23.4751 79.5568 23.4751C80.9531 23.4751 82.0003 22.9515 82.873 22.0789C83.7457 21.2062 84.0947 19.9845 84.0947 18.4137V8.9888H86.5382V18.5882C86.5382 19.9845 86.1891 21.2062 85.6655 22.4279C85.1419 23.4751 84.2693 24.3478 83.222 25.0459C82.1748 25.5695 80.9531 25.9186 79.5568 25.9186Z" fill="black"/>
<path d="M89.3301 11.4323V9.16337H99.9767V11.4323H89.3301ZM93.5189 25.5696V2.18201H95.9624V25.5696H93.5189Z" fill="black"/>
<path d="M104.691 5.67269C104.167 5.67269 103.818 5.67268 103.469 5.14908C103.12 4.80001 102.945 4.45095 102.945 3.92735C102.945 3.40375 102.945 3.05467 103.469 2.7056C103.818 2.35653 104.167 2.18201 104.691 2.18201C105.214 2.18201 105.563 2.182 105.912 2.7056C106.261 3.2292 106.436 3.40375 106.436 3.92735C106.436 4.45095 106.436 4.80001 105.912 5.14908C105.389 5.49815 105.214 5.67269 104.691 5.67269ZM103.469 25.5696V9.16337H105.912V25.5696H103.469Z" fill="black"/>
<path d="M116.558 25.5696L108.879 9.16336H111.671L118.129 23.4752H116.558L123.016 9.16336H125.634L117.955 25.5696H116.558Z" fill="black"/>
<path d="M136.281 25.9186C134.711 25.9186 133.14 25.5696 131.918 24.8714C130.696 24.1733 129.649 23.1261 128.776 21.7298C128.078 20.5081 127.555 18.9373 127.555 17.3665C127.555 15.7957 127.904 14.2248 128.602 13.0031C129.3 11.7814 130.347 10.7342 131.569 9.86149C132.791 8.98882 134.362 8.8143 135.932 8.8143C137.503 8.8143 138.725 9.16335 139.947 9.86149C141.168 10.5596 142.041 11.4323 142.739 12.654C143.437 13.8758 143.786 15.272 143.786 16.8429C143.786 18.4137 143.786 17.1919 143.786 17.541C143.786 17.7155 143.786 18.0646 143.786 18.4137H129.649V16.3192H142.565L141.692 17.0174C141.692 15.7957 141.517 14.7485 140.994 13.8758C140.645 13.0031 139.947 12.305 139.074 11.7814C138.201 11.2578 137.329 11.0832 136.107 11.0832C134.885 11.0832 133.838 11.2578 132.965 11.9559C132.093 12.4795 131.394 13.1777 130.871 14.0503C130.347 14.923 130.173 15.9702 130.173 17.3665C130.173 18.7627 130.347 19.8099 131.045 20.6826C131.569 21.5553 132.267 22.4279 133.314 22.9516C134.362 23.4752 135.409 23.8242 136.63 23.8242C137.852 23.8242 138.55 23.6497 139.423 23.3006C140.296 22.9515 140.994 22.428 141.517 21.7298L143.088 23.3006C142.39 24.1733 141.343 24.8714 140.296 25.395C139.074 25.9186 137.852 26.0932 136.63 26.0932L136.281 25.9186Z" fill="black"/>
<path d="M145.531 2.53105V0.611176H156.003V2.53105H145.531ZM149.72 13.3522V0.960239H151.814V13.3522H149.72Z" fill="black"/>
<path d="M157.748 13.3522V0.611176H159.144L164.555 9.33787H163.682L169.093 0.611176H170.489V13.3522H168.395V4.27639H168.918L164.904 10.9087H163.508L159.493 4.45094H160.017V13.5267H157.923L157.748 13.3522Z" fill="black"/>
</svg>
