<svg width="34" height="9" viewBox="0 0 34 9" fill="none" xmlns="http://www.w3.org/2000/svg">
<path d="M3.66456 7.91305L0.931641 1.05591H1.72667L4.06208 7.06833H3.76394L6.14903 1.05591H6.94406L4.21114 7.91305H3.66456Z" fill="black"/>
<path d="M8.38508 2.24855C8.23601 2.24855 8.13663 2.24855 8.03725 2.09948C7.93787 1.95041 7.88818 1.90072 7.88818 1.75166C7.88818 1.60259 7.88818 1.50321 8.03725 1.40383C8.18632 1.30445 8.23601 1.25476 8.38508 1.25476C8.53415 1.25476 8.63353 1.25476 8.7329 1.40383C8.83228 1.5529 8.88197 1.60259 8.88197 1.75166C8.88197 1.90072 8.88197 2.0001 8.7329 2.09948C8.58384 2.19886 8.53415 2.24855 8.38508 2.24855ZM8.03725 7.91314V3.24234H8.7329V7.91314H8.03725Z" fill="black"/>
<path d="M12.1617 8.01245C11.7145 8.01245 11.317 7.91308 10.9691 7.71432C10.6213 7.51556 10.3729 7.21743 10.1741 6.81991C9.97535 6.47208 9.87598 6.02488 9.87598 5.57767C9.87598 5.13047 9.97535 4.68326 10.1741 4.33544C10.3729 3.98761 10.6213 3.68947 11.0188 3.44103C11.3667 3.24227 11.7642 3.14289 12.1617 3.14289C12.5592 3.14289 12.8077 3.19258 13.1058 3.34165C13.4039 3.49072 13.6524 3.68947 13.8014 3.93792C14.0002 4.18637 14.0996 4.48451 14.1493 4.83233V6.27332C14.1493 6.62115 14.0002 6.91929 13.8014 7.16774C13.6027 7.41618 13.4039 7.61494 13.1058 7.76401C12.8077 7.91307 12.5095 7.96277 12.1617 7.96277V8.01245ZM12.2611 7.3665C12.6089 7.3665 12.8573 7.26712 13.1058 7.11805C13.3542 6.96898 13.553 6.77022 13.7021 6.47209C13.8511 6.22364 13.9008 5.9255 13.9008 5.57767C13.9008 5.22985 13.8511 4.93171 13.7021 4.63358C13.553 4.33544 13.3542 4.13668 13.1058 4.0373C12.8573 3.88823 12.5592 3.78885 12.2611 3.78885C11.9629 3.78885 11.6648 3.88823 11.4163 4.0373C11.1679 4.18637 10.9691 4.38513 10.8201 4.68326C10.671 4.9814 10.6213 5.22985 10.6213 5.57767C10.6213 5.9255 10.671 6.22363 10.8201 6.52177C10.9691 6.81991 11.1679 7.01867 11.4163 7.16774C11.6648 7.3168 11.9629 7.41618 12.3108 7.41618L12.2611 7.3665ZM14.5468 7.91308H13.8511V6.67084L14.0002 5.52798L13.8511 4.38513V0.857178H14.5468V7.91308Z" fill="black"/>
<path d="M18.1241 8.0125C17.6769 8.0125 17.2297 7.91313 16.8819 7.71437C16.5341 7.51561 16.2359 7.21748 15.9875 6.81996C15.7887 6.47213 15.6396 6.02493 15.6396 5.57772C15.6396 5.13052 15.739 4.68331 15.9378 4.33549C16.1365 3.98766 16.4347 3.68952 16.7825 3.44108C17.1303 3.24232 17.5775 3.14294 18.0247 3.14294C18.4719 3.14294 18.8198 3.24232 19.1676 3.44108C19.5154 3.63983 19.7639 3.88828 19.9626 4.23611C20.1614 4.58394 20.2608 4.98145 20.2608 5.42865C20.2608 5.87586 20.2608 5.52804 20.2608 5.62742C20.2608 5.7268 20.2608 5.77648 20.2608 5.87586H16.2359V5.27958H19.9129L19.6645 5.47835C19.6645 5.13052 19.6148 4.83238 19.4657 4.58394C19.3664 4.33549 19.1676 4.13673 18.9192 3.98766C18.6707 3.83859 18.4223 3.7889 18.0744 3.7889C17.7266 3.7889 17.4285 3.83859 17.18 4.03735C16.9316 4.18642 16.7328 4.38518 16.5837 4.63363C16.4347 4.88207 16.385 5.18021 16.385 5.57772C16.385 5.97524 16.4844 6.27337 16.6334 6.52182C16.7825 6.77027 16.9813 7.01872 17.2794 7.16778C17.5278 7.31685 17.8757 7.41623 18.2235 7.41623C18.5713 7.41623 18.7701 7.36654 19.0185 7.26716C19.267 7.16778 19.4657 7.01872 19.6148 6.81996L20.062 7.26716C19.8633 7.51561 19.5651 7.71437 19.267 7.86344C18.9192 8.01251 18.5713 8.0622 18.2235 8.0622L18.1241 8.0125Z" fill="black"/>
<path d="M23.441 8.01251C22.9938 8.01251 22.5963 7.91314 22.1988 7.66469C21.851 7.46593 21.5528 7.16779 21.3044 6.77028C21.1056 6.42245 20.9565 5.97525 20.9565 5.52804C20.9565 5.08084 21.0559 4.68332 21.3044 4.28581C21.5528 3.88829 21.8013 3.63985 22.1988 3.3914C22.5466 3.19264 22.9938 3.09326 23.441 3.09326C23.8882 3.09326 24.2857 3.19264 24.6833 3.3914C25.0311 3.59016 25.3292 3.88829 25.5777 4.28581C25.7764 4.63363 25.8758 5.08084 25.8758 5.52804C25.8758 5.97525 25.7764 6.42245 25.5777 6.77028C25.3789 7.1181 25.0808 7.41624 24.6833 7.66469C24.3354 7.86345 23.8882 8.01251 23.441 8.01251ZM23.441 7.31686C23.7888 7.31686 24.0373 7.21748 24.3354 7.06842C24.6336 6.91935 24.7826 6.72059 24.9317 6.42245C25.0808 6.17401 25.1305 5.82618 25.1305 5.52804C25.1305 5.2299 25.0311 4.88208 24.9317 4.63364C24.7826 4.38519 24.5839 4.18643 24.3354 4.03736C24.087 3.88829 23.7888 3.78891 23.441 3.78891C23.0932 3.78891 22.8447 3.88829 22.5466 4.03736C22.2982 4.18643 22.0994 4.38519 21.9503 4.63364C21.8013 4.88208 21.7516 5.18022 21.7516 5.52804C21.7516 5.87587 21.8013 6.17401 21.9503 6.47215C22.0994 6.77028 22.2982 6.96904 22.5466 7.11811C22.7951 7.26718 23.0932 7.36656 23.441 7.36656V7.31686Z" fill="black"/>
<path d="M26.3726 1.35408V0.807495H29.3539V1.35408H26.3726ZM27.5651 4.43482V0.906872H28.1614V4.43482H27.5651Z" fill="black"/>
<path d="M29.9004 4.43482V0.807495H30.2979L31.8383 3.29196H31.5898L33.1302 0.807495H33.5277V4.43482H32.9314V1.85097H33.0805L31.9377 3.73917H31.5401L30.3973 1.90067H30.5464V4.48451H29.9501L29.9004 4.43482Z" fill="black"/>
</svg>
