<svg width="48" height="10" viewBox="0 0 48 10" fill="none" xmlns="http://www.w3.org/2000/svg">
<path d="M0.329102 7.91305V1.05591H1.07444V7.91305H0.329102ZM0.776307 1.75156V1.1056H4.75146V1.75156H0.776307ZM0.776307 4.73293V4.08696H4.50302V4.73293H0.776307ZM0.776307 7.91305V7.26708H4.80115V7.91305H0.776307Z" fill="black"/>
<path d="M7.6336 7.91305L5.44727 3.24225H6.2423L8.08081 7.31678H7.6336L9.47211 3.24225H10.2175L8.03112 7.91305H7.6336Z" fill="black"/>
<path d="M13.2481 8.01244C12.8009 8.01244 12.3537 7.91307 12.0059 7.71431C11.6581 7.51555 11.3599 7.21741 11.1115 6.8199C10.9127 6.47207 10.7637 6.02487 10.7637 5.57766C10.7637 5.13046 10.8631 4.68325 11.0618 4.33543C11.2606 3.9876 11.5587 3.68946 11.9065 3.44102C12.2544 3.19257 12.7016 3.14288 13.1488 3.14288C13.596 3.14288 13.9438 3.24226 14.2916 3.44102C14.6394 3.63977 14.8879 3.88822 15.0867 4.23605C15.2854 4.58388 15.3848 4.98139 15.3848 5.42859C15.3848 5.8758 15.3848 5.52798 15.3848 5.62736C15.3848 5.67704 15.3848 5.77642 15.3848 5.8758H11.3599V5.27952H15.037L14.7885 5.47829C14.7885 5.13046 14.7388 4.83232 14.5898 4.58387C14.4904 4.33543 14.2916 4.13667 14.0432 3.9876C13.7947 3.83853 13.5463 3.78884 13.1985 3.78884C12.8506 3.78884 12.5525 3.83853 12.304 4.03729C12.0556 4.18636 11.8568 4.38512 11.7078 4.63357C11.5587 4.88201 11.509 5.18015 11.509 5.57766C11.509 5.97518 11.5587 6.27331 11.7575 6.52176C11.9065 6.77021 12.1053 7.01866 12.4034 7.16772C12.7016 7.31679 12.9997 7.41617 13.3475 7.41617C13.6953 7.41617 13.8941 7.36648 14.1426 7.2671C14.391 7.16772 14.5898 7.01866 14.7388 6.8199L15.186 7.2671C14.9873 7.51555 14.6891 7.71431 14.391 7.86338C14.0432 8.01245 13.6953 8.06213 13.3475 8.06213L13.2481 8.01244Z" fill="black"/>
<path d="M16.4287 7.91306V3.24226H17.1244V7.91306H16.4287ZM17.1244 5.18014L16.8262 5.08077C16.8262 4.48449 16.9753 4.03729 17.2734 3.68946C17.5716 3.34163 17.9691 3.19257 18.466 3.19257C18.9629 3.19257 18.9132 3.19256 19.1119 3.29194C19.3107 3.39132 19.4598 3.4907 19.6585 3.68946L19.2113 4.18635C19.1119 4.08698 18.9629 3.9876 18.8635 3.93791C18.7144 3.88822 18.5654 3.83853 18.4163 3.83853C18.0685 3.83853 17.7703 3.93791 17.5219 4.18635C17.2734 4.4348 17.1741 4.78263 17.1741 5.22984L17.1244 5.18014Z" fill="black"/>
<path d="M21.8449 7.96275L19.8076 3.24225H20.6026L22.2424 7.16771H21.9443L23.6834 3.24225H24.4784L22.2921 7.96275H21.8946H21.8449ZM20.553 9.90063L21.8449 7.26709L22.2424 7.96275L21.348 9.90063H20.553Z" fill="black"/>
<path d="M27.1612 8.01242C26.714 8.01242 26.3165 7.91304 25.919 7.6646C25.5215 7.41615 25.273 7.1677 25.0246 6.77019C24.8258 6.42236 24.6768 5.97515 24.6768 5.52795C24.6768 5.08074 24.7761 4.68323 25.0246 4.28571C25.2233 3.93789 25.5215 3.63976 25.919 3.39131C26.2668 3.19255 26.714 3.09317 27.1612 3.09317C27.6084 3.09317 28.006 3.19255 28.4035 3.39131C28.7513 3.59007 29.0494 3.8882 29.2979 4.28571C29.4966 4.63354 29.596 5.08074 29.596 5.52795C29.596 5.97515 29.4966 6.42236 29.2979 6.77019C29.0991 7.11801 28.801 7.41615 28.4035 7.6646C28.0556 7.86335 27.6084 8.01242 27.1612 8.01242ZM27.1612 7.31677C27.5091 7.31677 27.7575 7.21739 28.0556 7.06833C28.3041 6.91926 28.5028 6.7205 28.6519 6.42236C28.801 6.17391 28.8507 5.82609 28.8507 5.52795C28.8507 5.22981 28.801 4.88199 28.6519 4.63355C28.5028 4.3851 28.3041 4.18633 28.0556 4.03727C27.8072 3.8882 27.5091 3.78882 27.1612 3.78882C26.8134 3.78882 26.565 3.8882 26.2668 4.03727C26.0184 4.18633 25.8196 4.3851 25.6705 4.63355C25.5215 4.88199 25.4718 5.18012 25.4718 5.52795C25.4718 5.87578 25.5215 6.17392 25.6705 6.47205C25.8196 6.7205 26.0184 6.96895 26.2668 7.11802C26.5153 7.26709 26.8134 7.36647 27.1612 7.36647V7.31677Z" fill="black"/>
<path d="M30.6895 7.91306V3.24226H31.3851V7.91306H30.6895ZM34.118 7.91306V5.18015C34.118 4.78263 34.0186 4.4348 33.7702 4.18636C33.5217 3.93791 33.2236 3.78884 32.8261 3.78884C32.4286 3.78884 32.3292 3.83853 32.1304 3.9876C31.9317 4.08698 31.7826 4.28574 31.6336 4.4845C31.5342 4.68325 31.4348 4.9317 31.4348 5.18015L31.1367 4.98139C31.1367 4.63356 31.236 4.33542 31.3851 4.03729C31.5342 3.73915 31.7826 3.5404 32.0808 3.39133C32.3789 3.24226 32.677 3.14288 33.0249 3.14288C33.3727 3.14288 33.7205 3.24226 33.969 3.39133C34.2671 3.5404 34.4659 3.78884 34.6149 4.08698C34.764 4.38512 34.8634 4.68325 34.8634 5.03108V7.91306H34.1677H34.118Z" fill="black"/>
<path d="M38.2423 8.01244C37.7951 8.01244 37.3479 7.91307 37 7.71431C36.6522 7.51555 36.3541 7.21741 36.1056 6.8199C35.9069 6.47207 35.7578 6.02487 35.7578 5.57766C35.7578 5.13046 35.8572 4.68325 36.0559 4.33543C36.2547 3.9876 36.5528 3.68946 36.9007 3.44102C37.2485 3.19257 37.6957 3.14288 38.1429 3.14288C38.5901 3.14288 38.9379 3.24226 39.2858 3.44102C39.6336 3.63977 39.882 3.88822 40.0808 4.23605C40.2796 4.58388 40.3789 4.98139 40.3789 5.42859C40.3789 5.8758 40.3789 5.52798 40.3789 5.62736C40.3789 5.67704 40.3789 5.77642 40.3789 5.8758H36.3541V5.27952H40.0311L39.7827 5.47829C39.7827 5.13046 39.733 4.83232 39.5839 4.58387C39.4845 4.33543 39.2858 4.13667 39.0373 3.9876C38.7889 3.83853 38.5404 3.78884 38.1926 3.78884C37.8448 3.78884 37.5466 3.83853 37.2982 4.03729C37.0497 4.18636 36.851 4.38512 36.7019 4.63357C36.5528 4.88201 36.5032 5.18015 36.5032 5.57766C36.5032 5.97518 36.5528 6.27331 36.7516 6.52176C36.9007 6.77021 37.0994 7.01866 37.3976 7.16772C37.6957 7.31679 37.9938 7.41617 38.3417 7.41617C38.6895 7.41617 38.8882 7.36648 39.1367 7.2671C39.3851 7.16772 39.5839 7.01866 39.733 6.8199L40.1802 7.2671C39.9814 7.51555 39.6833 7.71431 39.3851 7.86338C39.0373 8.01245 38.6895 8.06213 38.3417 8.06213L38.2423 8.01244Z" fill="black"/>
<path d="M40.876 1.35405V0.807465H43.8573V1.35405H40.876ZM42.0685 4.43479V0.906842H42.6648V4.43479H42.0685Z" fill="black"/>
<path d="M44.3535 4.43479V0.807465H44.751L46.2914 3.29193H46.043L47.5833 0.807465H47.9808V4.43479H47.3846V1.85094H47.5336L46.3908 3.73914H45.9933L44.8504 1.90063H44.9995V4.48448H44.4032L44.3535 4.43479Z" fill="black"/>
</svg>
