<svg width="72" height="9" viewBox="0 0 72 9" fill="none" xmlns="http://www.w3.org/2000/svg">
<path d="M0.975098 6.3913V0.428571H1.59622V6.3913H0.975098ZM1.40988 3.96894V3.40993H3.14901C3.39746 3.40993 3.64591 3.40993 3.83224 3.28571C4.01858 3.16148 4.20491 3.03726 4.26702 2.85093C4.39125 2.66459 4.45336 2.47825 4.45336 2.16769C4.45336 1.85713 4.45336 1.6708 4.26702 1.48447C4.1428 1.29813 4.01858 1.17391 3.83224 1.04969C3.64591 0.925465 3.39746 0.925457 3.14901 0.925457H1.40988V0.366455H3.21112C3.58379 0.366455 3.89435 0.428563 4.20491 0.614898C4.51547 0.739122 4.70181 0.987569 4.88814 1.23602C5.07448 1.48446 5.13659 1.79502 5.13659 2.16769C5.13659 2.54036 5.07448 2.85092 4.88814 3.09937C4.70181 3.34782 4.51547 3.59626 4.20491 3.72049C3.89435 3.84471 3.58379 3.96894 3.21112 3.96894H1.40988Z" fill="black"/>
<path d="M6.13037 6.39129V2.29191H6.75149V6.39129H6.13037ZM6.75149 4.03104L6.50304 3.90681C6.50304 3.40992 6.62727 2.97514 6.87571 2.66458C7.12416 2.35402 7.49683 2.2298 7.93161 2.2298C8.3664 2.2298 8.30428 2.2298 8.49062 2.35402C8.67695 2.41613 8.80118 2.54036 8.98752 2.72669L8.55273 3.16147C8.49062 3.03725 8.3664 2.97514 8.24217 2.91303C8.11795 2.91303 7.99373 2.85092 7.80739 2.85092C7.49683 2.85092 7.24838 2.97514 7.06205 3.16147C6.87571 3.34781 6.75149 3.65837 6.75149 4.09315V4.03104Z" fill="black"/>
<path d="M11.2856 6.45344C10.913 6.45344 10.5403 6.32922 10.2297 6.14289C9.91917 5.95655 9.67072 5.7081 9.48439 5.39755C9.29805 5.08699 9.17383 4.71431 9.17383 4.27953C9.17383 3.84475 9.29805 3.53419 9.48439 3.22363C9.67072 2.91307 9.91917 2.66462 10.2297 2.47828C10.5403 2.29195 10.913 2.16772 11.2856 2.16772C11.6583 2.16772 12.031 2.22984 12.3415 2.41618C12.6521 2.60251 12.9005 2.85096 13.0869 3.16152C13.2732 3.47208 13.3974 3.84475 13.3974 4.21742C13.3974 4.59009 13.2732 4.96276 13.0869 5.33543C12.9005 5.64599 12.6521 5.89443 12.3415 6.08077C12.031 6.26711 11.6583 6.39133 11.2856 6.39133V6.45344ZM11.2856 5.83233C11.5962 5.83233 11.8446 5.77021 12.031 5.64599C12.2794 5.52177 12.4036 5.33543 12.59 5.08699C12.7142 4.83854 12.7763 4.59009 12.7763 4.27953C12.7763 3.96897 12.7142 3.72052 12.59 3.47208C12.4658 3.22363 12.2794 3.0373 12.031 2.91307C11.7825 2.78885 11.5341 2.72674 11.2856 2.72674C11.0372 2.72674 10.7266 2.78885 10.5403 2.91307C10.2918 3.0373 10.1055 3.22363 9.98128 3.47208C9.85706 3.72052 9.79495 3.96897 9.79495 4.27953C9.79495 4.59009 9.85706 4.83854 9.98128 5.08699C10.1055 5.33543 10.2918 5.52177 10.5403 5.64599C10.7887 5.77021 11.0372 5.83233 11.2856 5.83233Z" fill="black"/>
<path d="M14.3911 6.39133V2.29196H15.0122V6.39133H14.3911ZM17.1861 6.39133V3.90686C17.1861 3.5963 17.0619 3.28574 16.8756 3.0994C16.6892 2.91307 16.4408 2.78884 16.1302 2.78884C15.8197 2.78884 15.7576 2.78885 15.5712 2.91307C15.3849 3.0373 15.2607 3.0994 15.1365 3.28574C15.0122 3.47207 15.0122 3.65842 15.0122 3.84475L14.7638 3.72052C14.7638 3.40996 14.8259 3.16152 14.9501 2.91307C15.0743 2.66463 15.2607 2.47829 15.5091 2.35406C15.7576 2.22984 16.006 2.16772 16.3166 2.16772C16.6271 2.16772 16.8756 2.22984 17.124 2.35406C17.3725 2.47829 17.5588 2.66463 17.683 2.91307C17.8073 3.16152 17.8694 3.40996 17.8694 3.72052V6.32922H17.2483L17.1861 6.39133ZM19.9812 6.39133V3.90686C19.9812 3.5963 19.857 3.28574 19.6706 3.0994C19.4843 2.91307 19.2358 2.78884 18.9253 2.78884C18.6147 2.78884 18.5526 2.78885 18.3663 2.91307C18.1799 3.0373 18.0557 3.0994 17.9315 3.28574C17.8073 3.47207 17.8073 3.65842 17.8073 3.84475L17.4346 3.72052C17.4346 3.40996 17.5588 3.16152 17.683 2.91307C17.8073 2.66463 18.0557 2.47829 18.242 2.35406C18.4284 2.22984 18.7389 2.16772 19.0495 2.16772C19.3601 2.16772 19.6085 2.22984 19.857 2.35406C20.1054 2.47829 20.2917 2.66463 20.416 2.91307C20.5402 3.16152 20.6023 3.40996 20.6023 3.72052V6.32922H19.9812V6.39133Z" fill="black"/>
<path d="M21.7827 8.13042V2.29191H22.4038V3.34781L22.2796 4.34159L22.4038 5.33539V8.13042H21.7827ZM23.8945 6.51551C23.584 6.51551 23.2734 6.4534 23.025 6.32918C22.7765 6.20496 22.5902 6.01862 22.4038 5.83228C22.2175 5.58384 22.1554 5.33539 22.0933 5.02483V3.72048C22.0933 3.40992 22.2175 3.16148 22.4038 2.91303C22.5902 2.66458 22.7765 2.54036 23.025 2.41613C23.2734 2.29191 23.584 2.2298 23.8324 2.2298C24.0809 2.2298 24.5777 2.35402 24.8262 2.54036C25.1368 2.72669 25.3852 2.97514 25.5715 3.2857C25.7579 3.59626 25.82 3.96893 25.82 4.40371C25.82 4.83849 25.7579 5.14905 25.5715 5.45961C25.3852 5.77017 25.1368 6.01861 24.8262 6.20495C24.5156 6.39128 24.2051 6.51551 23.8324 6.51551H23.8945ZM23.7703 5.95651C24.0809 5.95651 24.3293 5.89439 24.5156 5.77017C24.702 5.64594 24.8883 5.45961 25.0125 5.21117C25.1368 4.96272 25.1989 4.71427 25.1989 4.40371C25.1989 4.09315 25.1368 3.8447 25.0125 3.59626C24.8883 3.34781 24.702 3.16148 24.5156 3.03725C24.2672 2.91303 24.0187 2.85092 23.7703 2.85092C23.5218 2.85092 23.2113 2.91303 23.025 3.03725C22.7765 3.16148 22.6523 3.34781 22.5281 3.59626C22.4038 3.8447 22.3417 4.09315 22.3417 4.40371C22.3417 4.71427 22.3417 4.96272 22.5281 5.21117C22.6523 5.45961 22.8386 5.64594 23.025 5.77017C23.2113 5.89439 23.4597 5.95651 23.7703 5.95651Z" fill="black"/>
<path d="M26.4409 2.85093V2.29193H29.1117V2.85093H26.4409ZM27.4968 6.3913V0.552795H28.1179V6.3913H27.4968Z" fill="black"/>
<path d="M31.9688 6.39132V0.428589H32.5899V6.39132H31.9688ZM32.4035 0.987591V0.428589H35.8818V0.987591H32.4035ZM32.4035 3.59629V3.03728H35.6333V3.59629H32.4035ZM32.4035 6.39132V5.83231H35.9439V6.39132H32.4035Z" fill="black"/>
<path d="M36.938 6.39129V2.29191H37.5591V6.39129H36.938ZM39.9194 6.39129V3.96893C39.9194 3.59626 39.7951 3.34781 39.6088 3.09936C39.4225 2.85091 39.1119 2.7888 38.7392 2.7888C38.3666 2.7888 38.3044 2.78881 38.1181 2.91303C37.9318 3.03725 37.8076 3.16148 37.6833 3.34781C37.5591 3.53415 37.497 3.72048 37.497 3.96893L37.2485 3.78259C37.2485 3.47203 37.3107 3.22358 37.4349 2.97514C37.5591 2.72669 37.8076 2.54036 38.056 2.41613C38.3044 2.29191 38.615 2.2298 38.9256 2.2298C39.2361 2.2298 39.5467 2.29191 39.733 2.47824C39.9815 2.60246 40.1678 2.85091 40.292 3.09936C40.4162 3.34781 40.4784 3.65837 40.4784 3.90681V6.39129H39.8572H39.9194Z" fill="black"/>
<path d="M43.3972 6.32918C43.0246 6.32918 42.6519 6.26706 42.3413 6.08073C42.0308 5.89439 41.7823 5.64595 41.6581 5.33539C41.5339 5.02483 41.4097 4.65216 41.4097 4.27949C41.4097 3.90682 41.4718 3.53415 41.6581 3.22359C41.8445 2.91303 42.0929 2.66458 42.3413 2.47824C42.6519 2.29191 42.9625 2.2298 43.3351 2.2298C43.7078 2.2298 43.9563 2.2298 44.2047 2.41613C44.4531 2.54036 44.6395 2.7267 44.8258 2.91303C45.0122 3.09937 45.0743 3.40992 45.0743 3.72048V4.90061C45.0743 5.21117 44.95 5.45961 44.7637 5.70806C44.5774 5.95651 44.391 6.08073 44.1426 6.20495C43.8941 6.32917 43.6457 6.39129 43.3351 6.39129L43.3972 6.32918ZM43.3972 8.19253C42.9625 8.19253 42.5898 8.13042 42.2792 7.94408C41.9687 7.75775 41.7202 7.57141 41.4718 7.32296L41.8445 6.9503C42.0308 7.19875 42.2171 7.32296 42.4656 7.44719C42.714 7.57141 43.0246 7.63352 43.3351 7.63352C43.832 7.63352 44.2047 7.5093 44.4531 7.26086C44.7016 7.01241 44.8879 6.70185 44.8879 6.26706V5.27327L45.0122 4.34159L44.8879 3.40992V2.35402H45.509V6.26706C45.509 6.63974 45.4469 7.0124 45.2606 7.32296C45.0743 7.63352 44.8258 7.81986 44.5153 8.0062C44.2047 8.19253 43.832 8.25464 43.3972 8.25464V8.19253ZM43.5836 5.77017C43.832 5.77017 44.0805 5.77017 44.3289 5.58383C44.5153 5.45961 44.7016 5.27328 44.8258 5.08694C44.95 4.8385 45.0122 4.59005 45.0122 4.27949C45.0122 3.96893 45.0122 3.72048 44.8258 3.53415C44.6395 3.34781 44.5153 3.16148 44.3289 3.03725C44.1426 2.91303 43.8941 2.85092 43.5836 2.85092C43.273 2.85092 43.0246 2.91303 42.8382 3.03725C42.5898 3.16148 42.4656 3.34781 42.3413 3.53415C42.2171 3.7826 42.155 4.03104 42.155 4.27949C42.155 4.52794 42.2171 4.83849 42.3413 5.02483C42.4656 5.27328 42.6519 5.3975 42.8382 5.52172C43.0867 5.64595 43.3351 5.70806 43.5836 5.70806V5.77017Z" fill="black"/>
<path d="M47.0622 1.42236C46.938 1.42236 46.8759 1.42236 46.7517 1.29814C46.6274 1.17391 46.6274 1.1118 46.6274 0.987576C46.6274 0.863353 46.6274 0.739129 46.7517 0.677017C46.8759 0.614905 46.938 0.552795 47.0622 0.552795C47.1864 0.552795 47.3107 0.552794 47.3728 0.677017C47.4349 0.739129 47.497 0.863353 47.497 0.987576C47.497 1.1118 47.497 1.23602 47.3728 1.29814C47.3107 1.36025 47.1864 1.42236 47.0622 1.42236ZM46.7517 6.3913V2.29193H47.3728V6.3913H46.7517Z" fill="black"/>
<path d="M48.5527 6.39129V2.29191H49.1739V6.39129H48.5527ZM51.5341 6.39129V3.96893C51.5341 3.59626 51.4099 3.34781 51.2235 3.09936C51.0372 2.85091 50.7266 2.7888 50.354 2.7888C49.9813 2.7888 49.9192 2.78881 49.7329 2.91303C49.5465 3.03725 49.4223 3.16148 49.2981 3.34781C49.1739 3.53415 49.1117 3.72048 49.1117 3.96893L48.8633 3.78259C48.8633 3.47203 48.9254 3.22358 49.0496 2.97514C49.1739 2.72669 49.4223 2.54036 49.6707 2.41613C49.9192 2.29191 50.2298 2.2298 50.5403 2.2298C50.8509 2.2298 51.1614 2.29191 51.3478 2.47824C51.5962 2.60246 51.7825 2.85091 51.9068 3.09936C52.031 3.34781 52.0931 3.65837 52.0931 3.90681V6.39129H51.472H51.5341Z" fill="black"/>
<path d="M55.1988 6.45342C54.764 6.45342 54.4535 6.3913 54.0808 6.20497C53.7702 6.01863 53.5218 5.77019 53.3355 5.45963C53.1491 5.14907 53.0249 4.7764 53.0249 4.34161C53.0249 3.90683 53.087 3.59627 53.2733 3.28571C53.4597 2.97516 53.7081 2.72671 54.0187 2.54037C54.3292 2.35404 54.7019 2.29193 55.0746 2.29193C55.4473 2.29193 55.7578 2.35404 56.0684 2.54037C56.3789 2.72671 56.5653 2.91305 56.7516 3.22361C56.9379 3.53417 57.0001 3.84472 57.0001 4.27951C57.0001 4.71429 57.0001 4.40373 57.0001 4.46584C57.0001 4.46584 57.0001 4.59006 57.0001 4.65217H53.4597V4.15529H56.6895L56.5032 4.34161C56.5032 4.03105 56.5032 3.78261 56.3789 3.59627C56.2547 3.40994 56.1305 3.2236 55.9442 3.09938C55.7578 2.97515 55.5094 2.91305 55.1988 2.91305C54.8883 2.91305 54.6398 2.97515 54.4535 3.09938C54.205 3.2236 54.0808 3.40994 53.9566 3.65839C53.8324 3.90684 53.7702 4.15529 53.7702 4.46584C53.7702 4.7764 53.8324 5.02484 53.9566 5.27329C54.0808 5.52174 54.2671 5.70808 54.5156 5.8323C54.764 5.95653 55.0125 6.01864 55.323 6.01864C55.6336 6.01864 55.8199 6.01863 56.0063 5.89441C56.1926 5.77018 56.3789 5.64596 56.5653 5.45963L56.9379 5.8323C56.7516 6.08075 56.5032 6.26708 56.2547 6.3913C55.9442 6.51553 55.6957 6.57764 55.323 6.57764L55.1988 6.45342Z" fill="black"/>
<path d="M59.857 6.45342C59.4222 6.45342 59.1117 6.3913 58.739 6.20497C58.4284 6.01863 58.18 5.77019 57.9937 5.45963C57.8073 5.14907 57.6831 4.7764 57.6831 4.34161C57.6831 3.90683 57.7452 3.59627 57.9315 3.28571C58.1179 2.97516 58.3663 2.72671 58.6769 2.54037C58.9875 2.35404 59.3601 2.29193 59.7328 2.29193C60.1055 2.29193 60.416 2.35404 60.7266 2.54037C61.0371 2.72671 61.2235 2.91305 61.4098 3.22361C61.5961 3.53417 61.6583 3.84472 61.6583 4.27951C61.6583 4.71429 61.6583 4.40373 61.6583 4.46584C61.6583 4.46584 61.6583 4.59006 61.6583 4.65217H58.1179V4.15529H61.3477L61.1614 4.34161C61.1614 4.03105 61.1614 3.78261 61.0371 3.59627C60.9129 3.40994 60.7887 3.2236 60.6024 3.09938C60.416 2.97515 60.1676 2.91305 59.857 2.91305C59.5465 2.91305 59.298 2.97515 59.1117 3.09938C58.8632 3.2236 58.739 3.40994 58.6148 3.65839C58.4906 3.90684 58.4284 4.15529 58.4284 4.46584C58.4284 4.7764 58.4906 5.02484 58.6148 5.27329C58.739 5.52174 58.9253 5.70808 59.1738 5.8323C59.4222 5.95653 59.6707 6.01864 59.9812 6.01864C60.2918 6.01864 60.4781 6.01863 60.6645 5.89441C60.8508 5.77018 61.0371 5.64596 61.2235 5.45963L61.5961 5.8323C61.4098 6.08075 61.1614 6.26708 60.9129 6.3913C60.6024 6.51553 60.3539 6.57764 59.9812 6.57764L59.857 6.45342Z" fill="black"/>
<path d="M62.6523 6.39129V2.29191H63.2735V6.39129H62.6523ZM63.2735 4.03104L63.025 3.90681C63.025 3.40992 63.1492 2.97514 63.3977 2.66458C63.6461 2.35402 64.0188 2.2298 64.4536 2.2298C64.8884 2.2298 64.8263 2.2298 65.0126 2.35402C65.1989 2.41613 65.3232 2.54036 65.5095 2.72669L65.0747 3.16147C64.9505 3.03725 64.8884 2.97514 64.7641 2.91303C64.6399 2.91303 64.5157 2.85092 64.3294 2.85092C64.0188 2.85092 63.7704 2.97514 63.584 3.16147C63.3977 3.34781 63.2735 3.65837 63.2735 4.09315V4.03104Z" fill="black"/>
<path d="M65.7578 0.677029V0.242249H68.2423V0.677029H65.7578ZM66.7516 3.28572V0.304355H67.2485V3.28572H66.7516Z" fill="black"/>
<path d="M68.6768 3.28572V0.242249H69.0494L70.2917 2.35405H70.0432L71.2855 0.242249H71.6581V3.28572H71.1612V1.11181H71.2855L70.3538 2.6646H69.9811L69.0494 1.11181H69.1737V3.22362H68.6768V3.28572Z" fill="black"/>
</svg>
