<svg width="80" height="12" viewBox="0 0 80 12" fill="none" xmlns="http://www.w3.org/2000/svg">
<path d="M31.8008 9.39131C31.3225 9.6646 30.7759 9.80125 30.0927 9.80125C29.4095 9.80125 29.0679 9.73293 28.6579 9.52796C28.248 9.32299 27.8381 9.04969 27.4964 8.70808C27.1548 8.36646 26.9499 7.95653 26.7449 7.47827C26.5399 7.00001 26.4716 6.52174 26.4716 5.97516C26.4716 5.42858 26.5399 4.95032 26.7449 4.47205C26.9499 3.99379 27.1548 3.58386 27.4964 3.24224C27.8381 2.90063 28.1797 2.62733 28.6579 2.42236C29.0679 2.2174 29.5461 2.14907 30.0927 2.14907C30.6393 2.14907 31.2542 2.28572 31.7325 2.49069C32.2107 2.76398 32.689 3.03727 33.0989 3.44721L34.3287 2.01243C34.0555 1.73913 33.7822 1.53417 33.5089 1.3292C33.2356 1.12423 32.894 0.919259 32.5523 0.782613C32.2107 0.645967 31.8691 0.509321 31.4592 0.440998C31.0492 0.372675 30.571 0.304352 30.0927 0.304352C29.2728 0.304352 28.5213 0.440998 27.8381 0.71429C27.1548 0.987582 26.5399 1.39752 26.0617 1.9441C25.5834 2.49069 25.1735 3.03727 24.9002 3.7205C24.6269 4.40373 24.4902 5.15528 24.4902 5.90684C24.4902 6.65839 24.6269 7.40994 24.9002 8.09317C25.1735 8.7764 25.5834 9.39131 26.0617 9.86957C26.5399 10.3478 27.1548 10.7578 27.7697 11.0311C28.453 11.3044 29.2045 11.441 29.9561 11.441C30.7076 11.441 30.9126 11.441 31.3225 11.3044C31.7325 11.236 32.1424 11.0994 32.484 10.8944C32.8256 10.7578 33.1673 10.5528 33.4405 10.2795C33.7138 10.0745 34.0555 9.80125 34.3287 9.45963L33.0989 8.22982C32.6207 8.63976 32.1424 8.98137 31.6641 9.25466L31.8008 9.39131Z" fill="black"/>
<path d="M38.7021 6.7267H44.0996V4.9503H38.7021V2.21738H44.7828V0.509308H36.7891V11.3043H44.8512V9.59626H38.7021V6.7267Z" fill="black"/>
<path d="M54.8261 6.79505C55.1678 6.59008 55.4411 6.38511 55.646 6.11182C55.851 5.83852 56.056 5.49691 56.1926 5.1553C56.3293 4.81368 56.3976 4.40374 56.3976 3.92548C56.3976 3.44722 56.3293 2.90064 56.1243 2.4907C55.9193 2.08076 55.646 1.67082 55.3044 1.39753C54.9628 1.12424 54.5529 0.850947 54.0063 0.714301C53.528 0.577655 52.9131 0.44101 52.2982 0.44101H47.4473V11.236H49.3603V7.47828H51.7516L54.4162 11.236H56.6709L53.733 7.13666C54.1429 7.00002 54.4845 6.86337 54.7578 6.72672L54.8261 6.79505ZM49.4286 5.90685V2.28573H52.2299C52.9131 2.28573 53.528 2.42238 53.8696 2.76399C54.2796 3.03728 54.4845 3.51554 54.4845 4.13045C54.4845 4.74536 54.2796 5.1553 53.8696 5.49691C53.4597 5.83853 52.9131 5.97517 52.2299 5.97517H49.4286V5.90685Z" fill="black"/>
<path d="M58.3105 2.21738H61.7267V11.3043H63.6397V2.21738H67.0559V0.509308H58.3105V2.21738Z" fill="black"/>
<path d="M72.7274 7.27328C72.4541 7.06831 72.1808 6.93167 71.9075 6.79502C71.6342 6.65837 71.2926 6.59005 71.0193 6.45341C70.8143 6.38508 70.541 6.31676 70.3361 6.24844C70.1311 6.18011 69.9261 6.11179 69.7212 5.97515C69.5845 5.90682 69.4479 5.77018 69.3112 5.70185C69.1746 5.56521 69.1746 5.49688 69.1746 5.29192C69.1746 5.01862 69.2429 4.81365 69.4479 4.67701C69.6528 4.54036 69.9261 4.47204 70.2677 4.47204C70.6094 4.47204 70.951 4.54036 71.3609 4.67701C71.7709 4.81365 72.1808 5.01862 72.5224 5.22359L73.274 3.92546C72.864 3.65216 72.3858 3.37887 71.8392 3.24223C71.2926 3.10558 70.8143 2.96893 70.2677 2.96893C69.7212 2.96893 69.5162 2.96893 69.1063 3.10558C68.7646 3.24223 68.423 3.37887 68.1497 3.58384C67.8764 3.78881 67.6715 4.0621 67.5348 4.40372C67.3982 4.74533 67.3299 5.08695 67.3299 5.42856C67.3299 5.8385 67.3982 6.18011 67.5348 6.45341C67.6715 6.7267 67.8764 6.93167 68.1497 7.13664C68.423 7.34161 68.6963 7.47825 68.9696 7.54657C69.2429 7.68322 69.5845 7.75154 69.8578 7.88819C70.0628 7.95651 70.3361 8.02483 70.541 8.09316C70.746 8.09316 70.951 8.2298 71.1559 8.29813C71.2926 8.36645 71.4292 8.5031 71.5659 8.57142C71.6342 8.70806 71.7025 8.84471 71.7025 8.98135C71.7025 9.25465 71.5659 9.52794 71.3609 9.66458C71.1559 9.80123 70.8143 9.93788 70.4044 9.93788C69.9945 9.93788 69.5162 9.86955 69.1063 9.66458C68.628 9.52794 68.2181 9.25465 67.7398 8.91303L66.9199 10.2112C67.4665 10.6211 68.0131 10.8944 68.628 11.0994C69.2429 11.3043 69.8578 11.441 70.4044 11.441C70.951 11.441 71.2243 11.441 71.5659 11.3043C71.9075 11.1677 72.2491 11.031 72.5224 10.8261C72.7957 10.6211 73.0007 10.3478 73.1373 10.0062C73.274 9.66458 73.3423 9.32297 73.3423 8.84471C73.3423 8.43477 73.274 8.16148 73.1373 7.88819C73.0007 7.6149 72.7957 7.40993 72.5224 7.20496L72.7274 7.27328Z" fill="black"/>
<path d="M8.91335 0.577637L7.27359 4.47205H4.40403L1.87608 1.9441C2.01273 1.80745 2.01273 1.60248 2.01273 1.46584C2.01273 0.987575 1.60279 0.577637 1.12453 0.577637C0.646267 0.577637 0.236328 0.987575 0.236328 1.46584C0.236328 1.9441 0.646267 2.35403 1.12453 2.35403C1.60279 2.35403 1.3295 2.35403 1.46614 2.35403L4.13074 5.01863H7.0003L6.65869 5.90683H2.01273C1.87608 5.56522 1.60279 5.29192 1.19285 5.29192C0.782913 5.29192 0.304651 5.70186 0.304651 6.18012C0.304651 6.65838 0.71459 7.06832 1.19285 7.06832C1.67111 7.06832 1.9444 6.79503 2.01273 6.45341H6.52204L6.18043 7.34161H4.19906L1.53447 10.0062C1.46614 10.0062 1.3295 10.0062 1.19285 10.0062C0.71459 10.0062 0.304651 10.4161 0.304651 10.8944C0.304651 11.3727 0.71459 11.7826 1.19285 11.7826C1.67111 11.7826 2.08105 11.3727 2.08105 10.8944C2.08105 10.4161 2.08105 10.5528 1.9444 10.4161L4.47235 7.8882H6.04378L4.40403 11.7826H6.86366L7.82018 9.32298H12.3978L13.3543 11.7826H15.814L11.168 0.85093H8.98167L8.91335 0.577637ZM8.57173 6.93167L10.0065 3.4472L11.4413 6.93167H8.57173Z" fill="#C8A94C"/>
<path d="M20.3229 0.645966H17.9316V11.441H20.3229V0.645966Z" fill="#C8A94C"/>
<path d="M73.5469 1.05589H74.4351V3.31055H75.05V1.05589H75.9382V0.509308H73.5469V1.05589Z" fill="black"/>
<path d="M78.7391 0.509308L77.9875 1.6708L77.236 0.509308H76.5527V3.31055H77.1676V1.46583L77.9192 2.69564H77.9875L78.7391 1.46583V3.31055H79.4223V0.509308H78.7391Z" fill="black"/>
</svg>
