<svg width="41" height="10" viewBox="0 0 41 10" fill="none" xmlns="http://www.w3.org/2000/svg">
<path d="M0.347656 9.39131V0.819885H1.27933V9.39131H0.347656ZM0.968774 1.68945V0.881996H5.93772V1.68945H0.968774ZM0.968774 5.41616V4.6087H5.62716V5.41616H0.968774ZM0.968774 9.39131V8.58386H5.99983V9.39131H0.968774Z" fill="black"/>
<path d="M6.86963 4.36029V3.55283H10.6585V4.36029H6.86963ZM8.36031 9.39134V1.06836H9.22988V9.39134H8.36031Z" fill="black"/>
<path d="M11.8384 9.39135V0.571472H12.7079V9.39135H11.8384ZM16.1241 9.39135V5.9752C16.1241 5.4783 15.9999 5.04352 15.6893 4.73296C15.3788 4.4224 15.0061 4.23606 14.5092 4.23606C14.0123 4.23606 13.8881 4.29818 13.6396 4.48452C13.3912 4.67085 13.2048 4.85719 13.0185 5.10564C12.8943 5.35408 12.7701 5.66464 12.7701 5.9752L12.3974 5.72675C12.3974 5.29197 12.5216 4.91929 12.7079 4.54662C12.8943 4.17395 13.2048 3.92551 13.5775 3.73918C13.9502 3.55284 14.3229 3.42862 14.7576 3.42862C15.1924 3.42862 15.6272 3.55284 15.9378 3.73918C16.3104 3.92551 16.5589 4.23607 16.7452 4.60874C16.9315 4.98141 17.0558 5.35408 17.0558 5.85098V9.45346H16.1862L16.1241 9.39135Z" fill="black"/>
<path d="M19.0435 2.3106C18.8571 2.3106 18.7329 2.31059 18.6087 2.12426C18.4845 1.93792 18.4224 1.87581 18.4224 1.68948C18.4224 1.50314 18.4224 1.37892 18.6087 1.25469C18.795 1.13047 18.8571 1.06836 19.0435 1.06836C19.2298 1.06836 19.354 1.06836 19.4783 1.25469C19.6025 1.44103 19.6646 1.50314 19.6646 1.68948C19.6646 1.87581 19.6646 2.00003 19.4783 2.12426C19.2919 2.24848 19.2298 2.3106 19.0435 2.3106ZM18.6087 9.39134V3.55283H19.4783V9.39134H18.6087Z" fill="black"/>
<path d="M23.9502 9.51552C23.3912 9.51552 22.8322 9.3913 22.3974 9.08074C21.9626 8.83229 21.59 8.45962 21.2794 7.96272C21.031 7.52794 20.9067 6.96894 20.9067 6.40993C20.9067 5.85092 21.031 5.29192 21.2794 4.85713C21.5279 4.42235 21.9005 4.04969 22.3974 3.73913C22.8943 3.42857 23.3912 3.36646 23.9502 3.36646C24.5092 3.36646 24.8198 3.42856 25.1925 3.6149C25.5651 3.80123 25.8757 3.98757 26.1862 4.29813L25.6272 4.91925C25.4409 4.6708 25.1925 4.54658 24.944 4.42235C24.6956 4.29813 24.385 4.23602 24.0123 4.23602C23.6397 4.23602 23.267 4.36024 22.8943 4.54658C22.5838 4.73291 22.3353 4.98137 22.149 5.29192C21.9626 5.60248 21.9005 5.97515 21.9005 6.40993C21.9005 6.84471 21.9626 7.21738 22.149 7.52794C22.3353 7.8385 22.5838 8.14906 22.8943 8.3354C23.2049 8.52173 23.5775 8.64596 24.0123 8.64596C24.4471 8.64596 24.6334 8.64596 24.944 8.45962C25.2546 8.27329 25.4409 8.14906 25.6893 7.96272L26.2484 8.52174C25.9999 8.8323 25.6272 9.08074 25.2546 9.20496C24.8819 9.32918 24.4471 9.45341 24.0123 9.45341L23.9502 9.51552Z" fill="black"/>
<path d="M29.1674 9.51554C28.8568 9.51554 28.5463 9.51554 28.2357 9.39132C27.9251 9.3292 27.6767 9.20499 27.4282 9.01865C27.1798 8.83232 26.9935 8.64597 26.8071 8.45964L27.3661 7.90064C27.6146 8.2112 27.863 8.39753 28.1736 8.52175C28.4842 8.64598 28.7947 8.70809 29.1674 8.70809C29.5401 8.70809 29.8506 8.64597 30.0991 8.45964C30.3475 8.33542 30.4096 8.08697 30.4096 7.83852C30.4096 7.59007 30.3475 7.40374 30.1612 7.27952C30.0369 7.1553 29.7885 7.03107 29.54 6.96896C29.2916 6.90685 29.0432 6.78262 28.7326 6.72051C28.4842 6.65839 28.1736 6.53417 27.9873 6.40995C27.7388 6.28572 27.5525 6.0994 27.3661 5.91306C27.1798 5.72673 27.1177 5.41616 27.1177 5.04349C27.1177 4.67082 27.1798 4.42238 27.3661 4.17393C27.5525 3.92548 27.7388 3.73914 28.0494 3.61492C28.3599 3.49069 28.7326 3.42859 29.1053 3.42859C29.4779 3.42859 29.9127 3.4907 30.2854 3.67703C30.6581 3.86337 30.9065 4.04971 31.155 4.36027L30.596 4.91927C30.4096 4.67082 30.2233 4.5466 29.9748 4.42237C29.7264 4.29815 29.4158 4.23603 29.1053 4.23603C28.7947 4.23603 28.422 4.29815 28.2357 4.48449C28.0494 4.60871 27.9251 4.79504 27.9251 5.04349C27.9251 5.29194 27.9873 5.41616 28.1736 5.54039C28.3599 5.66461 28.5463 5.78883 28.7947 5.85095C29.0432 5.91306 29.2916 6.03728 29.54 6.09939C29.7885 6.1615 30.0991 6.28572 30.3475 6.40995C30.596 6.53417 30.7823 6.72051 30.9686 6.90684C31.0928 7.15529 31.2171 7.40374 31.2171 7.77641C31.2171 8.14909 31.0307 8.70809 30.6581 9.01865C30.2854 9.32921 29.7885 9.51554 29.1053 9.51554H29.1674Z" fill="black"/>
<path d="M31.9004 1.19257V0.509338H35.6271V1.19257H31.9004ZM33.3911 5.0435V0.63356H34.1364V5.0435H33.3911Z" fill="black"/>
<path d="M36.3105 5.0435V0.509338H36.8074L38.7329 3.61492H38.4223L40.3478 0.509338H40.8447V5.0435H40.0994V1.81369H40.2857L38.8571 4.17394H38.3602L36.9317 1.8758H37.118V5.10561H36.3727L36.3105 5.0435Z" fill="black"/>
</svg>
