<svg width="42" height="11" viewBox="0 0 42 11" fill="none" xmlns="http://www.w3.org/2000/svg">
<path d="M3.37911 10.2671C2.62756 10.2671 2.01265 10.1304 1.46607 9.85715C0.919485 9.58386 0.509547 9.17393 0.0996094 8.69567L0.782839 8.01244C1.12445 8.4907 1.46607 8.76399 1.87601 9.03728C2.28595 9.31057 2.83253 9.3789 3.37911 9.3789C3.9257 9.3789 4.47228 9.24225 4.81389 8.96895C5.15551 8.69566 5.36048 8.28573 5.36048 7.80746C5.36048 7.3292 5.29216 7.12423 5.08719 6.91926C4.95054 6.64597 4.67725 6.50933 4.40396 6.30436C4.13066 6.16772 3.78905 6.03107 3.44744 5.89442C3.10582 5.75777 2.76421 5.62113 2.42259 5.5528C2.08098 5.48448 1.80768 5.27951 1.53439 5.07455C1.2611 4.86958 1.05613 4.59628 0.851162 4.32299C0.646193 3.98137 0.577869 3.63976 0.577869 3.09317C0.577869 2.54659 0.714515 2.13666 0.919484 1.79504C1.19278 1.45343 1.53439 1.18014 1.94433 0.975167C2.35427 0.770198 2.83253 0.701874 3.37911 0.701874C3.9257 0.701874 4.5406 0.83852 5.01886 1.04349C5.49712 1.24846 5.90706 1.59007 6.24868 2.00001L5.56545 2.68324C5.29216 2.34163 4.95054 2.06834 4.60893 1.86337C4.26731 1.6584 3.85737 1.59007 3.37911 1.59007C2.90085 1.59007 2.42259 1.72672 2.08098 2.00001C1.73936 2.2733 1.60271 2.61491 1.60271 3.09317C1.60271 3.57143 1.67104 3.70809 1.87601 3.91306C2.01265 4.11803 2.28595 4.32299 2.55924 4.45963C2.83253 4.59628 3.17414 4.73293 3.51576 4.86957C3.85737 5.00622 4.19899 5.07454 4.5406 5.21119C4.88222 5.34784 5.15551 5.55281 5.49712 5.75778C5.77042 5.96274 5.97539 6.23603 6.18035 6.57765C6.38532 6.91926 6.45365 7.3292 6.45365 7.80746C6.45365 8.62734 6.18035 9.24225 5.63377 9.72051C5.08719 10.1988 4.33563 10.4037 3.37911 10.4037V10.2671Z" fill="black"/>
<path d="M10.7581 10.2671C10.1431 10.2671 9.59656 10.1304 9.1183 9.78882C8.64004 9.51553 8.2301 9.10559 7.95681 8.55901C7.68352 8.01243 7.54688 7.46584 7.54688 6.85093C7.54688 6.23603 7.68352 5.62112 7.95681 5.14286C8.2301 4.6646 8.64004 4.25467 9.1183 3.91305C9.59656 3.63976 10.1431 3.50311 10.7581 3.50311C11.373 3.50311 11.7146 3.57143 12.0562 3.7764C12.4661 3.98137 12.7394 4.25467 13.0127 4.59628C13.286 4.9379 13.4227 5.34783 13.4227 5.82609V7.80746C13.4227 8.28572 13.2177 8.69566 12.9444 9.03728C12.6711 9.37889 12.3978 9.65218 11.9879 9.85715C11.5779 10.0621 11.168 10.1304 10.6897 10.1304L10.7581 10.2671ZM10.8947 9.37889C11.5779 9.37889 12.1245 9.17392 12.5345 8.69566C12.9444 8.2174 13.1494 7.67081 13.1494 6.91926C13.1494 6.16771 13.081 6.03107 12.8761 5.62113C12.6711 5.21119 12.4661 4.93789 12.1245 4.80125C11.7829 4.59628 11.373 4.45963 10.963 4.45963C10.5531 4.45963 10.1431 4.59628 9.73321 4.80125C9.3916 5.00621 9.1183 5.27951 8.91333 5.68945C8.70837 6.09938 8.57172 6.441 8.57172 6.91926C8.57172 7.39752 8.70837 7.80746 8.91333 8.14908C9.1183 8.49069 9.3916 8.83231 9.73321 9.03728C10.0748 9.24225 10.4848 9.37889 10.963 9.37889H10.8947ZM13.081 10.1304V8.42237L13.286 6.85093L13.081 5.27951V3.70808H14.0376V10.1304H13.081Z" fill="black"/>
<path d="M15.9512 10.1304V0.428589H16.9077V10.1304H15.9512Z" fill="black"/>
<path d="M21.8263 10.2671C21.2114 10.2671 20.5965 10.1304 20.1182 9.85715C19.64 9.58386 19.23 9.17392 18.8884 8.62734C18.6151 8.14908 18.4102 7.53417 18.4102 6.91926C18.4102 6.30436 18.5468 5.68945 18.8201 5.21119C19.0934 4.73293 19.5033 4.32299 19.9816 3.98137C20.4598 3.63976 21.0748 3.57144 21.6897 3.57144C22.3046 3.57144 22.7828 3.70808 23.2611 3.98137C23.7393 4.25467 24.081 4.59628 24.3543 5.07455C24.6275 5.55281 24.7642 6.09939 24.7642 6.71429C24.7642 7.3292 24.7642 6.85094 24.7642 6.98759C24.7642 7.05591 24.7642 7.19256 24.7642 7.32921H19.23V6.50932H24.2859L23.9443 6.78262C23.9443 6.30436 23.876 5.89442 23.671 5.5528C23.5344 5.21119 23.2611 4.9379 22.9195 4.73293C22.5779 4.52796 22.2362 4.45963 21.758 4.45963C21.2797 4.45963 20.8698 4.52796 20.5282 4.80125C20.1866 5.00622 19.9133 5.27952 19.7083 5.62113C19.5033 5.96275 19.435 6.37268 19.435 6.91926C19.435 7.46585 19.5033 7.87578 19.7766 8.2174C19.9816 8.55901 20.2549 8.90063 20.6648 9.1056C21.0748 9.31057 21.4847 9.44721 21.9629 9.44721C22.4412 9.44721 22.7145 9.37889 23.0561 9.24224C23.3977 9.10559 23.671 8.90063 23.876 8.62734L24.4909 9.24224C24.2176 9.58386 23.8077 9.85716 23.3977 10.0621C22.9195 10.2671 22.4412 10.3354 21.9629 10.3354L21.8263 10.2671Z" fill="black"/>
<path d="M28.1803 10.2671C27.8386 10.2671 27.497 10.2671 27.1554 10.1304C26.8138 10.0621 26.5405 9.92548 26.2672 9.72051C25.9939 9.51554 25.789 9.31057 25.584 9.1056L26.1989 8.49069C26.4722 8.83231 26.7455 9.03728 27.0871 9.17392C27.4287 9.31057 27.7703 9.3789 28.1803 9.3789C28.5902 9.3789 28.9318 9.31057 29.2051 9.1056C29.4784 8.96895 29.5467 8.69566 29.5467 8.42237C29.5467 8.14908 29.4784 7.94411 29.2734 7.80746C29.1368 7.67082 28.8635 7.53417 28.5902 7.46585C28.3169 7.39753 28.0436 7.26087 27.702 7.19255C27.4287 7.12423 27.0871 6.98758 26.8821 6.85094C26.6772 6.71429 26.4039 6.50933 26.1989 6.30436C25.9939 6.09939 25.9256 5.75777 25.9256 5.34783C25.9256 4.9379 25.9939 4.66461 26.1989 4.39132C26.4039 4.11802 26.6088 3.91305 26.9504 3.7764C27.2921 3.63976 27.702 3.57144 28.1119 3.57144C28.5219 3.57144 29.0001 3.63976 29.4101 3.84473C29.82 4.0497 30.0933 4.25467 30.3666 4.59629L29.7517 5.21119C29.5467 4.9379 29.3417 4.80125 29.0685 4.6646C28.7952 4.52796 28.4535 4.45963 28.1119 4.45963C27.7703 4.45963 27.3604 4.52796 27.1554 4.73293C26.9504 4.86958 26.8138 5.07454 26.8138 5.34783C26.8138 5.62112 26.8821 5.75777 27.0871 5.89442C27.2921 6.03106 27.497 6.16771 27.7703 6.23603C28.0436 6.30436 28.3169 6.441 28.5902 6.50932C28.8635 6.57764 29.2051 6.71429 29.4784 6.85094C29.7517 6.98758 29.9567 7.19255 30.1616 7.39752C30.2983 7.67081 30.4349 7.94411 30.4349 8.35405C30.4349 8.76399 30.2299 9.3789 29.82 9.72051C29.4101 10.0621 28.8635 10.2671 28.1119 10.2671H28.1803Z" fill="black"/>
<path d="M31.1875 1.11181V0.36026H35.2869V1.11181H31.1875ZM32.8273 5.34783V0.496904H33.6471V5.34783H32.8273Z" fill="black"/>
<path d="M36.0371 5.34783V0.36026H36.5837L38.7017 3.7764H38.3601L40.4781 0.36026H41.0247V5.34783H40.2048V1.79504H40.4098L38.8384 4.39132H38.2918L36.7203 1.86337H36.9253V5.41616H36.1054L36.0371 5.34783Z" fill="black"/>
</svg>
