<svg width="33" height="9" viewBox="0 0 33 9" fill="none" xmlns="http://www.w3.org/2000/svg">
<path d="M0.478516 7.91305V1.05591H1.22386V7.91305H0.478516ZM0.97541 1.75156V1.1056H4.95056V1.75156H0.97541ZM0.97541 4.73293V4.08696H4.70212V4.73293H0.97541ZM0.97541 7.91305V7.26708H5.00025V7.91305H0.97541Z" fill="black"/>
<path d="M5.6958 3.88821V3.24225H8.72686V3.88821H5.6958ZM6.88835 7.91305V1.25467H7.584V7.91305H6.88835Z" fill="black"/>
<path d="M9.6709 7.91305V0.857147H10.3666V7.91305H9.6709ZM13.0995 7.91305V5.18013C13.0995 4.78261 13.0001 4.43479 12.7516 4.18634C12.5032 3.93789 12.2051 3.78882 11.8075 3.78882C11.41 3.78882 11.3107 3.83852 11.1119 3.98758C10.9131 4.13665 10.7641 4.28572 10.615 4.48448C10.5156 4.68324 10.4162 4.93168 10.4162 5.18013L10.1181 4.98137C10.1181 4.63355 10.2175 4.33541 10.3666 4.03727C10.5156 3.73913 10.7641 3.54038 11.0622 3.39131C11.3603 3.24224 11.6585 3.14286 12.0063 3.14286C12.3541 3.14286 12.702 3.24224 12.9504 3.39131C13.2485 3.54038 13.4473 3.78882 13.5964 4.08696C13.7454 4.3851 13.8448 4.68323 13.8448 5.08075V7.96274H13.1492L13.0995 7.91305Z" fill="black"/>
<path d="M15.4349 2.24846C15.2858 2.24846 15.1864 2.24846 15.0871 2.09939C14.9877 1.95032 14.938 1.90063 14.938 1.75156C14.938 1.6025 14.938 1.50311 15.0871 1.40374C15.2361 1.30436 15.2858 1.25467 15.4349 1.25467C15.584 1.25467 15.6833 1.25467 15.7827 1.40374C15.8821 1.5528 15.9318 1.6025 15.9318 1.75156C15.9318 1.90063 15.9318 2.00001 15.7827 2.09939C15.6336 2.19877 15.584 2.24846 15.4349 2.24846ZM15.0871 7.91305V3.24225H15.7827V7.91305H15.0871Z" fill="black"/>
<path d="M19.3606 8.01242C18.9134 8.01242 18.4662 7.91304 18.1183 7.6646C17.7705 7.46584 17.4724 7.1677 17.2239 6.77019C17.0252 6.42236 16.9258 5.97515 16.9258 5.52795C16.9258 5.08074 17.0252 4.63354 17.2239 4.28571C17.4227 3.93789 17.7208 3.63976 18.1183 3.39131C18.5158 3.14286 18.9134 3.09317 19.3606 3.09317C19.8078 3.09317 20.0562 3.14286 20.3544 3.29192C20.6525 3.44099 20.9009 3.59006 21.1494 3.83851L20.7022 4.33541C20.5531 4.13665 20.3544 4.03727 20.1556 3.93789C19.9568 3.83851 19.7084 3.78882 19.4103 3.78882C19.1121 3.78882 18.814 3.8882 18.5158 4.03727C18.2674 4.18633 18.0686 4.3851 17.9196 4.63355C17.7705 4.88199 17.7208 5.18012 17.7208 5.52795C17.7208 5.87578 17.7705 6.17391 17.9196 6.42236C18.0686 6.67081 18.2674 6.91926 18.5158 7.06833C18.7643 7.21739 19.0624 7.31677 19.4103 7.31677C19.7581 7.31677 19.9071 7.31677 20.1556 7.1677C20.404 7.01863 20.5531 6.91925 20.7519 6.77019L21.1991 7.2174C21.0003 7.46584 20.7022 7.6646 20.404 7.76397C20.1059 7.86335 19.7581 7.96274 19.4103 7.96274L19.3606 8.01242Z" fill="black"/>
<path d="M23.5342 8.01244C23.2857 8.01244 23.0373 8.01244 22.7889 7.91306C22.5404 7.86338 22.3416 7.764 22.1429 7.61493C21.9441 7.46586 21.7951 7.31679 21.646 7.16772L22.0932 6.72052C22.292 6.96897 22.4907 7.11804 22.7392 7.21742C22.9876 7.31679 23.2361 7.36649 23.5342 7.36649C23.8323 7.36649 24.0808 7.31679 24.2795 7.16772C24.4783 7.06834 24.528 6.86959 24.528 6.67083C24.528 6.47207 24.4783 6.32301 24.3292 6.22363C24.2298 6.12425 24.0311 6.02487 23.8323 5.97518C23.6336 5.92549 23.4348 5.82611 23.1864 5.77642C22.9876 5.72673 22.7392 5.62735 22.5901 5.52797C22.3913 5.42859 22.2423 5.27953 22.0932 5.13046C21.9441 4.98139 21.8944 4.73294 21.8944 4.4348C21.8944 4.13667 21.9441 3.93791 22.0932 3.73916C22.2423 3.5404 22.3913 3.39132 22.6398 3.29195C22.8882 3.19257 23.1864 3.14288 23.4845 3.14288C23.7826 3.14288 24.1305 3.19257 24.4286 3.34164C24.7267 3.49071 24.9255 3.63978 25.1243 3.88822L24.6771 4.33543C24.528 4.13667 24.3789 4.03729 24.1802 3.93791C23.9814 3.83853 23.733 3.78884 23.4845 3.78884C23.2361 3.78884 22.9379 3.83853 22.7889 3.9876C22.6398 4.08698 22.5404 4.23605 22.5404 4.4348C22.5404 4.63356 22.5901 4.73294 22.7392 4.83232C22.8882 4.9317 23.0373 5.03108 23.2361 5.08077C23.4348 5.13046 23.6336 5.22983 23.8323 5.27952C24.0311 5.32921 24.2795 5.42859 24.4783 5.52797C24.6771 5.62735 24.8261 5.77642 24.9752 5.92549C25.0746 6.12425 25.1739 6.32301 25.1739 6.62114C25.1739 6.91928 25.0249 7.36649 24.7267 7.61493C24.4286 7.86338 24.0311 8.01244 23.4845 8.01244H23.5342Z" fill="black"/>
<path d="M25.7207 1.35405V0.807465H28.7021V1.35405H25.7207ZM26.9133 4.43479V0.906842H27.5095V4.43479H26.9133Z" fill="black"/>
<path d="M29.2485 4.43479V0.807465H29.6461L31.1864 3.29193H30.938L32.4783 0.807465H32.8759V4.43479H32.2796V1.85094H32.4287L31.2858 3.73914H30.8883L29.7454 1.90063H29.8945V4.48448H29.2982L29.2485 4.43479Z" fill="black"/>
</svg>
