<svg width="204" height="30" viewBox="0 0 204 30" fill="none" xmlns="http://www.w3.org/2000/svg">
<path d="M81.556 23.3087C80.3343 24.0068 78.938 24.3559 77.1927 24.3559C75.4473 24.3559 74.5747 24.1814 73.5274 23.6578C72.4802 23.1342 71.433 22.436 70.5604 21.5634C69.6877 20.6907 69.1641 19.6435 68.6405 18.4217C68.1169 17.2 67.9424 15.9783 67.9424 14.582C67.9424 13.1857 68.1169 11.964 68.6405 10.7422C69.1641 9.5205 69.6877 8.4733 70.5604 7.60063C71.433 6.72796 72.3057 6.02982 73.5274 5.50622C74.5747 4.98261 75.7964 4.80808 77.1927 4.80808C78.5889 4.80808 80.1597 5.15715 81.3815 5.68075C82.6032 6.37889 83.825 7.07702 84.8722 8.12423L88.0138 4.45901C87.3156 3.76087 86.6175 3.23727 85.9194 2.71367C85.2212 2.19007 84.3486 1.66647 83.4759 1.3174C82.6032 0.968329 81.7306 0.619261 80.6833 0.444727C79.6361 0.270193 78.4144 0.0956573 77.1927 0.0956573C75.0983 0.0956573 73.1784 0.444726 71.433 1.14286C69.6877 1.841 68.1169 2.8882 66.8951 4.28448C65.6734 5.68075 64.6262 7.07702 63.9281 8.82237C63.2299 10.5677 62.8809 12.4876 62.8809 14.4075C62.8809 16.3273 63.2299 18.2472 63.9281 19.9926C64.6262 21.7379 65.6734 23.3087 66.8951 24.5304C68.1169 25.7522 69.6877 26.7994 71.2585 27.4975C73.0038 28.1957 74.9237 28.5447 76.8436 28.5447C78.7635 28.5447 79.2871 28.5447 80.3343 28.1957C81.3815 28.0211 82.4287 27.6721 83.3014 27.1485C84.174 26.7994 85.0467 26.2758 85.7448 25.5776C86.443 25.054 87.3156 24.3559 88.0138 23.4832L84.8722 20.3416C83.6504 21.3888 82.4287 22.2615 81.207 22.9596L81.556 23.3087Z" fill="black"/>
<path d="M99.1838 16.5019H112.972V11.964H99.1838V4.98262H114.717V0.619263H94.2969V28.1957H114.892V23.8323H99.1838V16.5019Z" fill="black"/>
<path d="M140.375 16.6764C141.248 16.1528 141.946 15.6292 142.469 14.9311C142.993 14.2329 143.517 13.3602 143.866 12.4876C144.215 11.6149 144.389 10.5677 144.389 9.34596C144.389 8.12422 144.215 6.72795 143.691 5.68074C143.168 4.63354 142.469 3.58633 141.597 2.8882C140.724 2.19006 139.677 1.49192 138.281 1.14285C137.059 0.793785 135.488 0.444717 133.917 0.444717H121.525V28.0211H126.412V18.4217H132.521L139.328 28.0211H145.088L137.583 17.5491C138.63 17.2 139.502 16.8509 140.201 16.5019L140.375 16.6764ZM126.587 14.4075V5.15714H133.743C135.488 5.15714 137.059 5.50621 137.932 6.37888C138.979 7.07701 139.502 8.29875 139.502 9.86956C139.502 11.4404 138.979 12.4876 137.932 13.3602C136.884 14.2329 135.488 14.582 133.743 14.582H126.587V14.4075Z" fill="black"/>
<path d="M149.275 4.98262H158.002V28.1957H162.889V4.98262H171.616V0.619263H149.275V4.98262Z" fill="black"/>
<path d="M186.103 17.8981C185.405 17.3745 184.707 17.0255 184.009 16.6764C183.31 16.3273 182.438 16.1528 181.74 15.8037C181.216 15.6292 180.518 15.4547 179.994 15.2801C179.471 15.1056 178.947 14.9311 178.423 14.582C178.074 14.4075 177.725 14.0584 177.376 13.8838C177.027 13.5348 177.027 13.3602 177.027 12.8366C177.027 12.1385 177.202 11.6149 177.725 11.2658C178.249 10.9168 178.947 10.7422 179.82 10.7422C180.692 10.7422 181.565 10.9168 182.612 11.2658C183.66 11.6149 184.707 12.1385 185.579 12.6621L187.499 9.34596C186.452 8.64783 185.23 7.94969 183.834 7.60062C182.438 7.25155 181.216 6.90248 179.82 6.90248C178.423 6.90248 177.9 6.90248 176.853 7.25155C175.98 7.60062 175.107 7.94969 174.409 8.47329C173.711 8.99689 173.187 9.69503 172.838 10.5677C172.489 11.4404 172.315 12.313 172.315 13.1857C172.315 14.2329 172.489 15.1056 172.838 15.8037C173.187 16.5019 173.711 17.0255 174.409 17.5491C175.107 18.0727 175.805 18.4217 176.504 18.5963C177.202 18.9453 178.074 19.1199 178.773 19.4689C179.296 19.6435 179.994 19.818 180.518 19.9925C181.041 19.9925 181.565 20.3416 182.089 20.5161C182.438 20.6907 182.787 21.0398 183.136 21.2143C183.31 21.5634 183.485 21.9124 183.485 22.2615C183.485 22.9596 183.136 23.6578 182.612 24.0068C182.089 24.3559 181.216 24.705 180.169 24.705C179.122 24.705 177.9 24.5304 176.853 24.0068C175.631 23.6578 174.584 22.9596 173.362 22.087L171.268 25.4031C172.664 26.4503 174.06 27.1484 175.631 27.672C177.202 28.1957 178.773 28.5447 180.169 28.5447C181.565 28.5447 182.263 28.5447 183.136 28.1957C184.009 27.8466 184.881 27.4975 185.579 26.9739C186.278 26.4503 186.801 25.7522 187.15 24.8795C187.499 24.0068 187.674 23.1342 187.674 21.9124C187.674 20.8652 187.499 20.1671 187.15 19.4689C186.801 18.7708 186.278 18.2472 185.579 17.7236L186.103 17.8981Z" fill="black"/>
<path d="M23.0877 0.793793L18.8989 10.7422H11.5685L5.1107 4.28448C5.45977 3.93541 5.45976 3.41181 5.45976 3.06274C5.45976 1.841 4.41256 0.793793 3.19082 0.793793C1.96908 0.793793 0.921875 1.841 0.921875 3.06274C0.921875 4.28448 1.96908 5.33168 3.19082 5.33168C4.41256 5.33168 3.71442 5.33168 4.06349 5.33168L10.8703 12.1385H18.2008L17.3281 14.4075H5.45976C5.1107 13.5348 4.41256 12.8367 3.36536 12.8367C2.31815 12.8367 1.09641 13.8839 1.09641 15.1056C1.09641 16.3273 2.14362 17.3745 3.36536 17.3745C4.58709 17.3745 5.28523 16.6764 5.45976 15.8037H16.979L16.1063 18.0727H11.0449L4.23803 24.8795C4.06349 24.8795 3.71442 24.8795 3.36536 24.8795C2.14362 24.8795 1.09641 25.9267 1.09641 27.1485C1.09641 28.3702 2.14362 29.4174 3.36536 29.4174C4.58709 29.4174 5.6343 28.3702 5.6343 27.1485C5.6343 25.9267 5.6343 26.2758 5.28523 25.9267L11.743 19.469H15.7573L11.5685 29.4174H17.8517L20.2952 23.1342H31.989L34.4324 29.4174H40.7157L28.8473 1.49193H23.2622L23.0877 0.793793ZM22.215 17.0255L25.8803 8.12423L29.5455 17.0255H22.215Z" fill="#C8A94C"/>
<path d="M52.2356 0.968323H46.127V28.5447H52.2356V0.968323Z" fill="#C8A94C"/>
<path d="M188.197 2.01553H190.466V7.77516H192.037V2.01553H194.306V0.619263H188.197V2.01553Z" fill="black"/>
<path d="M201.462 0.619263L199.542 3.58634L197.622 0.619263H195.877V7.77516H197.448V3.06274L199.368 6.20435H199.542L201.462 3.06274V7.77516H203.207V0.619263H201.462Z" fill="black"/>
</svg>
