<svg width="61" height="10" viewBox="0 0 61 10" fill="none" xmlns="http://www.w3.org/2000/svg">
<path d="M0.347656 9.39131V0.819885H1.27933V9.39131H0.347656ZM0.968774 1.68945V0.881996H5.93772V1.68945H0.968774ZM0.968774 5.41616V4.6087H5.62716V5.41616H0.968774ZM0.968774 9.39131V8.58386H5.99983V9.39131H0.968774Z" fill="black"/>
<path d="M6.80713 9.39134L9.2916 6.16153L9.78849 6.78265L7.86303 9.32924H6.80713V9.39134ZM11.4034 9.39134L9.41583 6.72053L9.22949 6.53421L6.86924 3.49072H7.92514L9.72638 5.85097L9.91272 5.97519L12.3972 9.26712H11.3413L11.4034 9.39134ZM10.0369 6.59631L9.54005 5.97519L11.3413 3.61494H12.3972L10.0991 6.65843L10.0369 6.59631Z" fill="black"/>
<path d="M16.1241 9.51554C15.5651 9.51554 15.0061 9.39132 14.5713 9.14287C14.1366 8.89443 13.7639 8.52175 13.4533 8.02486C13.2049 7.59008 13.0186 7.03107 13.0186 6.47206C13.0186 5.91306 13.1428 5.35405 13.3912 4.91927C13.6397 4.48449 14.0123 4.11181 14.4471 3.80125C14.8819 3.49069 15.4409 3.42859 15.9999 3.42859C16.5589 3.42859 16.9937 3.55281 17.4285 3.80125C17.8633 4.0497 18.1738 4.36026 18.4223 4.79505C18.6707 5.22983 18.795 5.72672 18.795 6.28573C18.795 6.84473 18.795 6.40996 18.795 6.53418C18.795 6.59629 18.795 6.72051 18.795 6.84474H13.7639V6.09939H18.3602L18.0496 6.34784C18.0496 5.91306 17.9875 5.54039 17.8012 5.22983C17.6769 4.91927 17.4285 4.67082 17.1179 4.48449C16.8074 4.29815 16.4968 4.23603 16.062 4.23603C15.6273 4.23603 15.2546 4.29815 14.944 4.54659C14.6335 4.73293 14.385 4.98138 14.1987 5.29194C14.0123 5.6025 13.9502 5.97517 13.9502 6.47206C13.9502 6.96896 14.0123 7.34162 14.2608 7.65218C14.4471 7.96274 14.6956 8.2733 15.0682 8.45964C15.4409 8.64597 15.8136 8.7702 16.2484 8.7702C16.6832 8.7702 16.9316 8.70808 17.2422 8.58386C17.5527 8.45964 17.8012 8.27331 17.9875 8.02486L18.5465 8.58386C18.2981 8.89442 17.9254 9.14287 17.5527 9.32921C17.1179 9.51555 16.6832 9.57765 16.2484 9.57765L16.1241 9.51554Z" fill="black"/>
<path d="M22.77 9.51552C22.211 9.51552 21.652 9.3913 21.2172 9.08074C20.7825 8.83229 20.4098 8.45962 20.0992 7.96272C19.8508 7.52794 19.7266 6.96894 19.7266 6.40993C19.7266 5.85092 19.8508 5.29192 20.0992 4.85713C20.3477 4.42235 20.7204 4.04969 21.2172 3.73913C21.652 3.49068 22.211 3.36646 22.77 3.36646C23.329 3.36646 23.6396 3.42856 24.0123 3.6149C24.3849 3.80123 24.6955 3.98757 25.0061 4.29813L24.4471 4.91925C24.2607 4.6708 24.0123 4.54658 23.7638 4.42235C23.5154 4.29813 23.2048 4.23602 22.8322 4.23602C22.4595 4.23602 22.0868 4.36024 21.7141 4.54658C21.4036 4.73291 21.1551 4.98137 20.9688 5.29192C20.7825 5.60248 20.7204 5.97515 20.7204 6.40993C20.7204 6.84471 20.7825 7.21738 20.9688 7.52794C21.1551 7.8385 21.4036 8.14906 21.7141 8.3354C22.0247 8.52173 22.3974 8.64596 22.8322 8.64596C23.2669 8.64596 23.4533 8.64596 23.7638 8.45962C24.0744 8.27329 24.2607 8.14906 24.5092 7.96272L25.0682 8.52174C24.8197 8.8323 24.4471 9.08074 24.0744 9.20496C23.7017 9.3913 23.2669 9.45341 22.8322 9.45341L22.77 9.51552Z" fill="black"/>
<path d="M28.5464 9.51557C28.0495 9.51557 27.6768 9.39134 27.3041 9.20501C26.9315 9.01867 26.6209 8.70811 26.4346 8.27333C26.2482 7.83855 26.124 7.46588 26.124 6.90687V3.49072H26.9936V6.84477C26.9936 7.21744 27.0557 7.528 27.1799 7.77644C27.3042 8.02489 27.4905 8.27334 27.7389 8.39756C27.9874 8.52178 28.2358 8.646 28.5464 8.646C29.0433 8.646 29.416 8.45967 29.7265 8.14911C30.0371 7.83855 30.1613 7.40377 30.1613 6.84477V3.49072H31.0309V6.90687C31.0309 7.40377 30.9066 7.83855 30.7203 8.27333C30.534 8.646 30.2234 8.95656 29.8507 9.20501C29.4781 9.39134 29.0433 9.51557 28.5464 9.51557Z" fill="black"/>
<path d="M32.0249 4.36029V3.55283H35.8137V4.36029H32.0249ZM33.5156 9.39134V1.06836H34.3852V9.39134H33.5156Z" fill="black"/>
<path d="M37.4907 2.3106C37.3044 2.3106 37.1802 2.31059 37.056 2.12426C36.9317 2.00003 36.8696 1.87581 36.8696 1.68948C36.8696 1.50314 36.8696 1.37892 37.056 1.25469C37.1802 1.13047 37.3044 1.06836 37.4907 1.06836C37.6771 1.06836 37.8013 1.06836 37.9255 1.25469C38.0498 1.44103 38.1119 1.50314 38.1119 1.68948C38.1119 1.87581 38.1119 2.00003 37.9255 2.12426C37.7392 2.24848 37.6771 2.3106 37.4907 2.3106ZM37.056 9.39134V3.55283H37.9255V9.39134H37.056Z" fill="black"/>
<path d="M41.7144 9.3913L38.9814 3.5528H39.9752L42.2734 8.64596H41.7144L44.0125 3.5528H44.9442L42.2113 9.3913H41.7144Z" fill="black"/>
<path d="M48.7325 9.51554C48.1735 9.51554 47.6145 9.39132 47.1797 9.14287C46.745 8.89443 46.3723 8.52175 46.0617 8.02486C45.8133 7.59008 45.627 7.03107 45.627 6.47206C45.627 5.91306 45.7512 5.35405 45.9996 4.91927C46.2481 4.48449 46.6207 4.11181 47.0555 3.80125C47.4903 3.49069 48.0493 3.42859 48.6083 3.42859C49.1673 3.42859 49.6021 3.55281 50.0369 3.80125C50.4717 4.0497 50.7822 4.36026 51.0307 4.79505C51.2791 5.22983 51.4034 5.72672 51.4034 6.28573C51.4034 6.84473 51.4034 6.40996 51.4034 6.53418C51.4034 6.59629 51.4034 6.72051 51.4034 6.84474H46.3723V6.09939H50.9686L50.658 6.34784C50.658 5.91306 50.5959 5.54039 50.4096 5.22983C50.2853 4.91927 50.0369 4.67082 49.7263 4.48449C49.4158 4.29815 49.1052 4.23603 48.6704 4.23603C48.2356 4.23603 47.863 4.29815 47.5524 4.54659C47.2419 4.73293 46.9934 4.98138 46.8071 5.29194C46.6207 5.6025 46.5586 5.97517 46.5586 6.47206C46.5586 6.96896 46.6207 7.34162 46.8692 7.65218C47.0555 7.96274 47.304 8.2733 47.6766 8.45964C48.0493 8.64597 48.422 8.7702 48.8568 8.7702C49.2915 8.7702 49.54 8.70808 49.8506 8.58386C50.1611 8.45964 50.4096 8.27331 50.5959 8.02486L51.1549 8.58386C50.9065 8.89442 50.5338 9.14287 50.1611 9.32921C49.7263 9.51555 49.2915 9.57765 48.8568 9.57765L48.7325 9.51554Z" fill="black"/>
<path d="M52.0249 1.19257V0.509338H55.7516V1.19257H52.0249ZM53.5156 5.0435V0.63356H54.2609V5.0435H53.5156Z" fill="black"/>
<path d="M56.3726 5.0435V0.509338H56.8695L58.7949 3.61492H58.4844L60.4098 0.509338H60.9067V5.0435H60.1614V1.81369H60.3477L58.9191 4.17394H58.4222L56.9937 1.8758H57.18V5.10561H56.4347L56.3726 5.0435Z" fill="black"/>
</svg>
