<svg width="241" height="35" viewBox="0 0 241 35" fill="none" xmlns="http://www.w3.org/2000/svg">
<path d="M101.489 31.2662C100.583 31.9624 99.5957 32.5767 98.5258 33.0682C97.4559 33.5597 96.3037 33.9692 95.0281 34.215C93.7524 34.4607 92.3533 34.6245 90.8308 34.6245C88.444 34.6245 86.2219 34.174 84.2056 33.3139C82.1892 32.4539 80.4198 31.2661 78.9384 29.7508C77.457 28.2354 76.3048 26.4743 75.4406 24.4266C74.6176 22.3788 74.1649 20.1672 74.1649 17.8327C74.1649 15.4982 74.5764 13.3276 75.3995 11.2798C76.2225 9.23202 77.3747 7.42997 78.8972 5.91462C80.4198 4.39926 82.1481 3.17059 84.2056 2.26956C86.2631 1.36854 88.5263 0.958984 91.0365 0.958984C93.5467 0.958984 93.8759 1.08185 95.1104 1.32759C96.3449 1.57332 97.4559 1.94192 98.4847 2.39243C99.5134 2.84294 100.46 3.37537 101.324 3.9897C102.188 4.60404 103.011 5.30028 103.793 6.03748L100.09 10.2559C98.7727 9.02724 97.4148 8.08526 95.9334 7.34806C94.452 6.61086 92.806 6.24226 90.9542 6.24226C89.1024 6.24226 87.9502 6.52895 86.6334 7.14328C85.3166 7.75762 84.1644 8.57673 83.218 9.60062C82.2715 10.6245 81.4897 11.8532 80.9959 13.2457C80.4609 14.6382 80.214 16.1535 80.214 17.7508C80.214 19.3481 80.4609 20.8634 80.9959 22.2969C81.5308 23.6894 82.2715 24.959 83.218 25.9829C84.1644 27.0477 85.3166 27.8668 86.6334 28.4812C87.9502 29.0955 89.3905 29.3822 90.9542 29.3822C92.5179 29.3822 94.6577 29.0136 96.098 28.2354C97.5382 27.4573 98.9373 26.4334 100.336 25.1638L104.04 28.8907C103.217 29.7917 102.312 30.5699 101.406 31.2662H101.489Z" fill="white"/>
<path d="M135.479 6.73365H117.002V15.0886H133.38V20.249H117.002V28.9316H135.726V34.092H111.282V1.57324H135.479V6.73365Z" fill="white"/>
<path d="M164.736 34.092L156.671 22.7473H149.47V34.092H143.791V1.57324H158.358C160.21 1.57324 161.897 1.81898 163.42 2.31044C164.942 2.80191 166.218 3.4572 167.247 4.35823C168.275 5.25925 169.098 6.3241 169.633 7.59372C170.209 8.86335 170.456 10.2968 170.456 11.8941C170.456 13.4913 170.251 14.4743 169.88 15.5391C169.51 16.604 168.934 17.5459 168.275 18.3651C167.576 19.1842 166.753 19.8804 165.806 20.4538C164.86 21.0272 163.79 21.4777 162.638 21.7644L171.485 34.092H164.695H164.736ZM162.843 8.08519C161.65 7.18416 160.004 6.6927 157.823 6.6927H149.429V17.6688H157.864C159.922 17.6688 161.568 17.1773 162.802 16.1944C164.037 15.2115 164.613 13.8599 164.613 12.1808C164.613 10.5016 164.037 9.02717 162.843 8.08519Z" fill="white"/>
<path d="M192.389 34.092H186.587V6.85652H176.217V1.57324H202.759V6.85652H192.389V34.092Z" fill="white"/>
<path d="M221.647 30.2423C221.194 31.1843 220.536 32.0034 219.713 32.6177C218.89 33.273 217.902 33.7235 216.791 34.0512C215.68 34.3788 214.487 34.5426 213.211 34.5426C211.936 34.5426 209.631 34.215 207.821 33.6007C206.01 32.9863 204.323 32.0853 202.759 30.8566L205.269 27.0478C206.627 28.0307 207.985 28.8088 209.343 29.3003C210.742 29.7918 212.059 30.0785 213.335 30.0785C214.61 30.0785 215.475 29.8327 216.174 29.3413C216.832 28.8498 217.162 28.2355 217.162 27.4164V27.3344C217.162 26.8839 216.997 26.4744 216.709 26.1058C216.421 25.7781 216.009 25.4505 215.475 25.2048C214.981 24.959 214.363 24.7133 213.705 24.5085C213.047 24.3037 212.347 24.099 211.606 23.8942C210.701 23.6075 209.796 23.3208 208.891 22.9522C207.985 22.6245 207.162 22.174 206.421 21.6416C205.681 21.1092 205.105 20.4129 204.611 19.6348C204.158 18.8566 203.911 17.8737 203.911 16.686V16.6041C203.911 15.4573 204.117 14.4334 204.57 13.4914C205.022 12.5495 205.64 11.7713 206.421 11.116C207.203 10.4607 208.15 9.96926 209.22 9.64161C210.29 9.31397 211.442 9.15015 212.635 9.15015C213.829 9.15015 215.763 9.39588 217.367 9.88735C218.972 10.3788 220.413 11.0751 221.729 11.9351L219.507 15.9488C218.314 15.2525 217.121 14.6792 215.927 14.2696C214.693 13.86 213.582 13.6553 212.553 13.6553C211.524 13.6553 210.619 13.901 210.002 14.3515C209.384 14.802 209.096 15.4164 209.096 16.1126V16.1945C209.096 16.645 209.261 17.0136 209.549 17.3413C209.878 17.6689 210.29 17.9556 210.783 18.2423C211.277 18.488 211.894 18.7338 212.553 18.9795C213.211 19.2252 213.911 19.43 214.652 19.6348C215.557 19.9215 216.462 20.2491 217.367 20.6177C218.273 20.9863 219.096 21.4368 219.836 21.9693C220.577 22.5017 221.153 23.157 221.647 23.9351C222.1 24.7133 222.347 25.6553 222.347 26.7611V26.843C222.347 28.1536 222.1 29.2594 221.647 30.2423Z" fill="white"/>
<path d="M33.673 1.94189H27.0479L22.0687 13.5733H13.4683L5.93785 6.07841C6.26705 5.66886 6.43165 5.13643 6.43165 4.56305C6.43165 3.12961 5.27944 1.98285 3.83919 1.98285C2.39893 1.98285 1.24673 3.12961 1.24673 4.5221C1.24673 5.91459 2.39893 7.1023 3.83919 7.1023C5.27944 7.1023 4.49759 7.02039 4.78564 6.93848L12.8922 15.0067H21.4514L20.3404 17.6279H6.2259C5.8967 16.5631 4.90909 15.7439 3.71574 15.7439C2.52238 15.7439 1.12328 16.8907 1.12328 18.3241C1.12328 19.7576 2.27548 20.9044 3.71574 20.9044C5.15599 20.9044 5.8967 20.1262 6.2259 19.0204H19.7231L18.6121 21.6416H12.6042L4.49759 29.7098C4.20954 29.5869 3.88034 29.546 3.55114 29.546C2.11088 29.546 0.958679 30.6927 0.958679 32.1262C0.958679 33.5596 2.11088 34.7064 3.55114 34.7064C4.99139 34.7064 6.1436 33.5596 6.1436 32.1262C6.1436 30.6927 5.93785 31.0204 5.6498 30.6108L13.1803 23.116H17.9537L12.9745 34.7474H20.2992L23.3032 27.4573H37.1297L40.1336 34.7474H47.6641L33.673 1.94189ZM25.9368 21.0682L30.2987 10.5016L34.6606 21.0682H25.978H25.9368Z" fill="#CFA935"/>
<path d="M54.3306 34.5427V2.02393H61.5319V34.5427H54.3306Z" fill="#CFA935"/>
<path d="M226.955 3.29338V10.133H225.062V3.29338H222.429V1.57324H229.589V3.33433H226.955V3.29338Z" fill="white"/>
<path d="M238.107 10.1739V4.563L235.679 8.24901H235.638L233.251 4.60396V10.1739H231.4V1.57324H233.457L235.72 5.21829L237.984 1.57324H240.041V10.1739H238.148H238.107Z" fill="white"/>
</svg>
