<svg width="49" height="9" viewBox="0 0 49 9" fill="none" xmlns="http://www.w3.org/2000/svg">
<path d="M0.478516 7.91305V1.05591H1.22386V7.91305H0.478516ZM0.97541 1.75156V1.1056H4.95056V1.75156H0.97541ZM0.97541 4.73293V4.08696H4.70212V4.73293H0.97541ZM0.97541 7.91305V7.26708H5.00025V7.91305H0.97541Z" fill="black"/>
<path d="M5.646 7.91306L7.63357 5.32921L8.03109 5.82611L6.49072 7.86338H5.646V7.91306ZM9.32302 7.91306L7.73295 5.77642L7.58389 5.62735L5.69568 3.19257H6.54041L7.9814 5.08077L8.13047 5.18014L10.118 7.81369H9.27332L9.32302 7.91306ZM8.22985 5.67704L7.83233 5.18014L9.27332 3.29194H10.118L8.27954 5.72673L8.22985 5.67704Z" fill="black"/>
<path d="M13.0997 8.01244C12.6525 8.01244 12.2053 7.91307 11.8575 7.71431C11.5096 7.51555 11.2115 7.21741 10.9631 6.8199C10.7643 6.47207 10.6152 6.02487 10.6152 5.57766C10.6152 5.13046 10.7146 4.68325 10.9134 4.33543C11.1121 3.9876 11.4103 3.68946 11.7581 3.44102C12.1059 3.19257 12.5531 3.14288 13.0003 3.14288C13.4475 3.14288 13.7954 3.24226 14.1432 3.44102C14.491 3.63977 14.7395 3.88822 14.9382 4.23605C15.137 4.58388 15.2364 4.98139 15.2364 5.42859C15.2364 5.8758 15.2364 5.52798 15.2364 5.62736C15.2364 5.67704 15.2364 5.77642 15.2364 5.8758H11.2115V5.27952H14.8885L14.6401 5.47829C14.6401 5.13046 14.5904 4.83232 14.4413 4.58387C14.3419 4.33543 14.1432 4.13667 13.8947 3.9876C13.6463 3.83853 13.3978 3.78884 13.05 3.78884C12.7022 3.78884 12.4041 3.83853 12.1556 4.03729C11.9072 4.18636 11.7084 4.38512 11.5593 4.63357C11.4103 4.88201 11.3606 5.18015 11.3606 5.57766C11.3606 5.97518 11.4103 6.27331 11.609 6.52176C11.7581 6.77021 11.9568 7.01866 12.255 7.16772C12.5531 7.31679 12.8513 7.41617 13.1991 7.41617C13.5469 7.41617 13.7457 7.36648 13.9941 7.2671C14.2426 7.16772 14.4413 7.01866 14.5904 6.8199L15.0376 7.2671C14.8388 7.51555 14.5407 7.71431 14.2426 7.86338C13.8947 8.01245 13.5469 8.06213 13.1991 8.06213L13.0997 8.01244Z" fill="black"/>
<path d="M18.4162 8.01242C17.969 8.01242 17.5218 7.91304 17.174 7.6646C16.8262 7.46584 16.528 7.1677 16.2796 6.77019C16.0808 6.42236 15.9814 5.97515 15.9814 5.52795C15.9814 5.08074 16.0808 4.63354 16.2796 4.28571C16.4783 3.93789 16.7765 3.63976 17.174 3.39131C17.5218 3.19255 17.969 3.09317 18.4162 3.09317C18.8634 3.09317 19.1119 3.14286 19.41 3.29192C19.7082 3.44099 19.9566 3.59006 20.205 3.83851L19.7578 4.33541C19.6088 4.13665 19.41 4.03727 19.2113 3.93789C19.0125 3.83851 18.7641 3.78882 18.4659 3.78882C18.1678 3.78882 17.8696 3.8882 17.5715 4.03727C17.3231 4.18633 17.1243 4.3851 16.9752 4.63355C16.8262 4.88199 16.7765 5.18012 16.7765 5.52795C16.7765 5.87578 16.8262 6.17391 16.9752 6.42236C17.1243 6.67081 17.3231 6.91926 17.5715 7.06833C17.82 7.21739 18.1181 7.31677 18.4659 7.31677C18.8137 7.31677 18.9628 7.31677 19.2113 7.1677C19.4597 7.01863 19.6088 6.91925 19.8075 6.77019L20.2547 7.2174C20.056 7.46584 19.7578 7.6646 19.4597 7.76397C19.1616 7.91304 18.8137 7.96274 18.4659 7.96274L18.4162 8.01242Z" fill="black"/>
<path d="M23.0375 8.01244C22.64 8.01244 22.3418 7.91306 22.0437 7.76399C21.7456 7.61492 21.4971 7.36648 21.3481 7.01865C21.199 6.67083 21.0996 6.37269 21.0996 5.92549V3.19257H21.7953V5.8758C21.7953 6.17394 21.845 6.42238 21.9443 6.62114C22.0437 6.8199 22.1928 7.01866 22.3915 7.11804C22.5903 7.21742 22.7891 7.31679 23.0375 7.31679C23.435 7.31679 23.7332 7.16772 23.9816 6.91927C24.23 6.67083 24.3294 6.32301 24.3294 5.8758V3.19257H25.0251V5.92549C25.0251 6.323 24.9257 6.67083 24.7766 7.01865C24.6276 7.31679 24.3791 7.56524 24.081 7.76399C23.7828 7.91306 23.435 8.01244 23.0375 8.01244Z" fill="black"/>
<path d="M25.8203 3.88821V3.24225H28.8514V3.88821H25.8203ZM27.0129 7.91305V1.25467H27.7085V7.91305H27.0129Z" fill="black"/>
<path d="M30.1927 2.24846C30.0436 2.24846 29.9442 2.24846 29.8449 2.09939C29.7455 2.00001 29.6958 1.90063 29.6958 1.75156C29.6958 1.6025 29.6958 1.50311 29.8449 1.40374C29.9442 1.30436 30.0436 1.25467 30.1927 1.25467C30.3418 1.25467 30.4411 1.25467 30.5405 1.40374C30.6399 1.5528 30.6896 1.6025 30.6896 1.75156C30.6896 1.90063 30.6896 2.00001 30.5405 2.09939C30.3915 2.19877 30.3418 2.24846 30.1927 2.24846ZM29.8449 7.91305V3.24225H30.5405V7.91305H29.8449Z" fill="black"/>
<path d="M33.5716 7.91305L31.3853 3.24225H32.1803L34.0188 7.31678H33.5716L35.4101 3.24225H36.1554L33.9691 7.91305H33.5716Z" fill="black"/>
<path d="M39.1866 8.01244C38.7394 8.01244 38.2922 7.91307 37.9444 7.71431C37.5966 7.51555 37.2984 7.21741 37.05 6.8199C36.8512 6.47207 36.7021 6.02487 36.7021 5.57766C36.7021 5.13046 36.8015 4.68325 37.0003 4.33543C37.199 3.9876 37.4972 3.68946 37.845 3.44102C38.1928 3.19257 38.64 3.14288 39.0872 3.14288C39.5344 3.14288 39.8823 3.24226 40.2301 3.44102C40.5779 3.63977 40.8264 3.88822 41.0251 4.23605C41.2239 4.58388 41.3233 4.98139 41.3233 5.42859C41.3233 5.8758 41.3233 5.52798 41.3233 5.62736C41.3233 5.67704 41.3233 5.77642 41.3233 5.8758H37.2984V5.27952H40.9754L40.727 5.47829C40.727 5.13046 40.6773 4.83232 40.5282 4.58387C40.4289 4.33543 40.2301 4.13667 39.9817 3.9876C39.7332 3.83853 39.4848 3.78884 39.1369 3.78884C38.7891 3.78884 38.491 3.83853 38.2425 4.03729C37.9941 4.18636 37.7953 4.38512 37.6462 4.63357C37.4972 4.88201 37.4475 5.18015 37.4475 5.57766C37.4475 5.97518 37.4972 6.27331 37.6959 6.52176C37.845 6.77021 38.0438 7.01866 38.3419 7.16772C38.64 7.31679 38.9382 7.41617 39.286 7.41617C39.6338 7.41617 39.8326 7.36648 40.081 7.2671C40.3295 7.16772 40.5282 7.01866 40.6773 6.8199L41.1245 7.2671C40.9258 7.51555 40.6276 7.71431 40.3295 7.86338C39.9817 8.01245 39.6338 8.06213 39.286 8.06213L39.1866 8.01244Z" fill="black"/>
<path d="M41.8203 1.35405V0.807465H44.8017V1.35405H41.8203ZM43.0129 4.43479V0.906842H43.6091V4.43479H43.0129Z" fill="black"/>
<path d="M45.2983 4.43479V0.807465H45.6959L47.2362 3.29193H46.9878L48.5282 0.807465H48.9257V4.43479H48.3294V1.85094H48.4785L47.3356 3.73914H46.9381L45.7952 1.90063H45.9443V4.48448H45.348L45.2983 4.43479Z" fill="black"/>
</svg>
