<svg width="70" height="70" viewBox="0 0 70 70" fill="none" xmlns="http://www.w3.org/2000/svg">
<g clip-path="url(#clip0_4_568)">
<path fill-rule="evenodd" clip-rule="evenodd" d="M6.01562 40.1953C5.46875 40.1953 5.05859 39.7852 5.05859 39.1016V35C5.05859 29.1211 9.84375 24.3359 15.7227 24.3359C16.2695 24.3359 16.6797 24.7461 16.6797 25.293C16.6797 25.8398 16.2695 26.3867 15.7227 26.3867C10.9375 26.3867 6.97266 30.2148 6.97266 35V39.2383C6.97266 39.7852 6.5625 40.1953 6.01562 40.1953ZM35 31.1719C34.5898 31.1719 34.3164 30.8984 34.043 30.625C32.6758 28.0273 29.9414 26.3867 26.9336 26.25C26.3867 26.25 25.9766 25.8398 25.9766 25.293C25.9766 24.7461 26.3867 24.3359 26.9336 24.3359C30.625 24.4727 34.043 26.5234 35.8203 29.668C36.0938 30.0781 35.957 30.7617 35.4102 31.0352C35.2734 31.0352 35.1367 31.1719 35 31.1719Z" fill="#CFA935"/>
<path fill-rule="evenodd" clip-rule="evenodd" d="M21.3281 34.7265C21.0547 34.7265 20.918 34.5898 20.7812 34.5898L15.1758 30.4882C14.9023 30.3515 14.7656 30.078 14.7656 29.6679L14.6289 25.2929C14.6289 24.8827 14.9023 24.4726 15.3125 24.3359C15.7227 24.1991 16.1328 24.3359 16.4062 24.6093L22.0117 30.4882C22.1484 30.6249 22.2852 30.8984 22.2852 31.1718V33.6327C22.2852 34.0429 22.1484 34.453 21.7383 34.5898C21.7383 34.7265 21.4648 34.7265 21.3281 34.7265ZM16.6797 29.2577L20.3711 31.8554V31.582L16.6797 27.8905V29.2577Z" fill="#CFA935"/>
<path fill-rule="evenodd" clip-rule="evenodd" d="M21.3271 34.7267C21.0537 34.7267 20.7803 34.59 20.5068 34.3165C20.2334 33.9064 20.3701 33.2228 20.7803 32.9493L25.9756 29.2579V27.8907L22.1475 31.9923C21.7373 32.2657 21.0537 32.2657 20.6436 31.9923C20.2334 31.5822 20.2334 30.8986 20.6436 30.6251L26.249 24.6095C26.5225 24.3361 26.9326 24.1993 27.3428 24.4728C27.7529 24.6095 27.8896 24.8829 27.8896 25.2931V29.6681C27.8896 30.0782 27.7529 30.3517 27.4795 30.4884L21.874 34.59C21.7373 34.59 21.6006 34.7267 21.3271 34.7267Z" fill="#CFA935"/>
<path fill-rule="evenodd" clip-rule="evenodd" d="M13.9459 16.8165C13.2623 16.8165 12.5787 16.4063 12.1685 15.8595C10.5279 13.9454 10.8013 8.8868 11.2115 6.15242C11.4849 3.82821 13.399 3.00789 15.1763 2.3243C15.4498 2.18758 15.7232 2.18758 15.9966 2.05086C16.2701 1.91414 16.5435 1.64071 16.817 1.36727C17.5005 0.820393 18.1841 0.273518 19.2779 0.136799C24.7466 -0.546795 30.7623 1.50399 31.3091 5.87899C31.4459 7.65633 32.1295 13.672 30.2154 15.8595C29.8052 16.4063 29.2584 16.6798 28.438 16.8165C28.1646 16.8165 27.8912 16.6798 27.7545 16.543C27.6177 16.2696 27.3443 16.1329 27.3443 15.8595C27.3443 10.254 26.3873 9.84383 24.8834 9.57039C21.8755 9.29696 18.4576 9.02352 16.6802 10.5274C15.5865 11.6212 14.9029 13.2618 14.9029 15.8595C14.9029 16.1329 14.7662 16.4063 14.6295 16.543C14.356 16.6798 14.2193 16.8165 13.9459 16.8165ZM21.0552 2.05086C20.5084 2.05086 19.9615 2.18758 19.4146 2.18758C19.0045 2.18758 18.5943 2.59774 18.0474 3.00789C17.6373 3.28133 17.2271 3.69149 16.6802 3.96492C16.4068 4.10164 16.1334 4.10164 15.8599 4.23836C14.0826 4.92196 13.2623 5.33211 12.9888 6.42586C12.7154 9.43367 12.7154 11.8946 13.1255 13.5352C13.399 11.6212 14.2193 10.1173 15.313 9.02352C17.774 6.97274 21.4654 7.24617 25.1568 7.65633C28.0279 8.06649 28.9849 9.84383 29.2584 13.1251C29.5318 11.3477 29.5318 8.61336 29.1216 6.15242C28.8482 3.55477 25.0201 2.05086 21.0552 2.05086Z" fill="#CFA935"/>
<path fill-rule="evenodd" clip-rule="evenodd" d="M21.0538 25.4298C17.6359 25.4298 13.671 22.422 12.9874 15.9962C12.8507 15.4493 13.2609 15.0392 13.8077 14.9025C14.3546 14.7658 14.7648 15.1759 14.9015 15.7228C15.5851 21.0548 18.4562 23.379 21.0538 23.379C23.7882 23.379 26.6593 21.0548 27.3429 15.7228C27.3429 15.1759 27.8898 14.7658 28.4367 14.9025C28.9835 14.9025 29.257 15.4493 29.257 15.9962C28.5734 22.422 24.6085 25.4298 21.0538 25.4298Z" fill="#CFA935"/>
<path fill-rule="evenodd" clip-rule="evenodd" d="M26.9333 26.2502C26.5231 26.2502 26.113 25.9767 25.9762 25.5666L25.0192 22.1486C24.8825 21.6017 25.1559 21.0549 25.7028 20.9181C26.2497 20.7814 26.7966 21.0549 26.9333 21.6017L27.8903 25.0197C28.1637 25.5666 27.7536 26.1135 27.2067 26.2502C27.2067 26.2502 27.07 26.2502 26.9333 26.2502Z" fill="#CFA935"/>
<path fill-rule="evenodd" clip-rule="evenodd" d="M15.7223 26.2502C15.5856 26.2502 15.5856 26.2502 15.4489 26.2502C14.902 26.1135 14.6286 25.5666 14.7653 25.0197L15.5856 21.8752C15.7223 21.3283 16.2692 21.0549 16.8161 21.1916C17.363 21.3283 17.7731 21.8752 17.4997 22.422L16.6794 25.5666C16.5427 25.9767 16.1325 26.2502 15.7223 26.2502Z" fill="#CFA935"/>
<path fill-rule="evenodd" clip-rule="evenodd" d="M63.8477 40.1953C63.3008 40.1953 62.8906 39.7852 62.8906 39.1016V35C62.8906 30.3516 59.0625 26.5234 54.5508 26.25C54.0039 26.25 53.5938 25.8398 53.5938 25.293C53.5938 24.7461 54.0039 24.3359 54.5508 24.3359C60.293 24.4727 64.8047 29.2578 64.8047 35V39.1016C64.8047 39.7852 64.5312 40.1953 63.8477 40.1953ZM33.6328 40.1953C33.0859 40.1953 32.6758 39.7852 32.6758 39.1016V35C32.6758 29.1211 37.3242 24.3359 43.3398 24.3359C43.8867 24.3359 44.2969 24.7461 44.2969 25.293C44.2969 25.8398 43.8867 26.3867 43.3398 26.3867C38.5547 26.3867 34.5898 30.2148 34.5898 35V39.2383C34.7266 39.7852 34.1797 40.1953 33.6328 40.1953Z" fill="#CFA935"/>
<path fill-rule="evenodd" clip-rule="evenodd" d="M48.9453 34.7265C48.6719 34.7265 48.5352 34.5898 48.3984 34.5898L42.793 30.4882C42.5195 30.3515 42.3828 30.078 42.3828 29.6679V25.2929C42.3828 24.8827 42.5195 24.4726 42.9297 24.3359C43.3398 24.1991 43.75 24.3359 44.0234 24.6093L49.6289 30.4882C49.9023 30.6249 49.9023 30.8984 49.9023 31.1718V33.6327C49.9023 34.0429 49.7656 34.453 49.3555 34.5898C49.2188 34.7265 49.082 34.7265 48.9453 34.7265ZM44.4336 29.2577L47.9883 31.7187V31.582L44.4336 27.8905V29.2577Z" fill="#CFA935"/>
<path fill-rule="evenodd" clip-rule="evenodd" d="M48.9452 34.7267C48.6718 34.7267 48.2616 34.59 48.1249 34.3165C47.8515 33.9064 47.8515 33.2228 48.3984 32.9493L53.5937 29.2579V27.8907L49.6288 31.9923C49.2187 32.2657 48.6718 32.2657 48.2616 31.9923C47.8515 31.5822 47.8515 30.8986 48.2616 30.6251L53.8671 24.6095C54.1405 24.3361 54.5507 24.1993 54.9609 24.4728C55.371 24.6095 55.5077 24.8829 55.5077 25.2931V29.8048C55.5077 30.0782 55.371 30.3517 55.0976 30.6251L49.4921 34.59C49.3554 34.59 49.2187 34.7267 48.9452 34.7267Z" fill="#CFA935"/>
<path fill-rule="evenodd" clip-rule="evenodd" d="M41.563 16.8167C40.8795 16.8167 40.1959 16.4065 39.7857 15.8596C38.1451 13.9456 38.4185 8.88696 38.8287 6.15259C39.1021 3.82837 41.0162 3.14478 42.7935 2.46118C43.067 2.32446 43.3404 2.18774 43.4771 2.18774C43.8873 2.05103 44.1607 1.77759 44.4341 1.50415C45.1177 0.957276 45.8013 0.273682 46.8951 0.136963C52.3638 -0.409912 58.3795 1.64087 58.7896 6.01587C59.1998 9.57056 59.4732 14.0823 57.8326 15.9963C57.4224 16.5432 56.7388 16.8167 56.0552 16.9534C55.7818 16.9534 55.5084 16.8167 55.3716 16.6799C55.0982 16.4065 54.9615 16.1331 54.9615 15.8596C54.9615 10.2542 54.1412 9.84399 52.6373 9.70728C49.4927 9.1604 46.0748 9.02368 44.2974 10.5276C43.2037 11.6213 42.6568 13.262 42.5201 15.8596C42.5201 16.1331 42.5201 16.4065 42.2466 16.5432C42.1099 16.6799 41.8365 16.8167 41.563 16.8167ZM48.6724 2.05103C48.1255 2.05103 47.5787 2.18774 47.0318 2.18774C46.6216 2.18774 46.2115 2.5979 45.6646 3.00806C45.2545 3.28149 44.8443 3.69165 44.2974 3.96509C44.024 4.10181 43.7505 4.10181 43.4771 4.23853C41.563 5.05884 40.8795 5.46899 40.7427 6.42603C40.4693 9.29712 40.4693 11.8948 40.7427 13.5354C41.1529 11.6213 41.8365 10.1174 43.067 9.1604C45.3912 6.9729 49.2193 7.24634 52.9107 7.65649C55.6451 8.06665 56.6021 9.84399 56.8755 13.262C57.149 11.6213 57.149 9.1604 56.7388 6.15259C56.4654 3.55493 52.6373 2.05103 48.6724 2.05103Z" fill="#CFA935"/>
<path fill-rule="evenodd" clip-rule="evenodd" d="M48.8077 25.4298C45.2531 25.4298 41.4249 22.422 40.6046 15.9962C40.4679 15.4493 40.8781 15.0392 41.4249 14.9025C41.9718 14.7658 42.5187 15.1759 42.5187 15.7228C43.2023 21.0548 46.2101 23.379 48.8077 23.379C51.4054 23.379 54.2765 21.0548 54.9601 15.7228C54.9601 15.1759 55.507 14.7658 56.0538 14.9025C56.7374 14.9025 57.0109 15.4493 57.0109 15.9962C56.0538 22.422 52.2257 25.4298 48.8077 25.4298Z" fill="#CFA935"/>
<path fill-rule="evenodd" clip-rule="evenodd" d="M54.687 26.2502C54.1401 26.2502 53.7299 25.9767 53.5932 25.5666L52.6362 22.1486C52.4995 21.6017 52.9096 21.0549 53.3198 20.9181C53.8667 20.7814 54.4135 21.0549 54.687 21.6017L55.644 25.0197C55.7807 25.5666 55.3706 26.1135 54.9604 26.2502C54.8237 26.2502 54.687 26.2502 54.687 26.2502Z" fill="#CFA935"/>
<path fill-rule="evenodd" clip-rule="evenodd" d="M43.3395 26.2502C43.2028 26.2502 43.2028 26.2502 43.0661 26.2502C42.5192 26.1135 42.2458 25.5666 42.3825 25.0197L43.2028 21.8752C43.4762 21.3283 43.8864 21.0549 44.4333 21.1916C44.9802 21.3283 45.3903 21.8752 45.1169 22.422L44.2966 25.5666C44.1598 25.9767 43.7497 26.2502 43.3395 26.2502Z" fill="#CFA935"/>
<path fill-rule="evenodd" clip-rule="evenodd" d="M40.0594 70H29.9422C29.2586 70 28.7117 69.4531 28.7117 68.7695V61.1133C27.0711 60.7031 25.4305 60.0195 23.7899 59.0625L18.4578 64.3945C18.0477 64.9414 17.0906 64.9414 16.6805 64.3945L9.57112 57.4219C9.4344 57.1484 9.29768 56.875 9.29768 56.4648C9.29768 56.1914 9.4344 55.918 9.57112 55.6445L15.0399 50.1758C14.0828 48.6719 13.3992 47.0312 12.9891 45.3906H5.33284C4.64924 45.3906 4.23909 44.8438 4.23909 44.1602V39.1016C4.10237 38.6914 4.51252 38.1445 5.19612 38.1445H64.8055C65.3524 38.1445 65.8992 38.6914 65.8992 39.2383V44.1602C65.8992 44.8438 65.2156 45.5273 64.5321 45.5273H57.0125C56.4656 47.168 55.7821 48.8086 54.9617 50.3125L60.4305 55.7812C60.8406 56.1914 60.8406 57.0117 60.4305 57.4219L53.3211 64.5312C52.911 65.0781 51.9539 65.0781 51.5438 64.5312L46.2117 59.1992C44.5711 60.0195 42.9305 60.7031 41.1531 61.25V68.9062C41.1531 69.4531 40.6063 70 40.0594 70ZM30.7625 67.9492H39.2391V60.4297C39.2391 59.8828 39.5125 59.4727 39.9227 59.3359C41.9735 58.9258 43.8875 58.1055 45.8016 57.0117C46.2117 56.7383 46.7586 56.875 47.0321 57.1484L52.3641 62.4805L58.3797 56.6016L52.911 51.1328C52.6375 50.8594 52.5008 50.3125 52.7742 49.9023C53.868 48.125 54.6883 46.2109 55.2352 44.1602C55.3719 43.75 55.7821 43.4766 56.1922 43.4766H63.8485V40.1953H6.15315V43.4766H13.6727C14.2196 43.4766 14.6297 43.75 14.6297 44.1602C15.1766 46.2109 15.9969 48.125 17.0906 49.9023C17.3641 50.3125 17.2274 50.8594 16.9539 51.1328L11.6219 56.6016L17.5008 62.4805L22.9696 57.1484C23.243 56.875 23.7899 56.7383 24.2 57.0117C25.9774 58.1055 27.8914 58.9258 29.9422 59.3359C30.3524 59.4727 30.6258 59.8828 30.6258 60.4297V67.9492H30.7625Z" fill="#CFA935"/>
<path fill-rule="evenodd" clip-rule="evenodd" d="M35 52.0898C27.7539 52.0898 22.0117 46.3477 22.0117 39.1016C22.0117 38.5547 22.4219 38.1445 22.9688 38.1445C23.5156 38.1445 24.0625 38.5547 24.0625 39.1016C24.0625 45.1172 28.8477 50.1758 35 50.1758C41.1523 50.1758 45.9375 45.2539 45.9375 39.1016C45.9375 38.5547 46.4844 38.1445 47.0312 38.1445C47.5781 38.1445 47.9883 38.5547 47.9883 39.1016C47.8516 46.3477 42.1094 52.0898 35 52.0898Z" fill="#CFA935"/>
</g>
<defs>
<clipPath id="clip0_4_568">
<rect width="70" height="70" fill="white"/>
</clipPath>
</defs>
</svg>
