<svg width="32" height="9" viewBox="0 0 32 9" fill="none" xmlns="http://www.w3.org/2000/svg">
<path d="M0.478286 7.91305V1.05591H1.02487L3.95655 5.87579H3.55903L6.49071 1.05591H7.03729V7.91305H6.29195V2.34783H6.44102C6.44102 2.39752 3.95655 6.42237 3.95655 6.42237H3.45965L0.97518 2.39753H1.12425C1.12425 2.34784 1.12425 7.91305 1.12425 7.91305H0.378906H0.478286Z" fill="black"/>
<path d="M10.4657 8.01238C10.0682 8.01238 9.77007 7.913 9.47193 7.76393C9.1738 7.56517 8.92535 7.36642 8.77628 7.01859C8.62721 6.72045 8.52783 6.37263 8.52783 5.92542V3.1925H9.22348V5.87574C9.22348 6.17388 9.27317 6.42232 9.37255 6.62108C9.47193 6.81984 9.621 7.0186 9.81976 7.11798C10.0185 7.21735 10.2173 7.31673 10.4657 7.31673C10.8632 7.31673 11.1614 7.16766 11.4098 6.91921C11.6583 6.67077 11.7576 6.32294 11.7576 5.87574V3.1925H12.4533V5.92542C12.4533 6.32294 12.3539 6.67076 12.2049 7.01859C12.0558 7.31673 11.8073 7.56517 11.5092 7.76393C11.2111 7.96269 10.8632 8.01238 10.4657 8.01238Z" fill="black"/>
<path d="M15.1367 8.01238C14.8883 8.01238 14.6398 8.01238 14.3914 7.913C14.1429 7.86331 13.9442 7.76394 13.7454 7.61487C13.5467 7.4658 13.3976 7.31673 13.2485 7.16766L13.6957 6.72046C13.8945 6.96891 14.0933 7.11798 14.3417 7.21735C14.5902 7.31673 14.8386 7.36643 15.1367 7.36643C15.4349 7.36643 15.6833 7.31673 15.8821 7.16766C16.0808 7.06828 16.1305 6.86953 16.1305 6.67077C16.1305 6.47201 16.0808 6.32295 15.9318 6.22357C15.8324 6.12419 15.6336 6.02481 15.4349 5.97512C15.2361 5.92543 15.0374 5.82605 14.7889 5.77636C14.5902 5.72667 14.3417 5.62729 14.1926 5.52791C13.9939 5.42853 13.8448 5.27947 13.6957 5.1304C13.5467 4.98133 13.497 4.73288 13.497 4.43474C13.497 4.13661 13.5467 3.93785 13.6957 3.73909C13.8448 3.54034 13.9939 3.39126 14.2423 3.29188C14.4908 3.19251 14.7889 3.14282 15.087 3.14282C15.3852 3.14282 15.733 3.19251 16.0311 3.34158C16.3293 3.49065 16.528 3.63972 16.7268 3.88816L16.2796 4.33537C16.1305 4.13661 15.9815 4.03723 15.7827 3.93785C15.5839 3.83847 15.3355 3.78878 15.087 3.78878C14.8386 3.78878 14.5405 3.83847 14.3914 3.98754C14.2423 4.08692 14.1429 4.23599 14.1429 4.43474C14.1429 4.6335 14.1926 4.73288 14.3417 4.83226C14.4908 4.93164 14.6398 5.03102 14.8386 5.08071C15.0374 5.1304 15.2361 5.22977 15.4349 5.27946C15.6336 5.32915 15.8821 5.42853 16.0808 5.52791C16.2796 5.62729 16.4287 5.77636 16.5777 5.92543C16.6771 6.12418 16.7765 6.32295 16.7765 6.62108C16.7765 6.91922 16.6274 7.36643 16.3293 7.61487C16.0311 7.86332 15.6336 8.01238 15.087 8.01238H15.1367Z" fill="black"/>
<path d="M18.2669 2.24843C18.1178 2.24843 18.0185 2.24843 17.9191 2.09936C17.8197 1.99998 17.77 1.9006 17.77 1.75153C17.77 1.60246 17.77 1.50308 17.9191 1.4037C18.0185 1.30433 18.1178 1.25464 18.2669 1.25464C18.416 1.25464 18.5154 1.25464 18.6147 1.4037C18.7141 1.55277 18.7638 1.60246 18.7638 1.75153C18.7638 1.9006 18.7638 1.99998 18.6147 2.09936C18.4657 2.19874 18.416 2.24843 18.2669 2.24843ZM17.9191 7.91302V3.24222H18.6147V7.91302H17.9191Z" fill="black"/>
<path d="M22.1926 8.01239C21.7454 8.01239 21.2982 7.91301 20.9504 7.66457C20.6025 7.46581 20.3044 7.16767 20.0559 6.77016C19.8572 6.42233 19.7578 5.97512 19.7578 5.52792C19.7578 5.08071 19.8572 4.63351 20.0559 4.28568C20.2547 3.93786 20.5528 3.63973 20.9504 3.39128C21.2982 3.19252 21.7454 3.09314 22.1926 3.09314C22.6398 3.09314 22.8882 3.14283 23.1864 3.29189C23.4845 3.44096 23.733 3.59003 23.9814 3.83848L23.5342 4.33538C23.3851 4.13662 23.1864 4.03724 22.9379 3.93786C22.6895 3.83848 22.4907 3.78879 22.1926 3.78879C21.8945 3.78879 21.5963 3.88817 21.2982 4.03724C21.0497 4.1863 20.851 4.38507 20.7019 4.63352C20.5528 4.88196 20.5032 5.18009 20.5032 5.52792C20.5032 5.87575 20.5528 6.17388 20.7019 6.42233C20.851 6.67078 21.0497 6.91923 21.2982 7.06829C21.5466 7.21736 21.8448 7.31674 22.1926 7.31674C22.5404 7.31674 22.6895 7.31674 22.9379 7.16767C23.1864 7.0186 23.3355 6.91922 23.5342 6.77016L23.9814 7.21736C23.7827 7.46581 23.4845 7.66457 23.1864 7.76394C22.8882 7.91301 22.5404 7.96271 22.1926 7.96271V8.01239Z" fill="black"/>
<path d="M24.3789 1.35402V0.807434H27.3603V1.35402H24.3789ZM25.5715 4.43476V0.906811H26.1677V4.43476H25.5715Z" fill="black"/>
<path d="M27.8569 4.43476V0.807434H28.2545L29.7948 3.2919H29.5464L31.0867 0.807434H31.4843V4.43476H30.888V1.85091H31.0371L29.8942 3.73911H29.4967L28.3538 1.9006H28.5029V4.48445H27.9066L27.8569 4.43476Z" fill="black"/>
</svg>
