<svg width="37" height="9" viewBox="0 0 37 9" fill="none" xmlns="http://www.w3.org/2000/svg">
<path d="M3.16767 7.91305L0.931641 1.05591H1.67698L3.51549 6.91926H3.31673L5.15524 1.05591H5.70183L7.54034 6.91926H7.29189L9.18009 1.05591H9.92543L7.6894 7.91305H7.14282L5.30431 2.04969H5.50307L3.66456 7.91305H3.11798H3.16767Z" fill="black"/>
<path d="M10.3726 7.913V3.2422H11.0682V7.913H10.3726ZM11.0682 5.18008L10.7701 5.08071C10.7701 4.48443 10.9191 4.03723 11.2173 3.6894C11.5154 3.34157 11.9129 3.1925 12.4098 3.1925C12.9067 3.1925 12.857 3.1925 13.0558 3.29188C13.2545 3.39126 13.4036 3.49064 13.6024 3.6894L13.1552 4.18629C13.0558 4.08691 12.9067 3.98754 12.8073 3.93785C12.6583 3.88816 12.5092 3.83847 12.3601 3.83847C12.0123 3.83847 11.7142 3.93785 11.4657 4.18629C11.2173 4.43474 11.1179 4.78257 11.1179 5.22978L11.0682 5.18008Z" fill="black"/>
<path d="M14.6956 2.24843C14.5466 2.24843 14.4472 2.24843 14.3478 2.09936C14.2484 1.95029 14.1987 1.9006 14.1987 1.75153C14.1987 1.60246 14.1987 1.50308 14.3478 1.4037C14.4969 1.30433 14.5466 1.25464 14.6956 1.25464C14.8447 1.25464 14.9441 1.25464 15.0435 1.4037C15.1428 1.55277 15.1925 1.60246 15.1925 1.75153C15.1925 1.9006 15.1925 1.99998 15.0435 2.09936C14.8944 2.19874 14.8447 2.24843 14.6956 2.24843ZM14.3478 7.91302V3.24222H15.0435V7.91302H14.3478Z" fill="black"/>
<path d="M15.9873 3.88818V3.24222H19.0184V3.88818H15.9873ZM17.1799 7.91302V1.25464H17.8755V7.91302H17.1799Z" fill="black"/>
<path d="M22.149 8.01238C21.7018 8.01238 21.2546 7.91301 20.9068 7.71425C20.559 7.51549 20.2608 7.21735 20.0124 6.81984C19.8136 6.47201 19.6646 6.02481 19.6646 5.5776C19.6646 5.1304 19.7639 4.68319 19.9627 4.33537C20.1614 3.98754 20.4596 3.6894 20.8074 3.44095C21.1552 3.2422 21.6024 3.14282 22.0496 3.14282C22.4968 3.14282 22.8447 3.2422 23.1925 3.44095C23.5403 3.63971 23.7888 3.88816 23.9875 4.23599C24.1863 4.58381 24.2857 4.98133 24.2857 5.42853C24.2857 5.87574 24.2857 5.52792 24.2857 5.62729C24.2857 5.67698 24.2857 5.77636 24.2857 5.87574H20.2608V5.27946H23.9378L23.6894 5.47822C23.6894 5.1304 23.6397 4.83226 23.5403 4.58381C23.4409 4.33537 23.2422 4.13661 22.9937 3.98754C22.7453 3.83847 22.4968 3.78878 22.149 3.78878C21.8012 3.78878 21.5031 3.83847 21.2546 4.03723C21.0062 4.18629 20.8074 4.38506 20.6583 4.63351C20.5093 4.88195 20.4596 5.18009 20.4596 5.5776C20.4596 5.97512 20.5093 6.27325 20.6583 6.5217C20.8074 6.77015 21.0062 7.01859 21.3043 7.16766C21.5527 7.31673 21.9006 7.41611 22.2484 7.41611C22.5962 7.41611 22.795 7.36642 23.0434 7.26704C23.2919 7.16766 23.4906 7.0186 23.6397 6.81984L24.0869 7.26704C23.8882 7.51549 23.59 7.71425 23.2919 7.86332C22.9441 8.01239 22.5962 8.06207 22.2484 8.06207L22.149 8.01238Z" fill="black"/>
<path d="M25.3291 7.913V3.2422H26.0248V7.913H25.3291ZM26.0248 5.18008L25.7266 5.08071C25.7266 4.48443 25.8757 4.03723 26.1738 3.6894C26.472 3.34157 26.8695 3.1925 27.3664 3.1925C27.8633 3.1925 27.8136 3.1925 28.0123 3.29188C28.2111 3.39126 28.3602 3.49064 28.5589 3.6894L28.1117 4.18629C28.0123 4.08691 27.8633 3.98754 27.7639 3.93785C27.6148 3.88816 27.4657 3.83847 27.3167 3.83847C26.9689 3.83847 26.6707 3.93785 26.4223 4.18629C26.1738 4.43474 26.0744 4.78257 26.0744 5.22978L26.0248 5.18008Z" fill="black"/>
<path d="M28.8569 1.35402V0.807434H31.8383V1.35402H28.8569ZM30.0495 4.43476V0.906811H30.6458V4.43476H30.0495Z" fill="black"/>
<path d="M32.3853 4.43476V0.807434H32.7828L34.3231 3.2919H34.0747L35.6151 0.807434H36.0126V4.43476H35.4163V1.85091H35.5654L34.4225 3.73911H34.025L32.8821 1.9006H33.0312V4.48445H32.4349L32.3853 4.43476Z" fill="black"/>
</svg>
