<svg width="46" height="11" viewBox="0 0 46 11" fill="none" xmlns="http://www.w3.org/2000/svg">
<path d="M0.783203 10.4638V1.03519H1.80805V10.4638H0.783203ZM1.46643 1.99171V1.10351H6.93227V1.99171H1.46643ZM1.46643 6.09109V5.20289H6.59066V6.09109H1.46643ZM1.46643 10.4638V9.57555H7.00059V10.4638H1.46643Z" fill="black"/>
<path d="M7.95703 4.92959V4.04139H12.1247V4.92959H7.95703ZM9.59678 10.4637V1.30847H10.5533V10.4637H9.59678Z" fill="black"/>
<path d="M13.4238 10.4638V0.761902H14.3804V10.4638H13.4238ZM18.1381 10.4638V6.706C18.1381 6.15942 18.0015 5.68115 17.6599 5.33954C17.3182 4.99792 16.9083 4.79295 16.3617 4.79295C15.8151 4.79295 15.6785 4.86128 15.4052 5.06625C15.1319 5.27122 14.9269 5.47619 14.722 5.74948C14.5853 6.02277 14.4487 6.36438 14.4487 6.706L14.0387 6.43271C14.0387 5.95445 14.1754 5.54451 14.3804 5.13457C14.5853 4.72463 14.9269 4.45135 15.3369 4.24638C15.7468 4.04141 16.1567 3.90476 16.635 3.90476C17.1133 3.90476 17.5915 4.04141 17.9331 4.24638C18.3431 4.45135 18.6164 4.79296 18.8213 5.2029C19.0263 5.61283 19.163 6.02277 19.163 6.56936V10.5321H18.2064L18.1381 10.4638Z" fill="black"/>
<path d="M21.3492 2.67493C21.1443 2.67493 21.0076 2.67493 20.871 2.46996C20.7343 2.26499 20.666 2.19667 20.666 1.9917C20.666 1.78673 20.666 1.65008 20.871 1.51344C21.076 1.37679 21.1443 1.30847 21.3492 1.30847C21.5542 1.30847 21.6909 1.30847 21.8275 1.51344C21.9642 1.71841 22.0325 1.78673 22.0325 1.9917C22.0325 2.19667 22.0325 2.33331 21.8275 2.46996C21.6225 2.60661 21.5542 2.67493 21.3492 2.67493ZM20.871 10.4637V4.04139H21.8275V10.4637H20.871Z" fill="black"/>
<path d="M26.7463 10.6004C26.1314 10.6004 25.5164 10.4638 25.0382 10.1221C24.5599 9.84885 24.15 9.43891 23.8084 8.89232C23.5351 8.41406 23.3984 7.79915 23.3984 7.18425C23.3984 6.56934 23.5351 5.95443 23.8084 5.47617C24.0817 4.99791 24.4916 4.58798 25.0382 4.24637C25.5848 3.90475 26.1314 3.83643 26.7463 3.83643C27.3612 3.83643 27.7028 3.90474 28.1127 4.10971C28.5227 4.31468 28.8643 4.51966 29.2059 4.86127L28.591 5.5445C28.386 5.27121 28.1127 5.13456 27.8394 4.99791C27.5661 4.86127 27.2245 4.79294 26.8146 4.79294C26.4046 4.79294 25.9947 4.92959 25.5848 5.13456C25.2432 5.33953 24.9699 5.61283 24.7649 5.95444C24.5599 6.29606 24.4916 6.70599 24.4916 7.18425C24.4916 7.66251 24.5599 8.07245 24.7649 8.41406C24.9699 8.75568 25.2432 9.0973 25.5848 9.30226C25.9264 9.50723 26.3363 9.64388 26.8146 9.64388C27.2928 9.64388 27.4978 9.64388 27.8394 9.43891C28.181 9.23394 28.386 9.09729 28.6593 8.89232L29.2742 9.50724C29.0009 9.84885 28.591 10.1221 28.181 10.2588C27.7711 10.3954 27.2928 10.5321 26.8146 10.5321L26.7463 10.6004Z" fill="black"/>
<path d="M32.4849 10.6004C32.1433 10.6004 31.8017 10.6004 31.4601 10.4638C31.1185 10.3954 30.8452 10.2588 30.5719 10.0538C30.2986 9.84885 30.0936 9.64388 29.8887 9.43891L30.5036 8.82401C30.7769 9.16562 31.0502 9.37059 31.3918 9.50724C31.7334 9.64388 32.075 9.71221 32.4849 9.71221C32.8949 9.71221 33.2365 9.64388 33.5098 9.43891C33.7831 9.30226 33.8514 9.02897 33.8514 8.75568C33.8514 8.48239 33.7831 8.27742 33.5781 8.14078C33.4415 8.00413 33.1682 7.86749 32.8949 7.79916C32.6216 7.73084 32.3483 7.59419 32.0067 7.52586C31.7334 7.45754 31.3918 7.3209 31.1868 7.18425C30.9135 7.0476 30.7085 6.84264 30.5036 6.63767C30.2986 6.43271 30.2303 6.09108 30.2303 5.68115C30.2303 5.27121 30.2986 4.99792 30.5036 4.72463C30.7085 4.45134 30.9135 4.24636 31.2551 4.10972C31.5967 3.97307 32.0067 3.90475 32.4166 3.90475C32.8266 3.90475 33.3048 3.97307 33.7148 4.17804C34.1247 4.38301 34.398 4.58798 34.6713 4.9296L34.0564 5.5445C33.8514 5.27121 33.6464 5.13456 33.3731 4.99792C33.0999 4.86127 32.7582 4.79295 32.4166 4.79295C32.075 4.79295 31.6651 4.86127 31.4601 5.06624C31.2551 5.20289 31.1185 5.40785 31.1185 5.68115C31.1185 5.95444 31.1868 6.09109 31.3918 6.22773C31.5967 6.36438 31.8017 6.50102 32.075 6.56935C32.3483 6.63767 32.6216 6.77431 32.8949 6.84263C33.1682 6.91096 33.5098 7.0476 33.7831 7.18425C34.0564 7.3209 34.2613 7.52587 34.4663 7.73084C34.603 8.00413 34.7396 8.27743 34.7396 8.68736C34.7396 9.0973 34.5346 9.71221 34.1247 10.0538C33.7148 10.3954 33.1682 10.6004 32.4166 10.6004H32.4849Z" fill="black"/>
<path d="M35.4922 1.44512V0.693573H39.5916V1.44512H35.4922ZM37.1319 5.68115V0.830217H37.9518V5.68115H37.1319Z" fill="black"/>
<path d="M40.3418 5.68115V0.693573H40.8884L43.0064 4.10972H42.6648L44.7828 0.693573H45.3294V5.68115H44.5095V2.12835H44.7145L43.143 4.72463H42.5965L41.025 2.19668H41.23V5.74948H40.4101L40.3418 5.68115Z" fill="black"/>
</svg>
