<svg width="202" height="8" viewBox="0 0 202 8" fill="none" xmlns="http://www.w3.org/2000/svg">
<path d="M7.04408 7.83605H6.22107L5.39807 6.034H1.65341L0.830407 7.83605H0.0485535L3.21711 0.914551H3.95782L7.12638 7.83605H7.04408ZM3.50517 1.81557L1.94146 5.33776H5.11002L3.54631 1.81557H3.50517Z" fill="white"/>
<path d="M9.88344 0.955566V7.83611H9.10159V0.955566H9.88344Z" fill="white"/>
<path d="M21.1586 7.99994L20.0887 6.89414C19.7595 7.22178 19.4303 7.50847 19.0599 7.6723C18.6896 7.87707 18.2781 7.95898 17.8254 7.95898C17.3728 7.95898 17.2082 7.91803 16.9613 7.83612C16.7144 7.75421 16.4675 7.63134 16.2617 7.42656C16.056 7.26274 15.9325 7.05796 15.8091 6.81223C15.6856 6.56649 15.6445 6.32076 15.6445 6.03407C15.6445 5.58356 15.8091 5.174 16.0971 4.84636C16.3852 4.51871 16.7967 4.23202 17.3316 4.02724C17.0847 3.74055 16.9201 3.49482 16.7967 3.24909C16.6732 3.00335 16.6321 2.75762 16.6321 2.47093C16.6321 2.18424 16.6732 2.02042 16.7555 1.81564C16.8378 1.61086 16.9613 1.44704 17.1259 1.28322C17.2905 1.11939 17.4551 1.03748 17.702 0.914616C17.9489 0.791749 18.1958 0.791748 18.4427 0.791748C18.6896 0.791748 18.8953 0.832705 19.1011 0.914616C19.3068 0.996527 19.4714 1.11939 19.636 1.24226C19.8006 1.36513 19.8829 1.52895 20.0064 1.73373C20.1298 1.93851 20.1298 2.14329 20.1298 2.34806C20.1298 2.79858 19.9652 3.16717 19.6772 3.45386C19.3891 3.74055 18.9776 3.98629 18.4838 4.15011L20.0475 5.74738C20.2121 5.5426 20.3356 5.29687 20.5002 5.01018C20.6648 4.72349 20.7882 4.47776 20.9117 4.19107L21.5701 4.47776C21.4055 4.8054 21.282 5.13305 21.1174 5.41974C20.9528 5.70643 20.7882 5.99311 20.5825 6.23885L21.7758 7.46752L21.1997 7.91803L21.1586 7.99994ZM17.7431 4.47776C17.2905 4.64158 16.9613 4.84636 16.7555 5.13304C16.5498 5.37878 16.4263 5.66547 16.4263 5.95216C16.4263 6.23885 16.4263 6.32076 16.5498 6.48458C16.6321 6.6484 16.7144 6.77127 16.8378 6.89414C16.9613 7.017 17.1259 7.09891 17.2905 7.18083C17.4551 7.26274 17.6608 7.26274 17.8666 7.26274C18.1958 7.26274 18.4838 7.18083 18.7719 7.01701C19.0599 6.85318 19.3068 6.6484 19.5949 6.36171L17.7431 4.47776ZM19.1011 1.77468C18.9365 1.61086 18.6896 1.488 18.4015 1.488C18.1135 1.488 17.8254 1.56991 17.6608 1.77468C17.4551 1.97946 17.3728 2.18424 17.3728 2.51189C17.3728 2.83953 17.3728 2.71666 17.3728 2.79857C17.3728 2.88049 17.4139 3.00335 17.4962 3.08526C17.5374 3.16717 17.6197 3.29004 17.702 3.41291C17.7843 3.53578 17.9077 3.65864 18.0312 3.78151C18.4838 3.61769 18.813 3.45386 19.0188 3.24909C19.2245 3.04431 19.348 2.79857 19.348 2.47093C19.348 2.14328 19.2657 1.93851 19.0599 1.77468H19.1011Z" fill="white"/>
<path d="M31.1581 1.07837C31.4461 1.16029 31.6519 1.28315 31.8576 1.40602C32.0634 1.56984 32.1868 1.73366 32.3103 1.93844C32.4337 2.14322 32.4749 2.38895 32.4749 2.63469C32.4749 2.88042 32.4749 3.04424 32.3926 3.24902C32.3103 3.41284 32.228 3.57666 32.1457 3.69953C32.0222 3.8224 31.9399 3.94527 31.8165 4.02718C31.693 4.10909 31.5696 4.191 31.405 4.23196C31.6107 4.27291 31.8165 4.35482 31.9811 4.47769C32.1457 4.60056 32.3103 4.68247 32.4337 4.80534C32.5572 4.9282 32.6806 5.09202 32.7629 5.2968C32.8452 5.46062 32.8864 5.70636 32.8864 5.91114C32.8864 6.11591 32.8452 6.48452 32.7218 6.68929C32.5983 6.89407 32.4337 7.13981 32.228 7.30363C32.0222 7.46745 31.7342 7.59032 31.4461 7.67223C31.1169 7.75414 30.7877 7.79509 30.4174 7.79509H27.3311V0.914551H30.2528C30.582 0.914551 30.9112 0.955505 31.1992 1.03742L31.1581 1.07837ZM31.2404 3.74049C31.5284 3.53571 31.693 3.20807 31.693 2.79851C31.693 2.38895 31.5696 2.18417 31.2815 1.9794C31.0346 1.77462 30.6231 1.69271 30.1293 1.69271H28.0306V4.06813H30.0882C30.5408 4.06813 30.9523 3.94527 31.2404 3.74049ZM31.6107 6.85312C31.8988 6.64834 32.0634 6.32069 32.0634 5.95209C32.0634 5.58349 31.8988 5.25585 31.6107 5.05107C31.2815 4.84629 30.8289 4.72342 30.2528 4.72342H28.0718V7.18076H30.3762C30.9112 7.18076 31.3227 7.0579 31.6107 6.85312Z" fill="white"/>
<path d="M35.0673 0.955566H35.8492V7.09891H39.7584V7.83611H35.0673V0.955566Z" fill="white"/>
<path d="M47.9062 5.74744C47.7416 6.157 47.4947 6.56655 47.1655 6.8942C46.8363 7.22184 46.4659 7.46758 46.0544 7.67236C45.6018 7.87713 45.1491 7.95904 44.6142 7.95904C44.0792 7.95904 43.6266 7.87713 43.1739 7.67236C42.7212 7.46758 42.392 7.22184 42.0628 6.8942C41.7336 6.56655 41.5279 6.19795 41.3633 5.74744C41.1987 5.29693 41.1164 4.84642 41.1164 4.39591C41.1164 3.94539 41.1987 3.45392 41.3633 3.04437C41.5279 2.63481 41.7748 2.22526 42.104 1.89761C42.4332 1.56997 42.8035 1.32423 43.215 1.11945C43.6677 0.914677 44.1204 0.832764 44.6553 0.832764C45.1903 0.832764 45.6429 0.914677 46.0956 1.11945C46.5071 1.32423 46.8774 1.56997 47.2066 1.89761C47.5358 2.22526 47.7416 2.59386 47.9062 3.04437C48.0708 3.45392 48.1531 3.94539 48.1531 4.39591C48.1531 4.84642 48.0708 5.33788 47.9062 5.74744ZM47.1655 3.2901C47.042 2.96246 46.8363 2.63481 46.5894 2.38908C46.3425 2.14335 46.0544 1.93857 45.7252 1.77474C45.396 1.61092 45.0257 1.52901 44.6142 1.52901C44.2027 1.52901 43.8735 1.61092 43.5031 1.73379C43.1739 1.89761 42.8858 2.10239 42.6389 2.34812C42.392 2.59386 42.2274 2.9215 42.0628 3.24915C41.8982 3.57679 41.8571 3.94539 41.8571 4.35495C41.8571 4.76451 41.9394 5.13311 42.0628 5.46075C42.1863 5.7884 42.392 6.11604 42.6389 6.36177C42.8858 6.60751 43.1739 6.81229 43.5031 6.97611C43.8323 7.13993 44.2027 7.22184 44.6142 7.22184C45.0257 7.22184 45.3549 7.13993 45.7252 7.01707C46.0956 6.8942 46.3425 6.64847 46.5894 6.40273C46.8363 6.157 47.0009 5.82935 47.1655 5.50171C47.2889 5.17406 47.3712 4.80546 47.3712 4.39591C47.3712 3.98635 47.2889 3.61775 47.1655 3.2901Z" fill="white"/>
<path d="M55.807 7.2628C55.6012 7.42662 55.3955 7.54949 55.1897 7.6314C54.984 7.75427 54.7371 7.83618 54.449 7.87713C54.2021 7.91809 53.9141 7.95904 53.5849 7.95904C53.0911 7.95904 52.6384 7.87713 52.1858 7.67236C51.7743 7.50853 51.4039 7.22184 51.0747 6.93515C50.7455 6.60751 50.5398 6.23891 50.334 5.82935C50.1694 5.37884 50.0871 4.92833 50.0871 4.43686C50.0871 3.94539 50.1694 3.49488 50.334 3.04437C50.4986 2.59386 50.7455 2.22526 51.0747 1.89761C51.4039 1.56997 51.7331 1.32423 52.1858 1.11945C52.5973 0.914677 53.0911 0.832764 53.5849 0.832764C54.0787 0.832764 54.2021 0.832766 54.449 0.914677C54.6959 0.955632 54.9428 1.03754 55.1486 1.11945C55.3543 1.20137 55.5601 1.32423 55.7658 1.4471C55.9304 1.56997 56.1362 1.73379 56.3008 1.89761L55.7658 2.47099C55.4778 2.1843 55.1486 1.97952 54.8194 1.77474C54.4902 1.61092 54.0787 1.52901 53.5849 1.52901C53.0911 1.52901 52.8442 1.61092 52.515 1.73379C52.1858 1.89761 51.8977 2.06143 51.6508 2.34812C51.4039 2.59386 51.2393 2.9215 51.0747 3.24915C50.9101 3.57679 50.869 3.94539 50.869 4.35495C50.869 4.76451 50.9513 5.13311 51.0747 5.46075C51.1982 5.7884 51.4039 6.11604 51.6508 6.36177C51.8977 6.60751 52.1858 6.81229 52.515 6.97611C52.8442 7.13993 53.2145 7.18089 53.5849 7.18089C53.9552 7.18089 54.449 7.09898 54.8194 6.93515C55.1486 6.77133 55.4778 6.5256 55.807 6.19795L56.3008 6.68942C56.1362 6.85324 55.9304 7.05802 55.7247 7.18089L55.807 7.2628Z" fill="white"/>
<path d="M64.2839 7.83611H63.2963L60.6216 4.5187L59.1402 5.99311V7.83611H58.3583V0.955566H59.1402V5.05113L63.0906 0.955566H64.0782L61.1154 3.94533L64.2016 7.83611H64.2839Z" fill="white"/>
<path d="M70.9914 7.2628C70.7856 7.42662 70.5799 7.54949 70.3741 7.6314C70.1684 7.75427 69.9215 7.83618 69.6334 7.87713C69.3865 7.91809 69.0985 7.95904 68.7693 7.95904C68.2755 7.95904 67.8228 7.87713 67.3702 7.67236C66.9587 7.50853 66.5883 7.22184 66.2591 6.93515C65.9299 6.60751 65.7242 6.23891 65.5184 5.82935C65.3538 5.37884 65.2715 4.92833 65.2715 4.43686C65.2715 3.94539 65.3538 3.49488 65.5184 3.04437C65.683 2.59386 65.9299 2.22526 66.2591 1.89761C66.5883 1.56997 66.9175 1.32423 67.3702 1.11945C67.7817 0.914677 68.2755 0.832764 68.7693 0.832764C69.2631 0.832764 69.3865 0.832766 69.6334 0.914677C69.8803 0.955632 70.1272 1.03754 70.333 1.11945C70.5387 1.20137 70.7445 1.32423 70.9502 1.4471C71.1148 1.56997 71.3206 1.73379 71.4852 1.89761L70.9502 2.47099C70.6622 2.1843 70.333 1.97952 70.0038 1.77474C69.6746 1.61092 69.2631 1.52901 68.7693 1.52901C68.2755 1.52901 68.0286 1.61092 67.6994 1.73379C67.3702 1.89761 67.0821 2.06143 66.8352 2.34812C66.5883 2.59386 66.4237 2.9215 66.2591 3.24915C66.0945 3.57679 66.0534 3.94539 66.0534 4.35495C66.0534 4.76451 66.1357 5.13311 66.2591 5.46075C66.3826 5.7884 66.5883 6.11604 66.8352 6.36177C67.0821 6.60751 67.3702 6.81229 67.6994 6.97611C68.0286 7.13993 68.3989 7.18089 68.7693 7.18089C69.1396 7.18089 69.6334 7.09898 70.0038 6.93515C70.333 6.77133 70.6622 6.5256 70.9914 6.19795L71.4852 6.68942C71.3206 6.85324 71.1148 7.05802 70.9091 7.18089L70.9914 7.2628Z" fill="white"/>
<path d="M74.3246 4.7645V7.87713H73.5427V0.996582H74.3246V4.06825H78.3161V0.996582H79.098V7.87713H78.3161V4.7645H74.3246Z" fill="white"/>
<path d="M88.151 7.83605H87.328L86.505 6.034H82.7603L81.9373 7.83605H81.1555L84.324 0.914551H85.0647L88.2333 7.83605H88.151ZM84.6121 1.81557L83.0484 5.33776H86.2169L84.6532 1.81557H84.6121Z" fill="white"/>
<path d="M90.9904 0.955566V7.83611H90.2085V0.955566H90.9904Z" fill="white"/>
<path d="M98.7266 0.955566H99.4673V7.83611H98.85L94.4058 2.18424V7.83611H93.6651V0.955566H94.4058L98.7677 6.48458V0.955566H98.7266Z" fill="white"/>
<path d="M111.072 7.2628C110.866 7.42662 110.66 7.54949 110.454 7.6314C110.249 7.75427 110.002 7.83618 109.714 7.87713C109.467 7.91809 109.179 7.95904 108.85 7.95904C108.356 7.95904 107.903 7.87713 107.45 7.67236C107.039 7.50853 106.669 7.22184 106.339 6.93515C106.01 6.60751 105.804 6.23891 105.599 5.82935C105.434 5.37884 105.352 4.92833 105.352 4.43686C105.352 3.94539 105.434 3.49488 105.599 3.04437C105.763 2.59386 106.01 2.22526 106.339 1.89761C106.669 1.56997 106.998 1.32423 107.45 1.11945C107.862 0.914677 108.356 0.832764 108.85 0.832764C109.343 0.832764 109.467 0.832766 109.714 0.914677C109.961 0.955632 110.207 1.03754 110.413 1.11945C110.619 1.20137 110.825 1.32423 111.03 1.4471C111.195 1.56997 111.401 1.73379 111.565 1.89761L111.03 2.47099C110.742 2.1843 110.413 1.97952 110.084 1.77474C109.755 1.61092 109.343 1.52901 108.85 1.52901C108.356 1.52901 108.109 1.61092 107.78 1.73379C107.45 1.89761 107.162 2.06143 106.915 2.34812C106.669 2.59386 106.504 2.9215 106.339 3.24915C106.175 3.57679 106.134 3.94539 106.134 4.35495C106.134 4.76451 106.216 5.13311 106.339 5.46075C106.463 5.7884 106.669 6.11604 106.915 6.36177C107.162 6.60751 107.45 6.81229 107.78 6.97611C108.109 7.13993 108.479 7.18089 108.85 7.18089C109.22 7.18089 109.714 7.09898 110.084 6.93515C110.413 6.77133 110.742 6.5256 111.072 6.19795L111.565 6.68942C111.401 6.85324 111.195 7.05802 110.989 7.18089L111.072 7.2628Z" fill="white"/>
<path d="M118.643 1.69277H114.446V4.02724H118.232V4.72348H114.446V7.13987H118.726V7.83611H113.664V0.955566H118.643V1.65181V1.69277Z" fill="white"/>
<path d="M125.639 7.83611L123.622 5.174H121.647V7.83611H120.865V0.955566H123.828C124.199 0.955566 124.569 0.996523 124.857 1.11939C125.145 1.2013 125.433 1.36512 125.639 1.52895C125.845 1.69277 126.009 1.9385 126.133 2.18424C126.256 2.42997 126.297 2.71666 126.297 3.0443C126.297 3.37195 126.256 3.57673 126.174 3.82246C126.091 4.06819 125.968 4.23202 125.803 4.39584C125.639 4.55966 125.433 4.68253 125.186 4.8054C124.939 4.92826 124.692 5.01017 124.445 5.05113L126.585 7.87707H125.639V7.83611ZM125.104 2.06137C124.775 1.81563 124.363 1.69277 123.787 1.69277H121.647V4.47775H123.787C124.034 4.47775 124.281 4.47775 124.487 4.39584C124.692 4.31393 124.898 4.23202 125.063 4.10915C125.227 3.98628 125.351 3.82246 125.433 3.65864C125.515 3.49482 125.556 3.29004 125.556 3.0443C125.556 2.59379 125.392 2.26615 125.104 2.02041V2.06137Z" fill="white"/>
<path d="M131.235 7.83611H130.453V1.69277H128.149V0.955566H133.581V1.69277H131.276V7.83611H131.235Z" fill="white"/>
<path d="M136.502 0.955566V7.83611H135.721V0.955566H136.502Z" fill="white"/>
<path d="M144.156 1.69277H139.959V4.15011H143.704V4.84635H139.959V7.83611H139.177V0.955566H144.156V1.69277Z" fill="white"/>
<path d="M147.119 0.955566V7.83611H146.337V0.955566H147.119Z" fill="white"/>
<path d="M155.185 7.2628C154.979 7.42662 154.773 7.54949 154.567 7.6314C154.362 7.75427 154.115 7.83618 153.827 7.87713C153.58 7.91809 153.292 7.95904 152.962 7.95904C152.469 7.95904 152.016 7.87713 151.563 7.67236C151.152 7.50853 150.782 7.22184 150.452 6.93515C150.123 6.60751 149.917 6.23891 149.712 5.82935C149.547 5.37884 149.465 4.92833 149.465 4.43686C149.465 3.94539 149.547 3.49488 149.712 3.04437C149.876 2.59386 150.123 2.22526 150.452 1.89761C150.782 1.56997 151.111 1.32423 151.563 1.11945C151.975 0.914677 152.469 0.832764 152.962 0.832764C153.456 0.832764 153.58 0.832766 153.827 0.914677C154.074 0.955632 154.32 1.03754 154.526 1.11945C154.732 1.20137 154.938 1.32423 155.143 1.4471C155.308 1.56997 155.514 1.73379 155.678 1.89761L155.143 2.47099C154.855 2.1843 154.526 1.97952 154.197 1.77474C153.868 1.61092 153.456 1.52901 152.962 1.52901C152.469 1.52901 152.222 1.61092 151.893 1.73379C151.563 1.89761 151.275 2.06143 151.028 2.34812C150.782 2.59386 150.617 2.9215 150.452 3.24915C150.288 3.57679 150.247 3.94539 150.247 4.35495C150.247 4.76451 150.329 5.13311 150.452 5.46075C150.576 5.7884 150.782 6.11604 151.028 6.36177C151.275 6.60751 151.563 6.81229 151.893 6.97611C152.222 7.13993 152.592 7.18089 152.962 7.18089C153.333 7.18089 153.827 7.09898 154.197 6.93515C154.526 6.77133 154.855 6.5256 155.185 6.19795L155.678 6.68942C155.514 6.85324 155.308 7.05802 155.102 7.18089L155.185 7.2628Z" fill="white"/>
<path d="M164.155 7.83605H163.332L162.509 6.034H158.765L157.942 7.83605H157.16L160.328 0.914551H161.069L164.238 7.83605H164.155ZM160.658 1.81557L159.094 5.33776H162.262L160.699 1.81557H160.658Z" fill="white"/>
<path d="M167.9 7.83611H167.118V1.69277H164.814V0.955566H170.246V1.69277H167.941V7.83611H167.9Z" fill="white"/>
<path d="M173.167 0.955566V7.83611H172.385V0.955566H173.167Z" fill="white"/>
<path d="M182.344 5.74744C182.179 6.157 181.932 6.56655 181.603 6.8942C181.274 7.22184 180.903 7.46758 180.492 7.67236C180.039 7.87713 179.587 7.95904 179.052 7.95904C178.517 7.95904 178.064 7.87713 177.611 7.67236C177.159 7.46758 176.83 7.22184 176.5 6.8942C176.171 6.56655 175.965 6.19795 175.801 5.74744C175.636 5.29693 175.554 4.84642 175.554 4.39591C175.554 3.94539 175.636 3.45392 175.801 3.04437C175.965 2.63481 176.212 2.22526 176.541 1.89761C176.871 1.56997 177.241 1.32423 177.653 1.11945C178.105 0.914677 178.558 0.832764 179.093 0.832764C179.628 0.832764 180.08 0.914677 180.533 1.11945C180.945 1.32423 181.315 1.56997 181.644 1.89761C181.973 2.22526 182.179 2.59386 182.344 3.04437C182.508 3.45392 182.591 3.94539 182.591 4.39591C182.591 4.84642 182.508 5.33788 182.344 5.74744ZM181.562 3.2901C181.438 2.96246 181.233 2.63481 180.986 2.38908C180.739 2.14335 180.451 1.93857 180.122 1.77474C179.792 1.61092 179.422 1.52901 179.011 1.52901C178.599 1.52901 178.27 1.61092 177.899 1.73379C177.57 1.89761 177.282 2.10239 177.035 2.34812C176.788 2.59386 176.624 2.9215 176.459 3.24915C176.295 3.57679 176.253 3.94539 176.253 4.35495C176.253 4.76451 176.336 5.13311 176.459 5.46075C176.583 5.7884 176.788 6.11604 177.035 6.36177C177.282 6.60751 177.57 6.81229 177.899 6.97611C178.229 7.13993 178.599 7.22184 179.011 7.22184C179.422 7.22184 179.751 7.13993 180.122 7.01707C180.492 6.8942 180.739 6.64847 180.986 6.40273C181.233 6.157 181.397 5.82935 181.562 5.50171C181.685 5.17406 181.768 4.80546 181.768 4.39591C181.768 3.98635 181.685 3.61775 181.562 3.2901Z" fill="white"/>
<path d="M189.956 0.955566H190.697V7.83611H190.08L185.636 2.18424V7.83611H184.895V0.955566H185.636L189.998 6.48458V0.955566H189.956Z" fill="white"/>
<path d="M193.989 3.12628C194.03 3.24915 194.154 3.37201 194.277 3.49488C194.401 3.61775 194.606 3.69966 194.853 3.78157C195.1 3.86348 195.429 3.94539 195.8 4.0273C196.582 4.19113 197.158 4.43686 197.487 4.72355C197.857 5.01024 198.022 5.46075 198.022 5.99318C198.022 6.5256 197.981 6.56655 197.857 6.81229C197.734 7.05802 197.569 7.2628 197.363 7.42662C197.158 7.59045 196.911 7.71331 196.623 7.83618C196.335 7.91809 196.006 7.95904 195.676 7.95904C195.141 7.95904 194.606 7.87713 194.154 7.67236C193.701 7.46758 193.248 7.22184 192.837 6.85324L193.331 6.27986C193.701 6.60751 194.071 6.85324 194.442 7.01707C194.812 7.18089 195.224 7.2628 195.717 7.2628C196.211 7.2628 196.54 7.13993 196.829 6.93515C197.117 6.73038 197.24 6.44369 197.24 6.07509C197.24 5.70649 197.24 5.74744 197.158 5.62457C197.117 5.50171 196.993 5.37884 196.87 5.25597C196.746 5.13311 196.54 5.0512 196.335 4.96929C196.129 4.88737 195.8 4.80546 195.429 4.72355C195.018 4.64164 194.689 4.55973 194.401 4.43686C194.113 4.31399 193.866 4.19113 193.66 4.0273C193.454 3.86348 193.331 3.69966 193.248 3.49488C193.166 3.2901 193.125 3.04437 193.125 2.75768C193.125 2.47099 193.166 2.22526 193.29 1.97952C193.413 1.73379 193.578 1.56997 193.783 1.36519C193.989 1.20137 194.236 1.0785 194.524 0.955632C194.812 0.832765 195.1 0.832764 195.429 0.832764C195.923 0.832764 196.376 0.914675 196.746 1.03754C197.117 1.16041 197.487 1.36519 197.857 1.65188L197.405 2.26621C197.075 2.02048 196.746 1.8157 196.417 1.69283C196.088 1.56997 195.759 1.52901 195.388 1.52901C195.018 1.52901 194.977 1.52901 194.771 1.61092C194.606 1.65188 194.442 1.73379 194.318 1.85665C194.195 1.93857 194.071 2.06143 194.03 2.22526C193.989 2.38908 193.907 2.51194 193.907 2.67577C193.907 2.83959 193.907 3.00341 193.989 3.12628Z" fill="white"/>
<path d="M200.203 7.83611V6.81222H201.108V7.83611H200.203ZM201.108 0.955566V1.52895L200.861 5.9112H200.45L200.203 1.52895V0.955566H201.108Z" fill="white"/>
</svg>
