<svg width="45" height="11" viewBox="0 0 45 11" fill="none" xmlns="http://www.w3.org/2000/svg">
<path d="M0.478516 7.91305V1.05591H1.22386V7.91305H0.478516ZM0.92572 7.91305V7.2174H2.9133C3.45988 7.2174 3.90709 7.11802 4.35429 6.86958C4.75181 6.62113 5.09963 6.32299 5.29839 5.87579C5.49715 5.42858 5.64622 4.98137 5.64622 4.43479C5.64622 3.8882 5.54684 3.441 5.29839 3.04348C5.04994 2.64597 4.75181 2.29814 4.35429 2.09939C3.95678 1.85094 3.45988 1.75156 2.96299 1.75156H0.97541V1.05591H2.96299C3.45988 1.05591 3.90709 1.15529 4.35429 1.30436C4.8015 1.45342 5.14932 1.70187 5.44746 2.00001C5.74559 2.29815 5.99404 2.64597 6.1928 3.09317C6.34187 3.49069 6.44125 3.98759 6.44125 4.48448C6.44125 4.98137 6.34187 5.42858 6.1928 5.82609C6.04373 6.22361 5.79528 6.62112 5.44746 6.91926C5.14932 7.2174 4.75181 7.46585 4.35429 7.61492C3.95678 7.76399 3.45988 7.86336 2.96299 7.86336H0.92572V7.91305Z" fill="black"/>
<path d="M7.63379 7.91312V3.24232H8.32944V7.91312H7.63379ZM8.32944 5.1802L8.0313 5.08083C8.0313 4.48455 8.18037 4.03735 8.47851 3.68952C8.77665 3.3417 9.17416 3.19263 9.67106 3.19263C10.1679 3.19263 10.1183 3.19263 10.317 3.292C10.5158 3.39138 10.6648 3.49076 10.8636 3.68952L10.4164 4.18642C10.317 4.08704 10.168 3.98766 10.0686 3.93797C9.9195 3.88828 9.77043 3.83859 9.62137 3.83859C9.27354 3.83859 8.9754 3.93797 8.72696 4.18642C8.47851 4.43486 8.37913 4.78269 8.37913 5.2299L8.32944 5.1802Z" fill="black"/>
<path d="M13.4472 8.01252C13 8.01252 12.6025 7.91315 12.2547 7.6647C11.9068 7.46594 11.6087 7.1678 11.41 6.77029C11.2112 6.42246 11.1118 5.97526 11.1118 5.52805C11.1118 5.08085 11.2112 4.63364 11.41 4.28582C11.6087 3.93799 11.9068 3.63986 12.2547 3.39141C12.6025 3.14296 13 3.04358 13.4472 3.04358C13.8944 3.04358 14.1429 3.09327 14.3913 3.24234C14.6895 3.39141 14.8882 3.59017 15.087 3.83861C15.2857 4.08706 15.3851 4.3852 15.3851 4.73302V6.17402C15.3851 6.52184 15.236 6.81998 15.0373 7.06843C14.8385 7.31687 14.6398 7.51563 14.3416 7.6647C14.0435 7.81377 13.7454 7.86346 13.3975 7.86346L13.4472 8.01252ZM13.5466 7.36657C14.0435 7.36657 14.441 7.2175 14.7391 6.86967C15.0373 6.52185 15.1864 6.12433 15.1864 5.57774C15.1864 5.03116 15.1367 4.93178 14.9876 4.63365C14.8385 4.33551 14.6895 4.13675 14.441 4.03737C14.1926 3.8883 13.8944 3.78892 13.5963 3.78892C13.2982 3.78892 13 3.8883 12.7019 4.03737C12.4534 4.18644 12.2547 4.3852 12.1056 4.68333C11.9565 4.98147 11.8572 5.22992 11.8572 5.57774C11.8572 5.92557 11.9565 6.22371 12.1056 6.47216C12.2547 6.7206 12.4534 6.96905 12.7019 7.11812C12.9503 7.26719 13.2485 7.36657 13.5963 7.36657H13.5466ZM15.1367 7.91315V6.67091L15.2857 5.52805L15.1367 4.3852V3.24234H15.8323V7.91315H15.1367Z" fill="black"/>
<path d="M16.6772 3.88825V3.24228H20.1058V3.88825H16.6772ZM17.8698 7.91309V2.44725C17.8698 2.09942 17.9195 1.80129 18.0685 1.55284C18.2176 1.3044 18.4164 1.10564 18.6648 0.956567C18.9133 0.807499 19.2114 0.757813 19.5592 0.757813C19.9071 0.757813 20.0561 0.75781 20.2052 0.906879C20.3543 1.05595 20.553 1.10564 20.7518 1.3044L20.3046 1.7516C20.2052 1.65222 20.1058 1.55284 20.0064 1.50315C19.9071 1.45346 19.758 1.40377 19.6089 1.40377C19.3108 1.40377 19.0623 1.50315 18.9133 1.70191C18.7642 1.90067 18.6648 2.14911 18.6648 2.44725V7.91309H17.9692H17.8698Z" fill="black"/>
<path d="M20.6523 3.8883V3.24234H23.6834V3.8883H20.6523ZM21.8449 7.91314V1.25476H22.5405V7.91314H21.8449Z" fill="black"/>
<path d="M25.0252 2.24855C24.8761 2.24855 24.7768 2.24855 24.6774 2.09948C24.578 2.0001 24.5283 1.90072 24.5283 1.75166C24.5283 1.60259 24.5283 1.50321 24.6774 1.40383C24.7768 1.30445 24.8761 1.25476 25.0252 1.25476C25.1743 1.25476 25.2737 1.25476 25.373 1.40383C25.4724 1.50321 25.5221 1.60259 25.5221 1.75166C25.5221 1.90072 25.5221 2.0001 25.373 2.09948C25.2737 2.19886 25.1743 2.24855 25.0252 2.24855ZM24.6774 7.91314V3.24234H25.373V7.91314H24.6774Z" fill="black"/>
<path d="M26.7642 7.91314V3.24233H27.4598V7.91314H26.7642ZM30.1927 7.91314V5.18022C30.1927 4.7827 30.0934 4.43488 29.8449 4.18643C29.5965 3.93798 29.2983 3.78891 28.9008 3.78891C28.5033 3.78891 28.4039 3.8386 28.2052 3.93798C28.0064 4.03736 27.8573 4.23612 27.7083 4.43488C27.6089 4.63363 27.5095 4.88208 27.5095 5.13053L27.2114 4.93177C27.2114 4.58394 27.3107 4.28581 27.4598 3.98767C27.6089 3.68954 27.8573 3.49078 28.1555 3.34171C28.4536 3.19264 28.7517 3.09326 29.0996 3.09326C29.4474 3.09326 29.7952 3.19264 30.0437 3.34171C30.3418 3.49078 30.5406 3.73922 30.6896 4.03736C30.8387 4.33549 30.9381 4.63364 30.9381 4.98146V7.86345H30.2424L30.1927 7.91314Z" fill="black"/>
<path d="M34.168 7.86344C33.7208 7.86344 33.3233 7.76406 32.9755 7.5653C32.6277 7.36654 32.3792 7.06841 32.1805 6.72058C31.9817 6.37275 31.8823 5.97523 31.8823 5.52803C31.8823 5.08082 31.9817 4.68331 32.1805 4.33549C32.3792 3.98766 32.6277 3.68952 32.9755 3.49077C33.3233 3.29201 33.7208 3.19263 34.1183 3.19263C34.5159 3.19263 34.814 3.24232 35.1121 3.39139C35.4103 3.54046 35.609 3.73921 35.8078 3.98766C36.0065 4.23611 36.1059 4.53425 36.1059 4.88207V6.22369C36.1059 6.57151 35.9569 6.86965 35.7581 7.1181C35.5593 7.36654 35.3606 7.5653 35.0624 7.71437C34.7643 7.86344 34.4662 7.91312 34.1183 7.91312L34.168 7.86344ZM34.1183 10.0001C33.6711 10.0001 33.2239 9.9007 32.8761 9.75163C32.5283 9.55287 32.2301 9.35412 31.9817 9.00629L32.4289 8.55909C32.6277 8.80754 32.8264 9.00629 33.1246 9.15536C33.4227 9.30443 33.7208 9.35412 34.1183 9.35412C34.6649 9.35412 35.0624 9.20505 35.4103 8.90691C35.7084 8.60878 35.8575 8.21126 35.8575 7.76405V6.6212L36.0065 5.57772L35.8575 4.53424V3.3417H36.5531V7.81375C36.5531 8.26095 36.4538 8.65846 36.255 9.00629C36.0562 9.35412 35.7581 9.60257 35.4103 9.80132C35.0624 10.0001 34.6152 10.0995 34.1183 10.0995V10.0001ZM34.3171 7.21747C34.6152 7.21747 34.9134 7.16778 35.1618 7.01871C35.4103 6.86964 35.609 6.67089 35.7084 6.42244C35.8078 6.17399 35.9072 5.87586 35.9072 5.52803C35.9072 5.1802 35.8575 4.88207 35.7084 4.63363C35.5593 4.38518 35.3606 4.18641 35.1618 4.03735C34.9134 3.88828 34.6152 3.83859 34.3171 3.83859C34.019 3.83859 33.7208 3.88828 33.4227 4.03735C33.1742 4.18641 32.9755 4.38518 32.8264 4.63363C32.6774 4.88207 32.6277 5.1802 32.6277 5.52803C32.6277 5.87586 32.6774 6.17399 32.8264 6.42244C32.9755 6.67089 33.1742 6.86964 33.4227 7.01871C33.6711 7.16778 33.9693 7.21747 34.3171 7.21747Z" fill="black"/>
<path d="M37.3979 1.35408V0.807495H40.3793V1.35408H37.3979ZM38.5905 4.43482V0.906872H39.1868V4.43482H38.5905Z" fill="black"/>
<path d="M40.876 4.43482V0.807495H41.2735L42.8139 3.29196H42.5654L44.1058 0.807495H44.5033V4.43482H43.907V1.85097H44.0561L42.9132 3.73917H42.5157L41.3729 1.90067H41.5219V4.48451H40.9257L40.876 4.43482Z" fill="black"/>
</svg>
