<svg width="43" height="11" viewBox="0 0 43 11" fill="none" xmlns="http://www.w3.org/2000/svg">
<path d="M3.55894 8.01243C3.06205 8.01243 2.61484 7.91305 2.21733 7.76398C1.81981 7.56522 1.4223 7.31677 1.12416 7.01864C0.826023 6.7205 0.577576 6.32299 0.378818 5.92547C0.180061 5.47827 0.130371 5.03106 0.130371 4.53417C0.130371 4.03727 0.22975 3.59007 0.378818 3.14287C0.527887 2.69566 0.776334 2.34783 1.12416 2.04969C1.4223 1.75156 1.81981 1.45342 2.21733 1.30436C2.61484 1.1056 3.11174 1.05591 3.60863 1.05591C4.10553 1.05591 4.65211 1.15529 5.149 1.40373C5.59621 1.60249 5.99372 1.95032 6.29186 2.34783L5.79497 2.84473C5.54652 2.4969 5.24838 2.24845 4.90056 2.04969C4.50304 1.85094 4.10553 1.80125 3.65832 1.80125C3.21112 1.80125 2.66453 1.90063 2.26702 2.14908C1.8695 2.39753 1.52168 2.74535 1.32292 3.14287C1.07447 3.59007 0.975092 4.03727 0.975092 4.58386C0.975092 5.13044 1.07447 5.62733 1.32292 6.02485C1.57136 6.42236 1.8695 6.77019 2.26702 7.01864C2.66453 7.26708 3.11174 7.36647 3.65832 7.36647C4.20491 7.36647 4.60242 7.26709 4.99994 7.06833C5.34776 6.86957 5.6459 6.57143 5.84466 6.17392C6.04342 5.7764 6.14279 5.3292 6.14279 4.78261L6.54031 5.08075H3.55894V4.43479H6.88814V4.53417C6.88814 5.27951 6.73907 5.97516 6.49062 6.47206C6.19248 7.01864 5.84466 7.41615 5.34776 7.6646C4.85087 7.91305 4.30428 8.06212 3.65832 8.06212L3.55894 8.01243Z" fill="black"/>
<path d="M10.0185 8.01251C9.5713 8.01251 9.17379 7.91314 8.82596 7.66469C8.47814 7.46593 8.18 7.16779 7.98124 6.77028C7.78249 6.37276 7.68311 5.97525 7.68311 5.52804C7.68311 5.08084 7.78249 4.63363 7.98124 4.28581C8.18 3.93798 8.47814 3.63985 8.82596 3.3914C9.17379 3.19264 9.5713 3.09326 10.0185 3.09326C10.4657 3.09326 10.7142 3.14295 10.9626 3.29202C11.2607 3.44108 11.4595 3.63985 11.6583 3.8883C11.857 4.13674 11.9564 4.43487 11.9564 4.7827V6.2237C11.9564 6.57152 11.8073 6.86966 11.6086 7.11811C11.4098 7.36656 11.2111 7.56531 10.9129 7.71438C10.6148 7.86345 10.3166 7.91314 9.96882 7.91314L10.0185 8.01251ZM10.1179 7.36656C10.6148 7.36656 11.0123 7.21749 11.3104 6.86966C11.6086 6.52184 11.7576 6.12432 11.7576 5.57773C11.7576 5.03115 11.708 4.93177 11.5589 4.63364C11.4098 4.3355 11.2607 4.13674 11.0123 4.03736C10.7639 3.88829 10.4657 3.78891 10.1676 3.78891C9.86944 3.78891 9.5713 3.88829 9.27317 4.03736C9.02472 4.18643 8.82596 4.38519 8.67689 4.68332C8.52783 4.98146 8.42845 5.22991 8.42845 5.57773C8.42845 5.92556 8.52783 6.2237 8.67689 6.47215C8.82596 6.72059 9.02472 6.96904 9.27317 7.11811C9.52162 7.26718 9.81975 7.36656 10.1676 7.36656H10.1179ZM11.708 7.91314V6.6709L11.857 5.52804L11.708 4.38519V3.24233H12.4036V7.91314H11.708Z" fill="black"/>
<path d="M13.7949 7.91313V3.24232H14.4906V7.91313H13.7949ZM17.0247 7.91313V5.03114C17.0247 4.63362 16.9254 4.33549 16.6769 4.13673C16.4285 3.93798 16.1303 3.7889 15.7825 3.7889C15.4347 3.7889 15.3353 3.83859 15.1365 3.93797C14.9378 4.03735 14.7887 4.18642 14.6893 4.38518C14.59 4.58394 14.5403 4.78269 14.5403 5.03114L14.2421 4.88207C14.2421 4.53425 14.3415 4.23611 14.4906 3.93797C14.6396 3.63983 14.8881 3.49077 15.1365 3.3417C15.385 3.19263 15.6831 3.14294 16.0309 3.14294C16.3788 3.14294 16.6769 3.19263 16.9254 3.3417C17.1738 3.49077 17.3726 3.68952 17.5713 3.93797C17.7701 4.18642 17.8198 4.53425 17.8198 4.88207V7.86344H17.1241L17.0247 7.91313ZM20.2545 7.91313V5.03114C20.2545 4.63362 20.1552 4.33549 19.9067 4.13673C19.6583 3.93798 19.3601 3.7889 19.0123 3.7889C18.6645 3.7889 18.5651 3.83859 18.3663 3.93797C18.1676 4.03735 18.0185 4.18642 17.9191 4.38518C17.8198 4.58394 17.7204 4.78269 17.7204 5.03114L17.3229 4.88207C17.3229 4.53425 17.4222 4.23611 17.621 3.93797C17.8198 3.63983 18.0185 3.49077 18.267 3.3417C18.5651 3.19263 18.8632 3.14294 19.1614 3.14294C19.4595 3.14294 19.8073 3.19263 20.0558 3.3417C20.3042 3.49077 20.5527 3.68952 20.7018 3.93797C20.8508 4.18642 20.9502 4.53425 20.9502 4.88207V7.86344H20.2545V7.91313Z" fill="black"/>
<path d="M22.5902 2.24855C22.4411 2.24855 22.3417 2.24855 22.2423 2.09948C22.143 2.0001 22.0933 1.90072 22.0933 1.75166C22.0933 1.60259 22.0933 1.50321 22.2423 1.40383C22.3417 1.30445 22.4411 1.25476 22.5902 1.25476C22.7392 1.25476 22.8386 1.25476 22.938 1.40383C23.0374 1.5529 23.0871 1.60259 23.0871 1.75166C23.0871 1.90072 23.0871 2.0001 22.938 2.09948C22.7889 2.19886 22.7392 2.24855 22.5902 2.24855ZM22.2423 7.91314V3.24234H22.938V7.91314H22.2423Z" fill="black"/>
<path d="M24.3291 7.91313V3.24232H25.0248V7.91313H24.3291ZM27.7577 7.91313V5.18021C27.7577 4.78269 27.6583 4.43487 27.4098 4.18642C27.1614 3.93797 26.8633 3.7889 26.4657 3.7889C26.0682 3.7889 25.9689 3.83859 25.7701 3.98766C25.5713 4.08704 25.4223 4.2858 25.2732 4.48456C25.1738 4.68332 25.0744 4.93176 25.0744 5.18021L24.7763 4.98145C24.7763 4.63363 24.8757 4.33548 25.0248 4.03735C25.1738 3.73921 25.4223 3.54046 25.7204 3.39139C26.0185 3.24232 26.3167 3.14294 26.6645 3.14294C27.0123 3.14294 27.3602 3.24232 27.6086 3.39139C27.9067 3.54046 28.1055 3.7889 28.2546 4.08704C28.4036 4.38518 28.503 4.68331 28.503 5.03114V7.91313H27.8074H27.7577Z" fill="black"/>
<path d="M31.733 7.86344C31.2858 7.86344 30.8883 7.76406 30.5404 7.5653C30.1926 7.36654 29.9442 7.06841 29.7454 6.72058C29.5466 6.37275 29.4473 5.97523 29.4473 5.52803C29.4473 5.08082 29.5466 4.68331 29.7454 4.33549C29.9442 3.98766 30.1926 3.68952 30.5404 3.49077C30.8883 3.29201 31.2858 3.19263 31.6833 3.19263C32.0808 3.19263 32.3789 3.24232 32.6771 3.39139C32.9752 3.54046 33.174 3.73921 33.3727 3.98766C33.5715 4.23611 33.6709 4.53425 33.6709 4.88207V6.22369C33.6709 6.57151 33.5218 6.86965 33.323 7.1181C33.1243 7.36654 32.9255 7.5653 32.6274 7.71437C32.3293 7.86344 32.0311 7.91312 31.6833 7.91312L31.733 7.86344ZM31.6833 10.0001C31.2361 10.0001 30.7889 9.9007 30.4411 9.75163C30.0932 9.55287 29.7951 9.35412 29.5466 9.00629L29.9938 8.55909C30.1926 8.80754 30.3914 9.00629 30.6895 9.15536C30.9876 9.30443 31.2858 9.35412 31.6833 9.35412C32.2299 9.35412 32.6274 9.20505 32.9752 8.90691C33.323 8.60878 33.4224 8.21126 33.4224 7.76405V6.6212L33.5715 5.57772L33.4224 4.53424V3.3417H34.1181V7.81375C34.1181 8.26095 34.0187 8.65846 33.8199 9.00629C33.6212 9.35412 33.323 9.60257 32.9752 9.80132C32.6274 10.0001 32.1802 10.0995 31.6833 10.0995V10.0001ZM31.882 7.21747C32.1802 7.21747 32.4783 7.16778 32.7268 7.01871C32.9752 6.86964 33.174 6.67089 33.2734 6.42244C33.3727 6.17399 33.4721 5.87586 33.4721 5.52803C33.4721 5.1802 33.4224 4.88207 33.2734 4.63363C33.1243 4.38518 32.9255 4.18641 32.7268 4.03735C32.4783 3.88828 32.1802 3.83859 31.882 3.83859C31.5839 3.83859 31.2858 3.88828 30.9876 4.03735C30.7392 4.18641 30.5404 4.38518 30.3914 4.63363C30.2423 4.88207 30.1926 5.1802 30.1926 5.52803C30.1926 5.87586 30.2423 6.17399 30.3914 6.42244C30.5404 6.67089 30.7392 6.86964 30.9876 7.01871C31.2361 7.16778 31.5342 7.21747 31.882 7.21747Z" fill="black"/>
<path d="M34.9629 1.35408V0.807495H37.9443V1.35408H34.9629ZM36.1554 4.43482V0.906872H36.7517V4.43482H36.1554Z" fill="black"/>
<path d="M38.4409 4.43482V0.807495H38.8384L40.3788 3.29196H40.1304L41.6707 0.807495H42.0682V4.43482H41.472V1.85097H41.621L40.4782 3.73917H40.0807L38.9378 1.90067H39.0869V4.48451H38.4906L38.4409 4.43482Z" fill="black"/>
</svg>
