<svg width="57" height="7" viewBox="0 0 57 7" fill="none" xmlns="http://www.w3.org/2000/svg">
<path d="M0.180176 4.91304V0.142863H0.67707V4.91304H0.180176ZM0.528002 2.97516V2.52795H1.91931C2.11806 2.52795 2.31682 2.52795 2.46589 2.42857C2.61496 2.32919 2.76403 2.22982 2.81372 2.08075C2.91309 1.93168 2.96278 1.78261 2.96278 1.53416C2.96278 1.28571 2.96278 1.13665 2.81372 0.987582C2.71434 0.838513 2.61496 0.739136 2.46589 0.639757C2.31682 0.540378 2.11806 0.540372 1.91931 0.540372H0.528002V0.0931702H1.969C2.26713 0.0931702 2.51558 0.142857 2.76403 0.291925C3.01247 0.391304 3.16154 0.590062 3.31061 0.788819C3.45968 0.987577 3.50937 1.23602 3.50937 1.53416C3.50937 1.8323 3.45968 2.08074 3.31061 2.2795C3.16154 2.47826 3.01247 2.67702 2.76403 2.7764C2.51558 2.87578 2.26713 2.97516 1.969 2.97516H0.528002Z" fill="black"/>
<path d="M4.3042 4.91305V1.63355H4.80109V4.91305H4.3042ZM4.80109 3.02485L4.60234 2.92548C4.60234 2.52796 4.70172 2.18013 4.90047 1.93169C5.09923 1.68324 5.39737 1.58386 5.74519 1.58386C6.09302 1.58386 6.04333 1.58386 6.1924 1.68324C6.34147 1.73293 6.44085 1.83231 6.58991 1.98138L6.24209 2.3292C6.1924 2.22983 6.09302 2.18014 5.99364 2.13045C5.89426 2.13045 5.79488 2.08076 5.64581 2.08076C5.39737 2.08076 5.19861 2.18014 5.04954 2.3292C4.90047 2.47827 4.80109 2.72672 4.80109 3.07455V3.02485Z" fill="black"/>
<path d="M8.4287 4.96276C8.13056 4.96276 7.83243 4.86338 7.58398 4.71431C7.33553 4.56524 7.13677 4.36648 6.98771 4.11804C6.83864 3.86959 6.73926 3.57145 6.73926 3.22363C6.73926 2.8758 6.83864 2.62735 6.98771 2.37891C7.13677 2.13046 7.33553 1.9317 7.58398 1.78263C7.83243 1.63356 8.13056 1.53418 8.4287 1.53418C8.72683 1.53418 9.02497 1.58387 9.27342 1.73294C9.52187 1.88201 9.72062 2.08077 9.86969 2.32921C10.0188 2.57766 10.1181 2.8758 10.1181 3.17393C10.1181 3.47207 10.0188 3.77021 9.86969 4.06834C9.72062 4.31679 9.52187 4.51555 9.27342 4.66462C9.02497 4.81368 8.72683 4.91306 8.4287 4.91306V4.96276ZM8.4287 4.46586C8.67714 4.46586 8.8759 4.41617 9.02497 4.31679C9.22373 4.21741 9.32311 4.06835 9.47218 3.86959C9.57156 3.67083 9.62124 3.47207 9.62124 3.22363C9.62124 2.97518 9.57156 2.77642 9.47218 2.57766C9.3728 2.3789 9.22373 2.22984 9.02497 2.13046C8.82621 2.03108 8.62746 1.98139 8.4287 1.98139C8.22994 1.98139 7.98149 2.03108 7.83243 2.13046C7.63367 2.22984 7.4846 2.3789 7.38522 2.57766C7.28584 2.77642 7.23615 2.97518 7.23615 3.22363C7.23615 3.47207 7.28584 3.67083 7.38522 3.86959C7.4846 4.06835 7.63367 4.21741 7.83243 4.31679C8.03118 4.41617 8.22994 4.46586 8.4287 4.46586Z" fill="black"/>
<path d="M10.9131 4.91306V1.63356H11.41V4.91306H10.9131ZM13.1491 4.91306V2.92549C13.1491 2.67704 13.0497 2.42859 12.9007 2.27952C12.7516 2.13045 12.5528 2.03107 12.3044 2.03107C12.0559 2.03107 12.0063 2.03108 11.8572 2.13046C11.7081 2.22984 11.6087 2.27952 11.5094 2.42859C11.41 2.57766 11.41 2.72673 11.41 2.8758L11.2112 2.77642C11.2112 2.52797 11.2609 2.32922 11.3603 2.13046C11.4597 1.9317 11.6087 1.78263 11.8075 1.68325C12.0063 1.58387 12.205 1.53418 12.4535 1.53418C12.7019 1.53418 12.9007 1.58387 13.0994 1.68325C13.2982 1.78263 13.4472 1.9317 13.5466 2.13046C13.646 2.32922 13.6957 2.52797 13.6957 2.77642V4.86338H13.1988L13.1491 4.91306ZM15.3851 4.91306V2.92549C15.3851 2.67704 15.2858 2.42859 15.1367 2.27952C14.9876 2.13045 14.7889 2.03107 14.5404 2.03107C14.292 2.03107 14.2423 2.03108 14.0932 2.13046C13.9441 2.22984 13.8448 2.27952 13.7454 2.42859C13.646 2.57766 13.646 2.72673 13.646 2.8758L13.3479 2.77642C13.3479 2.52797 13.4472 2.32922 13.5466 2.13046C13.646 1.9317 13.8448 1.78263 13.9938 1.68325C14.1429 1.58387 14.3913 1.53418 14.6398 1.53418C14.8882 1.53418 15.087 1.58387 15.2858 1.68325C15.4845 1.78263 15.6336 1.9317 15.733 2.13046C15.8323 2.32922 15.882 2.52797 15.882 2.77642V4.86338H15.3851V4.91306Z" fill="black"/>
<path d="M16.8262 6.30436V1.63355H17.3231V2.47827L17.2237 3.2733L17.3231 4.06833V6.30436H16.8262ZM18.5156 5.01243C18.2672 5.01243 18.0187 4.96275 17.82 4.86337C17.6212 4.76399 17.4721 4.61492 17.3231 4.46585C17.174 4.26709 17.1243 4.06833 17.0746 3.81989V2.77641C17.0746 2.52796 17.174 2.32921 17.3231 2.13045C17.4721 1.93169 17.6212 1.83231 17.82 1.73293C18.0187 1.63355 18.2672 1.58386 18.4659 1.58386C18.6647 1.58386 19.0622 1.68324 19.261 1.83231C19.5094 1.98138 19.7082 2.18013 19.8572 2.42858C20.0063 2.67703 20.056 2.97517 20.056 3.32299C20.056 3.67082 20.0063 3.91926 19.8572 4.16771C19.7082 4.41616 19.5094 4.61492 19.261 4.76398C19.0125 4.91305 18.7641 5.01243 18.4659 5.01243H18.5156ZM18.4162 4.56523C18.6647 4.56523 18.8634 4.51554 19.0125 4.41616C19.1616 4.31678 19.3106 4.16771 19.41 3.96896C19.5094 3.7702 19.5591 3.57144 19.5591 3.32299C19.5591 3.07455 19.5094 2.87579 19.41 2.67703C19.3106 2.47827 19.1616 2.32921 19.0125 2.22983C18.8138 2.13045 18.615 2.08076 18.4162 2.08076C18.2175 2.08076 17.969 2.13045 17.82 2.22983C17.6212 2.32921 17.5218 2.47827 17.4224 2.67703C17.3231 2.87579 17.2734 3.07455 17.2734 3.32299C17.2734 3.57144 17.2734 3.7702 17.4224 3.96896C17.5218 4.16771 17.6709 4.31678 17.82 4.41616C17.969 4.51554 18.1678 4.56523 18.4162 4.56523Z" fill="black"/>
<path d="M20.5527 2.08076V1.63355H22.6894V2.08076H20.5527ZM21.3975 4.91305V0.242249H21.8943V4.91305H21.3975Z" fill="black"/>
<path d="M24.9751 4.91306V0.142883H25.472V4.91306H24.9751ZM25.3229 0.590085V0.142883H28.1055V0.590085H25.3229ZM25.3229 2.67704V2.22984H27.9068V2.67704H25.3229ZM25.3229 4.91306V4.46586H28.1552V4.91306H25.3229Z" fill="black"/>
<path d="M28.9502 4.91305V1.63355H29.4471V4.91305H28.9502ZM31.3353 4.91305V2.97517C31.3353 2.67703 31.2359 2.47827 31.0868 2.27951C30.9378 2.08075 30.6893 2.03106 30.3912 2.03106C30.0931 2.03106 30.0434 2.03107 29.8943 2.13045C29.7452 2.22983 29.6458 2.32921 29.5465 2.47827C29.4471 2.62734 29.3974 2.77641 29.3974 2.97517L29.1986 2.8261C29.1986 2.57765 29.2483 2.37889 29.3477 2.18013C29.4471 1.98138 29.6458 1.83231 29.8446 1.73293C30.0434 1.63355 30.2918 1.58386 30.5403 1.58386C30.7887 1.58386 31.0372 1.63355 31.1862 1.78262C31.385 1.882 31.534 2.08075 31.6334 2.27951C31.7328 2.47827 31.7825 2.72672 31.7825 2.92548V4.91305H31.2856H31.3353Z" fill="black"/>
<path d="M34.1179 4.86337C33.8198 4.86337 33.5216 4.81367 33.2732 4.66461C33.0247 4.51554 32.826 4.31678 32.7266 4.06833C32.6272 3.81989 32.5278 3.52175 32.5278 3.22362C32.5278 2.92548 32.5775 2.62734 32.7266 2.3789C32.8757 2.13045 33.0744 1.93169 33.2732 1.78262C33.5216 1.63355 33.7701 1.58386 34.0682 1.58386C34.3663 1.58386 34.5651 1.58386 34.7639 1.73293C34.9626 1.83231 35.1117 1.98138 35.2608 2.13045C35.4098 2.27952 35.4595 2.52796 35.4595 2.77641V3.72051C35.4595 3.96896 35.3601 4.16772 35.2111 4.36647C35.062 4.56523 34.9129 4.6646 34.7142 4.76398C34.5154 4.86336 34.3167 4.91305 34.0682 4.91305L34.1179 4.86337ZM34.1179 6.35405C33.7701 6.35405 33.4719 6.30436 33.2235 6.15529C32.975 6.00622 32.7763 5.85715 32.5775 5.65839L32.8757 5.36026C33.0247 5.55902 33.1738 5.65839 33.3726 5.75777C33.5713 5.85715 33.8198 5.90684 34.0682 5.90684C34.4657 5.90684 34.7639 5.80747 34.9626 5.60871C35.1614 5.40995 35.3104 5.1615 35.3104 4.81368V4.01864L35.4098 3.2733L35.3104 2.52796V1.68324H35.8073V4.81368C35.8073 5.11181 35.7576 5.40995 35.6086 5.65839C35.4595 5.90684 35.2608 6.05591 35.0123 6.20498C34.7639 6.35405 34.4657 6.40374 34.1179 6.40374V6.35405ZM34.267 4.41616C34.4657 4.41616 34.6645 4.41616 34.8632 4.26709C35.0123 4.16771 35.1614 4.01865 35.2608 3.86958C35.3601 3.67082 35.4098 3.47206 35.4098 3.22362C35.4098 2.97517 35.4098 2.77641 35.2608 2.62734C35.1117 2.47828 35.0123 2.32921 34.8632 2.22983C34.7142 2.13045 34.5154 2.08076 34.267 2.08076C34.0185 2.08076 33.8198 2.13045 33.6707 2.22983C33.4719 2.32921 33.3726 2.47828 33.2732 2.62734C33.1738 2.8261 33.1241 3.02486 33.1241 3.22362C33.1241 3.42237 33.1738 3.67082 33.2732 3.81989C33.3726 4.01865 33.5216 4.11803 33.6707 4.2174C33.8694 4.31678 34.0682 4.36647 34.267 4.36647V4.41616Z" fill="black"/>
<path d="M37.05 0.937898C36.9506 0.937898 36.9009 0.937899 36.8015 0.83852C36.7021 0.739141 36.7021 0.689452 36.7021 0.590073C36.7021 0.490694 36.7021 0.391315 36.8015 0.341626C36.9009 0.291936 36.9506 0.242249 37.05 0.242249C37.1494 0.242249 37.2487 0.242247 37.2984 0.341626C37.3481 0.391315 37.3978 0.490694 37.3978 0.590073C37.3978 0.689452 37.3978 0.788831 37.2984 0.83852C37.2487 0.88821 37.1494 0.937898 37.05 0.937898ZM36.8015 4.91305V1.63355H37.2984V4.91305H36.8015Z" fill="black"/>
<path d="M38.2422 4.91305V1.63355H38.7391V4.91305H38.2422ZM40.6273 4.91305V2.97517C40.6273 2.67703 40.5279 2.47827 40.3788 2.27951C40.2298 2.08075 39.9813 2.03106 39.6832 2.03106C39.385 2.03106 39.3354 2.03107 39.1863 2.13045C39.0372 2.22983 38.9378 2.32921 38.8385 2.47827C38.7391 2.62734 38.6894 2.77641 38.6894 2.97517L38.4906 2.8261C38.4906 2.57765 38.5403 2.37889 38.6397 2.18013C38.7391 1.98138 38.9378 1.83231 39.1366 1.73293C39.3354 1.63355 39.5838 1.58386 39.8323 1.58386C40.0807 1.58386 40.3291 1.63355 40.4782 1.78262C40.677 1.882 40.826 2.08075 40.9254 2.27951C41.0248 2.47827 41.0745 2.72672 41.0745 2.92548V4.91305H40.5776H40.6273Z" fill="black"/>
<path d="M43.559 4.96274C43.2111 4.96274 42.9627 4.91304 42.6645 4.76397C42.4161 4.61491 42.2173 4.41615 42.0683 4.1677C41.9192 3.91925 41.8198 3.62112 41.8198 3.27329C41.8198 2.92546 41.8695 2.67702 42.0186 2.42857C42.1676 2.18012 42.3664 1.98137 42.6149 1.8323C42.8633 1.68323 43.1614 1.63354 43.4596 1.63354C43.7577 1.63354 44.0062 1.68323 44.2546 1.8323C44.5031 1.98137 44.6521 2.13044 44.8012 2.37889C44.9503 2.62733 44.9999 2.87578 44.9999 3.22361C44.9999 3.57143 44.9999 3.32299 44.9999 3.37268C44.9999 3.37268 44.9999 3.47205 44.9999 3.52174H42.1676V3.12423H44.7515L44.6024 3.27329C44.6024 3.02484 44.6024 2.82609 44.5031 2.67702C44.4037 2.52795 44.3043 2.37888 44.1552 2.2795C44.0062 2.18012 43.8074 2.13044 43.559 2.13044C43.3105 2.13044 43.1117 2.18012 42.9627 2.2795C42.7639 2.37888 42.6645 2.52795 42.5652 2.72671C42.4658 2.92547 42.4161 3.12423 42.4161 3.37268C42.4161 3.62112 42.4658 3.81987 42.5652 4.01863C42.6645 4.21739 42.8136 4.36646 43.0124 4.46584C43.2111 4.56522 43.4099 4.61491 43.6583 4.61491C43.9068 4.61491 44.0558 4.61491 44.2049 4.51553C44.354 4.41615 44.5031 4.31677 44.6521 4.1677L44.9503 4.46584C44.8012 4.6646 44.6024 4.81366 44.4037 4.91304C44.1552 5.01242 43.9565 5.06211 43.6583 5.06211L43.559 4.96274Z" fill="black"/>
<path d="M47.286 4.96274C46.9382 4.96274 46.6897 4.91304 46.3916 4.76397C46.1431 4.61491 45.9444 4.41615 45.7953 4.1677C45.6463 3.91925 45.5469 3.62112 45.5469 3.27329C45.5469 2.92546 45.5966 2.67702 45.7456 2.42857C45.8947 2.18012 46.0935 1.98137 46.3419 1.8323C46.5904 1.68323 46.8885 1.63354 47.1866 1.63354C47.4848 1.63354 47.7332 1.68323 47.9817 1.8323C48.2301 1.98137 48.3792 2.13044 48.5282 2.37889C48.6773 2.62733 48.727 2.87578 48.727 3.22361C48.727 3.57143 48.727 3.32299 48.727 3.37268C48.727 3.37268 48.727 3.47205 48.727 3.52174H45.8947V3.12423H48.4785L48.3295 3.27329C48.3295 3.02484 48.3295 2.82609 48.2301 2.67702C48.1307 2.52795 48.0313 2.37888 47.8823 2.2795C47.7332 2.18012 47.5345 2.13044 47.286 2.13044C47.0376 2.13044 46.8388 2.18012 46.6897 2.2795C46.491 2.37888 46.3916 2.52795 46.2922 2.72671C46.1928 2.92547 46.1431 3.12423 46.1431 3.37268C46.1431 3.62112 46.1928 3.81987 46.2922 4.01863C46.3916 4.21739 46.5407 4.36646 46.7394 4.46584C46.9382 4.56522 47.1369 4.61491 47.3854 4.61491C47.6338 4.61491 47.7829 4.61491 47.932 4.51553C48.081 4.41615 48.2301 4.31677 48.3792 4.1677L48.6773 4.46584C48.5282 4.6646 48.3295 4.81366 48.1307 4.91304C47.8823 5.01242 47.6835 5.06211 47.3854 5.06211L47.286 4.96274Z" fill="black"/>
<path d="M49.522 4.91305V1.63355H50.0189V4.91305H49.522ZM50.0189 3.02485L49.8201 2.92548C49.8201 2.52796 49.9195 2.18013 50.1182 1.93169C50.317 1.68324 50.6151 1.58386 50.963 1.58386C51.3108 1.58386 51.2611 1.58386 51.4102 1.68324C51.5592 1.73293 51.6586 1.83231 51.8077 1.98138L51.4599 2.3292C51.3605 2.22983 51.3108 2.18014 51.2114 2.13045C51.112 2.13045 51.0127 2.08076 50.8636 2.08076C50.6151 2.08076 50.4164 2.18014 50.2673 2.3292C50.1182 2.47827 50.0189 2.72672 50.0189 3.07455V3.02485Z" fill="black"/>
<path d="M52.0063 0.34163V-0.00619507H53.9939V0.34163H52.0063ZM52.8014 2.42858V0.0434898H53.1989V2.42858H52.8014Z" fill="black"/>
<path d="M54.3418 2.42858V-0.00619507H54.6399L55.6337 1.68324H55.435L56.4288 -0.00619507H56.7269V2.42858H56.3294V0.689454H56.4288L55.6834 1.93169H55.3853L54.6399 0.689454H54.7393V2.3789H54.3418V2.42858Z" fill="black"/>
</svg>
