<svg width="72" height="14" viewBox="0 0 72 14" fill="none" xmlns="http://www.w3.org/2000/svg">
<path d="M0.783131 10.1304V0.701874H1.53468L5.56574 7.32921H5.01915L9.05021 0.701874H9.80176V10.1304H8.77692V2.47827H8.98189C8.98189 2.54659 5.56574 8.08075 5.56574 8.08075H4.88251L1.46636 2.5466H1.67133C1.67133 2.47827 1.67133 10.1304 1.67133 10.1304H0.646484H0.783131Z" fill="black"/>
<path d="M14.7209 10.2671C14.106 10.2671 13.5595 10.1304 13.0812 9.78882C12.6029 9.51553 12.193 9.10559 11.9197 8.55901C11.6464 8.01243 11.5098 7.46584 11.5098 6.85093C11.5098 6.23603 11.6464 5.62112 11.9197 5.14286C12.193 4.6646 12.6029 4.25467 13.0812 3.91305C13.5595 3.63976 14.106 3.50311 14.7209 3.50311C15.3359 3.50311 15.6775 3.57143 16.0191 3.7764C16.429 3.98137 16.7023 4.25467 16.9756 4.59628C17.2489 4.9379 17.3855 5.34783 17.3855 5.82609V7.80746C17.3855 8.28572 17.1806 8.69566 16.9073 9.03728C16.634 9.37889 16.3607 9.65218 15.9508 9.85715C15.5408 10.0621 15.1309 10.1304 14.6526 10.1304L14.7209 10.2671ZM14.8576 9.37889C15.5408 9.37889 16.0874 9.17392 16.4973 8.69566C16.9073 8.2174 17.1123 7.67081 17.1123 6.91926C17.1123 6.16771 17.0439 6.03107 16.839 5.62113C16.634 5.21119 16.429 4.93789 16.0874 4.80125C15.7458 4.59628 15.3359 4.45963 14.9259 4.45963C14.516 4.45963 14.106 4.59628 13.6961 4.80125C13.3545 5.00621 13.0812 5.27951 12.8762 5.68945C12.6713 6.09938 12.5346 6.441 12.5346 6.91926C12.5346 7.39752 12.6713 7.80746 12.8762 8.14908C13.0812 8.49069 13.3545 8.83231 13.6961 9.03728C14.0377 9.24225 14.4477 9.37889 14.9259 9.37889H14.8576ZM17.0439 10.1304V8.42237L17.2489 6.85093L17.0439 5.27951V3.70808H18.0004V10.1304H17.0439Z" fill="black"/>
<path d="M19.9141 10.1305V3.7081H20.8706V10.1305H19.9141ZM20.8706 6.37269L20.4606 6.23605C20.4606 5.41617 20.6656 4.80126 21.0756 4.323C21.4855 3.84474 22.0321 3.63977 22.7153 3.63977C23.3985 3.63977 23.3302 3.63977 23.6035 3.77641C23.8768 3.91306 24.0818 4.04971 24.3551 4.323L23.7402 5.00623C23.6035 4.86958 23.3985 4.73294 23.2619 4.66462C23.0569 4.59629 22.852 4.52797 22.647 4.52797C22.1687 4.52797 21.7588 4.66462 21.4172 5.00623C21.0756 5.34785 20.9389 5.82611 20.9389 6.44102L20.8706 6.37269Z" fill="black"/>
<path d="M25.3105 10.1305V0.428589H26.2671V10.1305H25.3105ZM29.4782 10.1305L26.1987 6.85095L29.4099 3.70809H30.5714L27.0869 7.12424V6.57766L30.7081 10.1988H29.4099L29.4782 10.1305Z" fill="black"/>
<path d="M34.5353 10.2671C33.9204 10.2671 33.3055 10.1304 32.8272 9.85715C32.349 9.58386 31.939 9.17392 31.5974 8.62734C31.3241 8.14908 31.1191 7.53417 31.1191 6.91926C31.1191 6.30436 31.2558 5.68945 31.5291 5.21119C31.8024 4.73293 32.2123 4.32299 32.6906 3.98137C33.1688 3.63976 33.7837 3.57144 34.3986 3.57144C35.0136 3.57144 35.4918 3.70808 35.9701 3.98137C36.4483 4.25467 36.7899 4.59628 37.0632 5.07455C37.3365 5.55281 37.4732 6.09939 37.4732 6.71429C37.4732 7.3292 37.4732 6.85094 37.4732 6.98759C37.4732 7.05591 37.4732 7.19256 37.4732 7.32921H31.939V6.50932H36.9949L36.6533 6.78262C36.6533 6.30436 36.585 5.89442 36.38 5.5528C36.2434 5.21119 35.9701 4.9379 35.6285 4.73293C35.2868 4.52796 34.9452 4.45963 34.467 4.45963C33.9887 4.45963 33.5788 4.52796 33.2372 4.80125C32.8955 5.00622 32.6222 5.27952 32.4173 5.62113C32.2123 5.96275 32.144 6.37268 32.144 6.91926C32.144 7.46585 32.2123 7.87578 32.4856 8.2174C32.6906 8.55901 32.9639 8.90063 33.3738 9.1056C33.7837 9.31057 34.1937 9.44721 34.6719 9.44721C35.1502 9.44721 35.4235 9.37889 35.7651 9.24224C36.1067 9.10559 36.38 8.90063 36.585 8.62734L37.1999 9.24224C36.9266 9.58386 36.5167 9.85716 36.1067 10.0621C35.6285 10.2671 35.1502 10.3354 34.6719 10.3354L34.5353 10.2671Z" fill="black"/>
<path d="M38.293 4.59628V3.70808H42.4607V4.59628H38.293ZM39.9327 10.1304V0.975159H40.8892V10.1304H39.9327Z" fill="black"/>
<path d="M44.236 2.34162C44.031 2.34162 43.8944 2.34162 43.7577 2.13665C43.6211 2 43.5527 1.86336 43.5527 1.65839C43.5527 1.45342 43.5527 1.31677 43.7577 1.18012C43.8944 1.04348 44.031 0.975159 44.236 0.975159C44.4409 0.975159 44.5776 0.975156 44.7142 1.18012C44.8509 1.38509 44.9192 1.45342 44.9192 1.65839C44.9192 1.86336 44.9192 2 44.7142 2.13665C44.5093 2.27329 44.4409 2.34162 44.236 2.34162ZM43.7577 10.1304V3.70808H44.7142V10.1304H43.7577Z" fill="black"/>
<path d="M46.6953 10.1304V3.70809H47.6518V10.1304H46.6953ZM51.4096 10.1304V6.37268C51.4096 5.82609 51.273 5.34783 50.9313 5.00622C50.5897 4.6646 50.1798 4.45963 49.6332 4.45963C49.0866 4.45963 48.95 4.52796 48.6767 4.73293C48.4034 4.86958 48.1984 5.14287 47.9934 5.41616C47.8568 5.68945 47.7202 6.03106 47.7202 6.37268L47.3102 6.09939C47.3102 5.62113 47.4469 5.21118 47.6518 4.80125C47.8568 4.39131 48.1984 4.11803 48.6084 3.91306C49.0183 3.70809 49.4282 3.57144 49.9065 3.57144C50.3848 3.57144 50.863 3.70809 51.2046 3.91306C51.6146 4.11803 51.8879 4.45964 52.0928 4.86957C52.2978 5.27951 52.4344 5.68945 52.4344 6.16771V10.1304H51.4779H51.4096Z" fill="black"/>
<path d="M56.8772 10.0621C56.2623 10.0621 55.7157 9.92549 55.2375 9.65219C54.7592 9.3789 54.4176 8.96897 54.1443 8.49071C53.871 8.01245 53.7344 7.46586 53.7344 6.85095C53.7344 6.23604 53.871 5.68946 54.1443 5.2112C54.4176 4.73294 54.7592 4.323 55.2375 4.04971C55.7157 3.77642 56.2623 3.63977 56.8089 3.63977C57.3555 3.63977 57.7654 3.7081 58.1754 3.91307C58.5853 4.11804 58.8586 4.39133 59.1319 4.73294C59.4052 5.07456 59.5418 5.4845 59.5418 5.96276V7.80748C59.5418 8.28574 59.3369 8.69568 59.0636 9.03729C58.7903 9.37891 58.517 9.6522 58.107 9.85717C57.6971 10.0621 57.2872 10.1305 56.8089 10.1305L56.8772 10.0621ZM56.8089 13C56.194 13 55.5791 12.8634 55.1008 12.6584C54.6226 12.3851 54.2126 12.1118 53.871 11.6336L54.4859 11.0187C54.7592 11.3603 55.0325 11.6336 55.4424 11.8385C55.8524 12.0435 56.2623 12.1118 56.8089 12.1118C57.5605 12.1118 58.107 11.9069 58.5853 11.4969C59.0636 11.087 59.2002 10.5404 59.2002 9.92548V8.35406L59.4052 6.91928L59.2002 5.48449V3.84474H60.1567V9.99381C60.1567 10.6087 60.0201 11.1553 59.7468 11.6336C59.4735 12.1118 59.0636 12.4534 58.5853 12.7267C58.107 13 57.4921 13.1367 56.8089 13.1367V13ZM57.0822 9.17394C57.4921 9.17394 57.9021 9.10561 58.2437 8.90064C58.5853 8.69567 58.8586 8.42238 58.9952 8.08076C59.1319 7.73915 59.2685 7.32921 59.2685 6.85095C59.2685 6.37269 59.2002 5.96276 58.9952 5.62114C58.7903 5.27953 58.517 5.00623 58.2437 4.80126C57.9021 4.59629 57.4921 4.52797 57.0822 4.52797C56.6723 4.52797 56.2623 4.59629 55.8524 4.80126C55.5108 5.00623 55.2375 5.27953 55.0325 5.62114C54.8275 5.96276 54.7592 6.37269 54.7592 6.85095C54.7592 7.32921 54.8275 7.73915 55.0325 8.08076C55.2375 8.42238 55.5108 8.69567 55.8524 8.90064C56.194 9.10561 56.6039 9.17394 57.0822 9.17394Z" fill="black"/>
<path d="M61.3164 1.11181V0.36026H65.4158V1.11181H61.3164ZM62.9562 5.34783V0.496904H63.776V5.34783H62.9562Z" fill="black"/>
<path d="M66.0996 5.34783V0.36026H66.6462L68.7642 3.7764H68.4226L70.5406 0.36026H71.0872V5.34783H70.2673V1.79504H70.4723L68.9009 4.39132H68.3543L66.7828 1.86337H66.9878V5.41616H66.1679L66.0996 5.34783Z" fill="black"/>
</svg>
