<svg width="84" height="11" viewBox="0 0 84 11" fill="none" xmlns="http://www.w3.org/2000/svg">
<path d="M0.578125 8.19877V1.1615H1.32968V8.19877H0.578125ZM1.05639 5.39752V4.71429H3.10608C3.37937 4.71429 3.65266 4.71429 3.85763 4.50932C4.0626 4.30435 4.26757 4.23603 4.40421 4.03106C4.54086 3.82609 4.60918 3.55281 4.60918 3.27952C4.60918 3.00622 4.60918 2.73293 4.40421 2.52796C4.26757 2.32299 4.0626 2.11802 3.85763 2.0497C3.65266 1.98138 3.37937 1.84473 3.10608 1.84473H1.05639V1.1615H3.1744C3.58434 1.1615 3.99427 1.22982 4.33589 1.43479C4.6775 1.63976 4.9508 1.84473 5.15576 2.18634C5.36073 2.52796 5.42906 2.86958 5.42906 3.27952C5.42906 3.68945 5.36073 4.09939 5.15576 4.37268C4.9508 4.64597 4.6775 4.91927 4.33589 5.12423C3.99427 5.3292 3.65266 5.39752 3.1744 5.39752H1.05639Z" fill="black"/>
<path d="M6.58984 8.19879V3.41618H7.3414V8.19879H6.58984ZM7.3414 5.39755L7.0681 5.2609C7.0681 4.646 7.20475 4.16773 7.54637 3.82612C7.81966 3.4845 8.22959 3.27954 8.77618 3.27954C9.32276 3.27954 9.25444 3.27954 9.45941 3.41618C9.66438 3.55283 9.86935 3.62115 10.006 3.82612L9.52773 4.30439C9.39109 4.16774 9.32276 4.09941 9.18612 4.03109C9.04947 3.96276 8.91283 3.96277 8.70786 3.96277C8.36624 3.96277 8.02463 4.09942 7.81966 4.30439C7.61469 4.50935 7.47804 4.91929 7.47804 5.39755H7.3414Z" fill="black"/>
<path d="M12.6705 8.26711C12.1923 8.26711 11.7823 8.13046 11.3724 7.9255C10.9625 7.72053 10.6892 7.37892 10.4842 7.0373C10.2792 6.62737 10.1426 6.21742 10.1426 5.73916C10.1426 5.2609 10.2792 4.85096 10.4842 4.50935C10.6892 4.16773 11.0308 3.82612 11.3724 3.62116C11.714 3.41619 12.1923 3.27954 12.6705 3.27954C13.1488 3.27954 13.5587 3.41619 13.9687 3.62116C14.3786 3.82612 14.6519 4.16773 14.8569 4.50935C15.0618 4.91928 15.1985 5.32923 15.1985 5.80749C15.1985 6.28575 15.0618 6.69568 14.8569 7.10562C14.6519 7.51556 14.3103 7.78885 13.9687 7.99382C13.5587 8.19879 13.1488 8.33544 12.6705 8.33544V8.26711ZM12.6705 7.58388C13.0121 7.58388 13.2854 7.51557 13.5587 7.37892C13.832 7.24227 14.037 7.0373 14.1736 6.69569C14.3103 6.35408 14.3786 6.08078 14.3786 5.73916C14.3786 5.39755 14.3103 5.12425 14.1736 4.85096C14.037 4.57767 13.832 4.3727 13.5587 4.23606C13.2854 4.09941 13.0121 4.03109 12.6705 4.03109C12.3289 4.03109 12.0556 4.09941 11.7823 4.23606C11.509 4.3727 11.3041 4.57767 11.1674 4.85096C11.0308 5.12425 10.9625 5.39755 10.9625 5.73916C10.9625 6.08078 11.0308 6.4224 11.1674 6.69569C11.3041 6.96898 11.509 7.17395 11.7823 7.37892C12.0556 7.51557 12.3289 7.58388 12.6705 7.58388Z" fill="black"/>
<path d="M15.5403 10.3168C15.267 10.3168 14.9937 10.3168 14.7888 10.1801C14.5838 10.1118 14.3788 9.97518 14.2422 9.77022L14.7204 9.29195C14.8571 9.42859 14.9254 9.49692 15.0621 9.56524C15.1987 9.56524 15.3354 9.63356 15.472 9.63356C15.677 9.63356 15.8819 9.63357 16.0869 9.4286C16.2236 9.29195 16.3602 9.08698 16.3602 8.81369V3.41618H17.1118V8.81369C17.1118 9.1553 17.0434 9.42859 16.9068 9.63356C16.7701 9.83853 16.5652 10.0435 16.3602 10.1801C16.1552 10.3168 15.8819 10.3851 15.6086 10.3851L15.5403 10.3168ZM16.7018 2.323C16.5652 2.323 16.4285 2.32301 16.3602 2.18636C16.2919 2.04971 16.2236 1.98139 16.2236 1.84474C16.2236 1.7081 16.2236 1.57145 16.3602 1.50313C16.4968 1.43481 16.5652 1.36649 16.7018 1.36649C16.8385 1.36649 16.9751 1.36648 17.0434 1.50313C17.1118 1.57145 17.1801 1.7081 17.1801 1.84474C17.1801 1.98139 17.1801 2.11804 17.0434 2.18636C16.9751 2.32301 16.8385 2.323 16.7018 2.323Z" fill="black"/>
<path d="M20.733 8.26711C20.2548 8.26711 19.8448 8.13046 19.4349 7.92549C19.025 7.72052 18.7517 7.37892 18.5467 7.0373C18.3417 6.62737 18.2051 6.21742 18.2051 5.73916C18.2051 5.2609 18.3417 4.85097 18.5467 4.44103C18.7517 4.03109 19.025 3.7578 19.4349 3.55283C19.8448 3.34786 20.2548 3.21121 20.6647 3.21121C21.0746 3.21121 21.4846 3.27953 21.8262 3.4845C22.1678 3.68947 22.4411 3.96277 22.6461 4.30438C22.851 4.646 22.9194 5.05593 22.9194 5.53419C22.9194 6.01245 22.9194 5.67084 22.9194 5.73916C22.9194 5.80748 22.9194 5.87581 22.9194 6.01246H18.7517V5.39755H22.5094L22.2361 5.60252C22.2361 5.2609 22.2361 4.91928 22.0312 4.71432C21.8945 4.44102 21.6896 4.23606 21.4846 4.09941C21.2796 3.96277 20.938 3.89444 20.6647 3.89444C20.3914 3.89444 19.9815 3.96277 19.7765 4.09941C19.5032 4.23606 19.2982 4.44102 19.1616 4.71432C19.025 4.98761 18.9566 5.32923 18.9566 5.67084C18.9566 6.01246 19.025 6.35407 19.1616 6.62736C19.2982 6.90065 19.5032 7.10562 19.7765 7.31059C20.0498 7.44724 20.3914 7.51556 20.733 7.51556C21.0746 7.51556 21.2796 7.51556 21.5529 7.37892C21.8262 7.24227 22.0312 7.10562 22.1678 6.90065L22.6461 7.37892C22.4411 7.65221 22.1678 7.85717 21.8262 7.99382C21.4846 8.13047 21.143 8.19879 20.733 8.19879V8.26711Z" fill="black"/>
<path d="M26.2682 8.26711C25.7899 8.26711 25.38 8.13046 24.97 7.92549C24.5601 7.72052 24.2868 7.37892 24.0818 7.0373C23.8769 6.62737 23.7402 6.21742 23.7402 5.73916C23.7402 5.2609 23.8769 4.85097 24.0818 4.44103C24.2868 4.03109 24.6284 3.7578 24.97 3.55283C25.3117 3.34786 25.7899 3.21121 26.2682 3.21121C26.7464 3.21121 26.9514 3.27954 27.293 3.41618C27.6346 3.55283 27.8396 3.7578 28.1129 3.96277L27.6346 4.44103C27.498 4.23606 27.293 4.09941 27.0197 4.03109C26.8148 3.96276 26.5415 3.89444 26.2682 3.89444C25.9949 3.89444 25.6533 3.96277 25.38 4.09941C25.1067 4.23606 24.9017 4.44102 24.7651 4.71432C24.6284 4.98761 24.5601 5.26091 24.5601 5.67084C24.5601 6.08078 24.6284 6.35407 24.7651 6.62736C24.9017 6.90065 25.1067 7.10562 25.38 7.31059C25.6533 7.44724 25.9266 7.51556 26.2682 7.51556C26.6098 7.51556 26.8148 7.51556 27.0197 7.37892C27.2247 7.3106 27.4297 7.10562 27.6346 6.96898L28.1129 7.44723C27.9079 7.72053 27.6346 7.9255 27.293 8.06215C26.9514 8.19879 26.6098 8.26711 26.2682 8.26711Z" fill="black"/>
<path d="M28.6582 4.03108V3.34785H31.8011V4.03108H28.6582ZM29.888 8.19878V1.36649H30.6396V8.19878H29.888Z" fill="black"/>
<path d="M35.1504 8.19877V1.1615H35.697L38.7715 6.14908H38.3616L41.4361 1.1615H41.9827V8.19877H41.2311V2.45963H41.4361L38.9082 6.69566H38.3616L35.8336 2.52796H36.0386V8.19877H35.287H35.1504Z" fill="black"/>
<path d="M45.6022 8.26711C45.1239 8.26711 44.714 8.13046 44.3724 7.92549C44.0308 7.72052 43.6892 7.37892 43.4842 7.0373C43.2792 6.69569 43.1426 6.21742 43.1426 5.73916C43.1426 5.2609 43.2792 4.85097 43.4842 4.44103C43.6892 4.03109 43.9625 3.7578 44.3724 3.55283C44.714 3.34786 45.1239 3.21121 45.6022 3.21121C46.0805 3.21121 46.2854 3.27954 46.5587 3.41618C46.832 3.55283 47.1053 3.75779 47.242 4.03109C47.4469 4.30438 47.5152 4.57767 47.5836 4.91929V6.42239C47.5836 6.76401 47.4469 7.10562 47.242 7.31059C47.037 7.58388 46.832 7.78885 46.5587 7.92549C46.2854 8.06214 45.9438 8.13046 45.6022 8.13046V8.26711ZM45.7389 7.58388C46.2171 7.58388 46.627 7.44723 46.9687 7.10562C47.3103 6.76401 47.4469 6.35407 47.4469 5.80749C47.4469 5.2609 47.3786 5.12425 47.242 4.85096C47.1053 4.57767 46.9003 4.3727 46.627 4.23606C46.3538 4.09941 46.0805 4.03109 45.7389 4.03109C45.3972 4.03109 45.1239 4.09941 44.8507 4.23606C44.5774 4.3727 44.3724 4.57767 44.2357 4.85096C44.0991 5.12425 44.0308 5.46587 44.0308 5.80749C44.0308 6.1491 44.0991 6.49071 44.2357 6.76401C44.3724 7.0373 44.5774 7.24227 44.8507 7.37892C45.1239 7.51556 45.3972 7.58388 45.7389 7.58388ZM47.3786 8.19879V6.90065L47.5152 5.73916L47.3786 4.57767V3.41618H48.1302V8.19879H47.3786Z" fill="black"/>
<path d="M49.498 8.19879V3.41618H50.2496V8.19879H49.498ZM52.9825 8.19879V5.39755C52.9825 4.98761 52.8459 4.64599 52.5726 4.3727C52.2993 4.09941 51.9577 3.96277 51.5477 3.96277C51.1378 3.96277 51.0012 3.96276 50.7962 4.16773C50.5912 4.30438 50.3862 4.44103 50.3179 4.646C50.1813 4.85097 50.113 5.12426 50.113 5.39755L49.7713 5.19258C49.7713 4.85096 49.8397 4.50935 50.0446 4.23606C50.2496 3.96277 50.4546 3.68947 50.7279 3.55283C51.0011 3.41618 51.3428 3.27954 51.7527 3.27954C52.1626 3.27954 52.4359 3.34786 52.7092 3.55283C52.9825 3.7578 53.1875 3.96277 53.3925 4.23606C53.5291 4.50935 53.6657 4.85096 53.6657 5.19258V8.13047H52.9142L52.9825 8.19879Z" fill="black"/>
<path d="M57.1491 8.26711C56.6708 8.26711 56.2609 8.13046 55.9193 7.92549C55.5777 7.72052 55.236 7.37892 55.0311 7.0373C54.8261 6.69569 54.6895 6.21742 54.6895 5.73916C54.6895 5.2609 54.8261 4.85097 55.0311 4.44103C55.236 4.03109 55.5093 3.7578 55.9193 3.55283C56.2609 3.34786 56.6708 3.21121 57.1491 3.21121C57.6273 3.21121 57.8323 3.27954 58.1056 3.41618C58.3789 3.55283 58.6522 3.75779 58.7888 4.03109C58.9938 4.30438 59.0621 4.57767 59.1304 4.91929V6.42239C59.1304 6.76401 58.9938 7.10562 58.7888 7.31059C58.5839 7.58388 58.3789 7.78885 58.1056 7.92549C57.8323 8.06214 57.4907 8.13046 57.1491 8.13046V8.26711ZM57.2857 7.58388C57.764 7.58388 58.1739 7.44723 58.5155 7.10562C58.8572 6.76401 58.9938 6.35407 58.9938 5.80749C58.9938 5.2609 58.9255 5.12425 58.7888 4.85096C58.6522 4.57767 58.4472 4.3727 58.1739 4.23606C57.9006 4.09941 57.6273 4.03109 57.2857 4.03109C56.9441 4.03109 56.6708 4.09941 56.3975 4.23606C56.1242 4.3727 55.9193 4.57767 55.7826 4.85096C55.646 5.12425 55.5777 5.46587 55.5777 5.80749C55.5777 6.1491 55.646 6.49071 55.7826 6.76401C55.9193 7.0373 56.1242 7.24227 56.3975 7.37892C56.6708 7.51556 56.9441 7.58388 57.2857 7.58388ZM58.9255 8.19879V6.90065L59.0621 5.73916L58.9255 4.57767V3.41618H59.677V8.19879H58.9255Z" fill="black"/>
<path d="M63.0944 8.13046C62.6162 8.13046 62.2746 7.99382 61.8646 7.78885C61.523 7.58388 61.2497 7.31059 61.0447 6.90065C60.8398 6.49071 60.7031 6.1491 60.7031 5.67084C60.7031 5.19258 60.8398 4.78264 61.0447 4.44103C61.2497 4.09941 61.523 3.7578 61.8646 3.55283C62.2062 3.34786 62.6162 3.21121 63.0944 3.21121C63.5727 3.21121 63.7777 3.27954 64.1193 3.41618C64.4609 3.55283 64.6659 3.75779 64.8025 4.03109C65.0075 4.30438 65.0758 4.57768 65.1441 4.98761V6.35407C65.1441 6.69569 65.0075 7.03729 64.8025 7.24226C64.5975 7.51556 64.3926 7.72053 64.1193 7.85718C63.846 7.99382 63.5044 8.06215 63.1628 8.06215L63.0944 8.13046ZM63.0944 10.3168C62.6162 10.3168 62.2062 10.2485 61.7963 10.0435C61.3864 9.83854 61.1131 9.63357 60.9081 9.29195L61.3864 8.81369C61.5913 9.08699 61.7963 9.29196 62.1379 9.42861C62.4112 9.56525 62.7528 9.63357 63.1628 9.63357C63.7093 9.63357 64.1193 9.49693 64.4609 9.22364C64.8025 8.95034 64.9391 8.5404 64.9391 7.99382V6.76401L65.0758 5.67084L64.9391 4.57767V3.34786H65.6907V7.99382C65.6907 8.47208 65.5541 8.88202 65.3491 9.22364C65.1441 9.56525 64.8708 9.83854 64.4609 10.0435C64.051 10.2485 63.641 10.3168 63.1628 10.3168H63.0944ZM63.2994 7.44723C63.641 7.44723 63.9143 7.37891 64.1876 7.24226C64.4609 7.10562 64.6659 6.90065 64.8025 6.62736C64.9391 6.35407 65.0075 6.08078 65.0075 5.67084C65.0075 5.26091 64.9391 5.05593 64.8025 4.78264C64.6659 4.50935 64.4609 4.30438 64.1876 4.16773C63.9143 4.03108 63.641 3.96277 63.2994 3.96277C62.9578 3.96277 62.6845 4.03108 62.4112 4.16773C62.1379 4.30438 61.9329 4.50935 61.7963 4.78264C61.6596 5.05593 61.5913 5.32923 61.5913 5.67084C61.5913 6.01246 61.6596 6.28574 61.7963 6.55903C61.9329 6.83233 62.1379 7.0373 62.4112 7.17395C62.6845 7.31059 62.9578 7.37892 63.2994 7.37892V7.44723Z" fill="black"/>
<path d="M69.2428 8.26711C68.7645 8.26711 68.3546 8.13046 67.9447 7.92549C67.5347 7.72052 67.2614 7.37892 67.0565 7.0373C66.8515 6.62737 66.7148 6.21742 66.7148 5.73916C66.7148 5.2609 66.8515 4.85097 67.0565 4.44103C67.2614 4.03109 67.5347 3.7578 67.9447 3.55283C68.3546 3.34786 68.7645 3.21121 69.1745 3.21121C69.5844 3.21121 69.9943 3.27953 70.336 3.4845C70.6776 3.68947 70.9509 3.96277 71.1558 4.30438C71.3608 4.646 71.4291 5.05593 71.4291 5.53419C71.4291 6.01245 71.4291 5.67084 71.4291 5.73916C71.4291 5.80748 71.4291 5.87581 71.4291 6.01246H67.2614V5.39755H71.0192L70.7459 5.60252C70.7459 5.2609 70.7459 4.91928 70.5409 4.71432C70.4043 4.44102 70.1993 4.23606 69.9943 4.09941C69.7894 3.96277 69.4478 3.89444 69.1745 3.89444C68.9012 3.89444 68.4912 3.96277 68.2863 4.09941C68.013 4.23606 67.808 4.44102 67.6714 4.71432C67.5347 4.98761 67.4664 5.32923 67.4664 5.67084C67.4664 6.01246 67.5347 6.35407 67.6714 6.62736C67.808 6.90065 68.013 7.10562 68.2863 7.31059C68.5596 7.44724 68.9012 7.51556 69.2428 7.51556C69.5844 7.51556 69.7894 7.51556 70.0627 7.37892C70.336 7.24227 70.5409 7.10562 70.6776 6.90065L71.1558 7.37892C70.9509 7.65221 70.6776 7.85717 70.336 7.99382C69.9943 8.13047 69.6527 8.19879 69.2428 8.19879V8.26711Z" fill="black"/>
<path d="M72.5215 8.19879V3.41618H73.273V8.19879H72.5215ZM73.273 5.39755L72.9997 5.2609C72.9997 4.646 73.1364 4.16773 73.478 3.82612C73.7513 3.4845 74.1612 3.27954 74.7078 3.27954C75.2544 3.27954 75.1861 3.27954 75.391 3.41618C75.596 3.55283 75.801 3.62115 75.9376 3.82612L75.4594 4.30439C75.3227 4.16774 75.2544 4.09941 75.1177 4.03109C74.9811 3.96276 74.8445 3.96277 74.6395 3.96277C74.2979 3.96277 73.9563 4.09942 73.7513 4.30439C73.5463 4.50935 73.4097 4.91929 73.4097 5.39755H73.273Z" fill="black"/>
<path d="M76.2109 1.50313V0.956543H79.1488V1.50313H76.2109ZM77.3724 4.57766V1.02487H77.9873V4.57766H77.3724Z" fill="black"/>
<path d="M79.6953 4.57766V0.956543H80.1052L81.6083 3.41617H81.3351L82.8382 0.956543H83.2481V4.57766H82.6332V1.98139H82.7698L81.6767 3.82611H81.2667L80.1736 1.98139H80.3102V4.50934H79.6953V4.57766Z" fill="black"/>
</svg>
