<svg width="58" height="9" viewBox="0 0 58 9" fill="none" xmlns="http://www.w3.org/2000/svg">
<path d="M23.0106 6.71596C22.6678 6.89978 22.2554 6.9892 21.7735 6.9892C21.4009 6.9892 21.0532 6.91468 20.7352 6.77061C20.4173 6.62654 20.1391 6.42285 19.9105 6.16948C19.677 5.91611 19.4982 5.61803 19.369 5.27523C19.2399 4.93244 19.1802 4.56978 19.1802 4.1773C19.1802 3.7898 19.2448 3.42216 19.369 3.08434C19.4982 2.74651 19.677 2.4534 19.9105 2.20003C20.144 1.94666 20.4173 1.74794 20.7352 1.60387C21.0532 1.4598 21.4009 1.38528 21.7735 1.38528C22.2256 1.38528 22.6231 1.4747 22.9758 1.65355C23.3285 1.8324 23.6614 2.07086 23.9744 2.36398L24.8637 1.34056C24.6749 1.16172 24.4761 0.997771 24.2675 0.843763C24.0588 0.694722 23.8303 0.565553 23.5819 0.456257C23.3335 0.346961 23.0652 0.262504 22.7671 0.202888C22.4691 0.143272 22.1412 0.113464 21.7835 0.113464C21.1823 0.113464 20.6359 0.222761 20.144 0.436385C19.6472 0.65001 19.22 0.943124 18.8623 1.31572C18.5046 1.68833 18.2214 2.12054 18.0227 2.61238C17.824 3.10918 17.7246 3.63579 17.7246 4.19718C17.7246 4.7685 17.824 5.30008 18.0277 5.79191C18.2313 6.28871 18.5096 6.71596 18.8673 7.07863C19.225 7.44129 19.6472 7.72944 20.1341 7.93809C20.621 8.14675 21.1525 8.25108 21.7288 8.25108C22.0965 8.25108 22.4293 8.22127 22.7373 8.15669C23.0404 8.0921 23.3186 7.99771 23.5769 7.87351C23.8303 7.74931 24.0688 7.60524 24.2923 7.43632C24.5109 7.26741 24.7245 7.07366 24.9282 6.85506L24.039 5.95585C23.6962 6.28374 23.3583 6.53214 23.0106 6.71596Z" fill="black"/>
<path d="M28.0274 4.77843H31.972V3.53146H28.0274V1.50451H32.4788V0.257538H26.6562V8.12688H32.5334V6.87991H28.0274V4.77843Z" fill="black"/>
<path d="M39.7827 4.82812C40.0112 4.68901 40.2099 4.5201 40.3739 4.32138C40.5378 4.12266 40.667 3.89413 40.7614 3.63579C40.8558 3.37745 40.9005 3.08434 40.9005 2.75148C40.9005 2.36895 40.8309 2.02118 40.6968 1.71317C40.5626 1.40018 40.3689 1.14185 40.1155 0.928221C39.8621 0.714596 39.5591 0.550651 39.1915 0.431419C38.8288 0.317154 38.4214 0.257538 37.9693 0.257538H34.4619V8.12688H35.8331V5.38453H37.5719L39.5144 8.12688H41.1439L39.0176 5.14607C39.3008 5.07155 39.5541 4.96722 39.7827 4.82812ZM35.843 4.15743V1.50451H37.86C38.3767 1.50451 38.7791 1.61381 39.0673 1.83737C39.3504 2.06093 39.4945 2.38882 39.4945 2.826C39.4945 3.23338 39.3455 3.5563 39.0524 3.79974C38.7592 4.0382 38.3618 4.1624 37.87 4.1624H35.843V4.15743Z" fill="black"/>
<path d="M42.2861 1.53929H44.7801V8.12688H46.1761V1.53929H48.675V0.257538H42.2861V1.53929Z" fill="black"/>
<path d="M52.7936 5.1858C52.6197 5.05663 52.4209 4.94236 52.2024 4.85294C51.9838 4.76352 51.7652 4.68403 51.5515 4.61448C51.3777 4.55983 51.2137 4.50518 51.0498 4.45053C50.8908 4.39588 50.7467 4.33627 50.6225 4.27168C50.4983 4.2071 50.399 4.13755 50.3244 4.05806C50.2499 3.97857 50.2102 3.88915 50.2102 3.78482V3.75998C50.2102 3.5861 50.2847 3.44699 50.4288 3.33273C50.5728 3.21846 50.7815 3.16381 51.0398 3.16381C51.2882 3.16381 51.5565 3.21349 51.8496 3.31782C52.1427 3.41718 52.4309 3.55629 52.7141 3.73017L53.2556 2.76141C52.9426 2.55275 52.5899 2.3888 52.2073 2.2646C51.8248 2.14537 51.4472 2.08575 51.0696 2.08575C50.7765 2.08575 50.5033 2.1255 50.245 2.20995C49.9866 2.29441 49.7631 2.41364 49.5693 2.56765C49.3805 2.72663 49.2265 2.91541 49.1172 3.13897C49.0079 3.36253 48.9533 3.6159 48.9533 3.89411V3.91895C48.9533 4.20213 49.0079 4.44059 49.1222 4.63435C49.2364 4.82313 49.3805 4.98708 49.5544 5.11625C49.7283 5.24541 49.927 5.35471 50.1506 5.43917C50.3692 5.52362 50.5927 5.59814 50.8063 5.66273C50.9802 5.71738 51.1442 5.76706 51.3081 5.81674C51.4671 5.86642 51.6112 5.92106 51.7354 5.98565C51.8596 6.05023 51.954 6.12475 52.0285 6.20424C52.098 6.2887 52.1378 6.38309 52.1378 6.49736V6.52219C52.1378 6.71595 52.0583 6.87492 51.8943 6.98919C51.7354 7.10345 51.5068 7.16307 51.2137 7.16307C50.9057 7.16307 50.5877 7.10345 50.2499 6.97925C49.9171 6.85505 49.5892 6.6762 49.2663 6.43277L48.6602 7.35682C49.0328 7.64994 49.4401 7.86853 49.8823 8.02254C50.3195 8.17158 50.7517 8.2461 51.1789 8.2461C51.487 8.2461 51.7751 8.20635 52.0434 8.12686C52.3117 8.04738 52.5451 7.93311 52.7439 7.7791C52.9426 7.62509 53.0966 7.43134 53.2109 7.19785C53.3251 6.96435 53.3798 6.69111 53.3798 6.37812V6.35328C53.3798 6.08501 53.3251 5.85648 53.2109 5.6677C53.1165 5.47891 52.9724 5.31994 52.7936 5.1858Z" fill="black"/>
<path d="M6.3673 0.346954L5.17 3.15885H3.10331L1.28998 1.34553C1.3645 1.2412 1.41418 1.11203 1.41418 0.977893C1.41418 0.6351 1.13597 0.351922 0.788211 0.351922C0.445417 0.351922 0.16224 0.630132 0.16224 0.977893C0.16224 1.32069 0.440449 1.60386 0.788211 1.60386C0.867699 1.60386 0.942219 1.58896 1.01177 1.55915L2.95923 3.50661H5.02096L4.75269 4.13755H1.3496C1.27508 3.87922 1.03164 3.68546 0.748466 3.68546C0.405673 3.68546 0.122496 3.96367 0.122496 4.31143C0.122496 4.65423 0.400705 4.9374 0.748466 4.9374C1.03164 4.9374 1.27508 4.74862 1.3496 4.48531H4.60365L4.33538 5.11625H2.89465L0.947187 7.06372C0.877635 7.03888 0.803115 7.019 0.723627 7.019C0.380833 7.019 0.0976562 7.29721 0.0976562 7.64497C0.0976562 7.98777 0.375865 8.27094 0.723627 8.27094C1.06642 8.27094 1.3496 7.99273 1.3496 7.64497C1.3496 7.50587 1.30489 7.3767 1.2254 7.27734L3.03872 5.46401H4.1913L2.99401 8.27591H4.75766L5.47802 6.51227H8.80659L9.52696 8.27591H11.3353L7.96203 0.346954H6.3673ZM6.09405 4.98211L7.14231 2.42855L8.19056 4.98211H6.09405Z" fill="#C8A94C"/>
<path d="M14.6684 0.371796H12.9346V8.24611H14.6684V0.371796Z" fill="#C8A94C"/>
<path d="M53.4092 0.67982H54.0401V2.33417H54.5021V0.67982H55.1331V0.257538H53.4092V0.67982Z" fill="black"/>
<path d="M57.1453 0.257538L56.5989 1.13688L56.0524 0.257538H55.5605V2.33417H56.0077V0.987836L56.5889 1.86718H56.5989L57.1851 0.977901V2.33417H57.6372V0.257538H57.1453Z" fill="black"/>
</svg>
