<svg width="68" height="11" viewBox="0 0 68 11" fill="none" xmlns="http://www.w3.org/2000/svg">
<path d="M0.783203 10.1304V0.701874H1.80805V10.1304H0.783203ZM1.46643 1.6584V0.770196H6.93227V1.6584H1.46643ZM1.46643 5.75778V4.86958H6.59066V5.75778H1.46643ZM1.46643 10.1304V9.24224H7.00059V10.1304H1.46643Z" fill="black"/>
<path d="M7.88867 10.1305L10.6216 6.57766L11.1682 7.26089L9.05016 10.0621H7.88867V10.1305ZM12.9446 10.1305L10.7582 7.19256L10.5533 6.9876L7.95699 3.63977H9.11848L11.0999 6.23605L11.3048 6.37269L14.0377 9.99381H12.8762L12.9446 10.1305ZM11.4415 7.05592L10.8949 6.37269L12.8762 3.77641H14.0377L11.5098 7.12425L11.4415 7.05592Z" fill="black"/>
<path d="M18.1369 10.2671C17.5219 10.2671 16.907 10.1304 16.4288 9.85715C15.9505 9.58386 15.5406 9.17392 15.199 8.62734C14.9257 8.14908 14.7207 7.53417 14.7207 6.91926C14.7207 6.30436 14.8573 5.68945 15.1306 5.21119C15.4039 4.73293 15.8139 4.32299 16.2921 3.98137C16.7704 3.63976 17.3853 3.57144 18.0002 3.57144C18.6151 3.57144 19.0934 3.70808 19.5716 3.98137C20.0499 4.25467 20.3915 4.59628 20.6648 5.07455C20.9381 5.55281 21.0747 6.09939 21.0747 6.71429C21.0747 7.3292 21.0747 6.85094 21.0747 6.98759C21.0747 7.05591 21.0747 7.19256 21.0747 7.32921H15.5406V6.50932H20.5965L20.2549 6.78262C20.2549 6.30436 20.1865 5.89442 19.9816 5.5528C19.8449 5.21119 19.5716 4.9379 19.23 4.73293C18.8884 4.52796 18.5468 4.45963 18.0685 4.45963C17.5903 4.45963 17.1803 4.52796 16.8387 4.80125C16.4971 5.00622 16.2238 5.27952 16.0188 5.62113C15.8139 5.96275 15.7455 6.37268 15.7455 6.91926C15.7455 7.46585 15.8139 7.87578 16.0872 8.2174C16.2921 8.55901 16.5654 8.90063 16.9754 9.1056C17.3853 9.31057 17.7952 9.44721 18.2735 9.44721C18.7518 9.44721 19.0251 9.37889 19.3667 9.24224C19.7083 9.10559 19.9816 8.90063 20.1865 8.62734L20.8014 9.24224C20.5282 9.58386 20.1182 9.85716 19.7083 10.0621C19.23 10.2671 18.7518 10.3354 18.2735 10.3354L18.1369 10.2671Z" fill="black"/>
<path d="M25.4474 10.2671C24.8325 10.2671 24.2176 10.1304 23.7394 9.78883C23.2611 9.51553 22.8512 9.10559 22.5095 8.55901C22.2363 8.08075 22.0996 7.46584 22.0996 6.85093C22.0996 6.23603 22.2363 5.62112 22.5095 5.14286C22.7828 4.6646 23.1928 4.25467 23.7394 3.91305C24.2176 3.63976 24.8325 3.50311 25.4474 3.50311C26.0623 3.50311 26.404 3.57143 26.8139 3.7764C27.2238 3.98137 27.5654 4.18634 27.9071 4.52796L27.2922 5.21119C27.0872 4.9379 26.8139 4.80125 26.5406 4.6646C26.2673 4.52796 25.9257 4.45963 25.5158 4.45963C25.1058 4.45963 24.6959 4.59628 24.2859 4.80125C23.9443 5.00621 23.671 5.27951 23.4661 5.62113C23.2611 5.96274 23.1928 6.37267 23.1928 6.85093C23.1928 7.3292 23.2611 7.73914 23.4661 8.08075C23.671 8.42237 23.9443 8.76398 24.2859 8.96895C24.6276 9.17392 25.0375 9.31057 25.5158 9.31057C25.994 9.31057 26.199 9.31056 26.5406 9.1056C26.8822 8.90063 27.0872 8.76398 27.3605 8.55901L27.9754 9.17392C27.7021 9.51554 27.2922 9.78882 26.8822 9.92547C26.4723 10.1304 25.994 10.1988 25.5158 10.1988L25.4474 10.2671Z" fill="black"/>
<path d="M31.8013 10.2671C31.2547 10.2671 30.8448 10.1305 30.4349 9.92548C30.0249 9.72051 29.6833 9.3789 29.4783 8.90064C29.2734 8.42238 29.1367 8.01244 29.1367 7.39753V3.63977H30.0932V7.32922C30.0932 7.73916 30.1616 8.08077 30.2982 8.35406C30.4349 8.62735 30.6398 8.90065 30.9131 9.03729C31.1864 9.17394 31.4597 9.31058 31.8013 9.31058C32.3479 9.31058 32.7578 9.10561 33.0995 8.76399C33.4411 8.42238 33.5777 7.94412 33.5777 7.32922V3.63977H34.5342V7.39753C34.5342 7.94412 34.3976 8.42238 34.1926 8.90064C33.9877 9.31058 33.646 9.65219 33.2361 9.92548C32.8262 10.1305 32.3479 10.2671 31.8013 10.2671Z" fill="black"/>
<path d="M35.627 4.59628V3.70808H39.7947V4.59628H35.627ZM37.2667 10.1304V0.975159H38.2232V10.1304H37.2667Z" fill="black"/>
<path d="M41.6403 2.34162C41.4353 2.34162 41.2986 2.34162 41.162 2.13665C41.0254 2 40.957 1.86336 40.957 1.65839C40.957 1.45342 40.957 1.31677 41.162 1.18012C41.2986 1.04348 41.4353 0.975159 41.6403 0.975159C41.8452 0.975159 41.9819 0.975156 42.1185 1.18012C42.2552 1.38509 42.3235 1.45342 42.3235 1.65839C42.3235 1.86336 42.3235 2 42.1185 2.13665C41.9136 2.27329 41.8452 2.34162 41.6403 2.34162ZM41.162 10.1304V3.70808H42.1185V10.1304H41.162Z" fill="black"/>
<path d="M46.2855 10.1305L43.2793 3.7081H44.3725L46.9004 9.31058H46.2855L48.8135 3.7081H49.8383L46.8321 10.1305H46.2855Z" fill="black"/>
<path d="M54.006 10.2671C53.3911 10.2671 52.7762 10.1304 52.2979 9.85715C51.8197 9.58386 51.4097 9.17392 51.0681 8.62734C50.7948 8.14908 50.5898 7.53417 50.5898 6.91926C50.5898 6.30436 50.7265 5.68945 50.9998 5.21119C51.2731 4.73293 51.683 4.32299 52.1613 3.98137C52.6395 3.63976 53.2544 3.57144 53.8693 3.57144C54.4843 3.57144 54.9625 3.70808 55.4408 3.98137C55.919 4.25467 56.2606 4.59628 56.5339 5.07455C56.8072 5.55281 56.9439 6.09939 56.9439 6.71429C56.9439 7.3292 56.9439 6.85094 56.9439 6.98759C56.9439 7.05591 56.9439 7.19256 56.9439 7.32921H51.4097V6.50932H56.4656L56.124 6.78262C56.124 6.30436 56.0557 5.89442 55.8507 5.5528C55.7141 5.21119 55.4408 4.9379 55.0992 4.73293C54.7575 4.52796 54.4159 4.45963 53.9377 4.45963C53.4594 4.45963 53.0495 4.52796 52.7079 4.80125C52.3662 5.00622 52.093 5.27952 51.888 5.62113C51.683 5.96275 51.6147 6.37268 51.6147 6.91926C51.6147 7.46585 51.683 7.87578 51.9563 8.2174C52.1613 8.55901 52.4346 8.90063 52.8445 9.1056C53.2544 9.31057 53.6644 9.44721 54.1426 9.44721C54.6209 9.44721 54.8942 9.37889 55.2358 9.24224C55.5774 9.10559 55.8507 8.90063 56.0557 8.62734L56.6706 9.24224C56.3973 9.58386 55.9874 9.85716 55.5774 10.0621C55.0992 10.2671 54.6209 10.3354 54.1426 10.3354L54.006 10.2671Z" fill="black"/>
<path d="M57.6289 1.11181V0.36026H61.7283V1.11181H57.6289ZM59.2687 5.34783V0.496904H60.0885V5.34783H59.2687Z" fill="black"/>
<path d="M62.4102 5.34784V0.36026H62.9567L65.0747 3.7764H64.7331L66.8512 0.36026H67.3977V5.34784H66.5779V1.79504H66.7828L65.2114 4.39132H64.6648L63.0934 1.86337H63.2984V5.41616H62.4785L62.4102 5.34784Z" fill="black"/>
</svg>
