<svg width="1466" height="662" viewBox="0 0 1466 662" fill="none" xmlns="http://www.w3.org/2000/svg">
<g opacity="0.5" clip-path="url(#clip0_1_12136)">
<g filter="url(#filter0_d_1_12136)">
<path d="M436.738 43.5414C461.172 39.0709 500.975 30.3136 507.956 61.1784C514.937 92.0431 521.551 104.107 522.653 138.463C524.368 192.905 507.834 324.325 532.328 319.12C556.333 314.037 593.014 209.256 613.65 184.27C634.287 159.223 665.211 139.626 679.235 162.285C693.931 186.046 678.867 241.223 699.136 255.369C716.834 267.739 741.145 169.45 763.251 159.652C796.747 144.832 898.767 146.975 906.299 190.455C913.77 233.935 1127.49 238.712 1143.53 274.66C1167.96 329.591 941.265 477.24 982.845 419.92C997.358 399.895 1028.47 433.821 1043.84 415.327C1059.21 396.833 1083.52 367.193 1094.48 383.36C1107.71 402.773 1073.9 406.08 1085.54 427.575C1094.78 444.599 1115.67 440.496 1131.71 426.473C1147.75 412.449 1160.74 390.954 1174.76 372.153C1188.84 353.352 1205.93 336.022 1222.59 335.532C1243.1 334.981 1255.71 360.517 1259.57 388.32C1263.43 416.184 1260.86 447.294 1263.25 475.954C1265.63 504.614 1274.82 532.723 1293.93 538.419" stroke="url(#paint0_linear_1_12136)" stroke-width="1.3" stroke-miterlimit="10"/>
<path d="M426.94 45.8685C450.823 41.6429 490.198 33.2531 497.546 63.6279C504.833 93.8191 511.569 105.761 513.039 139.443C515.55 192.782 500.424 321.263 525.347 316.425C549.597 311.648 586.4 209.562 607.159 185.189C627.857 160.876 658.23 141.831 672.437 163.938C685.174 183.719 677.03 225.362 686.277 245.999C687.93 249.735 690.257 252.797 693.319 254.879C711.077 266.882 735.45 170.43 757.495 160.57C772.314 153.956 799.748 150.711 826.631 152.915C861.352 155.794 895.277 167.735 899.624 192.721C902.686 210.052 935.876 221.381 976.17 231.241C1021.36 242.203 1075.74 248.449 1108.5 259.472C1122.52 264.188 1132.38 269.638 1135.57 276.068C1150.57 305.892 1087.62 364.621 1036.55 400.874C997.48 428.616 965.515 442.64 982.845 419.246C996.868 400.323 1027 433.944 1042.06 416.49C1045 413.061 1048.37 409.203 1051.86 405.345C1066.13 389.545 1083.33 373.806 1092.27 386.789C1105.44 406.018 1072.8 409.57 1084.56 430.759C1093.99 447.723 1114.75 443.803 1130.85 430.331C1134.28 427.452 1137.65 424.329 1140.83 420.838C1152.59 408.039 1162.94 391.321 1173.96 376.195C1187.93 357.211 1204.83 339.757 1221.24 338.961C1223.99 338.839 1226.57 339.145 1229.02 340.063C1244.88 345.82 1254.98 367.927 1258.71 391.443C1263 418.573 1261.35 448.396 1264.35 475.893C1267.35 503.512 1276.72 530.58 1295.95 535.908" stroke="url(#paint1_linear_1_12136)" stroke-width="1.3" stroke-miterlimit="10"/>
<path d="M417.143 48.1956C440.474 44.2762 479.481 36.1926 487.197 66.0775C494.79 95.595 501.526 107.414 503.547 140.361C506.731 192.599 493.137 318.14 518.428 313.608C542.922 309.076 579.787 209.746 600.729 185.985C621.672 162.224 651.311 143.913 665.64 165.408C678.683 184.882 671.274 225.484 680.52 245.571C689.767 265.657 684.501 252.185 687.563 254.144C705.382 265.719 729.755 171.165 751.861 161.244C766.925 154.446 794.42 151.201 821.058 153.711C855.228 156.896 888.602 169.389 893.133 194.742C896.318 212.563 929.018 224.321 968.454 234.609C1013.28 246.306 1067.41 250.654 1100.6 261.248C1114.5 265.719 1124.42 270.985 1127.85 277.17C1143.96 305.708 1084.93 362.232 1035.63 398.302C997.909 425.921 966.433 440.251 983.09 418.328C996.562 400.446 1025.71 433.883 1040.47 417.348C1043.35 414.163 1046.59 410.55 1050.08 406.876C1064.11 391.872 1081.19 376.807 1090.31 389.851C1103.54 408.897 1071.94 412.632 1083.82 433.576C1093.44 450.478 1114.14 446.743 1130.3 433.883C1133.79 431.127 1137.16 428.126 1140.34 424.758C1152.1 412.387 1162.33 395.363 1173.35 379.93C1187.13 360.701 1203.91 343.125 1220.07 342.023C1222.83 341.839 1225.4 342.146 1227.79 343.125C1243.59 349.494 1253.82 371.296 1257.98 394.138C1262.76 420.471 1261.96 449.131 1265.51 475.464C1269.13 502.042 1278.68 528.13 1298.03 532.968" stroke="url(#paint2_linear_1_12136)" stroke-width="1.3" stroke-miterlimit="10"/>
<path d="M407.345 50.5839C430.125 46.9095 468.765 39.1933 476.787 68.5883C484.809 97.9834 491.484 109.129 493.933 141.341C497.852 192.476 485.727 315.2 511.385 310.852C536.186 306.688 573.05 209.991 594.177 186.842C614.936 164.061 644.268 146.056 658.782 166.939C672.131 186.107 665.395 225.729 674.642 245.203C683.888 264.678 678.622 251.633 681.684 253.532C699.626 264.678 723.998 172.022 746.105 162.04C761.414 155.12 788.909 151.813 815.424 154.63C849.043 158.182 881.927 171.226 886.581 196.947C889.949 215.257 922.098 227.383 960.677 238.161C1005.2 250.592 1058.96 253.103 1092.64 263.269C1106.48 267.433 1116.4 272.639 1120.08 278.456C1137.28 305.708 1082.17 360.028 1034.71 395.853C998.399 423.288 967.352 438.047 983.273 417.532C996.255 400.752 1024.42 433.883 1038.81 418.328C1041.57 415.327 1044.82 412.02 1048.18 408.529C1062.02 394.322 1078.92 379.93 1088.17 393.097C1101.4 411.959 1070.9 415.939 1082.9 436.577C1092.7 453.357 1113.28 449.866 1129.51 437.618C1145.73 425.37 1136.49 432.107 1139.67 428.861C1151.37 416.919 1161.59 399.588 1172.62 383.85C1183.64 368.111 1202.87 346.739 1218.73 345.269C1221.42 345.024 1223.99 345.269 1226.38 346.31C1242.06 353.23 1252.47 374.786 1257.06 396.955C1262.33 422.553 1262.39 449.927 1266.55 475.097C1270.78 500.634 1280.51 525.681 1299.99 530.151" stroke="url(#paint3_linear_1_12136)" stroke-width="1.3" stroke-miterlimit="10"/>
<path d="M397.547 52.911C419.776 49.4816 457.987 42.1328 466.377 71.0379C474.582 99.2081 481.441 110.721 484.38 142.26C488.973 192.354 478.318 312.077 504.466 308.096C530.614 304.116 566.437 210.236 587.747 187.699C608.568 165.653 637.349 148.2 651.984 168.531C665.579 187.454 659.639 225.974 668.885 244.836C670.6 248.265 672.866 251.082 675.928 252.92C693.931 263.698 718.303 172.879 740.471 162.836C756.025 155.732 783.52 152.425 809.852 155.487C842.919 159.345 875.252 172.941 880.029 199.029C883.519 217.89 915.178 230.383 952.9 241.651C997.113 254.879 1050.57 255.43 1084.68 265.167C1118.79 274.905 1108.32 274.108 1112.3 279.681C1130.67 305.647 1079.41 357.762 1033.79 393.403C998.889 420.716 968.27 435.842 983.518 416.735C996.01 401.058 1023.14 433.883 1037.22 419.369C1051.31 404.855 1043.1 413.551 1046.41 410.305C1060 396.894 1076.78 383.237 1086.21 396.465C1095.64 409.693 1070.05 419.369 1082.23 439.7C1094.42 460.032 1112.73 453.112 1128.95 441.415C1145.18 429.718 1136.06 436.148 1139.24 432.964C1150.94 421.39 1161.04 403.814 1172.07 387.83C1183.09 371.847 1202.01 350.352 1217.63 348.637C1233.24 346.922 1222.89 348.576 1225.28 349.678C1240.89 357.211 1251.43 378.461 1256.45 400.017C1262.21 424.88 1263.12 450.968 1267.84 474.974C1272.62 499.409 1282.6 523.476 1302.19 527.518" stroke="url(#paint4_linear_1_12136)" stroke-width="1.3" stroke-miterlimit="10"/>
<path d="M387.749 55.2381C409.427 52.1149 447.271 45.0723 456.028 73.4875C464.784 101.903 471.459 112.375 474.827 143.178C480.155 192.17 470.969 309.015 497.485 305.279C522.837 301.666 559.762 210.419 581.256 188.495C602.077 167.184 630.368 150.282 645.187 170.001C659.088 188.618 653.883 226.158 663.068 244.407C664.783 247.775 667.11 250.47 670.171 252.185C688.297 262.534 712.67 173.614 734.776 163.51C750.636 156.283 778.07 152.915 804.218 156.283C836.796 160.448 868.516 174.594 873.476 201.111C877.151 220.463 908.259 233.384 945.123 245.081C989.03 259.043 1042.12 257.696 1076.72 267.066C1090.38 270.74 1100.3 275.578 1104.52 280.906C1123.99 305.586 1076.66 355.496 1032.87 390.954C999.317 418.083 969.189 433.576 983.702 415.939C995.704 401.364 1021.79 433.883 1035.57 420.349C1038.14 417.777 1041.33 415.021 1044.51 411.959C1057.86 399.343 1074.52 386.422 1084.07 399.711C1097.36 418.144 1069 422.676 1081.31 442.762C1093.62 462.849 1111.93 456.357 1128.16 445.212C1131.77 442.762 1135.32 440.19 1138.57 437.128C1150.2 425.983 1160.31 408.101 1171.27 391.811C1184.62 371.969 1200.91 354.026 1216.28 351.944C1231.65 349.862 1221.54 351.76 1223.87 352.985C1239.43 361.13 1250.14 382.074 1255.53 402.957C1261.72 427.024 1263.55 451.887 1268.88 474.791C1274.27 498.184 1284.43 521.271 1304.15 524.885" stroke="url(#paint5_linear_1_12136)" stroke-width="1.3" stroke-miterlimit="10"/>
<path d="M377.951 57.6265C399.078 54.7482 436.493 48.0731 445.617 75.9983C454.374 102.821 461.416 114.089 465.274 144.158C471.337 192.109 463.621 306.014 490.504 302.524C516.101 299.217 553.087 210.664 574.765 189.353C595.647 168.776 623.448 152.425 638.39 171.532C653.331 190.639 648.065 226.342 657.312 244.04C659.026 247.285 661.353 249.919 664.415 251.572C682.602 261.554 706.974 174.472 729.142 164.306C751.31 154.14 772.681 153.589 798.707 157.202C830.733 161.673 861.903 176.431 866.985 203.254C870.782 223.157 901.461 236.446 937.407 248.633C981.069 263.391 1033.73 260.146 1068.82 269.026C1082.35 272.455 1092.34 277.109 1096.74 282.131C1117.32 305.524 1073.9 353.23 1031.89 388.443C999.746 415.388 970.046 431.31 983.886 415.082C995.398 401.548 1020.5 433.821 1033.92 421.267C1036.43 418.94 1039.49 416.429 1042.67 413.551C1055.84 401.732 1072.31 389.484 1082.05 402.895C1091.78 416.307 1068.15 425.921 1080.52 445.702C1090.87 462.236 1111.26 459.419 1127.48 448.886C1131.1 446.559 1134.77 444.171 1138.02 441.17C1149.65 430.392 1159.63 412.326 1170.66 395.669C1183.88 375.644 1199.99 357.517 1215.05 355.128C1217.75 354.7 1220.26 354.822 1222.59 356.169C1238.08 364.927 1248.92 385.564 1254.73 405.774C1261.41 429.106 1264.16 452.683 1269.98 474.423C1275.98 496.714 1286.33 518.822 1306.17 522.006" stroke="url(#paint6_linear_1_12136)" stroke-width="1.3" stroke-miterlimit="10"/>
<path d="M368.153 59.9536C388.729 57.3203 425.777 51.0126 435.268 78.5092C444.331 104.658 451.435 115.804 455.721 145.138C462.519 191.986 456.211 302.952 483.523 299.829C509.426 296.828 546.413 210.97 568.274 190.271C589.156 170.43 616.528 154.569 631.531 173.186C646.105 191.19 642.248 226.648 651.433 243.795C653.148 246.979 655.475 249.49 658.536 251.021C676.846 260.574 701.218 175.39 723.386 165.163C739.736 157.631 767.17 154.201 793.012 158.121C824.487 162.897 855.105 178.207 860.372 205.398C865.638 232.588 894.48 239.569 929.569 252.123C972.924 267.678 1025.22 262.534 1060.8 270.985C1096.38 279.436 1084.25 278.701 1088.91 283.417C1110.64 305.524 1071.15 350.964 1030.92 386.054C1000.17 412.816 970.903 429.167 984.008 414.347C995.031 401.915 1019.1 433.821 1032.2 422.308C1034.59 420.226 1037.65 417.899 1040.77 415.266C1053.7 404.242 1070.05 392.729 1079.97 406.141C1093.25 424.207 1067.17 429.228 1079.66 448.702C1090.19 465.176 1110.52 462.543 1126.75 452.622C1130.42 450.356 1134.16 448.151 1137.41 445.273C1148.98 434.924 1158.96 416.552 1169.92 399.65C1180.88 382.747 1199.01 361.13 1213.77 358.497C1228.53 355.863 1218.97 358.129 1221.3 359.476C1236.67 368.846 1247.69 389.178 1253.94 408.774C1261.1 431.372 1264.72 453.663 1271.15 474.239C1277.76 495.428 1288.29 516.556 1308.25 519.373" stroke="url(#paint7_linear_1_12136)" stroke-width="1.3" stroke-miterlimit="10"/>
<path d="M358.355 62.3419C378.441 59.9536 414.999 54.0133 424.858 81.02C434.166 106.496 441.453 117.519 446.168 146.118C453.762 191.925 448.863 299.952 476.603 297.073C502.751 294.379 539.799 211.215 561.844 191.129C582.787 172.083 609.67 156.712 624.795 174.717C639.921 192.721 636.553 226.893 645.738 243.427C654.923 259.962 649.78 248.939 652.841 250.409C671.212 259.533 695.584 176.248 717.813 165.959C734.408 158.243 761.842 154.814 787.5 159.039C818.425 164.122 848.492 180.044 853.881 207.602C857.983 228.485 887.683 242.754 921.853 255.737C956.023 268.719 1016.83 264.984 1052.9 273.006C1066.25 275.946 1076.29 280.294 1081.19 284.764C1104.03 305.524 1068.45 348.821 1030.06 383.666C1000.73 410.244 971.883 426.962 984.314 413.612C996.745 400.262 1017.87 433.883 1030.67 423.411C1043.47 412.939 1036 419.491 1039 417.042C1051.67 406.815 1067.9 395.975 1077.94 409.509C1091.23 427.391 1066.25 432.596 1078.86 451.826C1089.64 468.177 1109.85 465.85 1126.08 456.419C1129.81 454.275 1133.55 452.193 1136.79 449.376C1148.37 439.455 1158.29 420.777 1169.19 403.569C1182.17 383.176 1197.97 364.682 1212.48 361.742C1215.18 361.191 1217.69 361.252 1219.95 362.722C1235.26 372.704 1246.41 392.73 1253.08 411.653C1260.74 433.454 1265.21 454.459 1272.19 473.994C1279.17 493.53 1290.13 514.229 1310.21 516.617" stroke="url(#paint8_linear_1_12136)" stroke-width="1.3" stroke-miterlimit="10"/>
<path d="M348.558 64.669C368.092 62.5869 404.222 56.9528 414.509 83.4696C424.797 109.986 431.472 119.172 436.616 147.036C444.944 191.741 441.515 296.828 469.622 294.256C496.076 291.807 533.124 211.399 555.353 191.925C576.296 173.614 602.75 158.794 617.937 176.248C633.123 193.701 630.735 227.076 639.859 243.06C641.574 245.999 643.962 248.327 646.963 249.796C665.456 258.554 689.828 177.105 711.996 166.755C734.163 156.406 756.27 155.426 781.805 159.958C807.341 164.49 841.695 181.82 847.267 209.746C851.492 231.179 880.702 245.877 914.015 259.227C956.88 276.374 1008.32 267.372 1044.88 274.966C1081.44 282.559 1068.21 281.825 1073.35 286.05C1097.3 305.524 1065.7 346.555 1029.02 381.278C1001.09 407.672 972.679 424.819 984.375 412.877C996.072 400.936 1016.4 433.882 1028.89 424.452C1031.1 422.798 1034.04 421.022 1037.04 418.818C1049.53 409.387 1065.57 399.282 1075.8 412.877C1086.03 426.473 1065.27 436.026 1077.94 454.949C1090.62 473.872 1109.05 469.095 1125.28 460.277C1129.02 458.256 1132.87 456.296 1136.12 453.602C1147.63 444.048 1157.55 425.186 1168.45 407.611C1181.25 387.034 1196.93 368.295 1211.13 365.11C1225.34 361.926 1216.34 364.498 1218.54 366.09C1233.79 376.685 1245.06 396.404 1252.16 414.653C1260.31 435.72 1265.63 455.378 1273.23 473.811C1281 492.734 1291.97 512.024 1312.17 513.984" stroke="url(#paint9_linear_1_12136)" stroke-width="1.3" stroke-miterlimit="10"/>
<path d="M338.76 66.9961C357.743 65.1589 393.505 59.8311 404.099 85.9191C414.693 112.007 421.429 120.826 427.063 147.955C436.126 191.619 434.105 293.766 462.641 291.5C489.34 289.357 526.388 211.644 548.862 192.782C569.805 175.206 595.83 160.938 611.139 177.779C626.693 194.926 624.979 227.321 634.103 242.693C643.227 258.064 638.206 247.775 641.206 249.123C659.822 257.451 684.133 177.901 706.362 167.49C723.508 159.468 750.881 155.977 776.233 160.754C801.585 165.531 835.081 183.535 840.715 211.828C845.124 233.752 873.782 249 906.238 262.718C948.858 280.722 999.807 269.76 1036.92 276.864C1050.02 279.375 1060.19 283.294 1065.51 287.214C1090.56 305.402 1062.94 344.167 1028.04 378.706C1001.52 404.916 973.537 422.492 984.559 411.959C995.582 401.426 1015.12 433.699 1027.3 425.309C1029.45 423.839 1032.32 422.369 1035.2 420.349C1047.45 411.714 1063.37 402.344 1073.72 416.001C1084.07 429.657 1064.29 439.21 1077.15 457.827C1088.29 473.994 1108.44 472.157 1124.61 463.89C1140.77 455.623 1132.26 460.216 1135.57 457.582C1147.02 448.458 1156.88 429.29 1167.78 411.469C1180.45 390.709 1195.95 371.786 1209.91 368.356C1223.87 364.927 1215.05 367.683 1217.32 369.336C1232.51 380.543 1243.96 399.956 1251.49 417.593C1260.12 437.924 1266.25 456.235 1274.45 473.566C1282.84 491.325 1293.99 509.697 1314.32 511.228" stroke="url(#paint10_linear_1_12136)" stroke-width="1.3" stroke-miterlimit="10"/>
<path d="M328.962 69.3845C347.394 67.7922 382.727 62.8318 393.75 88.43C404.773 114.028 411.447 122.54 417.51 148.935C427.308 191.496 426.756 290.766 455.66 288.745C482.604 286.907 519.713 211.889 542.371 193.701C563.314 176.86 588.911 163.081 604.281 179.371C620.202 196.212 619.1 227.628 628.224 242.386C629.939 245.142 632.327 247.285 635.328 248.572C654.066 256.471 678.377 178.82 700.606 168.348C722.835 157.876 745.37 156.651 770.538 161.734C799.809 167.674 828.284 185.372 834.101 214.032C838.633 236.446 866.863 252.246 898.399 266.27C940.775 285.132 991.295 272.21 1028.96 278.824C1042 281.09 1052.16 284.887 1057.74 288.5C1083.95 305.402 1060.25 341.901 1027.12 376.317C1002.07 402.344 974.455 420.349 984.743 411.224C995.03 402.099 1013.77 433.638 1025.65 426.411C1037.53 419.185 1030.49 423.962 1033.36 422.125C1045.37 414.347 1061.17 405.59 1071.7 419.369C1084.99 436.7 1063.43 442.64 1076.35 460.95C1087.68 477.056 1107.77 475.403 1123.99 467.687C1140.22 459.971 1131.77 464.257 1135.08 461.747C1146.53 453.051 1156.33 433.576 1167.17 415.449C1179.72 394.444 1195.09 375.399 1208.75 371.663C1211.44 370.928 1213.89 370.867 1216.09 372.582C1231.16 384.401 1242.85 403.508 1250.75 420.471C1258.65 437.434 1266.86 456.97 1275.68 473.321C1284.5 489.672 1296.01 507.37 1316.46 508.534" stroke="url(#paint11_linear_1_12136)" stroke-width="1.3" stroke-miterlimit="10"/>
<path d="M319.164 71.7116C337.045 70.4255 371.889 65.7713 383.34 90.8796C393.689 113.599 401.405 124.194 407.957 149.915C418.49 191.435 419.408 287.704 448.74 285.989C475.991 284.397 513.039 212.134 535.941 194.558C558.843 176.982 582.113 165.224 597.545 180.963C612.976 196.702 613.405 227.873 622.529 242.08C624.244 244.775 626.693 246.796 629.633 248.02C648.494 255.492 672.743 179.738 694.972 169.205C712.608 160.876 739.981 157.325 764.965 162.652C793.685 168.838 821.609 187.148 827.549 216.237C832.264 239.202 859.943 255.492 890.622 269.822C932.753 289.541 982.783 274.721 1020.99 280.845C1033.92 282.927 1044.14 286.479 1049.96 289.847C1077.27 305.463 1057.55 339.696 1026.2 373.929C1002.56 399.711 975.374 418.266 984.988 410.489C994.602 402.712 1012.54 433.576 1024.06 427.452C1035.57 421.328 1028.77 425.493 1031.59 423.839C1043.35 416.858 1059.02 408.835 1069.74 422.614C1083.03 439.761 1062.57 445.947 1075.62 463.951C1087.19 479.996 1107.22 478.587 1123.38 471.422C1127.3 469.708 1131.28 468.238 1134.59 465.788C1145.98 457.46 1155.78 437.802 1166.61 419.369C1179.05 398.18 1194.23 378.889 1207.58 374.909C1220.93 370.928 1212.73 374.051 1214.87 375.827C1229.87 388.259 1241.69 407.06 1250.02 423.411C1259.63 442.211 1267.41 457.766 1276.84 473.076C1286.33 488.508 1297.97 505.043 1318.54 505.778" stroke="url(#paint12_linear_1_12136)" stroke-width="1.3" stroke-miterlimit="10"/>
<path d="M309.366 74.0999C326.696 73.0588 361.111 68.7108 372.991 93.3904C383.585 115.437 391.423 125.909 398.404 150.894C409.671 191.374 411.998 284.703 441.759 283.294C469.255 282.008 506.303 212.44 529.45 195.477C550.332 180.106 575.194 167.368 590.748 182.555C606.302 197.743 607.71 228.179 616.712 241.774C625.714 255.369 620.876 246.306 623.815 247.408C642.799 254.512 666.987 180.596 689.277 170.001C711.567 159.407 734.531 157.876 759.393 163.571C787.623 170.001 814.995 188.985 821.058 218.38C825.895 241.835 853.084 258.737 882.907 273.374C924.854 294.011 974.394 277.17 1013.1 282.804C1025.89 284.642 1036.12 288.01 1042.24 291.133C1070.66 305.524 1054.98 337.369 1025.28 371.541C1003.05 397.139 976.292 416.123 985.171 409.754C993.193 403.998 1011.26 433.515 1022.4 428.493C1033.55 423.472 1026.93 427.024 1029.69 425.554C1041.2 419.43 1056.76 412.081 1067.6 425.921C1078.43 439.762 1061.59 449.254 1074.7 467.013C1086.46 482.935 1106.48 481.833 1122.59 475.219C1138.69 468.605 1130.55 472.28 1133.85 469.953C1145.18 462.053 1154.98 442.089 1165.76 423.349C1178.07 401.977 1193.07 382.441 1206.17 378.277C1208.93 377.42 1211.26 377.297 1213.46 379.196C1228.4 392.24 1240.34 410.734 1249.1 426.411C1259.14 444.416 1267.78 458.562 1277.88 472.892C1287.92 487.161 1299.8 502.838 1320.5 503.144" stroke="url(#paint13_linear_1_12136)" stroke-width="1.3" stroke-miterlimit="10"/>
<path d="M299.568 76.427C316.347 75.6309 350.333 71.5891 362.581 95.84C373.358 117.213 381.441 127.562 388.851 151.813C400.915 191.19 404.65 281.58 434.778 280.477C462.58 279.436 499.628 212.624 522.959 196.273C543.84 181.637 568.335 169.45 583.889 184.025C600.852 200.009 601.893 228.301 610.894 241.345C619.896 254.389 615.058 245.693 617.998 246.734C637.104 253.409 661.292 181.392 683.582 170.797C701.769 162.162 729.081 158.488 753.759 164.49C781.438 171.226 808.259 190.761 814.505 220.585C819.527 244.53 846.226 262.044 875.13 276.925C916.832 298.421 965.882 279.681 1005.13 284.825C1044.39 289.969 1028.1 289.602 1034.47 292.419C1063.98 305.524 1052.29 335.042 1024.36 369.152C1003.6 394.505 977.211 414.041 985.416 409.019C993.622 403.998 1010.09 433.454 1020.81 429.596C1022.65 428.922 1025.22 428.616 1027.91 427.391C1039.18 422.063 1054.55 415.388 1065.64 429.351C1078.92 446.13 1060.8 452.744 1073.96 470.198C1085.97 486.059 1105.93 485.201 1121.97 479.077C1126.02 477.546 1130.06 476.383 1133.36 474.178C1144.63 466.646 1154.37 446.437 1165.15 427.391C1177.33 405.835 1192.21 386.054 1205.01 381.645C1207.77 380.727 1210.09 380.604 1212.24 382.564C1227.06 396.22 1239.18 414.408 1248.37 429.412C1257.55 444.416 1268.33 459.419 1279.05 472.77C1289.58 485.814 1301.76 500.634 1322.58 500.511" stroke="url(#paint14_linear_1_12136)" stroke-width="1.3" stroke-miterlimit="10"/>
<path d="M289.771 78.7541C305.998 78.2642 339.556 74.5286 352.232 98.2895C363.254 118.989 371.46 129.216 379.298 152.732C392.097 191.068 397.24 278.456 427.797 277.66C455.844 276.925 492.892 212.808 516.468 197.069C537.288 183.168 561.477 171.471 577.092 185.556C594.483 201.233 596.136 228.546 605.077 240.978C606.791 243.366 609.302 245.142 612.18 246.061C631.409 252.307 655.536 182.188 677.887 171.532C700.238 160.876 723.631 158.978 748.125 165.286C772.62 171.593 801.523 192.476 807.892 222.606C814.261 252.736 839.245 265.167 867.291 280.355C908.81 302.769 957.309 282.008 997.113 286.663C1009.67 288.132 1020.01 291.072 1026.57 293.583C1057.25 305.402 1049.53 332.592 1023.32 366.58C1003.97 391.688 977.946 411.775 985.478 408.101C992.52 404.671 1009.48 435.107 1019.04 430.453C1020.87 430.331 1023.26 429.963 1025.89 428.922C1036.86 424.452 1052.16 418.45 1063.37 432.474C1074.58 446.498 1059.63 455.929 1072.92 473.076C1085.11 488.814 1105.07 488.263 1121.06 482.69C1125.16 481.282 1129.2 480.302 1132.57 478.159C1143.77 471.055 1153.51 450.601 1164.29 431.249C1176.35 409.509 1191.05 389.484 1203.54 384.83C1206.3 383.789 1208.62 383.666 1210.71 385.687C1225.46 399.956 1237.71 417.838 1247.32 432.229C1258.35 448.764 1268.51 460.032 1279.96 472.402C1291.41 484.773 1303.48 498.184 1324.42 497.694" stroke="url(#paint15_linear_1_12136)" stroke-width="1.3" stroke-miterlimit="10"/>
<path d="M279.973 81.1425C295.649 80.8975 328.717 77.4681 341.821 100.8C353.028 120.764 361.478 130.93 369.745 153.711C383.34 191.006 389.892 275.456 420.878 274.966C449.169 274.537 486.217 213.114 510.038 197.988C530.858 184.76 554.679 173.614 570.295 187.148C588.053 202.519 590.38 228.791 599.321 240.61C608.261 252.43 603.546 244.591 606.424 245.448C625.836 251.266 649.902 183.045 672.192 172.328C690.869 163.387 718.18 159.59 742.553 166.204C769.129 173.431 794.91 194.252 801.401 224.811C806.728 249.796 832.386 268.474 859.575 283.907C900.849 307.3 948.919 284.519 989.213 288.683C1029.51 292.848 1012.05 292.664 1018.85 294.93C1050.63 305.463 1046.96 330.265 1022.46 364.253C1004.58 389.055 978.864 409.815 985.784 407.427C992.703 405.039 1008.38 435.291 1017.5 431.555C1019.28 431.678 1021.61 431.555 1024.18 430.698C1034.9 427.085 1050.08 421.757 1061.47 435.842C1074.76 452.254 1058.9 459.297 1072.31 476.199C1084.74 491.876 1104.64 491.57 1120.57 486.549C1136.49 481.527 1128.83 484.405 1132.2 482.384C1143.34 475.648 1153.08 454.949 1163.8 435.291C1175.74 413.367 1190.25 393.097 1202.5 388.259C1214.75 383.421 1207.52 386.973 1209.66 389.116C1224.36 404.059 1236.79 421.573 1246.77 435.291C1258.29 451.03 1269.12 460.889 1281.31 472.28C1292.76 482.935 1305.62 495.98 1326.69 495.061" stroke="url(#paint16_linear_1_12136)" stroke-width="1.3" stroke-miterlimit="10"/>
<path d="M270.175 83.4696C285.3 83.4696 317.878 80.4076 331.472 103.311C342.924 122.602 351.497 132.645 360.192 154.691C374.522 190.945 382.544 272.822 413.897 272.21C442.494 271.659 479.42 213.359 503.547 198.845C527.674 184.331 547.821 175.696 563.497 188.679C581.623 203.744 584.685 229.036 593.503 240.243C595.279 242.448 597.79 244.04 600.668 244.836C620.202 250.225 644.207 183.903 666.558 173.124C685.48 164 712.792 160.142 736.98 167.123C763.006 174.594 788.235 196.028 794.848 226.954C800.299 252.43 825.467 271.781 851.798 287.459C892.827 311.832 940.407 287.091 981.252 290.643C993.561 291.745 1004.03 294.195 1011.07 296.155C1044.02 305.341 1044.26 327.816 1021.48 361.742C1005.01 386.299 979.538 407.672 985.906 406.57C992.275 405.467 1007.03 435.291 1015.79 432.474C1017.5 432.841 1019.71 432.964 1022.22 432.29C1032.63 429.473 1047.75 424.819 1059.33 438.965C1070.9 453.112 1057.92 462.481 1071.39 479.077C1084.01 494.632 1103.91 494.632 1119.77 490.1C1123.99 488.876 1128.1 488.202 1131.53 486.242C1142.61 479.935 1152.35 458.991 1163 438.965C1174.82 416.858 1189.15 396.281 1201.09 391.26C1203.85 390.096 1206.11 389.912 1208.19 392.117C1222.77 407.672 1235.38 424.88 1245.79 437.924C1257.8 452.928 1269.31 461.318 1282.29 471.79C1294.11 481.282 1307.4 493.469 1328.59 492.121" stroke="url(#paint17_linear_1_12136)" stroke-width="1.3" stroke-miterlimit="10"/>
<path d="M260.377 85.8579C274.951 86.1641 307.039 83.3471 321.062 105.822C332.697 124.439 341.515 134.36 350.639 155.671C365.765 190.884 375.134 269.822 406.916 269.454C435.758 269.148 472.684 213.604 497.056 199.702C517.754 187.944 541.023 177.779 556.639 190.271C575.193 205.03 578.868 229.342 587.686 239.937C589.461 242.08 591.972 243.489 594.85 244.223C614.507 249.123 638.512 184.699 660.863 173.92C680.03 164.612 707.342 160.754 731.346 167.98C756.821 175.696 781.499 197.804 788.296 229.036C793.93 255.063 818.547 275.088 844.021 290.888C884.866 316.241 931.896 289.48 973.291 292.542C985.477 293.46 996.01 295.665 1003.3 297.379C1037.34 305.279 1041.63 325.366 1020.57 359.293C1005.5 383.544 980.395 404.487 986.151 405.835C991.356 405.1 1005.81 435.413 1014.2 433.576C1015.79 434.127 1017.93 434.556 1020.44 434.066C1030.49 432.107 1045.61 428.126 1057.31 442.334C1070.53 458.44 1057 465.911 1070.6 482.201C1083.46 497.694 1103.36 498 1119.1 493.959C1123.32 492.856 1127.55 492.305 1130.91 490.468C1141.94 484.528 1151.67 463.339 1162.33 443.068C1172.98 422.798 1188.23 399.956 1199.87 394.689C1202.62 393.464 1204.89 393.219 1206.91 395.485C1221.42 411.653 1234.16 428.555 1245 440.986C1257.43 455.255 1269.61 462.236 1283.45 471.667C1295.64 479.996 1309.36 491.264 1330.67 489.488" stroke="url(#paint18_linear_1_12136)" stroke-width="1.3" stroke-miterlimit="10"/>
<path d="M250.579 88.185C264.602 88.7362 296.2 86.2253 310.713 108.272C322.532 126.215 331.534 136.074 341.087 156.59C357.008 190.761 367.786 266.27 399.935 266.698C429.022 267.066 465.948 213.787 490.503 200.56C515.059 187.332 534.104 179.861 549.78 191.802C568.764 206.255 573.111 229.526 581.807 239.569C583.583 241.651 586.093 242.937 588.972 243.611C608.812 248.082 632.694 185.556 655.107 174.717C674.58 165.286 701.83 161.305 725.712 168.899C750.636 176.799 774.824 199.58 781.683 231.241C787.439 257.757 811.566 278.456 836.183 294.501C876.783 320.834 924.057 286.295 965.269 294.501C977.149 296.89 987.927 297.196 995.459 298.665C1030.61 305.218 1038.94 322.916 1019.59 356.843C1005.93 380.727 981.191 402.222 986.335 405.039C990.989 405.345 1004.58 435.475 1012.61 434.556C1014.14 435.352 1016.34 436.699 1018.67 435.781C1027.73 432.045 1043.47 431.372 1055.35 445.64C1068.58 461.563 1056.21 469.218 1069.86 485.263C1083.52 501.307 1102.81 501.246 1118.48 497.755C1122.77 496.776 1126.99 496.347 1130.42 494.632C1141.39 489.059 1151.12 467.626 1161.72 447.049C1173.29 424.574 1187.31 403.446 1198.7 398.057C1210.09 392.668 1203.66 396.526 1205.68 398.853C1220.07 415.633 1233 432.229 1244.26 443.987C1255.53 455.745 1269.92 463.094 1284.62 471.484C1297.11 478.649 1311.32 488.998 1332.75 486.855" stroke="url(#paint19_linear_1_12136)" stroke-width="1.3" stroke-miterlimit="10"/>
<path d="M240.782 90.5121C254.254 91.3082 285.362 89.1648 300.304 110.721C312.245 127.991 321.553 137.728 331.534 157.508C348.252 190.639 360.438 263.147 393.015 263.881C422.409 264.555 459.212 213.971 484.074 201.356C504.65 190.945 527.368 181.882 543.045 193.272C562.395 207.357 567.478 229.71 576.051 239.141C584.624 248.572 580.399 242.325 583.216 242.876C603.179 246.918 627 186.291 649.412 175.39C669.131 165.776 696.381 161.734 720.079 169.634C743.778 177.534 768.089 201.172 775.131 233.2C781.071 260.207 804.586 281.641 828.407 297.808C868.761 325.182 915.485 288.5 957.309 296.277C969.067 298.482 979.905 298.604 987.621 299.768C1023.93 305.034 1036.24 320.222 1018.55 354.271C1006.3 377.787 981.988 399.895 986.397 404.12C990.561 405.529 1003.18 435.475 1010.83 435.414C1012.3 436.455 1014.38 438.108 1016.65 437.312C1025.53 434.25 1041.02 434.372 1053.08 448.764C1066.31 464.502 1055.1 472.402 1068.82 488.202C1082.11 503.451 1102.01 504.431 1117.56 501.369C1133.12 498.307 1126.14 500.266 1129.63 498.613C1140.47 493.469 1150.27 471.79 1160.86 450.846C1172.31 428.187 1186.15 406.753 1197.23 401.181C1199.99 399.772 1202.19 399.527 1204.21 401.977C1218.54 419.43 1231.59 435.658 1243.28 446.743C1256.69 459.481 1269.98 463.706 1285.6 471.116C1298.4 477.179 1313.09 486.549 1334.65 483.977" stroke="url(#paint20_linear_1_12136)" stroke-width="1.3" stroke-miterlimit="10"/>
<path d="M230.984 92.9005C243.905 94.0028 274.523 92.1044 289.955 113.232C302.079 129.828 311.632 139.443 321.981 158.488C339.495 190.578 353.028 260.146 386.035 261.126C415.673 262.044 452.415 214.155 477.583 202.274C498.097 192.599 520.51 184.025 536.186 194.926C555.966 208.705 561.722 230.016 570.234 238.896C572.071 240.794 574.581 241.896 577.398 242.386C597.545 245.938 621.305 187.271 643.717 176.309C663.68 166.51 690.931 162.407 714.445 170.675C738.266 179.065 761.352 203.132 768.517 235.527C775.682 267.923 797.604 285.193 820.568 301.483C860.678 329.959 906.85 291.072 949.287 298.421C960.922 300.441 971.822 300.319 979.783 301.176C1017.2 305.157 1033.55 317.833 1017.57 352.005C1006.73 375.154 982.845 397.812 986.58 403.508C990.193 405.957 1001.95 435.72 1009.18 436.638C1010.58 437.924 1012.48 439.823 1014.81 439.21C1023.51 436.822 1038.81 437.802 1051.06 452.254C1064.29 467.809 1054.25 475.893 1068.09 491.448C1081.62 506.635 1101.46 507.921 1117.01 505.349C1132.57 502.777 1125.71 504.492 1129.2 502.9C1139.98 498.123 1149.71 476.199 1160.31 455.01C1171.7 432.168 1185.29 410.489 1196.13 404.671C1198.89 403.201 1201.09 402.957 1203.05 405.467C1217.26 423.533 1230.55 439.455 1242.61 449.927C1254.67 460.399 1270.35 464.809 1286.82 471.116C1299.87 476.077 1315.11 484.528 1336.79 481.527" stroke="url(#paint21_linear_1_12136)" stroke-width="1.3" stroke-miterlimit="10"/>
<path d="M221.186 95.2276C233.556 96.5748 263.623 95.0438 279.544 115.682C291.792 131.604 301.589 141.096 312.428 159.407C330.738 190.455 345.68 257.023 379.054 258.37C412.427 259.717 445.679 214.339 471.092 203.132C491.545 194.13 513.712 186.046 529.389 196.457C545.065 206.867 556.027 230.261 564.416 238.528C572.806 246.796 568.825 241.345 571.581 241.774C591.85 244.897 615.549 188.128 638.022 177.105C660.496 166.082 685.481 162.959 708.873 171.593C732.143 180.167 754.739 204.908 762.026 237.671C768.272 265.719 790.685 288.622 812.852 305.034C852.717 334.552 898.338 293.644 941.388 300.38C952.961 302.217 963.861 301.85 972.067 302.462C1010.58 305.157 1030.92 315.323 1016.71 349.556C1007.28 372.337 982.661 396.159 986.825 402.712C990.989 409.264 1000.73 435.781 1007.58 437.618C1008.87 439.149 1010.65 441.354 1012.97 440.864C1021.48 439.21 1036.61 440.986 1049.04 455.439C1062.21 470.81 1053.39 479.139 1067.29 494.387C1081.01 509.452 1100.91 511.106 1116.34 509.024C1120.87 508.411 1125.1 508.411 1128.65 506.941C1139.36 502.532 1149.1 480.425 1159.63 458.868C1170.17 437.312 1184.31 413.857 1194.91 407.917C1205.5 401.977 1199.81 406.08 1201.76 408.652C1215.91 427.33 1229.32 442.946 1241.81 452.744C1256.14 463.951 1270.59 465.605 1287.99 470.749C1305.38 475.893 1317.07 482.078 1338.87 478.649" stroke="url(#paint22_linear_1_12136)" stroke-width="1.3" stroke-miterlimit="10"/>
<path d="M211.388 97.5547C223.207 99.1469 252.723 97.9834 269.195 118.131C281.565 133.38 291.669 142.75 302.875 160.387C321.981 190.333 338.331 253.961 372.073 255.614C402.262 257.084 438.882 214.522 464.601 203.989C484.931 195.661 506.915 188.128 522.53 197.988C538.146 207.847 550.271 230.445 558.599 238.161C566.927 245.877 563.008 240.733 565.763 241.1C586.216 243.734 609.854 188.924 632.266 177.84C654.679 166.755 679.969 163.448 703.178 172.389C725.958 181.208 747.942 206.622 755.351 239.753C761.781 268.291 783.643 291.929 804.953 308.464C844.512 339.084 889.582 296.032 933.304 302.279C944.756 303.932 955.717 303.32 964.168 303.687C1003.85 305.096 1028.1 312.628 1015.67 347.106C1003.24 381.584 983.518 393.648 986.948 401.915C990.377 410.183 999.44 435.842 1005.87 438.598C1007.09 440.374 1008.69 442.027 1011.07 442.517C1019.28 444.355 1034.28 444.171 1046.9 458.685C1059.51 473.198 1052.41 482.384 1066.37 497.388C1080.33 512.33 1100.17 514.351 1115.54 512.698C1130.91 511.044 1124.42 512.33 1127.98 510.983C1138.57 506.941 1148.37 484.589 1158.9 462.726C1170.04 439.517 1183.27 417.164 1193.56 411.101C1196.31 409.448 1198.46 409.142 1200.42 411.836C1214.44 431.188 1228.04 446.437 1240.96 455.561C1253.88 464.686 1270.78 466.462 1289.03 470.443C1307.28 474.423 1318.91 479.69 1340.83 475.893" stroke="url(#paint23_linear_1_12136)" stroke-width="1.3" stroke-miterlimit="10"/>
<path d="M201.59 99.943C212.858 101.841 241.823 100.923 258.785 120.642C271.339 135.217 281.688 144.464 293.322 161.366C313.224 190.271 330.922 250.96 365.153 252.92C395.587 254.634 432.145 214.767 458.171 204.908C478.44 197.192 500.179 190.21 515.794 199.641C536.921 212.379 544.698 230.812 552.842 237.916C560.987 245.02 557.251 240.304 560.007 240.61C580.583 242.754 604.159 189.904 626.632 178.758C647.33 168.47 674.58 164.122 697.605 173.431C720.63 182.739 741.267 208.521 748.86 242.019C756.454 275.517 776.723 295.481 797.237 312.138C836.49 343.922 881.07 298.788 925.405 304.361C969.74 309.934 947.695 305.034 956.452 305.034C997.235 305.157 1025.47 310.117 1014.75 344.718C1008.01 366.641 984.498 391.321 987.131 401.181C989.764 411.04 998.154 436.026 1004.22 439.639C1005.38 441.599 1006.85 443.497 1009.24 444.293C1017.08 446.804 1032.08 447.478 1044.88 462.053C1058.04 477.118 1051.55 485.814 1065.57 500.511C1079.6 515.209 1099.62 514.964 1114.87 516.556C1119.46 517.046 1123.81 516.433 1127.36 515.209C1137.9 511.534 1147.69 488.998 1158.16 466.829C1168.64 444.661 1182.23 420.777 1192.27 414.531C1195.03 412.816 1197.17 412.51 1199.07 415.266C1212.97 435.23 1226.75 450.172 1240.1 458.685C1255.41 468.422 1272.49 462.359 1290.13 470.381C1302.93 476.199 1320.81 477.546 1342.85 473.321" stroke="url(#paint24_linear_1_12136)" stroke-width="1.3" stroke-miterlimit="10"/>
<path d="M191.792 102.27C202.509 104.414 230.923 103.862 248.375 123.092C261.051 137.054 271.706 146.118 283.708 162.285C304.467 190.149 323.512 247.837 358.111 250.103C388.851 252.123 425.287 214.89 451.619 205.704C471.827 198.661 493.321 192.17 508.875 201.111C530.43 213.481 538.881 230.935 546.964 237.487C555.047 244.04 551.434 239.692 554.128 239.876C574.888 241.529 598.341 190.578 620.876 179.432C641.88 169.021 669.069 164.49 691.91 174.227C713.588 183.413 734.531 210.174 742.247 244.101C748.983 273.68 769.681 298.849 789.399 315.568C828.345 348.515 872.374 301.36 917.444 306.259C928.712 307.484 939.673 306.504 948.613 306.259C990.499 305.096 1022.65 307.423 1013.77 342.268C1008.32 363.702 985.478 388.994 987.315 400.384C989.152 411.775 996.929 436.087 1002.56 440.68C1003.6 442.885 1005.01 445.028 1007.34 446.008C1014.81 449.192 1029.81 450.662 1042.73 465.36C1055.65 480.057 1050.57 489.121 1064.66 503.573C1079.05 518.332 1099.01 518.393 1114.07 520.353C1118.73 520.965 1123.08 520.475 1126.69 519.312C1137.1 516.005 1146.96 493.224 1157.37 470.749C1168.27 447.172 1181.13 424.207 1190.93 417.838C1200.72 411.469 1195.76 415.694 1197.66 418.573C1211.5 439.21 1225.4 453.785 1239.18 461.624C1252.96 469.463 1272.13 463.461 1291.11 470.136C1310.09 476.811 1322.58 475.28 1344.75 470.626" stroke="url(#paint25_linear_1_12136)" stroke-width="1.3" stroke-miterlimit="10"/>
<path d="M181.995 104.658C192.16 107.047 220.022 106.863 238.026 125.664C250.763 138.953 261.786 147.894 274.217 163.326C295.772 190.149 316.164 244.836 351.191 247.408C382.176 249.674 418.551 215.073 445.189 206.622C465.274 200.253 486.585 194.252 502.139 202.703C524.123 214.645 534.471 229.893 541.207 237.181C543.351 238.283 545.678 239.508 548.372 239.324C569.254 237.916 592.707 191.496 615.242 180.289C637.777 169.083 663.68 165.102 686.399 175.145C709.118 185.189 727.917 212.011 735.756 246.244C742.675 276.313 762.7 302.279 781.683 319.12C820.262 353.23 863.862 304.055 909.545 308.219C920.751 309.26 931.712 308.035 940.898 307.545C983.886 305.096 1019.89 304.728 1012.91 339.819C1008.75 360.762 986.519 386.667 987.56 399.588C988.172 407.427 995.704 436.148 1000.97 441.66C1001.95 444.11 1003.24 446.437 1005.56 447.661C1012.73 451.458 1027.61 453.847 1040.77 468.605C1053.88 483.303 1049.78 492.366 1063.92 506.574C1078.07 520.782 1098.52 521.761 1113.46 524.027C1128.4 526.293 1122.59 524.395 1126.2 523.354C1136.55 520.414 1146.41 497.449 1156.82 474.607C1167.59 450.846 1180.27 427.575 1189.76 421.022C1199.25 414.47 1194.6 418.818 1196.5 421.696C1210.22 442.946 1224.3 457.215 1238.57 464.441C1252.84 471.667 1272.19 464.564 1292.46 469.83C1306.48 473.443 1324.73 472.892 1347.02 467.809" stroke="url(#paint26_linear_1_12136)" stroke-width="1.3" stroke-miterlimit="10"/>
<path d="M172.197 106.986C181.811 109.68 209.061 109.803 227.616 128.113C240.475 140.79 251.865 149.547 264.664 164.245C287.076 189.965 308.815 241.774 344.21 244.652C375.502 247.224 411.754 215.257 438.698 207.48C458.722 201.723 479.787 196.273 495.28 204.295C517.754 215.87 528.715 230.138 535.39 236.875C537.533 237.855 539.922 239.018 542.555 238.773C563.559 236.936 586.951 192.415 609.486 181.147C630.98 170.369 658.169 165.714 680.704 176.125C703.239 186.536 721.12 213.849 729.142 248.51C736.184 279.13 755.657 305.892 773.845 322.733C812.056 358.068 855.167 306.872 901.523 310.301C912.606 311.097 923.629 309.689 933.059 308.954C977.211 305.218 1017.01 302.156 1011.93 337.553C1008.99 358.007 987.499 384.585 987.744 398.976C987.927 407.856 995.582 435.72 999.317 442.824C1000.66 445.334 1001.4 448.029 1003.67 449.499C1010.46 453.969 1025.34 457.215 1038.69 472.035C1051.8 486.549 1048.86 495.857 1063.13 509.758C1078.01 524.272 1098.03 525.313 1112.79 527.947C1117.5 528.804 1121.97 528.559 1125.65 527.64C1135.87 525.007 1145.79 501.858 1156.14 478.771C1166.49 455.684 1179.23 431.188 1188.54 424.513C1191.29 422.553 1193.38 422.186 1195.21 425.187C1208.81 447.049 1223.14 461.012 1237.77 467.564C1252.41 474.117 1272.06 466.095 1293.56 469.769C1308.19 472.28 1326.63 470.749 1349.04 465.298" stroke="url(#paint27_linear_1_12136)" stroke-width="1.3" stroke-miterlimit="10"/>
<path d="M162.399 109.313C171.462 112.252 198.161 112.803 217.267 130.563C230.249 142.566 241.945 151.201 255.111 165.163C278.381 189.843 301.467 238.651 337.29 241.835C368.827 244.652 404.956 215.318 432.268 208.276C452.17 203.132 473.051 198.233 488.544 205.765C511.508 216.911 523.081 230.2 529.634 236.446C531.838 237.303 534.165 238.345 536.798 238.038C557.864 235.711 581.256 193.15 603.852 181.82C625.591 170.92 652.78 166.082 675.131 176.86C695.217 186.597 714.568 215.441 722.59 250.47C729.877 281.58 748.615 309.137 766.068 326.04C803.912 362.6 846.655 315.2 893.562 312.016C904.523 311.281 915.607 311.036 925.282 309.934C970.536 304.912 1014.08 299.155 1010.95 334.858C1009.18 354.822 988.356 382.074 987.866 397.935C987.376 413.796 994.173 435.72 997.664 443.62C1001.15 451.52 999.623 449.254 1001.83 450.968C1008.32 456.051 1023.14 460.216 1036.61 475.036C1049.71 489.427 1047.94 498.858 1062.27 512.514C1077.39 526.967 1097.42 528.498 1112.05 531.437C1116.83 532.417 1121.3 532.295 1125.04 531.437C1135.2 529.171 1145.12 505.839 1155.41 482.384C1166 458.256 1178.19 434.311 1187.25 427.514C1190.01 425.431 1192.03 425.125 1193.87 428.187C1207.4 450.723 1221.85 464.319 1236.91 470.198C1254.06 476.873 1272.06 471.79 1294.66 469.218C1309.85 467.503 1328.52 468.115 1351 462.236" stroke="url(#paint28_linear_1_12136)" stroke-width="1.3" stroke-miterlimit="10"/>
<path d="M152.601 111.701C161.113 114.885 187.2 115.865 206.857 133.074C226.513 150.282 231.963 152.915 245.558 166.143C269.685 189.72 294.057 235.589 330.309 239.079C362.091 242.141 398.159 215.441 425.777 209.133C445.617 204.601 466.315 200.253 481.747 207.296C505.139 218.013 517.386 230.383 523.878 236.017C526.082 236.814 528.47 237.671 531.042 237.365C552.23 234.609 575.622 193.946 598.219 182.555C620.202 171.471 647.453 166.51 669.62 177.717C689.216 187.638 707.954 217.217 716.16 252.552C723.57 284.152 741.696 312.567 758.413 329.53C795.829 367.376 838.265 317.833 885.724 313.914C896.562 312.996 907.708 312.506 917.567 311.158C963.923 304.851 1011.2 296.4 1010.09 332.347C1009.48 351.821 989.397 379.747 988.172 397.078C987.376 408.101 992.949 435.842 996.133 444.538C999.317 453.234 997.909 450.601 1000.11 452.622C1006.36 458.317 1020.99 463.4 1034.71 478.281C1047.76 492.489 1047.2 502.103 1061.59 515.515C1075.99 528.926 1096.99 531.927 1111.5 535.112C1116.34 536.153 1120.87 536.214 1124.55 535.479C1134.59 533.581 1144.57 510.003 1154.86 486.242C1165.33 461.93 1177.27 437.679 1186.09 430.698C1194.91 423.717 1190.86 428.187 1192.7 431.372C1206.11 454.52 1220.75 467.809 1236.24 473.076C1253.88 479.016 1272.55 472.892 1295.89 468.973C1311.5 466.34 1330.55 465.85 1353.14 459.542" stroke="url(#paint29_linear_1_12136)" stroke-width="1.3" stroke-miterlimit="10"/>
<path d="M142.803 114.028C150.764 117.519 176.238 118.866 196.508 135.523C209.612 146.301 222.104 154.507 236.005 167.062C260.99 189.537 286.709 232.465 323.328 236.324C355.416 239.692 391.362 215.502 419.286 209.991C439.004 206.071 459.518 202.213 474.888 208.888C498.771 219.177 511.63 230.628 517.999 235.711C520.203 236.385 522.592 237.181 525.225 236.752C546.535 233.568 569.866 194.742 592.523 183.351C614.752 172.083 642.003 167 663.986 178.636C683.031 188.679 701.279 218.993 709.546 254.757C717.14 286.846 734.592 316.119 750.575 333.082C787.5 372.214 829.692 320.528 877.702 315.935C925.711 311.342 899.624 314.098 909.728 312.506C957.248 304.912 1008.07 293.766 1009.11 330.02C1009.67 349.004 990.315 377.603 988.295 396.404C987.009 408.468 991.601 436.148 994.418 445.641C997.235 455.133 996.072 452.132 998.154 454.398C1004.09 460.705 1018.67 466.707 1032.51 481.649C1045.55 495.673 1046.16 505.533 1060.61 518.638C1075.07 531.743 1095.89 537.622 1110.64 538.97C1115.67 539.46 1120.08 540.317 1123.81 539.705C1133.79 538.112 1143.77 514.413 1154 490.345C1164.35 465.85 1176.11 441.231 1184.68 434.127C1187.37 431.862 1189.46 431.555 1191.23 434.74C1204.52 458.501 1219.34 471.545 1235.26 476.077C1253.39 481.282 1272.74 474.117 1296.86 468.789C1312.85 465.237 1332.32 463.584 1355.04 456.847" stroke="url(#paint30_linear_1_12136)" stroke-width="1.3" stroke-miterlimit="10"/>
<path d="M133.005 116.416C140.476 120.152 165.277 121.928 186.097 138.034C199.324 148.261 212.123 156.222 226.452 168.041C252.294 189.414 279.36 229.404 316.347 233.568C348.68 237.181 384.565 215.625 412.795 210.848C432.451 207.541 452.721 204.234 468.091 210.419C492.463 220.279 505.935 230.751 512.243 235.344C514.447 235.895 516.835 236.324 519.468 236.14C541.146 234.731 564.232 195.599 586.828 184.147C609.363 172.757 636.614 167.49 658.353 179.493C680.092 191.496 694.543 220.707 702.994 256.839C710.71 289.48 727.489 319.548 742.798 336.573C779.172 377.052 821.242 323.223 869.741 317.833C880.335 316.67 891.602 315.568 901.951 313.73C950.573 304.789 1004.95 291.072 1008.2 327.509C1009.85 346.004 991.234 375.276 988.54 395.547C985.845 415.817 990.315 436.21 992.826 446.62C993.683 450.172 994.296 453.54 996.378 456.051C1002.07 462.971 1016.46 469.891 1030.55 484.895C1043.53 498.796 1045.37 508.779 1059.88 521.639C1074.39 534.499 1095.34 540.929 1110.09 542.705C1115.18 543.318 1119.59 544.298 1123.38 543.808C1133.24 542.583 1143.35 518.638 1153.45 494.265C1163.74 469.585 1175.19 444.661 1183.58 437.434C1191.97 430.208 1188.29 434.74 1190.07 438.047C1203.23 462.481 1218.24 475.158 1234.59 479.016C1253.2 483.487 1273.29 475.28 1298.09 468.544C1314.5 464.135 1334.34 461.257 1357.18 454.153" stroke="url(#paint31_linear_1_12136)" stroke-width="1.3" stroke-miterlimit="10"/>
<path d="M123.208 118.744C130.127 122.724 154.254 124.929 175.748 140.484C189.037 150.098 202.203 157.876 216.899 168.96C243.66 189.23 271.951 226.342 309.427 230.751C342.066 234.609 377.829 215.625 406.365 211.705C425.899 209.011 445.985 206.194 461.294 211.95C486.095 221.32 500.24 230.935 506.425 234.976C508.691 235.405 511.079 235.711 513.651 235.527C535.451 233.568 558.476 196.457 581.133 184.944C603.913 173.369 631.164 167.98 652.78 180.412C670.784 190.761 687.869 222.545 696.442 259.043C704.341 292.174 720.446 323.1 735.021 340.125C770.844 381.951 812.73 325.978 861.78 319.854C910.83 313.73 883.58 317.221 894.174 315.016C943.898 304.789 1001.77 288.438 1007.22 325.121C1009.91 343.187 992.152 373.133 988.662 394.812C985.171 416.49 988.907 436.455 991.111 447.661C993.316 458.868 992.459 455.071 994.418 457.766C999.868 465.36 1014.14 473.137 1028.4 488.202C1041.39 501.92 1044.45 512.085 1058.96 524.701C1075.07 538.663 1094.6 544.298 1109.3 546.441C1123.99 548.584 1118.91 548.278 1122.71 547.911C1132.51 546.992 1142.61 522.925 1152.71 498.184C1162.88 473.382 1174.15 448.029 1182.23 440.68C1190.31 433.331 1186.95 437.924 1188.72 441.292C1201.83 466.339 1216.95 478.71 1233.73 481.956C1252.77 485.63 1273.6 476.444 1299.19 468.36C1324.79 460.277 1336.24 459.052 1359.2 451.458" stroke="url(#paint32_linear_1_12136)" stroke-width="1.3" stroke-miterlimit="10"/>
<path d="M113.41 121.071C119.778 125.357 143.293 127.991 165.338 142.933C178.688 151.997 192.282 159.468 207.346 169.879C234.964 189.047 264.602 223.218 302.447 227.995C335.33 232.159 371.031 215.686 399.874 212.563C419.347 210.419 439.187 208.153 454.497 213.542C479.787 222.422 494.606 231.179 500.669 234.67C502.935 235.038 505.323 235.221 507.895 234.915C529.817 232.404 552.781 197.314 575.5 185.74C598.525 173.982 625.836 168.47 647.208 181.33C664.721 191.864 681.194 224.321 689.951 261.187C697.973 294.807 713.404 326.591 727.305 343.677C762.516 386.851 804.34 328.734 853.881 321.814C864.291 320.344 875.62 318.752 886.458 316.302C937.346 304.789 998.521 285.866 1006.36 322.671C1010.09 340.308 993.132 370.867 988.968 394.016C986.213 409.264 987.682 436.577 989.581 448.641C991.479 460.705 990.805 456.48 992.704 459.419C997.97 467.687 1011.99 476.322 1026.44 491.387C1039.37 504.92 1043.65 515.27 1058.29 527.64C1074.64 541.48 1094.11 547.543 1108.75 550.115C1113.89 551.034 1118.42 552.136 1122.28 551.952C1131.96 551.34 1142.12 527.089 1152.16 502.103C1162.21 477.118 1173.23 451.458 1181.13 443.926C1183.82 441.415 1185.84 441.048 1187.56 444.538C1200.54 470.259 1215.91 482.262 1233.06 484.834C1250.2 487.406 1274.21 477.546 1300.42 468.054C1326.63 458.562 1338.26 456.664 1361.35 448.703" stroke="url(#paint33_linear_1_12136)" stroke-width="1.3" stroke-miterlimit="10"/>
<path d="M103.612 123.459C109.429 127.991 132.332 131.175 154.989 145.444C168.4 153.895 182.362 161.121 197.793 170.92C226.268 188.924 257.254 220.218 295.466 225.3C328.594 229.71 364.234 215.808 393.383 213.481C412.795 211.95 432.39 210.174 447.638 215.135C473.419 223.525 488.85 231.363 494.79 234.364C497.056 234.609 499.444 234.731 502.016 234.364C524.061 231.302 547.025 198.233 569.682 186.597C592.952 174.655 620.325 169.021 641.451 182.249C658.475 192.905 674.397 226.097 683.276 263.391C691.482 297.563 706.178 330.143 719.405 347.228C753.943 391.75 795.767 331.551 845.797 323.835C856.085 322.243 867.414 320.344 878.498 317.65C930.487 304.851 995.031 283.417 1005.26 320.344C1010.03 337.553 993.867 368.724 988.968 393.342C985.723 409.693 986.151 436.822 987.743 449.744C988.295 454.03 988.846 458.011 990.683 461.257C995.704 470.198 1009.6 479.69 1024.24 494.816C1037.16 508.227 1042.61 518.699 1057.31 530.825C1073.9 544.542 1093.31 551.034 1107.89 554.035C1113.09 555.076 1117.69 556.729 1121.48 556.178C1131.04 554.892 1141.26 531.498 1151.24 506.145C1161.23 480.792 1171.94 454.949 1179.66 447.355C1182.29 444.722 1184.31 444.355 1186.03 447.906C1198.89 474.239 1214.44 485.936 1232.02 487.835C1252.04 490.039 1274.39 478.71 1301.34 467.871C1328.28 457.031 1339.98 454.398 1363.18 446.008" stroke="url(#paint34_linear_1_12136)" stroke-width="1.3" stroke-miterlimit="10"/>
<path d="M93.814 125.786C99.0803 130.563 121.309 134.298 144.579 147.955C167.849 161.611 172.442 162.836 188.241 171.9C217.634 188.74 249.844 217.156 288.485 222.545C321.92 227.199 357.437 215.808 386.891 214.339C406.181 213.359 425.593 212.134 440.841 216.666C467.111 224.504 482.788 232.588 489.034 233.996C495.28 235.405 493.749 234.119 496.26 233.752C518.489 230.077 541.33 199.029 564.048 187.393C587.563 175.268 614.997 169.45 635.879 183.168C656.76 196.885 667.722 227.934 676.723 265.535C685.113 300.196 699.075 333.633 711.628 350.78C745.492 396.71 787.316 334.368 837.837 325.795C848.002 324.08 859.392 321.875 870.721 318.875C923.812 304.789 991.601 280.906 1004.28 317.895C1010.09 334.736 994.724 366.519 989.152 392.546C985.416 409.938 984.804 436.883 986.09 450.785C987.376 464.686 987.07 459.481 988.784 462.971C993.622 472.586 1007.28 482.935 1022.1 498.123C1035.02 511.351 1041.63 522.006 1056.39 533.948C1071.15 545.89 1092.58 554.525 1107.09 557.831C1112.36 559.056 1116.95 560.71 1120.81 560.342C1130.3 559.485 1140.53 535.785 1150.51 510.126C1160.49 484.466 1170.84 458.378 1178.31 450.662C1185.78 442.946 1182.97 447.6 1184.68 451.213C1197.42 478.159 1213.15 489.611 1231.16 490.835C1251.61 492.305 1274.82 479.935 1302.44 467.748C1320.69 459.664 1341.87 452.193 1365.2 443.436" stroke="url(#paint35_linear_1_12136)" stroke-width="1.3" stroke-miterlimit="10"/>
<path d="M84.0161 128.174C88.7313 133.257 110.287 137.483 134.23 150.466C147.824 157.814 162.521 164.49 178.688 172.879C208.938 188.557 242.496 214.094 281.565 219.85C315.245 224.811 350.884 218.074 380.462 215.257C399.629 213.42 418.857 214.155 434.105 218.319C460.804 225.607 477.276 232.772 483.278 233.752C489.279 234.731 487.993 233.69 490.503 233.2C512.855 228.975 535.635 199.947 558.415 188.251C582.174 175.941 609.67 170.001 630.367 184.086C646.411 195.048 661.108 229.71 670.294 267.74C678.805 302.891 692.033 337.185 703.974 354.332C737.041 401.67 778.988 337.185 829.998 327.816C840.041 325.978 851.492 323.529 863.066 320.222C917.321 304.851 988.356 278.579 1003.48 315.506C1010.28 332.041 995.765 364.314 989.458 391.811C985.233 410.305 983.579 437.067 984.559 451.826C984.865 456.602 985.416 461.012 987.07 464.686C991.724 474.974 1005.2 486.181 1020.2 501.43C1033.06 514.535 1040.9 525.313 1055.72 537.01C1072.8 550.421 1092.09 557.893 1106.54 561.628C1111.87 562.976 1116.46 564.69 1120.38 564.507C1129.81 564.078 1140.04 540.133 1149.96 514.168C1159.88 488.202 1169.92 461.93 1177.21 454.03C1184.5 446.13 1181.8 450.846 1183.52 454.582C1196.13 482.201 1212.05 493.285 1230.48 493.836C1251.43 494.571 1275.37 481.159 1303.66 467.564C1322.4 458.562 1343.89 449.989 1367.35 440.741" stroke="url(#paint36_linear_1_12136)" stroke-width="1.3" stroke-miterlimit="10"/>
<path d="M74.2183 130.502C78.3823 135.829 99.3252 140.606 123.82 152.915C137.475 159.774 152.601 166.082 169.135 173.798C200.243 188.312 235.148 210.909 274.584 217.033C308.57 222.177 344.026 217.707 373.971 216.053C393.138 215.012 412.06 216.053 427.246 219.789C454.435 226.525 471.704 234.303 477.46 233.323C483.216 232.343 482.237 233.017 484.686 232.527C507.099 227.689 529.94 200.743 552.72 188.985C576.724 176.554 604.281 170.369 624.734 184.944C645.187 199.519 654.433 231.486 663.68 269.822C672.376 305.524 684.807 340.615 696.135 357.762C728.346 406.57 770.476 339.88 821.976 329.653C831.897 327.693 843.409 324.937 855.228 321.385C910.585 304.728 984.804 276.191 1002.5 312.996C1020.2 349.801 996.623 362.048 989.642 390.954C984.926 410.489 982.293 437.067 982.967 452.744C983.212 457.766 983.702 462.359 985.233 466.278C989.642 477.24 1002.93 489.304 1018.18 504.614C1031.04 517.536 1040.1 528.498 1054.92 539.949C1069.74 551.401 1091.42 561.138 1105.87 565.303C1111.26 566.834 1115.91 568.242 1119.83 568.548C1129.2 569.161 1139.43 544.298 1149.28 518.026C1158.96 492.305 1168.88 465.237 1175.92 457.276C1182.97 449.315 1180.52 454.03 1182.17 457.766C1194.66 485.997 1210.77 496.776 1229.63 496.653C1251.06 496.653 1275.8 482.139 1304.76 467.197C1333.73 452.254 1345.79 447.539 1369.37 437.924" stroke="url(#paint37_linear_1_12136)" stroke-width="1.3" stroke-miterlimit="10"/>
<path d="M64.4204 132.829C68.0334 138.401 88.3026 143.791 113.471 155.365C127.249 161.673 142.681 167.674 159.582 174.717C191.547 188.067 227.799 207.847 267.603 214.216C301.834 219.605 337.229 215.747 367.479 216.849C386.585 217.523 405.262 217.89 420.449 221.259C448.128 227.444 466.131 233.935 471.643 232.894C477.154 231.853 476.419 232.404 478.869 231.792C501.404 226.403 524.184 201.417 546.963 189.659C571.213 177.044 598.831 170.675 619.039 185.74C639.247 200.805 647.636 233.139 657.067 271.904C665.885 308.096 677.581 344.044 688.297 361.252C719.65 411.469 761.965 342.697 813.954 331.551C865.944 320.406 835.326 326.407 847.389 322.61C903.849 304.667 981.313 273.863 1001.52 310.485C1021.73 347.106 997.48 359.721 989.764 390.096C984.498 410.734 980.885 437.128 981.252 453.724C981.375 458.991 981.803 463.829 983.334 467.932C987.56 479.628 1000.66 492.489 1016.03 507.799C1028.83 520.537 1039.12 531.682 1054 542.889C1071.58 556.056 1090.68 564.445 1105.07 568.916C1110.46 570.631 1115.18 572.1 1119.16 572.468C1128.46 573.386 1138.75 548.401 1148.55 521.761C1158.1 495.857 1167.78 468.483 1174.64 460.338C1181.5 452.193 1179.23 456.97 1180.88 460.828C1193.31 489.672 1209.6 500.144 1228.83 499.409C1250.75 498.613 1276.29 483.058 1305.87 466.829C1325.58 455.99 1347.69 445.089 1371.39 435.046" stroke="url(#paint38_linear_1_12136)" stroke-width="1.3" stroke-miterlimit="10"/>
<path d="M54.6226 135.217C57.6844 141.096 77.3413 147.036 103.061 157.876C116.9 163.693 132.699 169.266 150.029 175.696C182.852 187.822 220.39 204.785 260.622 211.522C295.159 217.217 330.431 215.808 360.988 217.768C380.033 218.993 398.465 219.911 413.591 222.912C441.698 228.485 460.436 233.752 465.825 232.649C471.214 231.547 470.602 231.976 473.051 231.302C495.709 225.3 518.427 202.397 541.268 190.578C565.824 177.779 593.503 171.226 613.466 186.72C633.429 202.213 640.961 234.976 650.514 274.108C659.516 310.791 670.416 347.596 680.52 364.804C710.893 416.49 753.575 345.575 806.055 333.572C815.791 331.367 827.365 327.999 839.612 323.896C897.236 304.667 977.884 271.72 1000.54 308.096C1023.2 344.473 998.337 357.517 989.948 389.361C984.192 411.04 979.538 437.251 979.599 454.765C979.599 460.277 980.028 465.298 981.497 469.708C985.539 482.078 998.398 495.796 1014.01 511.167C1026.81 523.782 1038.26 535.05 1053.27 546.012C1068.27 556.974 1090.07 567.875 1104.46 572.774C1118.85 577.673 1114.69 576.142 1118.67 576.693C1127.91 577.918 1138.2 552.749 1147.94 525.864C1157.37 499.776 1166.8 472.035 1173.47 463.767C1175.98 460.644 1178 460.338 1179.66 464.257C1191.97 493.775 1208.44 503.879 1228.1 502.471C1250.51 500.94 1276.84 484.283 1307.09 466.707C1327.3 454.949 1349.71 442.885 1373.53 432.474" stroke="url(#paint39_linear_1_12136)" stroke-width="1.3" stroke-miterlimit="10"/>
<path d="M44.8862 137.544C47.3969 143.668 66.3802 150.282 92.7731 160.325C106.735 165.653 122.84 170.858 140.538 176.615C174.218 187.577 213.103 201.662 253.764 208.705C288.546 214.645 323.818 215.686 354.62 218.564C373.665 220.34 391.791 221.749 406.916 224.382C435.513 229.342 454.742 232.772 460.13 232.221C465.519 231.669 464.968 231.302 467.356 230.628C490.136 224.014 512.855 203.193 535.696 191.312C560.497 178.391 588.237 171.593 607.955 187.577C627.673 203.56 634.409 236.752 644.085 276.252C653.209 313.485 663.313 351.025 672.866 368.356C702.198 421.512 745.247 348.453 798.217 335.532C851.186 322.61 819.466 329.53 831.958 325.182C890.684 304.667 974.578 269.577 999.746 305.647C1010.65 321.202 999.44 355.312 990.254 388.565C984.008 411.346 978.374 437.312 978.068 455.745C978.007 461.502 978.374 466.768 979.721 471.361C983.518 484.466 996.194 498.98 1011.99 514.413C1027.79 529.845 1037.41 538.296 1052.47 549.013C1070.54 561.873 1089.46 571.243 1103.79 576.51C1109.3 578.53 1114.07 580.123 1118.05 580.796C1127.24 582.327 1137.59 557.035 1147.26 529.784C1156.63 503.512 1165.7 475.464 1172.19 467.074C1178.68 458.685 1176.72 463.523 1178.31 467.564C1190.44 497.694 1207.15 507.493 1227.24 505.472C1250.08 503.206 1277.27 485.507 1308.13 466.523C1328.89 453.785 1351.55 440.68 1375.49 429.779" stroke="url(#paint40_linear_1_12136)" stroke-width="1.3" stroke-miterlimit="10"/>
<path d="M35.0884 139.932C37.0479 146.301 55.4189 153.589 82.3629 162.836C96.4473 167.674 112.92 172.512 130.985 177.595C165.522 187.332 205.754 198.661 246.783 205.949C281.871 212.195 317.082 215.625 348.129 219.421C367.112 221.749 384.932 223.647 400.057 225.913C429.084 230.261 449.047 232.772 454.313 231.792C459.579 230.812 459.151 230.69 461.539 229.893C484.38 222.667 507.099 203.928 530.001 191.986C555.047 178.881 582.909 171.9 602.321 188.373C615.977 200.009 627.673 238.406 637.471 278.273C646.779 315.996 656.087 354.394 665.027 371.724C693.257 426.35 736.797 351.209 790.195 337.369C799.748 334.919 811.383 331 824.12 326.346C883.948 304.545 971.087 267.433 998.766 303.136C1010.71 318.507 1000.3 352.985 990.438 387.708C983.702 411.591 977.027 437.373 976.415 456.664C976.231 462.665 976.598 468.115 977.884 472.953C981.497 486.794 993.928 502.165 1009.97 517.597C1022.65 529.906 1036.55 541.48 1051.67 551.952C1066.8 562.424 1088.78 574.489 1103.17 580.123C1108.69 582.327 1113.58 583.981 1117.56 584.777C1126.69 586.614 1137.04 561.2 1146.65 533.581C1155.9 507.125 1164.72 478.771 1171.02 470.198C1177.33 461.624 1175.49 466.584 1177.15 470.626C1189.15 501.43 1206.05 510.861 1226.63 508.166C1249.96 505.104 1278 486.304 1309.48 466.095C1330.73 452.438 1353.69 438.169 1377.76 426.901" stroke="url(#paint41_linear_1_12136)" stroke-width="1.3" stroke-miterlimit="10"/>
<path d="M25.2905 142.26C32.0878 174.472 423.144 237.916 448.495 231.547C473.909 225.178 499.016 206.132 524.306 192.905C549.597 179.616 577.643 172.451 596.749 189.353C622.529 212.256 640.043 339.574 657.312 375.337C684.439 431.433 728.468 354.21 782.295 339.39C836.061 324.57 961.35 257.88 997.847 300.748C1022.53 329.714 965.392 429.351 976.047 474.729C986.702 520.108 1083.39 581.102 1116.95 588.941C1138.14 593.902 1166 448.213 1175.8 473.994C1210.46 565.241 1288.35 468.36 1379.72 424.268" stroke="url(#paint42_linear_1_12136)" stroke-width="1.3" stroke-miterlimit="10"/>
</g>
</g>
<defs>
<filter id="filter0_d_1_12136" x="14.6543" y="6.23778" width="1475.35" height="671.479" filterUnits="userSpaceOnUse" color-interpolation-filters="sRGB">
<feFlood flood-opacity="0" result="BackgroundImageFix"/>
<feColorMatrix in="SourceAlpha" type="matrix" values="0 0 0 0 0 0 0 0 0 0 0 0 0 0 0 0 0 0 127 0" result="hardAlpha"/>
<feOffset dx="50" dy="28"/>
<feGaussianBlur stdDeviation="30"/>
<feColorMatrix type="matrix" values="0 0 0 0 0 0 0 0 0 0 0 0 0 0 0 0 0 0 0.5 0"/>
<feBlend mode="normal" in2="BackgroundImageFix" result="effect1_dropShadow_1_12136"/>
<feBlend mode="normal" in="SourceGraphic" in2="effect1_dropShadow_1_12136" result="shape"/>
</filter>
<linearGradient id="paint0_linear_1_12136" x1="409.052" y1="143.772" x2="1336.12" y2="414.852" gradientUnits="userSpaceOnUse">
<stop stop-color="#1A1A1A"/>
<stop offset="0.3" stop-color="#CFA935"/>
<stop offset="0.6" stop-color="#1A1A1A"/>
<stop offset="0.8" stop-color="#1A1A1A"/>
</linearGradient>
<linearGradient id="paint1_linear_1_12136" x1="399.926" y1="143.56" x2="1336.63" y2="417.458" gradientUnits="userSpaceOnUse">
<stop stop-color="#1A1A1A"/>
<stop offset="0.3" stop-color="#CFA935"/>
<stop offset="0.6" stop-color="#1A1A1A"/>
<stop offset="0.8" stop-color="#1A1A1A"/>
</linearGradient>
<linearGradient id="paint2_linear_1_12136" x1="390.86" y1="143.365" x2="1337.15" y2="420.065" gradientUnits="userSpaceOnUse">
<stop stop-color="#1A1A1A"/>
<stop offset="0.3" stop-color="#CFA935"/>
<stop offset="0.6" stop-color="#1A1A1A"/>
<stop offset="0.8" stop-color="#1A1A1A"/>
</linearGradient>
<linearGradient id="paint3_linear_1_12136" x1="381.942" y1="142.442" x2="1337.87" y2="421.96" gradientUnits="userSpaceOnUse">
<stop stop-color="#1A1A1A"/>
<stop offset="0.3" stop-color="#CFA935"/>
<stop offset="0.6" stop-color="#1A1A1A"/>
<stop offset="0.8" stop-color="#1A1A1A"/>
</linearGradient>
<linearGradient id="paint4_linear_1_12136" x1="373.235" y1="141.019" x2="1338.68" y2="423.321" gradientUnits="userSpaceOnUse">
<stop stop-color="#1A1A1A"/>
<stop offset="0.3" stop-color="#CFA935"/>
<stop offset="0.6" stop-color="#1A1A1A"/>
<stop offset="0.8" stop-color="#1A1A1A"/>
</linearGradient>
<linearGradient id="paint5_linear_1_12136" x1="364.488" y1="139.514" x2="1339.57" y2="424.634" gradientUnits="userSpaceOnUse">
<stop stop-color="#1A1A1A"/>
<stop offset="0.3" stop-color="#CFA935"/>
<stop offset="0.6" stop-color="#1A1A1A"/>
<stop offset="0.8" stop-color="#1A1A1A"/>
</linearGradient>
<linearGradient id="paint6_linear_1_12136" x1="355.799" y1="138.026" x2="1340.47" y2="425.947" gradientUnits="userSpaceOnUse">
<stop stop-color="#1A1A1A"/>
<stop offset="0.3" stop-color="#CFA935"/>
<stop offset="0.6" stop-color="#1A1A1A"/>
<stop offset="0.8" stop-color="#1A1A1A"/>
</linearGradient>
<linearGradient id="paint7_linear_1_12136" x1="347.13" y1="136.473" x2="1341.38" y2="427.196" gradientUnits="userSpaceOnUse">
<stop stop-color="#1A1A1A"/>
<stop offset="0.3" stop-color="#CFA935"/>
<stop offset="0.6" stop-color="#1A1A1A"/>
<stop offset="0.8" stop-color="#1A1A1A"/>
</linearGradient>
<linearGradient id="paint8_linear_1_12136" x1="338.383" y1="134.968" x2="1342.27" y2="428.509" gradientUnits="userSpaceOnUse">
<stop stop-color="#1A1A1A"/>
<stop offset="0.3" stop-color="#CFA935"/>
<stop offset="0.6" stop-color="#1A1A1A"/>
<stop offset="0.8" stop-color="#1A1A1A"/>
</linearGradient>
<linearGradient id="paint9_linear_1_12136" x1="329.713" y1="133.415" x2="1343.18" y2="429.758" gradientUnits="userSpaceOnUse">
<stop stop-color="#1A1A1A"/>
<stop offset="0.3" stop-color="#CFA935"/>
<stop offset="0.6" stop-color="#1A1A1A"/>
<stop offset="0.8" stop-color="#1A1A1A"/>
</linearGradient>
<linearGradient id="paint10_linear_1_12136" x1="320.985" y1="131.845" x2="1344.03" y2="430.989" gradientUnits="userSpaceOnUse">
<stop stop-color="#1A1A1A"/>
<stop offset="0.3" stop-color="#CFA935"/>
<stop offset="0.6" stop-color="#1A1A1A"/>
<stop offset="0.8" stop-color="#1A1A1A"/>
</linearGradient>
<linearGradient id="paint11_linear_1_12136" x1="312.334" y1="130.228" x2="1344.96" y2="432.173" gradientUnits="userSpaceOnUse">
<stop stop-color="#1A1A1A"/>
<stop offset="0.3" stop-color="#CFA935"/>
<stop offset="0.6" stop-color="#1A1A1A"/>
<stop offset="0.8" stop-color="#1A1A1A"/>
</linearGradient>
<linearGradient id="paint12_linear_1_12136" x1="303.532" y1="129.128" x2="1345.74" y2="433.875" gradientUnits="userSpaceOnUse">
<stop stop-color="#1A1A1A"/>
<stop offset="0.3" stop-color="#CFA935"/>
<stop offset="0.6" stop-color="#1A1A1A"/>
<stop offset="0.8" stop-color="#1A1A1A"/>
</linearGradient>
<linearGradient id="paint13_linear_1_12136" x1="294.294" y1="129.303" x2="1346.14" y2="436.869" gradientUnits="userSpaceOnUse">
<stop stop-color="#1A1A1A"/>
<stop offset="0.3" stop-color="#CFA935"/>
<stop offset="0.6" stop-color="#1A1A1A"/>
<stop offset="0.8" stop-color="#1A1A1A"/>
</linearGradient>
<linearGradient id="paint14_linear_1_12136" x1="285.114" y1="129.496" x2="1346.54" y2="439.863" gradientUnits="userSpaceOnUse">
<stop stop-color="#1A1A1A"/>
<stop offset="0.3" stop-color="#CFA935"/>
<stop offset="0.6" stop-color="#1A1A1A"/>
<stop offset="0.8" stop-color="#1A1A1A"/>
</linearGradient>
<linearGradient id="paint15_linear_1_12136" x1="275.875" y1="129.672" x2="1346.88" y2="442.841" gradientUnits="userSpaceOnUse">
<stop stop-color="#1A1A1A"/>
<stop offset="0.3" stop-color="#CFA935"/>
<stop offset="0.6" stop-color="#1A1A1A"/>
<stop offset="0.8" stop-color="#1A1A1A"/>
</linearGradient>
<linearGradient id="paint16_linear_1_12136" x1="266.714" y1="129.801" x2="1347.3" y2="445.77" gradientUnits="userSpaceOnUse">
<stop stop-color="#1A1A1A"/>
<stop offset="0.3" stop-color="#CFA935"/>
<stop offset="0.6" stop-color="#1A1A1A"/>
<stop offset="0.8" stop-color="#1A1A1A"/>
</linearGradient>
<linearGradient id="paint17_linear_1_12136" x1="257.534" y1="129.994" x2="1347.7" y2="448.765" gradientUnits="userSpaceOnUse">
<stop stop-color="#1A1A1A"/>
<stop offset="0.3" stop-color="#CFA935"/>
<stop offset="0.6" stop-color="#1A1A1A"/>
<stop offset="0.8" stop-color="#1A1A1A"/>
</linearGradient>
<linearGradient id="paint18_linear_1_12136" x1="248.295" y1="130.17" x2="1348.1" y2="451.759" gradientUnits="userSpaceOnUse">
<stop stop-color="#1A1A1A"/>
<stop offset="0.3" stop-color="#CFA935"/>
<stop offset="0.6" stop-color="#1A1A1A"/>
<stop offset="0.8" stop-color="#1A1A1A"/>
</linearGradient>
<linearGradient id="paint19_linear_1_12136" x1="239.134" y1="130.298" x2="1348.52" y2="454.689" gradientUnits="userSpaceOnUse">
<stop stop-color="#1A1A1A"/>
<stop offset="0.3" stop-color="#CFA935"/>
<stop offset="0.6" stop-color="#1A1A1A"/>
<stop offset="0.8" stop-color="#1A1A1A"/>
</linearGradient>
<linearGradient id="paint20_linear_1_12136" x1="229.973" y1="130.426" x2="1348.88" y2="457.601" gradientUnits="userSpaceOnUse">
<stop stop-color="#1A1A1A"/>
<stop offset="0.3" stop-color="#CFA935"/>
<stop offset="0.6" stop-color="#1A1A1A"/>
<stop offset="0.8" stop-color="#1A1A1A"/>
</linearGradient>
<linearGradient id="paint21_linear_1_12136" x1="220.735" y1="130.602" x2="1349.28" y2="460.596" gradientUnits="userSpaceOnUse">
<stop stop-color="#1A1A1A"/>
<stop offset="0.3" stop-color="#CFA935"/>
<stop offset="0.6" stop-color="#1A1A1A"/>
<stop offset="0.8" stop-color="#1A1A1A"/>
</linearGradient>
<linearGradient id="paint22_linear_1_12136" x1="211.573" y1="130.73" x2="1349.7" y2="463.525" gradientUnits="userSpaceOnUse">
<stop stop-color="#1A1A1A"/>
<stop offset="0.3" stop-color="#CFA935"/>
<stop offset="0.6" stop-color="#1A1A1A"/>
<stop offset="0.8" stop-color="#1A1A1A"/>
</linearGradient>
<linearGradient id="paint23_linear_1_12136" x1="202.412" y1="130.859" x2="1350.12" y2="466.455" gradientUnits="userSpaceOnUse">
<stop stop-color="#1A1A1A"/>
<stop offset="0.3" stop-color="#CFA935"/>
<stop offset="0.6" stop-color="#1A1A1A"/>
<stop offset="0.8" stop-color="#1A1A1A"/>
</linearGradient>
<linearGradient id="paint24_linear_1_12136" x1="193.306" y1="130.582" x2="1350.6" y2="468.98" gradientUnits="userSpaceOnUse">
<stop stop-color="#1A1A1A"/>
<stop offset="0.3" stop-color="#CFA935"/>
<stop offset="0.6" stop-color="#1A1A1A"/>
<stop offset="0.8" stop-color="#1A1A1A"/>
</linearGradient>
<linearGradient id="paint25_linear_1_12136" x1="184.145" y1="130.71" x2="1351.02" y2="471.91" gradientUnits="userSpaceOnUse">
<stop stop-color="#1A1A1A"/>
<stop offset="0.3" stop-color="#CFA935"/>
<stop offset="0.6" stop-color="#1A1A1A"/>
<stop offset="0.8" stop-color="#1A1A1A"/>
</linearGradient>
<linearGradient id="paint26_linear_1_12136" x1="174.984" y1="130.839" x2="1351.43" y2="474.839" gradientUnits="userSpaceOnUse">
<stop stop-color="#1A1A1A"/>
<stop offset="0.3" stop-color="#CFA935"/>
<stop offset="0.6" stop-color="#1A1A1A"/>
<stop offset="0.8" stop-color="#1A1A1A"/>
</linearGradient>
<linearGradient id="paint27_linear_1_12136" x1="165.764" y1="130.95" x2="1351.85" y2="477.769" gradientUnits="userSpaceOnUse">
<stop stop-color="#1A1A1A"/>
<stop offset="0.3" stop-color="#CFA935"/>
<stop offset="0.6" stop-color="#1A1A1A"/>
<stop offset="0.8" stop-color="#1A1A1A"/>
</linearGradient>
<linearGradient id="paint28_linear_1_12136" x1="156.584" y1="131.143" x2="1352.25" y2="480.763" gradientUnits="userSpaceOnUse">
<stop stop-color="#1A1A1A"/>
<stop offset="0.3" stop-color="#CFA935"/>
<stop offset="0.6" stop-color="#1A1A1A"/>
<stop offset="0.8" stop-color="#1A1A1A"/>
</linearGradient>
<linearGradient id="paint29_linear_1_12136" x1="147.364" y1="131.254" x2="1352.62" y2="483.676" gradientUnits="userSpaceOnUse">
<stop stop-color="#1A1A1A"/>
<stop offset="0.3" stop-color="#CFA935"/>
<stop offset="0.6" stop-color="#1A1A1A"/>
<stop offset="0.8" stop-color="#1A1A1A"/>
</linearGradient>
<linearGradient id="paint30_linear_1_12136" x1="138.012" y1="131.818" x2="1352.9" y2="487.058" gradientUnits="userSpaceOnUse">
<stop stop-color="#1A1A1A"/>
<stop offset="0.3" stop-color="#CFA935"/>
<stop offset="0.6" stop-color="#1A1A1A"/>
<stop offset="0.8" stop-color="#1A1A1A"/>
</linearGradient>
<linearGradient id="paint31_linear_1_12136" x1="128.832" y1="132.011" x2="1353.3" y2="490.053" gradientUnits="userSpaceOnUse">
<stop stop-color="#1A1A1A"/>
<stop offset="0.3" stop-color="#CFA935"/>
<stop offset="0.6" stop-color="#1A1A1A"/>
<stop offset="0.8" stop-color="#1A1A1A"/>
</linearGradient>
<linearGradient id="paint32_linear_1_12136" x1="119.593" y1="132.187" x2="1353.7" y2="493.047" gradientUnits="userSpaceOnUse">
<stop stop-color="#1A1A1A"/>
<stop offset="0.3" stop-color="#CFA935"/>
<stop offset="0.6" stop-color="#1A1A1A"/>
<stop offset="0.8" stop-color="#1A1A1A"/>
</linearGradient>
<linearGradient id="paint33_linear_1_12136" x1="110.354" y1="132.363" x2="1354.04" y2="496.024" gradientUnits="userSpaceOnUse">
<stop stop-color="#1A1A1A"/>
<stop offset="0.3" stop-color="#CFA935"/>
<stop offset="0.6" stop-color="#1A1A1A"/>
<stop offset="0.8" stop-color="#1A1A1A"/>
</linearGradient>
<linearGradient id="paint34_linear_1_12136" x1="101.097" y1="132.603" x2="1354.43" y2="499.083" gradientUnits="userSpaceOnUse">
<stop stop-color="#1A1A1A"/>
<stop offset="0.3" stop-color="#CFA935"/>
<stop offset="0.6" stop-color="#1A1A1A"/>
<stop offset="0.8" stop-color="#1A1A1A"/>
</linearGradient>
<linearGradient id="paint35_linear_1_12136" x1="91.839" y1="132.844" x2="1354.81" y2="502.142" gradientUnits="userSpaceOnUse">
<stop stop-color="#1A1A1A"/>
<stop offset="0.3" stop-color="#CFA935"/>
<stop offset="0.6" stop-color="#1A1A1A"/>
<stop offset="0.8" stop-color="#1A1A1A"/>
</linearGradient>
<linearGradient id="paint36_linear_1_12136" x1="82.5813" y1="133.084" x2="1355.19" y2="505.201" gradientUnits="userSpaceOnUse">
<stop stop-color="#1A1A1A"/>
<stop offset="0.3" stop-color="#CFA935"/>
<stop offset="0.6" stop-color="#1A1A1A"/>
<stop offset="0.8" stop-color="#1A1A1A"/>
</linearGradient>
<linearGradient id="paint37_linear_1_12136" x1="73.3048" y1="133.389" x2="1355.55" y2="508.325" gradientUnits="userSpaceOnUse">
<stop stop-color="#1A1A1A"/>
<stop offset="0.3" stop-color="#CFA935"/>
<stop offset="0.6" stop-color="#1A1A1A"/>
<stop offset="0.8" stop-color="#1A1A1A"/>
</linearGradient>
<linearGradient id="paint38_linear_1_12136" x1="64.068" y1="133.776" x2="1355.84" y2="511.496" gradientUnits="userSpaceOnUse">
<stop stop-color="#1A1A1A"/>
<stop offset="0.3" stop-color="#CFA935"/>
<stop offset="0.6" stop-color="#1A1A1A"/>
<stop offset="0.8" stop-color="#1A1A1A"/>
</linearGradient>
<linearGradient id="paint39_linear_1_12136" x1="54.7726" y1="134.146" x2="1356.18" y2="514.685" gradientUnits="userSpaceOnUse">
<stop stop-color="#1A1A1A"/>
<stop offset="0.3" stop-color="#CFA935"/>
<stop offset="0.6" stop-color="#1A1A1A"/>
<stop offset="0.8" stop-color="#1A1A1A"/>
</linearGradient>
<linearGradient id="paint40_linear_1_12136" x1="45.5152" y1="134.387" x2="1356.56" y2="517.744" gradientUnits="userSpaceOnUse">
<stop stop-color="#1A1A1A"/>
<stop offset="0.3" stop-color="#CFA935"/>
<stop offset="0.6" stop-color="#1A1A1A"/>
<stop offset="0.8" stop-color="#1A1A1A"/>
</linearGradient>
<linearGradient id="paint41_linear_1_12136" x1="36.6923" y1="133.14" x2="1357.38" y2="519.315" gradientUnits="userSpaceOnUse">
<stop stop-color="#1A1A1A"/>
<stop offset="0.3" stop-color="#CFA935"/>
<stop offset="0.6" stop-color="#1A1A1A"/>
<stop offset="0.8" stop-color="#1A1A1A"/>
</linearGradient>
<linearGradient id="paint42_linear_1_12136" x1="27.8884" y1="131.829" x2="1358.15" y2="520.806" gradientUnits="userSpaceOnUse">
<stop stop-color="#1A1A1A"/>
<stop offset="0.3" stop-color="#CFA935"/>
<stop offset="0.6" stop-color="#1A1A1A"/>
<stop offset="0.8" stop-color="#1A1A1A"/>
</linearGradient>
<clipPath id="clip0_1_12136">
<rect width="1466" height="662" fill="white"/>
</clipPath>
</defs>
</svg>
