<svg width="70" height="70" viewBox="0 0 70 70" fill="none" xmlns="http://www.w3.org/2000/svg">
<path fill-rule="evenodd" clip-rule="evenodd" d="M42.3828 65.2148H27.6172C25.4297 65.2148 23.6523 63.4375 23.6523 61.25V57.0117C23.6523 56.6016 24.0625 56.0547 24.6094 56.0547C25.1562 56.0547 25.5664 56.6016 25.5664 57.0117V61.25C25.5664 62.4805 26.3867 63.3008 27.6172 63.3008H42.3828C43.6133 63.3008 44.5703 62.4805 44.5703 61.25V57.0117C44.5703 56.6016 44.9805 56.0547 45.5273 56.0547C46.0742 56.0547 46.4844 56.6016 46.4844 57.0117V61.25C46.4844 63.4375 44.5703 65.2148 42.3828 65.2148Z" fill="#CFA935"/>
<path fill-rule="evenodd" clip-rule="evenodd" d="M37.5977 70H32.4023C30.625 70 29.1211 68.4961 29.1211 66.7188V64.2578C29.1211 63.7109 29.5312 63.3008 30.0781 63.3008C30.625 63.3008 31.0352 63.7109 31.0352 64.2578V66.7188C31.0352 67.4023 31.582 68.0859 32.4023 68.0859H37.5977C38.418 68.0859 38.9648 67.4023 38.9648 66.7188V64.2578C38.9648 63.7109 39.375 63.3008 39.9219 63.3008C40.4688 63.3008 40.8789 63.7109 40.8789 64.2578V66.7188C40.8789 68.4961 39.5117 70 37.5977 70Z" fill="#CFA935"/>
<path fill-rule="evenodd" clip-rule="evenodd" d="M31.8554 57.9687C31.4452 57.9687 31.0351 57.6953 30.8984 57.2851L28.0273 45.664C27.8906 45.1171 28.164 44.5703 28.7109 44.4336C29.2577 44.2968 29.8046 44.707 29.9413 45.1171L32.8124 56.875C32.9491 57.2851 32.6757 57.832 32.1288 57.9687C31.9921 57.9687 31.9921 57.9687 31.8554 57.9687Z" fill="#CFA935"/>
<path fill-rule="evenodd" clip-rule="evenodd" d="M38.1445 57.9687C38.0077 57.9687 38.0077 57.9687 37.871 57.9687C37.3241 57.832 37.0507 57.2851 37.1874 56.875L40.1952 45.1171C40.332 44.707 40.7421 44.2968 41.289 44.4336C41.8359 44.5703 42.1093 45.1171 41.9726 45.664L39.1015 57.2851C38.9648 57.6953 38.5546 57.9687 38.1445 57.9687Z" fill="#CFA935"/>
<path fill-rule="evenodd" clip-rule="evenodd" d="M34.9999 50.4493C32.4023 50.4493 29.9413 49.2188 28.4374 47.0313C28.164 46.6212 28.3007 46.0743 28.7109 45.8009C29.121 45.3907 29.6679 45.5274 30.078 45.9376C31.1718 47.5782 33.0859 48.5352 34.9999 48.5352C37.0507 48.5352 38.8281 47.5782 40.0585 45.9376C40.332 45.5274 40.8788 45.3907 41.289 45.8009C41.8359 46.0743 41.8359 46.6212 41.5624 47.0313C40.0585 49.2188 37.5976 50.4493 34.9999 50.4493Z" fill="#CFA935"/>
<path fill-rule="evenodd" clip-rule="evenodd" d="M35 7.92969C34.4531 7.92969 34.043 7.51953 34.043 6.97266V0.957031C34.043 0.410156 34.4531 0 35 0C35.5469 0 35.957 0.410156 35.957 0.957031V6.97266C35.957 7.51953 35.5469 7.92969 35 7.92969Z" fill="#CFA935"/>
<path fill-rule="evenodd" clip-rule="evenodd" d="M47.1679 11.2109C47.0312 11.2109 46.8945 11.2109 46.621 11.0742C46.2109 10.8008 46.0741 10.2539 46.3476 9.84375L49.3554 4.64844C49.6288 4.10156 50.1757 3.96484 50.5859 4.23828C51.1327 4.51172 51.2695 5.05859 50.996 5.60547L47.9882 10.8008C47.8515 11.0742 47.4413 11.2109 47.1679 11.2109Z" fill="#CFA935"/>
<path fill-rule="evenodd" clip-rule="evenodd" d="M56.0547 20.0977C55.7812 20.0977 55.3711 19.9609 55.2344 19.6875C54.9609 19.1406 55.0977 18.5938 55.6445 18.3203L60.8398 15.3125C61.25 15.0391 61.7969 15.1758 62.0703 15.7227C62.3438 16.1328 62.207 16.6797 61.7969 16.9531L56.6016 19.9609C56.4648 20.0977 56.1914 20.0977 56.0547 20.0977Z" fill="#CFA935"/>
<path fill-rule="evenodd" clip-rule="evenodd" d="M65.3516 32.2656H59.3359C58.7891 32.2656 58.3789 31.8555 58.3789 31.3086C58.3789 30.7617 58.7891 30.3516 59.3359 30.3516H65.3516C65.8984 30.3516 66.3086 30.7617 66.3086 31.3086C66.3086 31.8555 65.8984 32.2656 65.3516 32.2656Z" fill="#CFA935"/>
<path fill-rule="evenodd" clip-rule="evenodd" d="M22.832 11.2111C22.5586 11.2111 22.1484 11.0744 22.0117 10.6642L19.0039 5.46892C18.7305 5.05876 18.8672 4.51189 19.4141 4.23845C19.8242 3.96501 20.3711 4.10173 20.6445 4.51189L23.6523 9.7072C23.9258 10.2541 23.7891 10.8009 23.3789 11.0744C23.2422 11.2111 22.9688 11.2111 22.832 11.2111Z" fill="#CFA935"/>
<path fill-rule="evenodd" clip-rule="evenodd" d="M13.9452 20.0978C13.8085 20.0978 13.5351 20.0978 13.3984 19.9611L8.20305 16.9533C7.79289 16.6799 7.65617 16.133 7.92961 15.5861C8.20305 15.1759 8.74992 15.0392 9.16008 15.3127L14.3554 18.3205C14.9023 18.5939 15.039 19.1408 14.7655 19.5509C14.6288 19.9611 14.2187 20.0978 13.9452 20.0978Z" fill="#CFA935"/>
<path fill-rule="evenodd" clip-rule="evenodd" d="M10.6641 32.2656H4.64844C4.10156 32.2656 3.69141 31.8555 3.69141 31.3086C3.69141 30.7617 4.10156 30.3516 4.64844 30.3516H10.6641C11.2109 30.3516 11.6211 30.7617 11.6211 31.3086C11.6211 31.8555 11.2109 32.2656 10.6641 32.2656Z" fill="#CFA935"/>
<path fill-rule="evenodd" clip-rule="evenodd" d="M45.3906 57.9688H24.7461C22.9688 57.9688 21.4648 56.6016 21.4648 54.8242C21.4648 47.3047 19.6875 44.1602 18.0469 41.1523C16.6797 38.5547 15.3125 36.0938 15.3125 31.3086C15.3125 20.5078 24.1992 11.6211 35 11.6211C45.8008 11.6211 54.6875 20.5078 54.6875 31.3086C54.6875 36.0938 53.3203 38.5547 51.9531 41.1523C50.3125 44.1602 48.5352 47.3047 48.5352 54.8242C48.5352 56.6016 47.168 57.9688 45.3906 57.9688ZM35 13.5352C25.293 13.5352 17.2266 21.4648 17.2266 31.3086C17.2266 35.5469 18.457 37.7344 19.8242 40.332C21.4648 43.3398 23.3789 46.7578 23.3789 54.8242C23.3789 55.5078 23.9258 56.0547 24.7461 56.0547H45.3906C46.0742 56.0547 46.6211 55.5078 46.6211 54.8242C46.6211 46.7578 48.5352 43.3398 50.1758 40.332C51.543 37.7344 52.7734 35.5469 52.7734 31.3086C52.7734 21.4648 44.8438 13.5352 35 13.5352Z" fill="#CFA935"/>
</svg>
