<svg width="254" height="289" viewBox="0 0 254 289" fill="none" xmlns="http://www.w3.org/2000/svg">
<g opacity="0.6" clip-path="url(#clip0_1_11036)">
<g style="mix-blend-mode:screen">
<path d="M42.2333 126.622H169.261L222.8 74.8166H317.221L391.283 3.19925L390.71 2.625L316.894 74.0372H222.473L168.933 125.802H42.2333V126.622Z" fill="url(#paint0_radial_1_11036)"/>
<path d="M42.3986 123.177C40.6781 123.177 39.2443 124.53 39.2443 126.212C39.2443 127.894 40.6371 129.247 42.3986 129.247C44.16 129.247 45.5527 127.894 45.5527 126.212C45.5527 124.53 44.16 123.177 42.3986 123.177Z" fill="url(#paint1_radial_1_11036)"/>
<path d="M3.36044 187.247L46.6179 145.409H195.274L239.761 102.422H299.526L323.449 125.556H504.467V124.736H323.777L299.854 101.602H239.433L194.947 144.588H46.2493L2.746 186.673L3.36044 187.247Z" fill="url(#paint2_radial_1_11036)"/>
<path d="M0.943307 184.704C-0.285597 185.893 -0.285597 187.821 0.943307 189.011C2.17221 190.2 4.17944 190.2 5.36738 189.011C6.59629 187.821 6.59629 185.893 5.36738 184.704C4.13848 183.514 2.13125 183.514 0.943307 184.704Z" fill="url(#paint3_radial_1_11036)"/>
<path d="M8.7662 206.895L50.9995 166.082H192.569L239.923 120.265H283.222L317.918 153.817H454.203V153.038H318.286L283.549 119.444H239.595L192.242 165.261H50.6718L8.19272 206.32L8.7662 206.895Z" fill="url(#paint4_radial_1_11036)"/>
<path d="M10.8146 208.658C9.58574 209.848 7.57851 209.848 6.39057 208.658C5.16167 207.469 5.16167 205.541 6.39057 204.352C7.61948 203.162 9.62671 203.162 10.8146 204.352C12.0436 205.541 12.0436 207.469 10.8146 208.658Z" fill="url(#paint5_radial_1_11036)"/>
<path d="M8.7666 231.218L54.0722 187.411H181.714L224.48 146.024H295.429L332.419 181.833H485.909L531.256 137.943L530.682 137.369L485.541 181.012H332.788L295.798 145.245H224.153L181.387 186.591H53.7035L8.19312 230.644L8.7666 231.218Z" fill="url(#paint6_radial_1_11036)"/>
<path d="M6.34961 228.675C5.1207 229.864 5.1207 231.792 6.34961 232.982C7.57851 234.171 9.58569 234.171 10.7736 232.982C12.0025 231.792 12.0025 229.864 10.7736 228.675C9.54473 227.485 7.53755 227.485 6.34961 228.675Z" fill="url(#paint7_radial_1_11036)"/>
<path d="M27.7747 239.75L64.6009 204.147H179.012L223.662 160.955H292.727L348.969 215.344L349.543 214.77L293.054 160.175H223.293L178.643 203.326H64.2322L27.2013 239.176L27.7747 239.75Z" fill="url(#paint8_radial_1_11036)"/>
<path d="M25.3984 237.207C24.1695 238.396 24.1695 240.324 25.3984 241.513C26.6273 242.703 28.6345 242.703 29.8225 241.513C31.0514 240.324 31.0514 238.396 29.8225 237.207C28.5936 236.017 26.5864 236.017 25.3984 237.207Z" fill="url(#paint9_radial_1_11036)"/>
<path d="M152.18 346.93H195.028L276.627 268.011H493.324V267.191H276.3L194.659 346.15H152.508L121.949 316.577H39.1211L3.35992 281.998L2.74548 282.573L38.7934 317.397H121.622L152.18 346.93Z" fill="url(#paint10_radial_1_11036)"/>
<path d="M5.36738 280.234C4.13848 279.045 2.13125 279.045 0.943307 280.234C-0.285597 281.424 -0.285597 283.352 0.943307 284.541C2.17221 285.731 4.17944 285.731 5.36738 284.541C6.59629 283.352 6.59629 281.424 5.36738 280.234Z" fill="url(#paint11_radial_1_11036)"/>
<path d="M192.898 252.383H222.023V251.604H193.267L166.764 225.968H67.755V226.788H166.436L192.898 252.383Z" fill="url(#paint12_radial_1_11036)"/>
<path d="M67.918 223.343C66.1976 223.343 64.7639 224.696 64.7639 226.378C64.7639 228.06 66.1566 229.413 67.918 229.413C69.6795 229.413 71.0723 228.06 71.0723 226.378C71.0723 224.696 69.6795 223.343 67.918 223.343Z" fill="url(#paint13_radial_1_11036)"/>
<path d="M221.859 248.938C223.58 248.938 225.014 250.292 225.014 251.973C225.014 253.655 223.621 255.009 221.859 255.009C220.098 255.009 218.705 253.655 218.705 251.973C218.705 250.292 220.098 248.938 221.859 248.938Z" fill="url(#paint14_radial_1_11036)"/>
<path d="M194.824 227.281L235.336 188.067H293.996V187.247H235.009L194.209 226.706L194.824 227.281Z" fill="url(#paint15_radial_1_11036)"/>
<path d="M192.406 224.737C191.177 225.927 191.177 227.855 192.406 229.044C193.635 230.234 195.642 230.234 196.83 229.044C198.059 227.855 198.059 225.927 196.83 224.737C195.601 223.548 193.594 223.548 192.406 224.737Z" fill="url(#paint16_radial_1_11036)"/>
<path d="M221.983 231.218L250.289 203.818H302.148V202.998H249.961L221.368 230.644L221.983 231.218Z" fill="url(#paint17_radial_1_11036)"/>
<path d="M219.564 228.675C218.336 229.864 218.336 231.792 219.564 232.982C220.793 234.171 222.801 234.171 223.988 232.982C225.217 231.792 225.217 229.864 223.988 228.675C222.76 227.485 220.752 227.485 219.564 228.675Z" fill="url(#paint18_radial_1_11036)"/>
<path d="M176.348 321.048H201.787L276.135 249.143H506.883V248.364H275.808L201.459 320.227H176.676L147.469 292.007H67.3855L43.7906 269.201L43.2171 269.775L67.0168 292.827H147.141L176.348 321.048Z" fill="url(#paint19_radial_1_11036)"/>
<path d="M45.84 267.478C44.6111 266.289 42.6039 266.289 41.416 267.478C40.1871 268.668 40.1871 270.595 41.416 271.785C42.6449 272.974 44.6521 272.974 45.84 271.785C47.0689 270.595 47.0689 268.668 45.84 267.478Z" fill="url(#paint20_radial_1_11036)"/>
<path d="M178.724 299.062H205.883L277.692 229.618H519.131V228.798H277.323L205.514 298.241H179.052L158.365 278.224H73.4891L51.9423 257.387L51.3688 257.962L73.1204 279.045H157.997L178.724 299.062Z" fill="url(#paint21_radial_1_11036)"/>
<path d="M53.9904 255.624C52.7615 254.434 50.7543 254.434 49.5664 255.624C48.3375 256.813 48.3375 258.741 49.5664 259.93C50.7953 261.12 52.8025 261.12 53.9904 259.93C55.2193 258.741 55.2193 256.813 53.9904 255.624Z" fill="url(#paint22_radial_1_11036)"/>
<path d="M180.2 270.964L180.814 270.39L152.918 243.441H66.1167V244.221H152.591L180.2 270.964Z" fill="url(#paint23_radial_1_11036)"/>
<path d="M66.2794 240.775C64.5589 240.775 63.1252 242.129 63.1252 243.811C63.1252 245.492 64.5179 246.846 66.2794 246.846C68.0408 246.846 69.4336 245.492 69.4336 243.811C69.4336 242.129 68.0408 240.775 66.2794 240.775Z" fill="url(#paint24_radial_1_11036)"/>
<path d="M182.615 268.421C183.844 269.611 183.844 271.539 182.615 272.728C181.387 273.918 179.379 273.918 178.191 272.728C176.962 271.539 176.962 269.611 178.191 268.421C179.42 267.232 181.427 267.232 182.615 268.421Z" fill="url(#paint25_radial_1_11036)"/>
<path d="M252.131 91.9211H337.581L402.836 28.8355L402.221 28.2612L337.253 91.1007H252.131V91.9211Z" fill="url(#paint26_radial_1_11036)"/>
<path d="M252.295 88.4756C250.575 88.4756 249.141 89.8292 249.141 91.5109C249.141 93.1927 250.534 94.5462 252.295 94.5462C254.056 94.5462 255.449 93.1927 255.449 91.5109C255.449 89.8292 254.056 88.4756 252.295 88.4756Z" fill="url(#paint27_radial_1_11036)"/>
</g>
</g>
<defs>
<radialGradient id="paint0_radial_1_11036" cx="0" cy="0" r="1" gradientUnits="userSpaceOnUse" gradientTransform="translate(344.077 268.573) rotate(180) scale(306.673 307.081)">
<stop offset="0.4" stop-color="#CFA935"/>
<stop offset="0.6" stop-color="#CFA935"/>
<stop offset="0.7" stop-color="#9C8028"/>
<stop offset="0.8" stop-color="#392F0E"/>
<stop offset="0.9" stop-color="#1A1506"/>
<stop offset="1"/>
</radialGradient>
<radialGradient id="paint1_radial_1_11036" cx="0" cy="0" r="1" gradientUnits="userSpaceOnUse" gradientTransform="translate(344.079 268.573) rotate(180) scale(306.674 307.081)">
<stop offset="0.4" stop-color="#CFA935"/>
<stop offset="0.6" stop-color="#CFA935"/>
<stop offset="0.7" stop-color="#9C8028"/>
<stop offset="0.8" stop-color="#392F0E"/>
<stop offset="0.9" stop-color="#1A1506"/>
<stop offset="1"/>
</radialGradient>
<radialGradient id="paint2_radial_1_11036" cx="0" cy="0" r="1" gradientUnits="userSpaceOnUse" gradientTransform="translate(344.078 268.573) rotate(180) scale(306.673 307.081)">
<stop offset="0.4" stop-color="#CFA935"/>
<stop offset="0.6" stop-color="#CFA935"/>
<stop offset="0.7" stop-color="#9C8028"/>
<stop offset="0.8" stop-color="#392F0E"/>
<stop offset="0.9" stop-color="#1A1506"/>
<stop offset="1"/>
</radialGradient>
<radialGradient id="paint3_radial_1_11036" cx="0" cy="0" r="1" gradientUnits="userSpaceOnUse" gradientTransform="translate(344.079 268.573) rotate(180) scale(306.674 307.081)">
<stop offset="0.4" stop-color="#CFA935"/>
<stop offset="0.6" stop-color="#CFA935"/>
<stop offset="0.7" stop-color="#9C8028"/>
<stop offset="0.8" stop-color="#392F0E"/>
<stop offset="0.9" stop-color="#1A1506"/>
<stop offset="1"/>
</radialGradient>
<radialGradient id="paint4_radial_1_11036" cx="0" cy="0" r="1" gradientUnits="userSpaceOnUse" gradientTransform="translate(344.077 268.573) rotate(180) scale(306.673 307.081)">
<stop offset="0.4" stop-color="#CFA935"/>
<stop offset="0.6" stop-color="#CFA935"/>
<stop offset="0.7" stop-color="#9C8028"/>
<stop offset="0.8" stop-color="#392F0E"/>
<stop offset="0.9" stop-color="#1A1506"/>
<stop offset="1"/>
</radialGradient>
<radialGradient id="paint5_radial_1_11036" cx="0" cy="0" r="1" gradientUnits="userSpaceOnUse" gradientTransform="translate(344.078 268.573) rotate(180) scale(306.674 307.081)">
<stop offset="0.4" stop-color="#CFA935"/>
<stop offset="0.6" stop-color="#CFA935"/>
<stop offset="0.7" stop-color="#9C8028"/>
<stop offset="0.8" stop-color="#392F0E"/>
<stop offset="0.9" stop-color="#1A1506"/>
<stop offset="1"/>
</radialGradient>
<radialGradient id="paint6_radial_1_11036" cx="0" cy="0" r="1" gradientUnits="userSpaceOnUse" gradientTransform="translate(344.077 268.573) rotate(180) scale(306.673 307.081)">
<stop offset="0.4" stop-color="#CFA935"/>
<stop offset="0.6" stop-color="#CFA935"/>
<stop offset="0.7" stop-color="#9C8028"/>
<stop offset="0.8" stop-color="#392F0E"/>
<stop offset="0.9" stop-color="#1A1506"/>
<stop offset="1"/>
</radialGradient>
<radialGradient id="paint7_radial_1_11036" cx="0" cy="0" r="1" gradientUnits="userSpaceOnUse" gradientTransform="translate(344.076 268.573) rotate(180) scale(306.672 307.081)">
<stop offset="0.4" stop-color="#CFA935"/>
<stop offset="0.6" stop-color="#CFA935"/>
<stop offset="0.7" stop-color="#9C8028"/>
<stop offset="0.8" stop-color="#392F0E"/>
<stop offset="0.9" stop-color="#1A1506"/>
<stop offset="1"/>
</radialGradient>
<radialGradient id="paint8_radial_1_11036" cx="0" cy="0" r="1" gradientUnits="userSpaceOnUse" gradientTransform="translate(344.078 268.573) rotate(180) scale(306.673 307.081)">
<stop offset="0.4" stop-color="#CFA935"/>
<stop offset="0.6" stop-color="#CFA935"/>
<stop offset="0.7" stop-color="#9C8028"/>
<stop offset="0.8" stop-color="#392F0E"/>
<stop offset="0.9" stop-color="#1A1506"/>
<stop offset="1"/>
</radialGradient>
<radialGradient id="paint9_radial_1_11036" cx="0" cy="0" r="1" gradientUnits="userSpaceOnUse" gradientTransform="translate(344.076 268.573) rotate(180) scale(306.672 307.081)">
<stop offset="0.4" stop-color="#CFA935"/>
<stop offset="0.6" stop-color="#CFA935"/>
<stop offset="0.7" stop-color="#9C8028"/>
<stop offset="0.8" stop-color="#392F0E"/>
<stop offset="0.9" stop-color="#1A1506"/>
<stop offset="1"/>
</radialGradient>
<radialGradient id="paint10_radial_1_11036" cx="0" cy="0" r="1" gradientUnits="userSpaceOnUse" gradientTransform="translate(344.078 268.573) rotate(180) scale(306.673 307.081)">
<stop offset="0.4" stop-color="#CFA935"/>
<stop offset="0.6" stop-color="#CFA935"/>
<stop offset="0.7" stop-color="#9C8028"/>
<stop offset="0.8" stop-color="#392F0E"/>
<stop offset="0.9" stop-color="#1A1506"/>
<stop offset="1"/>
</radialGradient>
<radialGradient id="paint11_radial_1_11036" cx="0" cy="0" r="1" gradientUnits="userSpaceOnUse" gradientTransform="translate(344.079 268.573) rotate(180) scale(306.674 307.081)">
<stop offset="0.4" stop-color="#CFA935"/>
<stop offset="0.6" stop-color="#CFA935"/>
<stop offset="0.7" stop-color="#9C8028"/>
<stop offset="0.8" stop-color="#392F0E"/>
<stop offset="0.9" stop-color="#1A1506"/>
<stop offset="1"/>
</radialGradient>
<radialGradient id="paint12_radial_1_11036" cx="0" cy="0" r="1" gradientUnits="userSpaceOnUse" gradientTransform="translate(344.078 268.573) rotate(180) scale(306.673 307.081)">
<stop offset="0.4" stop-color="#CFA935"/>
<stop offset="0.6" stop-color="#CFA935"/>
<stop offset="0.7" stop-color="#9C8028"/>
<stop offset="0.8" stop-color="#392F0E"/>
<stop offset="0.9" stop-color="#1A1506"/>
<stop offset="1"/>
</radialGradient>
<radialGradient id="paint13_radial_1_11036" cx="0" cy="0" r="1" gradientUnits="userSpaceOnUse" gradientTransform="translate(344.078 268.573) rotate(180) scale(306.674 307.081)">
<stop offset="0.4" stop-color="#CFA935"/>
<stop offset="0.6" stop-color="#CFA935"/>
<stop offset="0.7" stop-color="#9C8028"/>
<stop offset="0.8" stop-color="#392F0E"/>
<stop offset="0.9" stop-color="#1A1506"/>
<stop offset="1"/>
</radialGradient>
<radialGradient id="paint14_radial_1_11036" cx="0" cy="0" r="1" gradientUnits="userSpaceOnUse" gradientTransform="translate(344.078 268.573) rotate(180) scale(306.674 307.081)">
<stop offset="0.4" stop-color="#CFA935"/>
<stop offset="0.6" stop-color="#CFA935"/>
<stop offset="0.7" stop-color="#9C8028"/>
<stop offset="0.8" stop-color="#392F0E"/>
<stop offset="0.9" stop-color="#1A1506"/>
<stop offset="1"/>
</radialGradient>
<radialGradient id="paint15_radial_1_11036" cx="0" cy="0" r="1" gradientUnits="userSpaceOnUse" gradientTransform="translate(344.078 268.573) rotate(180) scale(306.673 307.081)">
<stop offset="0.4" stop-color="#CFA935"/>
<stop offset="0.6" stop-color="#CFA935"/>
<stop offset="0.7" stop-color="#9C8028"/>
<stop offset="0.8" stop-color="#392F0E"/>
<stop offset="0.9" stop-color="#1A1506"/>
<stop offset="1"/>
</radialGradient>
<radialGradient id="paint16_radial_1_11036" cx="0" cy="0" r="1" gradientUnits="userSpaceOnUse" gradientTransform="translate(344.078 268.573) rotate(180) scale(306.674 307.081)">
<stop offset="0.4" stop-color="#CFA935"/>
<stop offset="0.6" stop-color="#CFA935"/>
<stop offset="0.7" stop-color="#9C8028"/>
<stop offset="0.8" stop-color="#392F0E"/>
<stop offset="0.9" stop-color="#1A1506"/>
<stop offset="1"/>
</radialGradient>
<radialGradient id="paint17_radial_1_11036" cx="0" cy="0" r="1" gradientUnits="userSpaceOnUse" gradientTransform="translate(344.079 268.573) rotate(180) scale(306.673 307.081)">
<stop offset="0.4" stop-color="#CFA935"/>
<stop offset="0.6" stop-color="#CFA935"/>
<stop offset="0.7" stop-color="#9C8028"/>
<stop offset="0.8" stop-color="#392F0E"/>
<stop offset="0.9" stop-color="#1A1506"/>
<stop offset="1"/>
</radialGradient>
<radialGradient id="paint18_radial_1_11036" cx="0" cy="0" r="1" gradientUnits="userSpaceOnUse" gradientTransform="translate(344.077 268.573) rotate(180) scale(306.673 307.081)">
<stop offset="0.4" stop-color="#CFA935"/>
<stop offset="0.6" stop-color="#CFA935"/>
<stop offset="0.7" stop-color="#9C8028"/>
<stop offset="0.8" stop-color="#392F0E"/>
<stop offset="0.9" stop-color="#1A1506"/>
<stop offset="1"/>
</radialGradient>
<radialGradient id="paint19_radial_1_11036" cx="0" cy="0" r="1" gradientUnits="userSpaceOnUse" gradientTransform="translate(344.078 268.573) rotate(180) scale(306.673 307.081)">
<stop offset="0.4" stop-color="#CFA935"/>
<stop offset="0.6" stop-color="#CFA935"/>
<stop offset="0.7" stop-color="#9C8028"/>
<stop offset="0.8" stop-color="#392F0E"/>
<stop offset="0.9" stop-color="#1A1506"/>
<stop offset="1"/>
</radialGradient>
<radialGradient id="paint20_radial_1_11036" cx="0" cy="0" r="1" gradientUnits="userSpaceOnUse" gradientTransform="translate(344.08 268.573) rotate(180) scale(306.674 307.081)">
<stop offset="0.4" stop-color="#CFA935"/>
<stop offset="0.6" stop-color="#CFA935"/>
<stop offset="0.7" stop-color="#9C8028"/>
<stop offset="0.8" stop-color="#392F0E"/>
<stop offset="0.9" stop-color="#1A1506"/>
<stop offset="1"/>
</radialGradient>
<radialGradient id="paint21_radial_1_11036" cx="0" cy="0" r="1" gradientUnits="userSpaceOnUse" gradientTransform="translate(344.078 268.573) rotate(180) scale(306.673 307.081)">
<stop offset="0.4" stop-color="#CFA935"/>
<stop offset="0.6" stop-color="#CFA935"/>
<stop offset="0.7" stop-color="#9C8028"/>
<stop offset="0.8" stop-color="#392F0E"/>
<stop offset="0.9" stop-color="#1A1506"/>
<stop offset="1"/>
</radialGradient>
<radialGradient id="paint22_radial_1_11036" cx="0" cy="0" r="1" gradientUnits="userSpaceOnUse" gradientTransform="translate(344.076 268.573) rotate(180) scale(306.672 307.081)">
<stop offset="0.4" stop-color="#CFA935"/>
<stop offset="0.6" stop-color="#CFA935"/>
<stop offset="0.7" stop-color="#9C8028"/>
<stop offset="0.8" stop-color="#392F0E"/>
<stop offset="0.9" stop-color="#1A1506"/>
<stop offset="1"/>
</radialGradient>
<radialGradient id="paint23_radial_1_11036" cx="0" cy="0" r="1" gradientUnits="userSpaceOnUse" gradientTransform="translate(344.079 268.573) rotate(180) scale(306.673 307.081)">
<stop offset="0.4" stop-color="#CFA935"/>
<stop offset="0.6" stop-color="#CFA935"/>
<stop offset="0.7" stop-color="#9C8028"/>
<stop offset="0.8" stop-color="#392F0E"/>
<stop offset="0.9" stop-color="#1A1506"/>
<stop offset="1"/>
</radialGradient>
<radialGradient id="paint24_radial_1_11036" cx="0" cy="0" r="1" gradientUnits="userSpaceOnUse" gradientTransform="translate(344.078 268.573) rotate(180) scale(306.674 307.081)">
<stop offset="0.4" stop-color="#CFA935"/>
<stop offset="0.6" stop-color="#CFA935"/>
<stop offset="0.7" stop-color="#9C8028"/>
<stop offset="0.8" stop-color="#392F0E"/>
<stop offset="0.9" stop-color="#1A1506"/>
<stop offset="1"/>
</radialGradient>
<radialGradient id="paint25_radial_1_11036" cx="0" cy="0" r="1" gradientUnits="userSpaceOnUse" gradientTransform="translate(344.077 268.573) rotate(180) scale(306.673 307.081)">
<stop offset="0.4" stop-color="#CFA935"/>
<stop offset="0.6" stop-color="#CFA935"/>
<stop offset="0.7" stop-color="#9C8028"/>
<stop offset="0.8" stop-color="#392F0E"/>
<stop offset="0.9" stop-color="#1A1506"/>
<stop offset="1"/>
</radialGradient>
<radialGradient id="paint26_radial_1_11036" cx="0" cy="0" r="1" gradientUnits="userSpaceOnUse" gradientTransform="translate(344.078 268.573) rotate(180) scale(306.673 307.081)">
<stop offset="0.4" stop-color="#CFA935"/>
<stop offset="0.6" stop-color="#CFA935"/>
<stop offset="0.7" stop-color="#9C8028"/>
<stop offset="0.8" stop-color="#392F0E"/>
<stop offset="0.9" stop-color="#1A1506"/>
<stop offset="1"/>
</radialGradient>
<radialGradient id="paint27_radial_1_11036" cx="0" cy="0" r="1" gradientUnits="userSpaceOnUse" gradientTransform="translate(344.078 268.573) rotate(180) scale(306.674 307.081)">
<stop offset="0.4" stop-color="#CFA935"/>
<stop offset="0.6" stop-color="#CFA935"/>
<stop offset="0.7" stop-color="#9C8028"/>
<stop offset="0.8" stop-color="#392F0E"/>
<stop offset="0.9" stop-color="#1A1506"/>
<stop offset="1"/>
</radialGradient>
<clipPath id="clip0_1_11036">
<rect width="254" height="289" fill="white" transform="matrix(-1 0 0 1 254 0)"/>
</clipPath>
</defs>
</svg>
