<svg width="534" height="519" viewBox="0 0 534 519" fill="none" xmlns="http://www.w3.org/2000/svg">
<g opacity="0.6" clip-path="url(#clip0_1_4357)">
<g style="mix-blend-mode:screen">
<path d="M42.2333 126.622H169.261L222.8 74.8166H317.221L391.283 3.19925L390.71 2.625L316.894 74.0372H222.473L168.933 125.802H42.2333V126.622Z" fill="url(#paint0_radial_1_4357)"/>
<path d="M42.3986 123.177C40.6781 123.177 39.2443 124.53 39.2443 126.212C39.2443 127.894 40.6371 129.247 42.3986 129.247C44.16 129.247 45.5527 127.894 45.5527 126.212C45.5527 124.53 44.16 123.177 42.3986 123.177Z" fill="url(#paint1_radial_1_4357)"/>
<path d="M388.662 0.902394C389.891 -0.287126 391.898 -0.287126 393.086 0.902394C394.315 2.09191 394.315 4.01976 393.086 5.20928C391.857 6.3988 389.85 6.3988 388.662 5.20928C387.433 4.01976 387.433 2.09191 388.662 0.902394Z" fill="url(#paint2_radial_1_4357)"/>
<path d="M434.705 516.375H520.482V515.555H435.033L387.802 469.861H293.381L239.842 418.055H109.987L62.1829 371.828L61.5685 372.402L109.66 418.875H239.473L293.012 470.681H387.433L434.705 516.375Z" fill="url(#paint3_radial_1_4357)"/>
<path d="M64.2326 370.064C63.0037 368.874 60.9965 368.874 59.8086 370.064C58.5797 371.254 58.5797 373.181 59.8086 374.371C61.0375 375.56 63.0447 375.56 64.2326 374.371C65.4615 373.181 65.4615 371.254 64.2326 370.064Z" fill="url(#paint4_radial_1_4357)"/>
<path d="M520.318 512.929C522.039 512.929 523.473 514.283 523.473 515.965C523.473 517.646 522.08 519 520.318 519C518.557 519 517.164 517.646 517.164 515.965C517.164 514.283 518.557 512.929 520.318 512.929Z" fill="url(#paint5_radial_1_4357)"/>
<path d="M3.36044 187.247L46.6179 145.409H195.274L239.761 102.422H299.526L323.449 125.556H504.467V124.736H323.777L299.854 101.602H239.433L194.947 144.588H46.2493L2.746 186.673L3.36044 187.247Z" fill="url(#paint6_radial_1_4357)"/>
<path d="M0.943307 184.704C-0.285597 185.893 -0.285597 187.821 0.943307 189.011C2.17221 190.2 4.17944 190.2 5.36738 189.011C6.59629 187.821 6.59629 185.893 5.36738 184.704C4.13848 183.514 2.13125 183.514 0.943307 184.704Z" fill="url(#paint7_radial_1_4357)"/>
<path d="M504.303 122.11C506.023 122.11 507.457 123.464 507.457 125.146C507.457 126.827 506.064 128.181 504.303 128.181C502.541 128.181 501.149 126.827 501.149 125.146C501.149 123.464 502.541 122.11 504.303 122.11Z" fill="url(#paint8_radial_1_4357)"/>
<path d="M121.662 407.677H171.924L209.119 371.746H281.911L318.164 336.675H426.799V335.896H317.795L281.583 370.925H208.75L171.596 406.857H122.03L70.949 357.471L70.3755 358.046L121.662 407.677Z" fill="url(#paint9_radial_1_4357)"/>
<path d="M72.9982 355.749C71.7693 354.559 69.7622 354.559 68.5742 355.749C67.3453 356.938 67.3453 358.866 68.5742 360.055C69.8031 361.245 71.8103 361.245 72.9982 360.055C74.2271 358.866 74.2271 356.938 72.9982 355.749Z" fill="url(#paint10_radial_1_4357)"/>
<path d="M426.635 333.23C428.355 333.23 429.789 334.584 429.789 336.265C429.789 337.947 428.396 339.301 426.635 339.301C424.873 339.301 423.481 337.947 423.481 336.265C423.481 334.584 424.873 333.23 426.635 333.23Z" fill="url(#paint11_radial_1_4357)"/>
<path d="M8.7662 206.895L50.9995 166.082H192.569L239.923 120.265H283.222L317.918 153.817H454.203V153.038H318.286L283.549 119.444H239.595L192.242 165.261H50.6718L8.19272 206.32L8.7662 206.895Z" fill="url(#paint12_radial_1_4357)"/>
<path d="M454.08 156.483C455.801 156.483 457.234 155.13 457.234 153.448C457.234 151.766 455.842 150.413 454.08 150.413C452.319 150.413 450.926 151.766 450.926 153.448C450.926 155.13 452.319 156.483 454.08 156.483Z" fill="url(#paint13_radial_1_4357)"/>
<path d="M10.8146 208.658C9.58574 209.848 7.57851 209.848 6.39057 208.658C5.16167 207.469 5.16167 205.541 6.39057 204.352C7.61948 203.162 9.62671 203.162 10.8146 204.352C12.0436 205.541 12.0436 207.469 10.8146 208.658Z" fill="url(#paint14_radial_1_4357)"/>
<path d="M128.052 367.644H189.58L260.856 298.692H407.874L443.307 332.983L443.922 332.409L408.202 297.913H260.528L189.252 366.823H128.421L93.4383 333.024H30.3955V333.804H93.1106L128.052 367.644Z" fill="url(#paint15_radial_1_4357)"/>
<path d="M30.5607 330.358C28.8402 330.358 27.4065 331.712 27.4065 333.394C27.4065 335.075 28.7992 336.429 30.5607 336.429C32.3221 336.429 33.7148 335.075 33.7148 333.394C33.7148 331.712 32.3221 330.358 30.5607 330.358Z" fill="url(#paint16_radial_1_4357)"/>
<path d="M445.725 330.44C446.954 331.63 446.954 333.558 445.725 334.747C444.496 335.937 442.489 335.937 441.301 334.747C440.072 333.558 440.072 331.63 441.301 330.44C442.53 329.251 444.537 329.251 445.725 330.44Z" fill="url(#paint17_radial_1_4357)"/>
<path d="M114.494 381.754H148.33V380.934H114.822L76.3162 343.689L75.7428 344.264L114.494 381.754Z" fill="url(#paint18_radial_1_4357)"/>
<path d="M78.3635 341.966C77.1346 340.777 75.1274 340.777 73.9395 341.966C72.7105 343.156 72.7105 345.084 73.9395 346.273C75.1684 347.463 77.1755 347.463 78.3635 346.273C79.5924 345.084 79.5924 343.156 78.3635 341.966Z" fill="url(#paint19_radial_1_4357)"/>
<path d="M148.166 378.309C149.887 378.309 151.32 379.662 151.32 381.344C151.32 383.026 149.928 384.379 148.166 384.379C146.405 384.379 145.012 383.026 145.012 381.344C145.012 379.662 146.405 378.309 148.166 378.309Z" fill="url(#paint20_radial_1_4357)"/>
<path d="M8.7666 231.218L54.0722 187.411H181.714L224.48 146.024H295.429L332.419 181.833H485.909L531.256 137.943L530.682 137.369L485.541 181.012H332.788L295.798 145.245H224.153L181.387 186.591H53.7035L8.19312 230.644L8.7666 231.218Z" fill="url(#paint21_radial_1_4357)"/>
<path d="M6.34961 228.675C5.1207 229.864 5.1207 231.792 6.34961 232.982C7.57851 234.171 9.58569 234.171 10.7736 232.982C12.0025 231.792 12.0025 229.864 10.7736 228.675C9.54473 227.485 7.53755 227.485 6.34961 228.675Z" fill="url(#paint22_radial_1_4357)"/>
<path d="M528.635 135.606C529.864 134.416 531.871 134.416 533.059 135.606C534.288 136.795 534.288 138.723 533.059 139.912C531.83 141.102 529.823 141.102 528.635 139.912C527.406 138.723 527.406 136.795 528.635 135.606Z" fill="url(#paint23_radial_1_4357)"/>
<path d="M27.7747 239.75L64.6009 204.147H179.012L223.662 160.955H292.727L348.969 215.344L349.543 214.77L293.054 160.175H223.293L178.643 203.326H64.2322L27.2013 239.176L27.7747 239.75Z" fill="url(#paint24_radial_1_4357)"/>
<path d="M25.3984 237.207C24.1695 238.396 24.1695 240.324 25.3984 241.513C26.6273 242.703 28.6345 242.703 29.8225 241.513C31.0514 240.324 31.0514 238.396 29.8225 237.207C28.5936 236.017 26.5864 236.017 25.3984 237.207Z" fill="url(#paint25_radial_1_4357)"/>
<path d="M351.385 212.801C352.614 213.991 352.614 215.919 351.385 217.108C350.156 218.298 348.149 218.298 346.961 217.108C345.732 215.919 345.732 213.991 346.961 212.801C348.19 211.612 350.197 211.612 351.385 212.801Z" fill="url(#paint26_radial_1_4357)"/>
<path d="M152.18 346.93H195.028L276.627 268.011H493.324V267.191H276.3L194.659 346.15H152.508L121.949 316.577H39.1211L3.35992 281.998L2.74548 282.573L38.7934 317.397H121.622L152.18 346.93Z" fill="url(#paint27_radial_1_4357)"/>
<path d="M5.36738 280.234C4.13848 279.045 2.13125 279.045 0.943307 280.234C-0.285597 281.424 -0.285597 283.352 0.943307 284.541C2.17221 285.731 4.17944 285.731 5.36738 284.541C6.59629 283.352 6.59629 281.424 5.36738 280.234Z" fill="url(#paint28_radial_1_4357)"/>
<path d="M493.16 264.566C494.881 264.566 496.314 265.92 496.314 267.601C496.314 269.283 494.922 270.637 493.16 270.637C491.399 270.637 490.006 269.283 490.006 267.601C490.006 265.92 491.399 264.566 493.16 264.566Z" fill="url(#paint29_radial_1_4357)"/>
<path d="M192.898 252.383H222.023V251.604H193.267L166.764 225.968H67.755V226.788H166.436L192.898 252.383Z" fill="url(#paint30_radial_1_4357)"/>
<path d="M67.918 223.343C66.1976 223.343 64.7639 224.696 64.7639 226.378C64.7639 228.06 66.1566 229.413 67.918 229.413C69.6795 229.413 71.0723 228.06 71.0723 226.378C71.0723 224.696 69.6795 223.343 67.918 223.343Z" fill="url(#paint31_radial_1_4357)"/>
<path d="M221.859 248.938C223.58 248.938 225.014 250.292 225.014 251.973C225.014 253.655 223.621 255.009 221.859 255.009C220.098 255.009 218.705 253.655 218.705 251.973C218.705 250.292 220.098 248.938 221.859 248.938Z" fill="url(#paint32_radial_1_4357)"/>
<path d="M194.824 227.281L235.336 188.067H293.996V187.247H235.009L194.209 226.706L194.824 227.281Z" fill="url(#paint33_radial_1_4357)"/>
<path d="M192.406 224.737C191.177 225.927 191.177 227.855 192.406 229.044C193.635 230.234 195.642 230.234 196.83 229.044C198.059 227.855 198.059 225.927 196.83 224.737C195.601 223.548 193.594 223.548 192.406 224.737Z" fill="url(#paint34_radial_1_4357)"/>
<path d="M293.832 184.622C295.553 184.622 296.986 185.975 296.986 187.657C296.986 189.339 295.594 190.692 293.832 190.692C292.071 190.692 290.678 189.339 290.678 187.657C290.678 185.975 292.071 184.622 293.832 184.622Z" fill="url(#paint35_radial_1_4357)"/>
<path d="M221.983 231.218L250.289 203.818H302.148V202.998H249.961L221.368 230.644L221.983 231.218Z" fill="url(#paint36_radial_1_4357)"/>
<path d="M219.564 228.675C218.336 229.864 218.336 231.792 219.564 232.982C220.793 234.171 222.801 234.171 223.988 232.982C225.217 231.792 225.217 229.864 223.988 228.675C222.76 227.485 220.752 227.485 219.564 228.675Z" fill="url(#paint37_radial_1_4357)"/>
<path d="M301.984 200.373C303.705 200.373 305.139 201.726 305.139 203.408C305.139 205.09 303.746 206.443 301.984 206.443C300.223 206.443 298.83 205.09 298.83 203.408C298.83 201.726 300.223 200.373 301.984 200.373Z" fill="url(#paint38_radial_1_4357)"/>
<path d="M454.491 345.863H490.621V346.684H454.491V345.863Z" fill="url(#paint39_radial_1_4357)"/>
<path d="M454.654 343.197C452.934 343.197 451.5 344.551 451.5 346.233C451.5 347.914 452.893 349.268 454.654 349.268C456.416 349.268 457.809 347.914 457.809 346.233C457.809 344.551 456.416 343.197 454.654 343.197Z" fill="url(#paint40_radial_1_4357)"/>
<path d="M490.457 343.197C492.178 343.197 493.611 344.551 493.611 346.233C493.611 347.914 492.219 349.268 490.457 349.268C488.696 349.268 487.303 347.914 487.303 346.233C487.303 344.551 488.696 343.197 490.457 343.197Z" fill="url(#paint41_radial_1_4357)"/>
<path d="M242.055 351.072L278.512 315.797H395.545V314.977H278.185L241.481 350.498L242.055 351.072Z" fill="url(#paint42_radial_1_4357)"/>
<path d="M239.637 348.529C238.408 349.719 238.408 351.647 239.637 352.836C240.866 354.026 242.873 354.026 244.061 352.836C245.29 351.647 245.29 349.719 244.061 348.529C242.832 347.34 240.825 347.34 239.637 348.529Z" fill="url(#paint43_radial_1_4357)"/>
<path d="M395.381 312.352C397.101 312.352 398.535 313.705 398.535 315.387C398.535 317.069 397.142 318.422 395.381 318.422C393.62 318.422 392.227 317.069 392.227 315.387C392.227 313.705 393.62 312.352 395.381 312.352Z" fill="url(#paint44_radial_1_4357)"/>
<path d="M434.337 495.702H513.684V494.881H434.706L374.244 436.472H305.016L265.609 398.366H191.055V399.187H265.281L304.647 437.251H373.916L434.337 495.702Z" fill="url(#paint45_radial_1_4357)"/>
<path d="M191.178 395.741C189.457 395.741 188.024 397.095 188.024 398.777C188.024 400.458 189.416 401.812 191.178 401.812C192.939 401.812 194.332 400.458 194.332 398.777C194.332 397.095 192.939 395.741 191.178 395.741Z" fill="url(#paint46_radial_1_4357)"/>
<path d="M513.52 492.256C515.24 492.256 516.674 493.61 516.674 495.292C516.674 496.973 515.281 498.327 513.52 498.327C511.758 498.327 510.365 496.973 510.365 495.292C510.365 493.61 511.758 492.256 513.52 492.256Z" fill="url(#paint47_radial_1_4357)"/>
<path d="M517.001 406.201L517.574 405.627L470.671 360.302H330.453L303.294 386.553H218.213V387.374H303.663L330.822 361.081H470.343L517.001 406.201Z" fill="url(#paint48_radial_1_4357)"/>
<path d="M218.336 383.928C216.616 383.928 215.182 385.281 215.182 386.963C215.182 388.645 216.575 389.998 218.336 389.998C220.097 389.998 221.49 388.645 221.49 386.963C221.49 385.281 220.097 383.928 218.336 383.928Z" fill="url(#paint49_radial_1_4357)"/>
<path d="M519.377 403.658C520.606 404.847 520.606 406.775 519.377 407.965C518.148 409.154 516.141 409.154 514.953 407.965C513.724 406.775 513.724 404.847 514.953 403.658C516.182 402.468 518.189 402.468 519.377 403.658Z" fill="url(#paint50_radial_1_4357)"/>
<path d="M439.089 455.627H504.631L527.775 433.272L527.161 432.698L504.262 454.848H439.458L390.548 407.554H310.546V408.375H390.22L439.089 455.627Z" fill="url(#paint51_radial_1_4357)"/>
<path d="M310.709 404.929C308.989 404.929 307.555 406.283 307.555 407.965C307.555 409.646 308.948 411 310.709 411C312.471 411 313.863 409.646 313.863 407.965C313.863 406.283 312.471 404.929 310.709 404.929Z" fill="url(#paint52_radial_1_4357)"/>
<path d="M525.111 430.935C526.34 429.745 528.347 429.745 529.535 430.935C530.764 432.124 530.764 434.052 529.535 435.242C528.306 436.431 526.299 436.431 525.111 435.242C523.882 434.052 523.882 432.124 525.111 430.935Z" fill="url(#paint53_radial_1_4357)"/>
<path d="M457.441 424.782H490.621V423.962H457.768L420.451 387.866H337.704V388.686H420.082L457.441 424.782Z" fill="url(#paint54_radial_1_4357)"/>
<path d="M337.867 385.241C336.147 385.241 334.713 386.594 334.713 388.276C334.713 389.958 336.106 391.311 337.867 391.311C339.629 391.311 341.021 389.958 341.021 388.276C341.021 386.594 339.629 385.241 337.867 385.241Z" fill="url(#paint55_radial_1_4357)"/>
<path d="M490.457 421.336C492.178 421.336 493.611 422.69 493.611 424.372C493.611 426.053 492.219 427.407 490.457 427.407C488.696 427.407 487.303 426.053 487.303 424.372C487.303 422.69 488.696 421.336 490.457 421.336Z" fill="url(#paint56_radial_1_4357)"/>
<path d="M525.112 347.135L525.727 346.56L465.264 288.069H306.449V288.889H464.896L525.112 347.135Z" fill="url(#paint57_radial_1_4357)"/>
<path d="M306.613 285.444C304.893 285.444 303.459 286.797 303.459 288.479C303.459 290.161 304.852 291.514 306.613 291.514C308.375 291.514 309.768 290.161 309.768 288.479C309.768 286.797 308.375 285.444 306.613 285.444Z" fill="url(#paint58_radial_1_4357)"/>
<path d="M527.529 344.592C528.758 345.781 528.758 347.709 527.529 348.899C526.301 350.088 524.293 350.088 523.105 348.899C521.877 347.709 521.877 345.781 523.105 344.592C524.334 343.402 526.342 343.402 527.529 344.592Z" fill="url(#paint59_radial_1_4357)"/>
<path d="M176.348 321.048H201.787L276.135 249.143H506.883V248.364H275.808L201.459 320.227H176.676L147.469 292.007H67.3855L43.7906 269.201L43.2171 269.775L67.0168 292.827H147.141L176.348 321.048Z" fill="url(#paint60_radial_1_4357)"/>
<path d="M45.84 267.478C44.6111 266.289 42.6039 266.289 41.416 267.478C40.1871 268.668 40.1871 270.595 41.416 271.785C42.6449 272.974 44.6521 272.974 45.84 271.785C47.0689 270.595 47.0689 268.668 45.84 267.478Z" fill="url(#paint61_radial_1_4357)"/>
<path d="M506.76 245.697C508.48 245.697 509.914 247.051 509.914 248.733C509.914 250.414 508.521 251.768 506.76 251.768C504.998 251.768 503.606 250.414 503.606 248.733C503.606 247.051 504.998 245.697 506.76 245.697Z" fill="url(#paint62_radial_1_4357)"/>
<path d="M178.724 299.062H205.883L277.692 229.618H519.131V228.798H277.323L205.514 298.241H179.052L158.365 278.224H73.4891L51.9423 257.387L51.3688 257.962L73.1204 279.045H157.997L178.724 299.062Z" fill="url(#paint63_radial_1_4357)"/>
<path d="M53.9904 255.624C52.7615 254.434 50.7543 254.434 49.5664 255.624C48.3375 256.813 48.3375 258.741 49.5664 259.93C50.7953 261.12 52.8025 261.12 53.9904 259.93C55.2193 258.741 55.2193 256.813 53.9904 255.624Z" fill="url(#paint64_radial_1_4357)"/>
<path d="M518.967 226.173C520.687 226.173 522.121 227.526 522.121 229.208C522.121 230.89 520.728 232.244 518.967 232.244C517.205 232.244 515.813 230.89 515.813 229.208C515.813 227.526 517.205 226.173 518.967 226.173Z" fill="url(#paint65_radial_1_4357)"/>
<path d="M180.2 270.964L180.814 270.39L152.918 243.441H66.1167V244.221H152.591L180.2 270.964Z" fill="url(#paint66_radial_1_4357)"/>
<path d="M66.2794 240.775C64.5589 240.775 63.1252 242.129 63.1252 243.811C63.1252 245.492 64.5179 246.846 66.2794 246.846C68.0408 246.846 69.4336 245.492 69.4336 243.811C69.4336 242.129 68.0408 240.775 66.2794 240.775Z" fill="url(#paint67_radial_1_4357)"/>
<path d="M182.615 268.421C183.844 269.611 183.844 271.539 182.615 272.728C181.387 273.918 179.379 273.918 178.191 272.728C176.962 271.539 176.962 269.611 178.191 268.421C179.42 267.232 181.427 267.232 182.615 268.421Z" fill="url(#paint68_radial_1_4357)"/>
<path d="M252.131 91.9211H337.581L402.836 28.8355L402.221 28.2612L337.253 91.1007H252.131V91.9211Z" fill="url(#paint69_radial_1_4357)"/>
<path d="M252.295 88.4756C250.575 88.4756 249.141 89.8292 249.141 91.5109C249.141 93.1927 250.534 94.5462 252.295 94.5462C254.056 94.5462 255.449 93.1927 255.449 91.5109C255.449 89.8292 254.056 88.4756 252.295 88.4756Z" fill="url(#paint70_radial_1_4357)"/>
<path d="M400.215 26.4976C401.444 25.3081 403.451 25.3081 404.639 26.4976C405.868 27.6871 405.868 29.615 404.639 30.8045C403.41 31.994 401.403 31.994 400.215 30.8045C398.986 29.615 398.986 27.6871 400.215 26.4976Z" fill="url(#paint71_radial_1_4357)"/>
<path d="M366.665 92.7006L408.571 52.1749H524.211V51.3545H408.202L366.051 92.1263L366.665 92.7006Z" fill="url(#paint72_radial_1_4357)"/>
<path d="M364.248 90.1573C363.019 91.3468 363.019 93.2746 364.248 94.4642C365.477 95.6537 367.484 95.6537 368.672 94.4642C369.901 93.2746 369.901 91.3468 368.672 90.1573C367.443 88.9678 365.436 88.9678 364.248 90.1573Z" fill="url(#paint73_radial_1_4357)"/>
<path d="M524.047 48.7295C525.767 48.7295 527.201 50.0831 527.201 51.7648C527.201 53.4466 525.808 54.8001 524.047 54.8001C522.286 54.8001 520.893 53.4466 520.893 51.7648C520.893 50.0831 522.286 48.7295 524.047 48.7295Z" fill="url(#paint74_radial_1_4357)"/>
</g>
</g>
<defs>
<radialGradient id="paint0_radial_1_4357" cx="0" cy="0" r="1" gradientUnits="userSpaceOnUse" gradientTransform="translate(344.077 268.573) rotate(180) scale(306.673 307.081)">
<stop offset="0.4" stop-color="#CFA935"/>
<stop offset="0.6" stop-color="#CFA935"/>
<stop offset="0.7" stop-color="#9C8028"/>
<stop offset="0.8" stop-color="#392F0E"/>
<stop offset="0.9" stop-color="#1A1506"/>
<stop offset="1"/>
</radialGradient>
<radialGradient id="paint1_radial_1_4357" cx="0" cy="0" r="1" gradientUnits="userSpaceOnUse" gradientTransform="translate(344.079 268.573) rotate(180) scale(306.674 307.081)">
<stop offset="0.4" stop-color="#CFA935"/>
<stop offset="0.6" stop-color="#CFA935"/>
<stop offset="0.7" stop-color="#9C8028"/>
<stop offset="0.8" stop-color="#392F0E"/>
<stop offset="0.9" stop-color="#1A1506"/>
<stop offset="1"/>
</radialGradient>
<radialGradient id="paint2_radial_1_4357" cx="0" cy="0" r="1" gradientUnits="userSpaceOnUse" gradientTransform="translate(344.077 268.532) rotate(180) scale(306.644 307.052)">
<stop offset="0.4" stop-color="#CFA935"/>
<stop offset="0.6" stop-color="#CFA935"/>
<stop offset="0.7" stop-color="#9C8028"/>
<stop offset="0.8" stop-color="#392F0E"/>
<stop offset="0.9" stop-color="#1A1506"/>
<stop offset="1"/>
</radialGradient>
<radialGradient id="paint3_radial_1_4357" cx="0" cy="0" r="1" gradientUnits="userSpaceOnUse" gradientTransform="translate(344.077 268.573) rotate(180) scale(306.673 307.081)">
<stop offset="0.4" stop-color="#CFA935"/>
<stop offset="0.6" stop-color="#CFA935"/>
<stop offset="0.7" stop-color="#9C8028"/>
<stop offset="0.8" stop-color="#392F0E"/>
<stop offset="0.9" stop-color="#1A1506"/>
<stop offset="1"/>
</radialGradient>
<radialGradient id="paint4_radial_1_4357" cx="0" cy="0" r="1" gradientUnits="userSpaceOnUse" gradientTransform="translate(344.077 268.573) rotate(180) scale(306.672 307.081)">
<stop offset="0.4" stop-color="#CFA935"/>
<stop offset="0.6" stop-color="#CFA935"/>
<stop offset="0.7" stop-color="#9C8028"/>
<stop offset="0.8" stop-color="#392F0E"/>
<stop offset="0.9" stop-color="#1A1506"/>
<stop offset="1"/>
</radialGradient>
<radialGradient id="paint5_radial_1_4357" cx="0" cy="0" r="1" gradientUnits="userSpaceOnUse" gradientTransform="translate(344.077 268.572) rotate(180) scale(306.673 307.082)">
<stop offset="0.4" stop-color="#CFA935"/>
<stop offset="0.6" stop-color="#CFA935"/>
<stop offset="0.7" stop-color="#9C8028"/>
<stop offset="0.8" stop-color="#392F0E"/>
<stop offset="0.9" stop-color="#1A1506"/>
<stop offset="1"/>
</radialGradient>
<radialGradient id="paint6_radial_1_4357" cx="0" cy="0" r="1" gradientUnits="userSpaceOnUse" gradientTransform="translate(344.078 268.573) rotate(180) scale(306.673 307.081)">
<stop offset="0.4" stop-color="#CFA935"/>
<stop offset="0.6" stop-color="#CFA935"/>
<stop offset="0.7" stop-color="#9C8028"/>
<stop offset="0.8" stop-color="#392F0E"/>
<stop offset="0.9" stop-color="#1A1506"/>
<stop offset="1"/>
</radialGradient>
<radialGradient id="paint7_radial_1_4357" cx="0" cy="0" r="1" gradientUnits="userSpaceOnUse" gradientTransform="translate(344.079 268.573) rotate(180) scale(306.674 307.081)">
<stop offset="0.4" stop-color="#CFA935"/>
<stop offset="0.6" stop-color="#CFA935"/>
<stop offset="0.7" stop-color="#9C8028"/>
<stop offset="0.8" stop-color="#392F0E"/>
<stop offset="0.9" stop-color="#1A1506"/>
<stop offset="1"/>
</radialGradient>
<radialGradient id="paint8_radial_1_4357" cx="0" cy="0" r="1" gradientUnits="userSpaceOnUse" gradientTransform="translate(344.078 268.573) rotate(180) scale(306.673 307.081)">
<stop offset="0.4" stop-color="#CFA935"/>
<stop offset="0.6" stop-color="#CFA935"/>
<stop offset="0.7" stop-color="#9C8028"/>
<stop offset="0.8" stop-color="#392F0E"/>
<stop offset="0.9" stop-color="#1A1506"/>
<stop offset="1"/>
</radialGradient>
<radialGradient id="paint9_radial_1_4357" cx="0" cy="0" r="1" gradientUnits="userSpaceOnUse" gradientTransform="translate(344.077 268.573) rotate(180) scale(306.673 307.081)">
<stop offset="0.4" stop-color="#CFA935"/>
<stop offset="0.6" stop-color="#CFA935"/>
<stop offset="0.7" stop-color="#9C8028"/>
<stop offset="0.8" stop-color="#392F0E"/>
<stop offset="0.9" stop-color="#1A1506"/>
<stop offset="1"/>
</radialGradient>
<radialGradient id="paint10_radial_1_4357" cx="0" cy="0" r="1" gradientUnits="userSpaceOnUse" gradientTransform="translate(344.077 268.573) rotate(180) scale(306.7 307.11)">
<stop offset="0.4" stop-color="#CFA935"/>
<stop offset="0.6" stop-color="#CFA935"/>
<stop offset="0.7" stop-color="#9C8028"/>
<stop offset="0.8" stop-color="#392F0E"/>
<stop offset="0.9" stop-color="#1A1506"/>
<stop offset="1"/>
</radialGradient>
<radialGradient id="paint11_radial_1_4357" cx="0" cy="0" r="1" gradientUnits="userSpaceOnUse" gradientTransform="translate(344.077 268.573) rotate(180) scale(306.673 307.081)">
<stop offset="0.4" stop-color="#CFA935"/>
<stop offset="0.6" stop-color="#CFA935"/>
<stop offset="0.7" stop-color="#9C8028"/>
<stop offset="0.8" stop-color="#392F0E"/>
<stop offset="0.9" stop-color="#1A1506"/>
<stop offset="1"/>
</radialGradient>
<radialGradient id="paint12_radial_1_4357" cx="0" cy="0" r="1" gradientUnits="userSpaceOnUse" gradientTransform="translate(344.077 268.573) rotate(180) scale(306.673 307.081)">
<stop offset="0.4" stop-color="#CFA935"/>
<stop offset="0.6" stop-color="#CFA935"/>
<stop offset="0.7" stop-color="#9C8028"/>
<stop offset="0.8" stop-color="#392F0E"/>
<stop offset="0.9" stop-color="#1A1506"/>
<stop offset="1"/>
</radialGradient>
<radialGradient id="paint13_radial_1_4357" cx="0" cy="0" r="1" gradientUnits="userSpaceOnUse" gradientTransform="translate(344.077 268.573) rotate(180) scale(306.673 307.081)">
<stop offset="0.4" stop-color="#CFA935"/>
<stop offset="0.6" stop-color="#CFA935"/>
<stop offset="0.7" stop-color="#9C8028"/>
<stop offset="0.8" stop-color="#392F0E"/>
<stop offset="0.9" stop-color="#1A1506"/>
<stop offset="1"/>
</radialGradient>
<radialGradient id="paint14_radial_1_4357" cx="0" cy="0" r="1" gradientUnits="userSpaceOnUse" gradientTransform="translate(344.078 268.573) rotate(180) scale(306.674 307.081)">
<stop offset="0.4" stop-color="#CFA935"/>
<stop offset="0.6" stop-color="#CFA935"/>
<stop offset="0.7" stop-color="#9C8028"/>
<stop offset="0.8" stop-color="#392F0E"/>
<stop offset="0.9" stop-color="#1A1506"/>
<stop offset="1"/>
</radialGradient>
<radialGradient id="paint15_radial_1_4357" cx="0" cy="0" r="1" gradientUnits="userSpaceOnUse" gradientTransform="translate(344.077 268.573) rotate(180) scale(306.673 307.081)">
<stop offset="0.4" stop-color="#CFA935"/>
<stop offset="0.6" stop-color="#CFA935"/>
<stop offset="0.7" stop-color="#9C8028"/>
<stop offset="0.8" stop-color="#392F0E"/>
<stop offset="0.9" stop-color="#1A1506"/>
<stop offset="1"/>
</radialGradient>
<radialGradient id="paint16_radial_1_4357" cx="0" cy="0" r="1" gradientUnits="userSpaceOnUse" gradientTransform="translate(344.077 268.573) rotate(180) scale(306.671 307.081)">
<stop offset="0.4" stop-color="#CFA935"/>
<stop offset="0.6" stop-color="#CFA935"/>
<stop offset="0.7" stop-color="#9C8028"/>
<stop offset="0.8" stop-color="#392F0E"/>
<stop offset="0.9" stop-color="#1A1506"/>
<stop offset="1"/>
</radialGradient>
<radialGradient id="paint17_radial_1_4357" cx="0" cy="0" r="1" gradientUnits="userSpaceOnUse" gradientTransform="translate(344.078 268.573) rotate(180) scale(306.673 307.081)">
<stop offset="0.4" stop-color="#CFA935"/>
<stop offset="0.6" stop-color="#CFA935"/>
<stop offset="0.7" stop-color="#9C8028"/>
<stop offset="0.8" stop-color="#392F0E"/>
<stop offset="0.9" stop-color="#1A1506"/>
<stop offset="1"/>
</radialGradient>
<radialGradient id="paint18_radial_1_4357" cx="0" cy="0" r="1" gradientUnits="userSpaceOnUse" gradientTransform="translate(344.078 268.573) rotate(180) scale(306.673 307.081)">
<stop offset="0.4" stop-color="#CFA935"/>
<stop offset="0.6" stop-color="#CFA935"/>
<stop offset="0.7" stop-color="#9C8028"/>
<stop offset="0.8" stop-color="#392F0E"/>
<stop offset="0.9" stop-color="#1A1506"/>
<stop offset="1"/>
</radialGradient>
<radialGradient id="paint19_radial_1_4357" cx="0" cy="0" r="1" gradientUnits="userSpaceOnUse" gradientTransform="translate(344.076 268.573) rotate(180) scale(306.672 307.081)">
<stop offset="0.4" stop-color="#CFA935"/>
<stop offset="0.6" stop-color="#CFA935"/>
<stop offset="0.7" stop-color="#9C8028"/>
<stop offset="0.8" stop-color="#392F0E"/>
<stop offset="0.9" stop-color="#1A1506"/>
<stop offset="1"/>
</radialGradient>
<radialGradient id="paint20_radial_1_4357" cx="0" cy="0" r="1" gradientUnits="userSpaceOnUse" gradientTransform="translate(344.078 268.573) rotate(180) scale(306.672 307.081)">
<stop offset="0.4" stop-color="#CFA935"/>
<stop offset="0.6" stop-color="#CFA935"/>
<stop offset="0.7" stop-color="#9C8028"/>
<stop offset="0.8" stop-color="#392F0E"/>
<stop offset="0.9" stop-color="#1A1506"/>
<stop offset="1"/>
</radialGradient>
<radialGradient id="paint21_radial_1_4357" cx="0" cy="0" r="1" gradientUnits="userSpaceOnUse" gradientTransform="translate(344.077 268.573) rotate(180) scale(306.673 307.081)">
<stop offset="0.4" stop-color="#CFA935"/>
<stop offset="0.6" stop-color="#CFA935"/>
<stop offset="0.7" stop-color="#9C8028"/>
<stop offset="0.8" stop-color="#392F0E"/>
<stop offset="0.9" stop-color="#1A1506"/>
<stop offset="1"/>
</radialGradient>
<radialGradient id="paint22_radial_1_4357" cx="0" cy="0" r="1" gradientUnits="userSpaceOnUse" gradientTransform="translate(344.076 268.573) rotate(180) scale(306.672 307.081)">
<stop offset="0.4" stop-color="#CFA935"/>
<stop offset="0.6" stop-color="#CFA935"/>
<stop offset="0.7" stop-color="#9C8028"/>
<stop offset="0.8" stop-color="#392F0E"/>
<stop offset="0.9" stop-color="#1A1506"/>
<stop offset="1"/>
</radialGradient>
<radialGradient id="paint23_radial_1_4357" cx="0" cy="0" r="1" gradientUnits="userSpaceOnUse" gradientTransform="translate(344.078 268.573) rotate(180) scale(306.673 307.081)">
<stop offset="0.4" stop-color="#CFA935"/>
<stop offset="0.6" stop-color="#CFA935"/>
<stop offset="0.7" stop-color="#9C8028"/>
<stop offset="0.8" stop-color="#392F0E"/>
<stop offset="0.9" stop-color="#1A1506"/>
<stop offset="1"/>
</radialGradient>
<radialGradient id="paint24_radial_1_4357" cx="0" cy="0" r="1" gradientUnits="userSpaceOnUse" gradientTransform="translate(344.078 268.573) rotate(180) scale(306.673 307.081)">
<stop offset="0.4" stop-color="#CFA935"/>
<stop offset="0.6" stop-color="#CFA935"/>
<stop offset="0.7" stop-color="#9C8028"/>
<stop offset="0.8" stop-color="#392F0E"/>
<stop offset="0.9" stop-color="#1A1506"/>
<stop offset="1"/>
</radialGradient>
<radialGradient id="paint25_radial_1_4357" cx="0" cy="0" r="1" gradientUnits="userSpaceOnUse" gradientTransform="translate(344.076 268.573) rotate(180) scale(306.672 307.081)">
<stop offset="0.4" stop-color="#CFA935"/>
<stop offset="0.6" stop-color="#CFA935"/>
<stop offset="0.7" stop-color="#9C8028"/>
<stop offset="0.8" stop-color="#392F0E"/>
<stop offset="0.9" stop-color="#1A1506"/>
<stop offset="1"/>
</radialGradient>
<radialGradient id="paint26_radial_1_4357" cx="0" cy="0" r="1" gradientUnits="userSpaceOnUse" gradientTransform="translate(344.077 268.573) rotate(180) scale(306.674 307.081)">
<stop offset="0.4" stop-color="#CFA935"/>
<stop offset="0.6" stop-color="#CFA935"/>
<stop offset="0.7" stop-color="#9C8028"/>
<stop offset="0.8" stop-color="#392F0E"/>
<stop offset="0.9" stop-color="#1A1506"/>
<stop offset="1"/>
</radialGradient>
<radialGradient id="paint27_radial_1_4357" cx="0" cy="0" r="1" gradientUnits="userSpaceOnUse" gradientTransform="translate(344.078 268.573) rotate(180) scale(306.673 307.081)">
<stop offset="0.4" stop-color="#CFA935"/>
<stop offset="0.6" stop-color="#CFA935"/>
<stop offset="0.7" stop-color="#9C8028"/>
<stop offset="0.8" stop-color="#392F0E"/>
<stop offset="0.9" stop-color="#1A1506"/>
<stop offset="1"/>
</radialGradient>
<radialGradient id="paint28_radial_1_4357" cx="0" cy="0" r="1" gradientUnits="userSpaceOnUse" gradientTransform="translate(344.079 268.573) rotate(180) scale(306.674 307.081)">
<stop offset="0.4" stop-color="#CFA935"/>
<stop offset="0.6" stop-color="#CFA935"/>
<stop offset="0.7" stop-color="#9C8028"/>
<stop offset="0.8" stop-color="#392F0E"/>
<stop offset="0.9" stop-color="#1A1506"/>
<stop offset="1"/>
</radialGradient>
<radialGradient id="paint29_radial_1_4357" cx="0" cy="0" r="1" gradientUnits="userSpaceOnUse" gradientTransform="translate(344.078 268.573) rotate(180) scale(306.673 307.081)">
<stop offset="0.4" stop-color="#CFA935"/>
<stop offset="0.6" stop-color="#CFA935"/>
<stop offset="0.7" stop-color="#9C8028"/>
<stop offset="0.8" stop-color="#392F0E"/>
<stop offset="0.9" stop-color="#1A1506"/>
<stop offset="1"/>
</radialGradient>
<radialGradient id="paint30_radial_1_4357" cx="0" cy="0" r="1" gradientUnits="userSpaceOnUse" gradientTransform="translate(344.078 268.573) rotate(180) scale(306.673 307.081)">
<stop offset="0.4" stop-color="#CFA935"/>
<stop offset="0.6" stop-color="#CFA935"/>
<stop offset="0.7" stop-color="#9C8028"/>
<stop offset="0.8" stop-color="#392F0E"/>
<stop offset="0.9" stop-color="#1A1506"/>
<stop offset="1"/>
</radialGradient>
<radialGradient id="paint31_radial_1_4357" cx="0" cy="0" r="1" gradientUnits="userSpaceOnUse" gradientTransform="translate(344.078 268.573) rotate(180) scale(306.674 307.081)">
<stop offset="0.4" stop-color="#CFA935"/>
<stop offset="0.6" stop-color="#CFA935"/>
<stop offset="0.7" stop-color="#9C8028"/>
<stop offset="0.8" stop-color="#392F0E"/>
<stop offset="0.9" stop-color="#1A1506"/>
<stop offset="1"/>
</radialGradient>
<radialGradient id="paint32_radial_1_4357" cx="0" cy="0" r="1" gradientUnits="userSpaceOnUse" gradientTransform="translate(344.078 268.573) rotate(180) scale(306.674 307.081)">
<stop offset="0.4" stop-color="#CFA935"/>
<stop offset="0.6" stop-color="#CFA935"/>
<stop offset="0.7" stop-color="#9C8028"/>
<stop offset="0.8" stop-color="#392F0E"/>
<stop offset="0.9" stop-color="#1A1506"/>
<stop offset="1"/>
</radialGradient>
<radialGradient id="paint33_radial_1_4357" cx="0" cy="0" r="1" gradientUnits="userSpaceOnUse" gradientTransform="translate(344.078 268.573) rotate(180) scale(306.673 307.081)">
<stop offset="0.4" stop-color="#CFA935"/>
<stop offset="0.6" stop-color="#CFA935"/>
<stop offset="0.7" stop-color="#9C8028"/>
<stop offset="0.8" stop-color="#392F0E"/>
<stop offset="0.9" stop-color="#1A1506"/>
<stop offset="1"/>
</radialGradient>
<radialGradient id="paint34_radial_1_4357" cx="0" cy="0" r="1" gradientUnits="userSpaceOnUse" gradientTransform="translate(344.078 268.573) rotate(180) scale(306.674 307.081)">
<stop offset="0.4" stop-color="#CFA935"/>
<stop offset="0.6" stop-color="#CFA935"/>
<stop offset="0.7" stop-color="#9C8028"/>
<stop offset="0.8" stop-color="#392F0E"/>
<stop offset="0.9" stop-color="#1A1506"/>
<stop offset="1"/>
</radialGradient>
<radialGradient id="paint35_radial_1_4357" cx="0" cy="0" r="1" gradientUnits="userSpaceOnUse" gradientTransform="translate(344.078 268.573) rotate(180) scale(306.674 307.081)">
<stop offset="0.4" stop-color="#CFA935"/>
<stop offset="0.6" stop-color="#CFA935"/>
<stop offset="0.7" stop-color="#9C8028"/>
<stop offset="0.8" stop-color="#392F0E"/>
<stop offset="0.9" stop-color="#1A1506"/>
<stop offset="1"/>
</radialGradient>
<radialGradient id="paint36_radial_1_4357" cx="0" cy="0" r="1" gradientUnits="userSpaceOnUse" gradientTransform="translate(344.079 268.573) rotate(180) scale(306.673 307.081)">
<stop offset="0.4" stop-color="#CFA935"/>
<stop offset="0.6" stop-color="#CFA935"/>
<stop offset="0.7" stop-color="#9C8028"/>
<stop offset="0.8" stop-color="#392F0E"/>
<stop offset="0.9" stop-color="#1A1506"/>
<stop offset="1"/>
</radialGradient>
<radialGradient id="paint37_radial_1_4357" cx="0" cy="0" r="1" gradientUnits="userSpaceOnUse" gradientTransform="translate(344.077 268.573) rotate(180) scale(306.673 307.081)">
<stop offset="0.4" stop-color="#CFA935"/>
<stop offset="0.6" stop-color="#CFA935"/>
<stop offset="0.7" stop-color="#9C8028"/>
<stop offset="0.8" stop-color="#392F0E"/>
<stop offset="0.9" stop-color="#1A1506"/>
<stop offset="1"/>
</radialGradient>
<radialGradient id="paint38_radial_1_4357" cx="0" cy="0" r="1" gradientUnits="userSpaceOnUse" gradientTransform="translate(344.078 268.573) rotate(180) scale(306.672 307.081)">
<stop offset="0.4" stop-color="#CFA935"/>
<stop offset="0.6" stop-color="#CFA935"/>
<stop offset="0.7" stop-color="#9C8028"/>
<stop offset="0.8" stop-color="#392F0E"/>
<stop offset="0.9" stop-color="#1A1506"/>
<stop offset="1"/>
</radialGradient>
<radialGradient id="paint39_radial_1_4357" cx="0" cy="0" r="1" gradientUnits="userSpaceOnUse" gradientTransform="translate(344.078 268.532) rotate(180) scale(306.702 307.11)">
<stop offset="0.4" stop-color="#CFA935"/>
<stop offset="0.6" stop-color="#CFA935"/>
<stop offset="0.7" stop-color="#9C8028"/>
<stop offset="0.8" stop-color="#392F0E"/>
<stop offset="0.9" stop-color="#1A1506"/>
<stop offset="1"/>
</radialGradient>
<radialGradient id="paint40_radial_1_4357" cx="0" cy="0" r="1" gradientUnits="userSpaceOnUse" gradientTransform="translate(344.078 268.573) rotate(180) scale(306.673 307.081)">
<stop offset="0.4" stop-color="#CFA935"/>
<stop offset="0.6" stop-color="#CFA935"/>
<stop offset="0.7" stop-color="#9C8028"/>
<stop offset="0.8" stop-color="#392F0E"/>
<stop offset="0.9" stop-color="#1A1506"/>
<stop offset="1"/>
</radialGradient>
<radialGradient id="paint41_radial_1_4357" cx="0" cy="0" r="1" gradientUnits="userSpaceOnUse" gradientTransform="translate(344.078 268.573) rotate(180) scale(306.673 307.081)">
<stop offset="0.4" stop-color="#CFA935"/>
<stop offset="0.6" stop-color="#CFA935"/>
<stop offset="0.7" stop-color="#9C8028"/>
<stop offset="0.8" stop-color="#392F0E"/>
<stop offset="0.9" stop-color="#1A1506"/>
<stop offset="1"/>
</radialGradient>
<radialGradient id="paint42_radial_1_4357" cx="0" cy="0" r="1" gradientUnits="userSpaceOnUse" gradientTransform="translate(344.078 268.573) rotate(180) scale(306.673 307.081)">
<stop offset="0.4" stop-color="#CFA935"/>
<stop offset="0.6" stop-color="#CFA935"/>
<stop offset="0.7" stop-color="#9C8028"/>
<stop offset="0.8" stop-color="#392F0E"/>
<stop offset="0.9" stop-color="#1A1506"/>
<stop offset="1"/>
</radialGradient>
<radialGradient id="paint43_radial_1_4357" cx="0" cy="0" r="1" gradientUnits="userSpaceOnUse" gradientTransform="translate(344.077 268.573) rotate(180) scale(306.673 307.081)">
<stop offset="0.4" stop-color="#CFA935"/>
<stop offset="0.6" stop-color="#CFA935"/>
<stop offset="0.7" stop-color="#9C8028"/>
<stop offset="0.8" stop-color="#392F0E"/>
<stop offset="0.9" stop-color="#1A1506"/>
<stop offset="1"/>
</radialGradient>
<radialGradient id="paint44_radial_1_4357" cx="0" cy="0" r="1" gradientUnits="userSpaceOnUse" gradientTransform="translate(344.078 268.573) rotate(180) scale(306.673 307.081)">
<stop offset="0.4" stop-color="#CFA935"/>
<stop offset="0.6" stop-color="#CFA935"/>
<stop offset="0.7" stop-color="#9C8028"/>
<stop offset="0.8" stop-color="#392F0E"/>
<stop offset="0.9" stop-color="#1A1506"/>
<stop offset="1"/>
</radialGradient>
<radialGradient id="paint45_radial_1_4357" cx="0" cy="0" r="1" gradientUnits="userSpaceOnUse" gradientTransform="translate(344.078 268.573) rotate(180) scale(306.673 307.081)">
<stop offset="0.4" stop-color="#CFA935"/>
<stop offset="0.6" stop-color="#CFA935"/>
<stop offset="0.7" stop-color="#9C8028"/>
<stop offset="0.8" stop-color="#392F0E"/>
<stop offset="0.9" stop-color="#1A1506"/>
<stop offset="1"/>
</radialGradient>
<radialGradient id="paint46_radial_1_4357" cx="0" cy="0" r="1" gradientUnits="userSpaceOnUse" gradientTransform="translate(344.078 268.573) rotate(180) scale(306.672 307.081)">
<stop offset="0.4" stop-color="#CFA935"/>
<stop offset="0.6" stop-color="#CFA935"/>
<stop offset="0.7" stop-color="#9C8028"/>
<stop offset="0.8" stop-color="#392F0E"/>
<stop offset="0.9" stop-color="#1A1506"/>
<stop offset="1"/>
</radialGradient>
<radialGradient id="paint47_radial_1_4357" cx="0" cy="0" r="1" gradientUnits="userSpaceOnUse" gradientTransform="translate(344.078 268.601) rotate(180) scale(306.673 307.082)">
<stop offset="0.4" stop-color="#CFA935"/>
<stop offset="0.6" stop-color="#CFA935"/>
<stop offset="0.7" stop-color="#9C8028"/>
<stop offset="0.8" stop-color="#392F0E"/>
<stop offset="0.9" stop-color="#1A1506"/>
<stop offset="1"/>
</radialGradient>
<radialGradient id="paint48_radial_1_4357" cx="0" cy="0" r="1" gradientUnits="userSpaceOnUse" gradientTransform="translate(344.077 268.573) rotate(180) scale(306.673 307.081)">
<stop offset="0.4" stop-color="#CFA935"/>
<stop offset="0.6" stop-color="#CFA935"/>
<stop offset="0.7" stop-color="#9C8028"/>
<stop offset="0.8" stop-color="#392F0E"/>
<stop offset="0.9" stop-color="#1A1506"/>
<stop offset="1"/>
</radialGradient>
<radialGradient id="paint49_radial_1_4357" cx="0" cy="0" r="1" gradientUnits="userSpaceOnUse" gradientTransform="translate(344.077 268.573) rotate(180) scale(306.672 307.081)">
<stop offset="0.4" stop-color="#CFA935"/>
<stop offset="0.6" stop-color="#CFA935"/>
<stop offset="0.7" stop-color="#9C8028"/>
<stop offset="0.8" stop-color="#392F0E"/>
<stop offset="0.9" stop-color="#1A1506"/>
<stop offset="1"/>
</radialGradient>
<radialGradient id="paint50_radial_1_4357" cx="0" cy="0" r="1" gradientUnits="userSpaceOnUse" gradientTransform="translate(344.078 268.573) rotate(180) scale(306.673 307.081)">
<stop offset="0.4" stop-color="#CFA935"/>
<stop offset="0.6" stop-color="#CFA935"/>
<stop offset="0.7" stop-color="#9C8028"/>
<stop offset="0.8" stop-color="#392F0E"/>
<stop offset="0.9" stop-color="#1A1506"/>
<stop offset="1"/>
</radialGradient>
<radialGradient id="paint51_radial_1_4357" cx="0" cy="0" r="1" gradientUnits="userSpaceOnUse" gradientTransform="translate(344.079 268.573) rotate(180) scale(306.673 307.081)">
<stop offset="0.4" stop-color="#CFA935"/>
<stop offset="0.6" stop-color="#CFA935"/>
<stop offset="0.7" stop-color="#9C8028"/>
<stop offset="0.8" stop-color="#392F0E"/>
<stop offset="0.9" stop-color="#1A1506"/>
<stop offset="1"/>
</radialGradient>
<radialGradient id="paint52_radial_1_4357" cx="0" cy="0" r="1" gradientUnits="userSpaceOnUse" gradientTransform="translate(344.078 268.573) rotate(180) scale(306.644 307.052)">
<stop offset="0.4" stop-color="#CFA935"/>
<stop offset="0.6" stop-color="#CFA935"/>
<stop offset="0.7" stop-color="#9C8028"/>
<stop offset="0.8" stop-color="#392F0E"/>
<stop offset="0.9" stop-color="#1A1506"/>
<stop offset="1"/>
</radialGradient>
<radialGradient id="paint53_radial_1_4357" cx="0" cy="0" r="1" gradientUnits="userSpaceOnUse" gradientTransform="translate(344.077 268.573) rotate(180) scale(306.673 307.081)">
<stop offset="0.4" stop-color="#CFA935"/>
<stop offset="0.6" stop-color="#CFA935"/>
<stop offset="0.7" stop-color="#9C8028"/>
<stop offset="0.8" stop-color="#392F0E"/>
<stop offset="0.9" stop-color="#1A1506"/>
<stop offset="1"/>
</radialGradient>
<radialGradient id="paint54_radial_1_4357" cx="0" cy="0" r="1" gradientUnits="userSpaceOnUse" gradientTransform="translate(344.078 268.573) rotate(180) scale(306.673 307.081)">
<stop offset="0.4" stop-color="#CFA935"/>
<stop offset="0.6" stop-color="#CFA935"/>
<stop offset="0.7" stop-color="#9C8028"/>
<stop offset="0.8" stop-color="#392F0E"/>
<stop offset="0.9" stop-color="#1A1506"/>
<stop offset="1"/>
</radialGradient>
<radialGradient id="paint55_radial_1_4357" cx="0" cy="0" r="1" gradientUnits="userSpaceOnUse" gradientTransform="translate(344.077 268.574) rotate(180) scale(306.673 307.081)">
<stop offset="0.4" stop-color="#CFA935"/>
<stop offset="0.6" stop-color="#CFA935"/>
<stop offset="0.7" stop-color="#9C8028"/>
<stop offset="0.8" stop-color="#392F0E"/>
<stop offset="0.9" stop-color="#1A1506"/>
<stop offset="1"/>
</radialGradient>
<radialGradient id="paint56_radial_1_4357" cx="0" cy="0" r="1" gradientUnits="userSpaceOnUse" gradientTransform="translate(344.078 268.573) rotate(180) scale(306.673 307.082)">
<stop offset="0.4" stop-color="#CFA935"/>
<stop offset="0.6" stop-color="#CFA935"/>
<stop offset="0.7" stop-color="#9C8028"/>
<stop offset="0.8" stop-color="#392F0E"/>
<stop offset="0.9" stop-color="#1A1506"/>
<stop offset="1"/>
</radialGradient>
<radialGradient id="paint57_radial_1_4357" cx="0" cy="0" r="1" gradientUnits="userSpaceOnUse" gradientTransform="translate(344.078 268.573) rotate(180) scale(306.673 307.081)">
<stop offset="0.4" stop-color="#CFA935"/>
<stop offset="0.6" stop-color="#CFA935"/>
<stop offset="0.7" stop-color="#9C8028"/>
<stop offset="0.8" stop-color="#392F0E"/>
<stop offset="0.9" stop-color="#1A1506"/>
<stop offset="1"/>
</radialGradient>
<radialGradient id="paint58_radial_1_4357" cx="0" cy="0" r="1" gradientUnits="userSpaceOnUse" gradientTransform="translate(344.079 268.573) rotate(180) scale(306.672 307.081)">
<stop offset="0.4" stop-color="#CFA935"/>
<stop offset="0.6" stop-color="#CFA935"/>
<stop offset="0.7" stop-color="#9C8028"/>
<stop offset="0.8" stop-color="#392F0E"/>
<stop offset="0.9" stop-color="#1A1506"/>
<stop offset="1"/>
</radialGradient>
<radialGradient id="paint59_radial_1_4357" cx="0" cy="0" r="1" gradientUnits="userSpaceOnUse" gradientTransform="translate(344.079 268.573) rotate(180) scale(306.673 307.081)">
<stop offset="0.4" stop-color="#CFA935"/>
<stop offset="0.6" stop-color="#CFA935"/>
<stop offset="0.7" stop-color="#9C8028"/>
<stop offset="0.8" stop-color="#392F0E"/>
<stop offset="0.9" stop-color="#1A1506"/>
<stop offset="1"/>
</radialGradient>
<radialGradient id="paint60_radial_1_4357" cx="0" cy="0" r="1" gradientUnits="userSpaceOnUse" gradientTransform="translate(344.078 268.573) rotate(180) scale(306.673 307.081)">
<stop offset="0.4" stop-color="#CFA935"/>
<stop offset="0.6" stop-color="#CFA935"/>
<stop offset="0.7" stop-color="#9C8028"/>
<stop offset="0.8" stop-color="#392F0E"/>
<stop offset="0.9" stop-color="#1A1506"/>
<stop offset="1"/>
</radialGradient>
<radialGradient id="paint61_radial_1_4357" cx="0" cy="0" r="1" gradientUnits="userSpaceOnUse" gradientTransform="translate(344.08 268.573) rotate(180) scale(306.674 307.081)">
<stop offset="0.4" stop-color="#CFA935"/>
<stop offset="0.6" stop-color="#CFA935"/>
<stop offset="0.7" stop-color="#9C8028"/>
<stop offset="0.8" stop-color="#392F0E"/>
<stop offset="0.9" stop-color="#1A1506"/>
<stop offset="1"/>
</radialGradient>
<radialGradient id="paint62_radial_1_4357" cx="0" cy="0" r="1" gradientUnits="userSpaceOnUse" gradientTransform="translate(344.077 268.573) rotate(180) scale(306.673 307.081)">
<stop offset="0.4" stop-color="#CFA935"/>
<stop offset="0.6" stop-color="#CFA935"/>
<stop offset="0.7" stop-color="#9C8028"/>
<stop offset="0.8" stop-color="#392F0E"/>
<stop offset="0.9" stop-color="#1A1506"/>
<stop offset="1"/>
</radialGradient>
<radialGradient id="paint63_radial_1_4357" cx="0" cy="0" r="1" gradientUnits="userSpaceOnUse" gradientTransform="translate(344.078 268.573) rotate(180) scale(306.673 307.081)">
<stop offset="0.4" stop-color="#CFA935"/>
<stop offset="0.6" stop-color="#CFA935"/>
<stop offset="0.7" stop-color="#9C8028"/>
<stop offset="0.8" stop-color="#392F0E"/>
<stop offset="0.9" stop-color="#1A1506"/>
<stop offset="1"/>
</radialGradient>
<radialGradient id="paint64_radial_1_4357" cx="0" cy="0" r="1" gradientUnits="userSpaceOnUse" gradientTransform="translate(344.076 268.573) rotate(180) scale(306.672 307.081)">
<stop offset="0.4" stop-color="#CFA935"/>
<stop offset="0.6" stop-color="#CFA935"/>
<stop offset="0.7" stop-color="#9C8028"/>
<stop offset="0.8" stop-color="#392F0E"/>
<stop offset="0.9" stop-color="#1A1506"/>
<stop offset="1"/>
</radialGradient>
<radialGradient id="paint65_radial_1_4357" cx="0" cy="0" r="1" gradientUnits="userSpaceOnUse" gradientTransform="translate(344.077 268.573) rotate(180) scale(306.673 307.081)">
<stop offset="0.4" stop-color="#CFA935"/>
<stop offset="0.6" stop-color="#CFA935"/>
<stop offset="0.7" stop-color="#9C8028"/>
<stop offset="0.8" stop-color="#392F0E"/>
<stop offset="0.9" stop-color="#1A1506"/>
<stop offset="1"/>
</radialGradient>
<radialGradient id="paint66_radial_1_4357" cx="0" cy="0" r="1" gradientUnits="userSpaceOnUse" gradientTransform="translate(344.079 268.573) rotate(180) scale(306.673 307.081)">
<stop offset="0.4" stop-color="#CFA935"/>
<stop offset="0.6" stop-color="#CFA935"/>
<stop offset="0.7" stop-color="#9C8028"/>
<stop offset="0.8" stop-color="#392F0E"/>
<stop offset="0.9" stop-color="#1A1506"/>
<stop offset="1"/>
</radialGradient>
<radialGradient id="paint67_radial_1_4357" cx="0" cy="0" r="1" gradientUnits="userSpaceOnUse" gradientTransform="translate(344.078 268.573) rotate(180) scale(306.674 307.081)">
<stop offset="0.4" stop-color="#CFA935"/>
<stop offset="0.6" stop-color="#CFA935"/>
<stop offset="0.7" stop-color="#9C8028"/>
<stop offset="0.8" stop-color="#392F0E"/>
<stop offset="0.9" stop-color="#1A1506"/>
<stop offset="1"/>
</radialGradient>
<radialGradient id="paint68_radial_1_4357" cx="0" cy="0" r="1" gradientUnits="userSpaceOnUse" gradientTransform="translate(344.077 268.573) rotate(180) scale(306.673 307.081)">
<stop offset="0.4" stop-color="#CFA935"/>
<stop offset="0.6" stop-color="#CFA935"/>
<stop offset="0.7" stop-color="#9C8028"/>
<stop offset="0.8" stop-color="#392F0E"/>
<stop offset="0.9" stop-color="#1A1506"/>
<stop offset="1"/>
</radialGradient>
<radialGradient id="paint69_radial_1_4357" cx="0" cy="0" r="1" gradientUnits="userSpaceOnUse" gradientTransform="translate(344.078 268.573) rotate(180) scale(306.673 307.081)">
<stop offset="0.4" stop-color="#CFA935"/>
<stop offset="0.6" stop-color="#CFA935"/>
<stop offset="0.7" stop-color="#9C8028"/>
<stop offset="0.8" stop-color="#392F0E"/>
<stop offset="0.9" stop-color="#1A1506"/>
<stop offset="1"/>
</radialGradient>
<radialGradient id="paint70_radial_1_4357" cx="0" cy="0" r="1" gradientUnits="userSpaceOnUse" gradientTransform="translate(344.078 268.573) rotate(180) scale(306.674 307.081)">
<stop offset="0.4" stop-color="#CFA935"/>
<stop offset="0.6" stop-color="#CFA935"/>
<stop offset="0.7" stop-color="#9C8028"/>
<stop offset="0.8" stop-color="#392F0E"/>
<stop offset="0.9" stop-color="#1A1506"/>
<stop offset="1"/>
</radialGradient>
<radialGradient id="paint71_radial_1_4357" cx="0" cy="0" r="1" gradientUnits="userSpaceOnUse" gradientTransform="translate(344.078 268.573) rotate(180) scale(306.674 307.081)">
<stop offset="0.4" stop-color="#CFA935"/>
<stop offset="0.6" stop-color="#CFA935"/>
<stop offset="0.7" stop-color="#9C8028"/>
<stop offset="0.8" stop-color="#392F0E"/>
<stop offset="0.9" stop-color="#1A1506"/>
<stop offset="1"/>
</radialGradient>
<radialGradient id="paint72_radial_1_4357" cx="0" cy="0" r="1" gradientUnits="userSpaceOnUse" gradientTransform="translate(344.078 268.573) rotate(180) scale(306.673 307.081)">
<stop offset="0.4" stop-color="#CFA935"/>
<stop offset="0.6" stop-color="#CFA935"/>
<stop offset="0.7" stop-color="#9C8028"/>
<stop offset="0.8" stop-color="#392F0E"/>
<stop offset="0.9" stop-color="#1A1506"/>
<stop offset="1"/>
</radialGradient>
<radialGradient id="paint73_radial_1_4357" cx="0" cy="0" r="1" gradientUnits="userSpaceOnUse" gradientTransform="translate(344.078 268.573) rotate(180) scale(306.673 307.081)">
<stop offset="0.4" stop-color="#CFA935"/>
<stop offset="0.6" stop-color="#CFA935"/>
<stop offset="0.7" stop-color="#9C8028"/>
<stop offset="0.8" stop-color="#392F0E"/>
<stop offset="0.9" stop-color="#1A1506"/>
<stop offset="1"/>
</radialGradient>
<radialGradient id="paint74_radial_1_4357" cx="0" cy="0" r="1" gradientUnits="userSpaceOnUse" gradientTransform="translate(344.078 268.532) rotate(180) scale(306.673 307.081)">
<stop offset="0.4" stop-color="#CFA935"/>
<stop offset="0.6" stop-color="#CFA935"/>
<stop offset="0.7" stop-color="#9C8028"/>
<stop offset="0.8" stop-color="#392F0E"/>
<stop offset="0.9" stop-color="#1A1506"/>
<stop offset="1"/>
</radialGradient>
<clipPath id="clip0_1_4357">
<rect width="534" height="519" fill="white" transform="matrix(-1 0 0 1 534 0)"/>
</clipPath>
</defs>
</svg>
