<svg width="40" height="40" viewBox="0 0 40 40" fill="none" xmlns="http://www.w3.org/2000/svg">
<g clip-path="url(#clip0_1_4481)">
<path fill-rule="evenodd" clip-rule="evenodd" d="M16.3284 29.2969C16.3284 29.2969 16.3284 29.2969 16.2502 29.2969C12.8127 29.2969 9.53148 27.8906 7.1096 25.4687C2.03148 20.3906 2.1096 12.1094 7.18773 7.10936C12.2659 2.03123 20.5471 2.10936 25.5471 7.18748C28.0471 9.60936 29.3752 12.8906 29.2971 16.4062C29.2971 19.8437 27.969 23.125 25.469 25.5469C23.0471 27.9687 19.7659 29.2969 16.3284 29.2969ZM7.96898 7.89061C3.28148 12.5 3.28148 20 7.89085 24.6875C10.0784 26.9531 13.1252 28.2031 16.2502 28.2031H16.3284C19.5315 28.2031 22.4221 27.0312 24.6877 24.7656C26.9534 22.5781 28.2034 19.5312 28.2034 16.4062C28.2815 13.2031 27.0315 10.2344 24.7659 7.96873C20.1565 3.28123 12.6565 3.28123 7.96898 7.89061Z" fill="#CFA935"/>
<path fill-rule="evenodd" clip-rule="evenodd" d="M35.9375 40C35.0781 40 34.1406 39.6875 33.3594 38.9062L24.8438 30.2344C21.7969 32.1094 18.2812 32.8906 14.6875 32.5781C11.0156 32.1875 7.42188 30.5469 4.76562 27.8906C1.71875 24.7656 0 20.7031 0 16.3281C0 11.9531 1.71875 7.89062 4.76562 4.76562C7.89062 1.71875 11.9531 0 16.3281 0C20.7031 0 24.7656 1.71875 27.8906 4.76562C30.5469 7.42188 32.1875 11.0156 32.5781 14.7656C32.8906 18.3594 32.0312 21.9531 30.1562 24.9219L38.6719 33.6719C39.5312 34.5312 40 35.4688 40 36.4062C39.9219 37.2656 39.6094 38.125 38.9062 38.75C38.2031 39.5312 37.1094 40 35.9375 40ZM24.9219 28.9844C25.0781 28.9844 25.2344 29.0625 25.3125 29.1406L34.1406 38.125C35.3125 39.375 37.1875 38.9844 38.2031 37.9688C38.5938 37.5781 39.6875 36.1719 37.9688 34.4531L29.0625 25.3906C28.9062 25.2344 28.8281 24.9219 28.9844 24.7656C32.9688 18.75 32.1875 10.7031 27.1094 5.54688C21.1719 -0.390625 11.4844 -0.390625 5.54688 5.54688C-0.390625 11.4844 -0.390625 21.1719 5.54688 27.1094C8.51562 30 12.4219 31.4844 16.3281 31.4844C19.2188 31.4844 22.1094 30.7031 24.6094 29.0625C24.6875 28.9844 24.8438 28.9844 24.9219 28.9844Z" fill="#CFA935"/>
<path fill-rule="evenodd" clip-rule="evenodd" d="M26.0156 20.0781H6.64062C6.32812 20.0781 6.09375 19.8438 6.09375 19.5312C6.09375 19.2188 6.32812 18.9844 6.64062 18.9844H26.0156C26.3281 18.9844 26.5625 19.2188 26.5625 19.5312C26.5625 19.8438 26.3281 20.0781 26.0156 20.0781Z" fill="#CFA935"/>
<path fill-rule="evenodd" clip-rule="evenodd" d="M11.7188 20.0781H8.28125C7.96875 20.0781 7.73438 19.8438 7.73438 19.5312V13.2812C7.73438 12.9688 7.96875 12.7344 8.28125 12.7344H11.7188C12.0312 12.7344 12.2656 12.9688 12.2656 13.2812V19.5312C12.2656 19.8438 12.0312 20.0781 11.7188 20.0781ZM8.82812 18.9844H11.1719V13.8281H8.82812V18.9844Z" fill="#CFA935"/>
<path fill-rule="evenodd" clip-rule="evenodd" d="M18.0469 20.0781H14.6094C14.2969 20.0781 14.0625 19.8438 14.0625 19.5312V9.375C14.0625 9.0625 14.2969 8.82812 14.6094 8.82812H18.0469C18.3594 8.82812 18.5938 9.0625 18.5938 9.375V19.5312C18.5938 19.8438 18.3594 20.0781 18.0469 20.0781ZM15.1562 18.9844H17.5V9.92188H15.1562V18.9844Z" fill="#CFA935"/>
<path fill-rule="evenodd" clip-rule="evenodd" d="M24.375 20.0781H20.9375C20.625 20.0781 20.3906 19.8438 20.3906 19.5312V11.3281C20.3906 11.0156 20.625 10.7812 20.9375 10.7812H24.375C24.6875 10.7812 24.9219 11.0156 24.9219 11.3281V19.5312C24.9219 19.8438 24.6875 20.0781 24.375 20.0781ZM21.4844 18.9844H23.8281V11.875H21.4844V18.9844Z" fill="#CFA935"/>
<path fill-rule="evenodd" clip-rule="evenodd" d="M23.9062 22.3438H8.75C8.4375 22.3438 8.20312 22.1094 8.20312 21.7969C8.20312 21.4844 8.4375 21.25 8.75 21.25H23.9062C24.2188 21.25 24.4531 21.4844 24.4531 21.7969C24.4531 22.1094 24.2188 22.3438 23.9062 22.3438Z" fill="#CFA935"/>
</g>
<defs>
<clipPath id="clip0_1_4481">
<rect width="40" height="40" fill="white"/>
</clipPath>
</defs>
</svg>
