<svg width="40" height="40" viewBox="0 0 40 40" fill="none" xmlns="http://www.w3.org/2000/svg">
<g clip-path="url(#clip0_1_4632)">
<path fill-rule="evenodd" clip-rule="evenodd" d="M16.9531 40C16.9531 40 16.9531 40 16.875 40C16.5625 39.9219 16.4062 39.6875 16.4062 39.375L17.8906 29.9219C17.9688 29.6094 18.2812 29.375 18.5156 29.4531C18.8281 29.5313 19.0625 29.7656 18.9844 30.0781L17.5 39.5313C17.5 39.8438 17.2656 40 16.9531 40Z" fill="#CFA935"/>
<path fill-rule="evenodd" clip-rule="evenodd" d="M22.5 40C22.2656 40 22.0312 39.7656 21.9531 39.5313L20.4688 30.0781C20.4688 29.7656 20.625 29.5313 20.9375 29.4531C21.25 29.375 21.4844 29.6094 21.5625 29.9219L23.0469 39.375C23.125 39.6875 22.8906 39.9219 22.5781 40H22.5Z" fill="#CFA935"/>
<path fill-rule="evenodd" clip-rule="evenodd" d="M24.4531 27.1093H15C14.8438 27.1093 14.6875 27.0311 14.5312 26.8749C14.4531 26.7186 14.4531 26.5624 14.4531 26.4061L15.7031 22.1874C15.7812 21.8749 16.0938 21.7186 16.4062 21.7968C16.6406 21.8749 16.7969 22.1874 16.7188 22.4999L15.7031 26.0155H23.75L22.7344 22.4999C22.6562 22.1874 22.8125 21.8749 23.125 21.7968C23.4375 21.7186 23.6719 21.8749 23.8281 22.1874L25 26.4061C25.0781 26.5624 25 26.7186 24.9219 26.8749C24.8438 27.0311 24.6875 27.1093 24.4531 27.1093Z" fill="#CFA935"/>
<path fill-rule="evenodd" clip-rule="evenodd" d="M21.0938 23.2031H18.4375C16.4844 23.2031 14.9219 22.6562 13.8281 21.4844C12.4219 20.0781 11.7188 17.8906 11.7969 15.1562C11.7969 14.8438 12.0313 14.6094 12.3438 14.6094C12.6563 14.6094 12.8906 14.8438 12.8906 15.1562C12.8125 16.875 13.125 19.2188 14.5313 20.7031C15.4688 21.6406 16.7969 22.1094 18.4375 22.1094H21.0156C22.6563 22.1094 23.9844 21.6406 24.9219 20.7031C26.4063 19.2188 26.6406 16.875 26.6406 15.1562C26.6406 14.8438 26.875 14.6094 27.1094 14.6094H27.1875C27.4219 14.6094 27.7344 14.8438 27.7344 15.1562C27.7344 17.8906 27.0313 20.0781 25.7031 21.4844C24.5313 22.6562 22.9688 23.2031 21.0938 23.2031Z" fill="#CFA935"/>
<path fill-rule="evenodd" clip-rule="evenodd" d="M27.188 15.7031C27.1099 15.7031 26.9536 15.7031 26.8755 15.625C26.7192 15.5468 26.6411 15.3906 26.6411 15.1562C26.6411 14.0625 26.4067 12.2656 25.938 11.4843C24.688 11.7968 23.5161 11.9531 22.5786 11.9531C20.0005 11.9531 18.438 11.0156 17.4224 10.3906C17.188 10.2343 16.8755 9.99997 16.7192 9.99997C15.0005 9.99997 13.7505 11.1718 13.7505 11.25C13.1255 11.875 12.8911 13.9843 12.8911 15.1562C12.8911 15.3906 12.7349 15.5468 12.5786 15.625C12.4224 15.7031 12.188 15.7031 12.0317 15.625C10.2349 14.5312 9.29736 12.6562 9.21923 10.3906C9.06298 7.34372 10.7036 4.1406 13.438 2.18747C15.4692 0.703095 17.7349 -0.0781546 20.0786 -2.96235e-05C22.3442 0.0780954 24.6099 0.93747 26.4849 2.49997C28.9849 4.60935 30.4692 7.65622 30.313 10.5468C30.1567 12.7343 29.1411 14.5312 27.5005 15.625C27.3442 15.7031 27.2661 15.7031 27.188 15.7031ZM19.7661 1.09372C17.813 1.09372 15.8599 1.71872 14.063 3.04685C11.6411 4.84372 10.1567 7.65622 10.313 10.3125C10.313 11.875 10.8599 13.125 11.7974 14.0625C11.9536 12.9687 12.188 11.25 12.9692 10.4687C13.0474 10.3906 14.5317 8.90622 16.7192 8.90622C17.1099 8.90622 17.5005 9.1406 17.9692 9.4531C19.3755 10.2343 21.6411 11.6406 25.938 10.3125C26.1724 10.2343 26.3286 10.3125 26.4849 10.4687C27.2661 11.25 27.5786 12.9687 27.6567 14.0625C28.5942 13.2031 29.1411 11.9531 29.2192 10.5468C29.3755 7.96872 28.0474 5.23435 25.7817 3.35935C23.9849 1.87497 21.8755 1.09372 19.7661 1.09372Z" fill="#CFA935"/>
<path fill-rule="evenodd" clip-rule="evenodd" d="M12.0312 10.0001C11.875 10.0001 11.7188 10.0001 11.6406 9.84384C11.4062 9.68759 11.4062 9.29696 11.6406 9.06259C12.8906 7.81259 14.9219 7.03134 16.7188 7.03134C17.6562 7.03134 18.2812 7.42196 18.9844 7.81259C19.4531 8.12509 19.9219 8.35946 20.3906 8.51571C20.7031 8.67196 20.7812 8.98446 20.7031 9.29696C20.625 9.53134 20.3125 9.68759 20 9.60946C19.375 9.37509 18.9062 9.06259 18.4375 8.75009C17.8125 8.43759 17.3438 8.12509 16.7188 8.12509C15.1562 8.12509 13.4375 8.82821 12.4219 9.84384C12.3438 10.0001 12.1875 10.0001 12.0312 10.0001ZM27.6562 9.06259C27.4219 9.06259 27.1875 8.90634 27.1094 8.59384C26.7188 7.18759 25.8594 5.85946 24.6094 4.84384C21.7969 2.50009 18.125 2.42196 15.2344 4.53134C15 4.76571 14.6094 4.68759 14.4531 4.45321C14.2969 4.21884 14.2969 3.82821 14.5312 3.67196C17.9688 1.17196 22.0312 1.32821 25.3125 3.98446C26.7188 5.15634 27.7344 6.64071 28.2031 8.35946C28.2812 8.59384 28.0469 8.90634 27.8125 8.98446C27.7344 9.06259 27.6562 9.06259 27.6562 9.06259Z" fill="#CFA935"/>
<path fill-rule="evenodd" clip-rule="evenodd" d="M34.2969 40H5.23438C4.92188 40 4.6875 39.7656 4.6875 39.4531V32.9688C4.6875 29.1406 7.8125 26.0156 11.6406 26.0156H27.8125C31.6406 26.0156 34.8438 29.1406 34.8438 32.9688V39.4531C34.8438 39.7656 34.5312 40 34.2969 40ZM5.78125 38.9062H33.75V32.9688C33.75 29.7656 31.0938 27.1094 27.8125 27.1094H11.6406C8.4375 27.1094 5.78125 29.6875 5.78125 32.9688V38.9062Z" fill="#CFA935"/>
<path fill-rule="evenodd" clip-rule="evenodd" d="M24.4531 32.5C24.375 32.5 24.2969 32.5 24.2188 32.5L19.4531 29.7656C19.2969 29.6094 19.2188 29.4531 19.2188 29.2969C19.2188 29.0625 19.2969 28.9062 19.4531 28.75L24.2188 26.0938C24.375 25.9375 24.6094 25.9375 24.7656 26.0938C24.9219 26.1719 25 26.3281 25 26.5625V31.9531C25 32.1875 24.9219 32.3438 24.7656 32.5C24.6875 32.5 24.6094 32.5 24.4531 32.5ZM20.8594 29.2969L23.9062 31.0156V27.5L20.8594 29.2969Z" fill="#CFA935"/>
<path fill-rule="evenodd" clip-rule="evenodd" d="M15 32.5C14.9219 32.5 14.8438 32.5 14.6875 32.5C14.5312 32.3438 14.4531 32.1875 14.4531 31.9531V26.5625C14.4531 26.3281 14.5312 26.1719 14.6875 26.0938C14.9219 25.9375 15.0781 25.9375 15.2344 26.0938L20 28.75C20.1562 28.9062 20.3125 29.0625 20.3125 29.2969C20.3125 29.4531 20.1562 29.6094 20 29.7656L15.2344 32.5C15.1562 32.5 15.0781 32.5 15 32.5ZM15.5469 27.5V31.0156L18.6719 29.2969L15.5469 27.5Z" fill="#CFA935"/>
<path fill-rule="evenodd" clip-rule="evenodd" d="M30 40C29.6875 40 29.4531 39.7656 29.4531 39.4531V34.2188C29.4531 33.9062 29.6875 33.6719 30 33.6719C30.3125 33.6719 30.5469 33.9062 30.5469 34.2188V39.4531C30.5469 39.7656 30.3125 40 30 40Z" fill="#CFA935"/>
<path fill-rule="evenodd" clip-rule="evenodd" d="M9.45312 40C9.21875 40 8.90625 39.7656 8.90625 39.4531V34.2188C8.90625 33.9062 9.21875 33.6719 9.45312 33.6719C9.76562 33.6719 10 33.9062 10 34.2188V39.4531C10 39.7656 9.76562 40 9.45312 40Z" fill="#CFA935"/>
<path fill-rule="evenodd" clip-rule="evenodd" d="M7.10853 20.2344C7.03041 20.2344 6.95228 20.2344 6.87416 20.1562L5.31166 19.5312L3.67103 20.1562C3.51478 20.2344 3.35853 20.2344 3.20228 20.0781C3.04603 20 2.88978 19.8438 2.96791 19.6094L3.12416 17.8906L1.95228 16.5625C1.87416 16.4062 1.79603 16.25 1.87416 16.0938C1.95228 15.8594 2.03041 15.7031 2.26478 15.7031L3.98353 15.3125L4.84291 13.8281C4.92103 13.6719 5.07728 13.5156 5.31166 13.5156C5.46791 13.5156 5.70228 13.6719 5.78041 13.8281L6.63978 15.3125L8.35853 15.7031C8.51478 15.7031 8.67103 15.8594 8.74916 16.0938C8.82728 16.25 8.74916 16.4062 8.67103 16.5625L7.49916 17.8906L7.65541 19.6094C7.65541 19.8438 7.57728 20 7.42103 20.1562C7.34291 20.1562 7.18666 20.2344 7.10853 20.2344ZM5.31166 18.3594C5.38978 18.3594 5.46791 18.3594 5.46791 18.4375L6.48353 18.8281L6.40541 17.7344C6.32728 17.5781 6.40541 17.5 6.48353 17.3438L7.18666 16.5625L6.17103 16.3281C6.01478 16.3281 5.93666 16.1719 5.85853 16.0938L5.31166 15.1562L4.76478 16.0938C4.68666 16.1719 4.53041 16.3281 4.37416 16.3281L3.35853 16.5625L4.06166 17.3438C4.13978 17.5 4.21791 17.5781 4.21791 17.7344L4.13978 18.8281L5.07728 18.4375C5.15541 18.3594 5.23353 18.3594 5.31166 18.3594Z" fill="#CFA935"/>
<path fill-rule="evenodd" clip-rule="evenodd" d="M32.8898 24.9219C32.7335 24.9219 32.6554 24.9219 32.5773 24.8438C32.421 24.7656 32.3429 24.5312 32.3429 24.375L32.4992 22.6562L31.3273 21.3281C31.2492 21.1719 31.171 20.9375 31.2492 20.7812C31.3273 20.625 31.4835 20.4688 31.6398 20.3906L33.3585 20L34.2179 18.5156C34.296 18.3594 34.5304 18.2812 34.6867 18.2812C34.921 18.2812 35.0773 18.3594 35.1554 18.5156L36.0148 20L37.7335 20.3906C37.9679 20.4688 38.046 20.625 38.1242 20.7812C38.2023 20.9375 38.1242 21.1719 38.046 21.3281L36.8742 22.6562L37.0304 24.375C37.0304 24.5312 36.9523 24.6875 36.796 24.8438C36.6398 24.9219 36.4835 25 36.3273 24.9219L34.6867 24.2188L33.1242 24.9219C33.046 24.9219 32.9679 24.9219 32.8898 24.9219ZM32.8117 21.25L33.4367 22.1094C33.5929 22.1875 33.5929 22.3438 33.5929 22.5L33.5148 23.5156L34.4523 23.125C34.6085 23.0469 34.7648 23.0469 34.921 23.125L35.8585 23.5156L35.7804 22.5C35.7804 22.3438 35.7804 22.1875 35.9367 22.0312L36.6398 21.25L35.546 21.0156C35.4679 21.0156 35.3117 20.9375 35.2335 20.7812L34.6867 19.9219L34.1398 20.7812C34.0617 20.9375 33.9835 21.0156 33.8273 21.0156L32.8117 21.25Z" fill="#CFA935"/>
</g>
<defs>
<clipPath id="clip0_1_4632">
<rect width="40" height="40" fill="white"/>
</clipPath>
</defs>
</svg>
