<svg width="70" height="70" viewBox="0 0 70 70" fill="none" xmlns="http://www.w3.org/2000/svg">
<g clip-path="url(#clip0_4_566)">
<path fill-rule="evenodd" clip-rule="evenodd" d="M45.0022 23.7367C44.7277 23.7367 44.437 23.6237 44.2109 23.333C41.9341 20.5556 38.5754 18.9086 34.9906 18.9086C31.422 18.9086 28.0633 20.491 25.8349 23.333C25.4958 23.8013 24.8661 23.8497 24.4139 23.5106C23.9618 23.1715 23.9134 22.5418 24.2525 22.0896C26.8684 18.7955 30.7922 16.9062 34.9906 16.9062C39.2052 16.9062 43.129 18.7955 45.745 22.0896C46.0841 22.5418 46.0356 23.1715 45.5835 23.5106C45.4059 23.6237 45.2444 23.7367 45.0022 23.7367Z" fill="#CFA935"/>
<path fill-rule="evenodd" clip-rule="evenodd" d="M66.3977 64.5743C66.1071 64.5743 65.8325 64.4613 65.6065 64.1868C63.4911 61.5709 60.4231 60.0853 57.0644 60.0853C53.7703 60.0853 50.7022 61.5709 48.5869 64.1868C48.2478 64.6389 47.618 64.6874 47.1659 64.3483C46.7137 64.0092 46.6653 63.3794 47.0044 62.9273C49.4427 59.8592 53.1405 58.0991 57.0159 58.0991C60.9398 58.0991 64.6376 59.8592 67.0759 62.9273C67.415 63.3794 67.3666 64.0092 66.9144 64.3483C66.8498 64.5259 66.6238 64.5743 66.3977 64.5743Z" fill="#CFA935"/>
<path fill-rule="evenodd" clip-rule="evenodd" d="M3.64866 64.5743C3.42259 64.5743 3.19652 64.5259 3.03505 64.3483C2.58291 64.0092 2.51832 63.3794 2.85742 62.9273C5.31186 59.8592 9.00967 58.0991 12.9335 58.0991C16.8574 58.0991 20.4906 59.8592 22.9451 62.9273C23.2842 63.3794 23.2196 64.0092 22.7675 64.3483C22.3153 64.6874 21.6856 64.6389 21.3465 64.1868C19.2473 61.5709 16.1631 60.0853 12.869 60.0853C9.57484 60.0853 6.4422 61.5709 4.34301 64.1868C4.22997 64.4613 3.93931 64.5743 3.64866 64.5743Z" fill="#CFA935"/>
<path fill-rule="evenodd" clip-rule="evenodd" d="M12.9333 57.1789C10.0913 57.1789 7.81445 54.9021 7.81445 52.1247C7.81445 49.2827 10.0913 47.0059 12.9333 47.0059C15.7106 47.0059 17.9875 49.2827 17.9875 52.1247C18.0521 54.9021 15.7106 57.1789 12.9333 57.1789ZM12.9333 48.9436C11.2216 48.9436 9.80061 50.3646 9.80061 52.0601C9.80061 53.7717 11.2216 55.1281 12.9333 55.1281C14.6288 55.1281 16.0013 53.7717 16.0013 52.0601C16.0497 50.3646 14.6288 48.9436 12.9333 48.9436Z" fill="#CFA935"/>
<path fill-rule="evenodd" clip-rule="evenodd" d="M34.9922 28.565C27.4351 28.565 21.2344 22.3643 21.2344 14.7426C21.2344 7.18556 27.4351 0.984863 34.9922 0.984863C42.5654 0.984863 48.7661 7.18556 48.7661 14.7426C48.7661 22.3643 42.6138 28.565 34.9922 28.565ZM34.9922 2.97102C28.517 2.97102 23.2205 8.26745 23.2205 14.7426C23.2205 21.2986 28.517 26.5789 34.9922 26.5789C41.4835 26.5789 46.7799 21.2986 46.7799 14.7426C46.7799 8.26745 41.4835 2.97102 34.9922 2.97102Z" fill="#CFA935"/>
<path fill-rule="evenodd" clip-rule="evenodd" d="M34.991 15.7115C31.9875 15.7115 29.5977 13.2732 29.5977 10.3181C29.5977 7.34698 32.0359 4.90869 34.991 4.90869C38.0106 4.90869 40.465 7.34698 40.465 10.3181C40.465 13.2732 38.0106 15.7115 34.991 15.7115ZM34.991 6.89485C33.1178 6.89485 31.5838 8.49347 31.5838 10.3181C31.5838 12.1913 33.1178 13.7253 34.991 13.7253C36.9287 13.7253 38.4627 12.1913 38.4627 10.3181C38.4627 8.42888 36.9287 6.89485 34.991 6.89485Z" fill="#CFA935"/>
<path fill-rule="evenodd" clip-rule="evenodd" d="M34.9925 47.3931C32.3765 47.3931 30.2773 45.2939 30.2773 42.678C30.2773 40.0621 32.3765 37.9629 34.9925 37.9629C37.6245 37.9629 39.7237 40.0621 39.7237 42.678C39.7237 45.2939 37.673 47.3931 34.9925 47.3931ZM34.9925 39.949C33.523 39.949 32.2635 41.1924 32.2635 42.678C32.2635 44.1636 33.523 45.407 34.9925 45.407C36.5426 45.407 37.7376 44.212 37.7376 42.678C37.7376 41.144 36.5426 39.949 34.9925 39.949Z" fill="#CFA935"/>
<path fill-rule="evenodd" clip-rule="evenodd" d="M34.9919 39.949C34.4267 39.949 33.9746 39.4968 33.9746 38.9317V27.5476C33.9746 26.9824 34.4267 26.5303 34.9919 26.5303C35.5732 26.5303 36.0254 26.9824 36.0254 27.5476V38.9317C36.0254 39.4968 35.5732 39.949 34.9919 39.949Z" fill="#CFA935"/>
<path fill-rule="evenodd" clip-rule="evenodd" d="M47.1675 50.7031C47.006 50.7031 46.8284 50.6385 46.6669 50.59L37.7373 45.4067C37.269 45.116 37.1075 44.5024 37.382 44.0503C37.6727 43.582 38.3024 43.4205 38.7546 43.695L47.6842 48.8784C48.1363 49.1691 48.314 49.7827 48.0233 50.2509C47.8618 50.5255 47.5066 50.7031 47.1675 50.7031Z" fill="#CFA935"/>
<path fill-rule="evenodd" clip-rule="evenodd" d="M22.881 50.7031C22.5419 50.7031 22.2028 50.5255 22.0252 50.1864C21.7507 49.7343 21.9122 49.1045 22.3643 48.8139L31.2939 43.6466C31.7622 43.356 32.3758 43.5336 32.6665 43.9857C32.9571 44.4379 32.7795 45.0676 32.3274 45.3583L23.3977 50.5901C23.2201 50.6385 23.0586 50.7031 22.881 50.7031Z" fill="#CFA935"/>
<path fill-rule="evenodd" clip-rule="evenodd" d="M57.1309 69.0147C50.0098 69.0147 44.2773 63.2177 44.2773 56.1611C44.2773 49.1046 50.0098 43.3076 57.1309 43.3076C64.2358 43.3076 69.9844 49.1046 69.9844 56.1611C69.9844 63.2177 64.2358 69.0147 57.1309 69.0147ZM57.1309 45.2938C51.1562 45.2938 46.2635 50.1865 46.2635 56.1611C46.2635 62.1358 51.1562 67.0285 57.1309 67.0285C63.1055 67.0285 67.9982 62.1358 67.9982 56.1611C67.9982 50.1865 63.1055 45.2938 57.1309 45.2938Z" fill="#CFA935"/>
<path fill-rule="evenodd" clip-rule="evenodd" d="M57.129 57.1789C54.3354 57.1789 52.0586 54.9021 52.0586 52.1247C52.0586 49.2827 54.3354 47.0059 57.129 47.0059C59.9709 47.0059 62.2478 49.2827 62.2478 52.1247C62.2478 54.9021 59.9709 57.1789 57.129 57.1789ZM57.129 48.9436C55.4173 48.9436 54.0609 50.3646 54.0609 52.0601C54.0609 53.7717 55.4173 55.1281 57.129 55.1281C58.8245 55.1281 60.2616 53.7717 60.2616 52.0601C60.2616 50.3646 58.8245 48.9436 57.129 48.9436Z" fill="#CFA935"/>
<path fill-rule="evenodd" clip-rule="evenodd" d="M12.9337 69.0147C5.81263 69.0147 0.015625 63.2177 0.015625 56.1611C0.015625 49.1046 5.81263 43.3076 12.9337 43.3076C20.0387 43.3076 25.7873 49.1046 25.7873 56.1611C25.7873 63.2177 20.0387 69.0147 12.9337 69.0147ZM12.9337 45.2938C6.89452 45.2938 2.00178 50.1865 2.00178 56.1611C2.00178 62.1358 6.89452 67.0285 12.9337 67.0285C18.9084 67.0285 23.7849 62.1358 23.7849 56.1611C23.7849 50.1865 18.9084 45.2938 12.9337 45.2938Z" fill="#CFA935"/>
</g>
<defs>
<clipPath id="clip0_4_566">
<rect width="70" height="70" fill="white"/>
</clipPath>
</defs>
</svg>
