<svg width="52" height="50" viewBox="0 0 52 50" fill="none" xmlns="http://www.w3.org/2000/svg">
<path fill-rule="evenodd" clip-rule="evenodd" d="M10.6999 49.6955C10.4739 49.6955 10.2962 49.6309 10.1348 49.5179C9.79566 49.2918 9.61804 48.8397 9.79566 48.3875L15.4796 31.045L0.688394 20.3391C0.349294 20.113 0.17167 19.6609 0.349294 19.2088C0.462327 18.8051 0.84987 18.5306 1.31815 18.5306L19.565 18.579L25.039 1.17185C25.1521 0.78431 25.5396 0.493652 25.9917 0.493652C26.46 0.493652 26.7991 0.78431 26.9606 1.17185L32.5961 18.5306L50.8591 18.466C51.3112 18.466 51.6503 18.7566 51.828 19.1442C51.941 19.5479 51.828 20 51.4889 20.2907L36.6976 30.9804L42.3816 48.3229C42.4946 48.7266 42.3816 49.1788 42.0425 49.4694C41.7034 49.6955 41.2513 49.6955 40.8476 49.4694L26.0563 38.7151L11.2651 49.5179C11.1036 49.6309 10.8614 49.6955 10.6999 49.6955ZM25.9917 36.5513C26.234 36.5513 26.3954 36.6159 26.5731 36.7289L39.475 46.1107L34.5338 30.9804C34.4208 30.5767 34.5338 30.1246 34.8729 29.8501L47.791 20.5167L31.8533 20.5652C31.4012 20.5652 31.0621 20.2907 30.8845 19.887L25.9917 4.75663L21.1152 19.887C20.986 20.2907 20.5984 20.5652 20.1463 20.5652L4.20858 20.5167L17.1267 29.8501C17.4658 30.0761 17.6434 30.5283 17.4658 30.9804L12.5246 46.1107L25.3135 36.7289C25.6042 36.6159 25.7657 36.5513 25.9917 36.5513Z" fill="#CFA935"/>
</svg>
